<svg width="15" height="15" version="1.1" viewBox="0 0 4.2333334 4.2333334" xmlns="http://www.w3.org/2000/svg">
 <path d="m2.1167 0.28222a1.8344 1.8344 0 0 0 -1.8344 1.8344 1.8344 1.8344 0 0 0 1.8344 1.8344 1.8344 1.8344 0 0 0 1.8344 -1.8344 1.8344 1.8344 0 0 0 -1.8344 -1.8344zm0 0.28222a1.5522 1.5522 0 0 1 1.5522 1.5522 1.5522 1.5522 0 0 1 -1.5522 1.5522 1.5522 1.5522 0 0 1 -1.5522 -1.5522 1.5522 1.5522 0 0 1 1.5522 -1.5522z" style="fill:#477fbb"/>
 <circle cx="2.1167" cy="2.1167" r="1.27" style="fill:#8cc63e;stroke-width:.10976"/>
 <path d="m1.1289 1.4111v1.4111h0.14111v-0.42333h0.28222v0.42333h0.14111v-1.4111zm0.84667 0v1.4111h0.28222v-1.4111zm0.56444 0v0.42333h0.14111v-0.42333zm0.14111 0.42333v0.56444h0.28222v-0.56444h-0.14111zm0.28222 0h0.14111v-0.42333h-0.14111zm0 0.56444-1e-7 0.42333h0.14111v-0.42333zm-0.28222 0h-0.14111v0.42333h0.14111zm-1.4111-0.70556h0.28222v0.42333h-0.28222z" style="fill:#f9f9f9"/>
</svg>
