<svg width="15" height="15" version="1.1" viewBox="0 0 4.2333334 4.2333334" xmlns="http://www.w3.org/2000/svg">
 <g transform="matrix(.28222 0 0 .28222 -169.17 -129.07)">
  <path d="m604.65 457.34c0.10149-9e-3 0.20571 0.0428 0.26074 0.14176l1.0107 1.8185v0.5387h-0.29492l-1.1689-2.104c-0.0734-0.13203-0.0319-0.2947 0.0937-0.36467 0.0314-0.0175 0.0648-0.0272 0.0986-0.0303z" style="fill:#a4c639"/>
  <path d="m606.92 457.84a3.5 3.5 0 0 0 -3.5 3.5h7a3.5 3.5 0 0 0 -3.5 -3.5z" style="fill:#a4c639"/>
  <path d="m609.19 457.34c-0.10149-9e-3 -0.20571 0.0428-0.26075 0.14176l-1.0107 1.8185v0.5387h0.29492l1.169-2.104c0.0734-0.13203 0.0318-0.2947-0.0937-0.36467-0.0314-0.0175-0.0648-0.0272-0.0986-0.0303z" style="fill:#a4c639"/>
  <path d="m603.42 462.34v4c0 0.45186 0.4902 1 1 1h5c0.5098 0 0.991-0.54823 1-1v-4z" style="fill:#a4c639"/>
  <path d="m604.42 466.34v3c0 0.48325 0.44772 1 1 1s1-0.51675 1-1v-3z" style="fill:#a4c639"/>
  <path d="m607.42 466.34v3c0 0.48325 0.51675 1 1 1s1-0.51675 1-1v-3z" style="fill:#a4c639"/>
  <path d="m601.42 462.34c-0.55228 0-1 0.51269-1 1v2c0 0.48731 0.44771 1 1 1s1-0.51269 1-1v-2c0-0.48731-0.44772-1-1-1z" style="fill:#a4c639"/>
  <path d="m612.42 462.34c-0.55228 0-1 0.51269-1 1v2c0 0.48731 0.44771 1 1 1s1-0.51269 1-1v-2c0-0.48731-0.44772-1-1-1z" style="fill:#a4c639"/>
  <path d="m607.92 459.34a0.5 0.5 0 0 0 -0.5 0.5 0.5 0.5 0 0 0 0.5 0.5 0.5 0.5 0 0 0 0.5 -0.5 0.5 0.5 0 0 0 -0.5 -0.5z" style="fill:#f9f9f9"/>
  <ellipse cx="605.92" cy="459.84" rx=".5" ry=".5" style="fill:#f9f9f9"/>
  <rect x="606.92" y="460.93" width=".12501" height="6.8373e-6" rx=".25948" ry="6.8373e-6" style="fill:#477fbb"/>
 </g>
</svg>
