<svg width="15" height="15" version="1.1" viewBox="0 0 4.2333334 4.2333334" xmlns="http://www.w3.org/2000/svg">
 <g transform="matrix(.92857 0 0 .92857 .28222 -.26206)">
  <path d="m1.9756 0.28222c-1.0534 0-3.8625 3.9511 0 3.9511s1.0534-3.9511 0-3.9511zm0 0.16463c0.96562 0 3.5406 3.6219 0 3.6219s-0.96563-3.6219 0-3.6219z" style="fill-rule:evenodd;fill:#305998"/>
  <path d="m1.9756 1.27c-0.37479 0.37374-0.74663 0.47634-1.1487 0.63215a1.3168 1.2347 0 0 0 -0.16802 0.60257 1.3168 1.2347 0 0 0 0.033091 0.26817c0.64736-0.1892 1.1554-0.83622 1.4784-1.4878a1.3168 1.2347 0 0 0 -0.19477 -0.01511z" style="fill-rule:evenodd;fill:#305998"/>
  <path d="m2.3037 1.3105c-0.029233 0.97268-0.77186 1.8987-1.0567 2.2219a1.3168 1.2347 0 0 0 0.36039 0.15691l0.17385 0.03521a1.3168 1.2347 0 0 0 0.19426 0.01495 1.3168 1.2347 0 0 0 0.2817 -0.03022c0.22646-0.5419 0.41957-1.5119 0.13768-2.3738a1.3168 1.2347 0 0 0 -0.091213 -0.02492z" style="fill-rule:evenodd;fill:#305998"/>
  <path d="m2.6929 1.4706c0.27002 0.65014 0.34142 1.2762 0.29541 1.8225a1.3168 1.2347 0 0 0 0.30399 -0.78842 1.3168 1.2347 0 0 0 -0.5994 -1.0341z" style="fill-rule:evenodd;fill:#305998"/>
 </g>
 <path transform="scale(.28222)" d="m7.5 0c-3.4659 0-12.708 13 0 13s3.4659-13 0-13zm0 1c2.9327 0 10.753 11 0 11s-2.9327-11 0-11z" style="fill-rule:evenodd;fill:#305998"/>
 <path d="m2.1167 0.91722c-0.34802 0.34704-0.6933 0.44232-1.0667 0.587a1.2227 1.1465 0 0 0 -0.15602 0.55953 1.2227 1.1465 0 0 0 0.030727 0.24901c0.60112-0.17569 1.0729-0.77649 1.3728-1.3815a1.2227 1.1465 0 0 0 -0.18086 -0.014031z" style="fill-rule:evenodd;fill:#305998"/>
 <path d="m2.4214 0.95484c-0.027145 0.90321-0.71672 1.7631-0.98119 2.0632a1.2227 1.1465 0 0 0 0.33465 0.1457l0.16144 0.032695a1.2227 1.1465 0 0 0 0.18038 0.013882 1.2227 1.1465 0 0 0 0.26158 -0.028062c0.21029-0.50319 0.3896-1.4039 0.12784-2.2042a1.2227 1.1465 0 0 0 -0.084698 -0.02314z" style="fill-rule:evenodd;fill:#305998"/>
 <path d="m2.7828 1.1035c0.25073 0.6037 0.31703 1.1851 0.27431 1.6923a1.2227 1.1465 0 0 0 0.28227 -0.73211 1.2227 1.1465 0 0 0 -0.55659 -0.96022z" style="fill-rule:evenodd;fill:#305998"/>
</svg>
