<svg width="15" height="15" version="1.1" viewBox="0 0 4.2333334 4.2333334" xmlns="http://www.w3.org/2000/svg" xmlns:xlink="http://www.w3.org/1999/xlink">
 <path d="m2.1167 4.2667e-6c-0.4588 1.2211-1.0705 2.2514-1.8344 3.6626v0.00631c0.58339-0.32001 1.0335-0.51751 1.4522-0.59311a0.3421 0.42068 0 0 1 0.34126 -0.39872 0.3421 0.42068 0 0 1 0.34052 0.38498c0.44241 0.063347 0.91295 0.26568 1.5349 0.60682v-0.00631c-0.53289-0.98428-0.987-1.783-1.3715-2.5907-0.011615 0.093208-0.021506 0.18576-0.04206 0.28264-0.030146 0.14211-0.068394 0.28614-0.11031 0.42576-0.083837 0.27924-0.18228 0.54111-0.25999 0.73619l-0.25295 0.019723c0.044243-0.11633 0.083365-0.2253 0.11555-0.33314 0.032185-0.10784 0.057493-0.2145 0.07439-0.32597 0.016896-0.11146 0.025273-0.22774 0.023649-0.35495-0.00162-0.1272-0.013296-0.26532-0.036671-0.42038l0.43481-0.13849c-0.14697-0.31463-0.28489-0.63196-0.40937-0.96326z" style="fill-rule:evenodd;fill:#64afcf"/>
</svg>
