<svg width="15" height="15" version="1.1" viewBox="0 0 4.2333334 4.2333334" xmlns="http://www.w3.org/2000/svg" xmlns:xlink="http://www.w3.org/1999/xlink">
 <path d="m2.1164 9.5367e-6c-0.16333 0.40037-0.26186 0.66225-0.44371 1.0507 0.1115 0.11816 0.24836 0.25577 0.47062 0.41118-0.23895-0.098305-0.40195-0.197-0.52375-0.29942-0.23274 0.48553-0.59738 1.1772-1.3373 2.5064 0.58159-0.33568 1.0324-0.54263 1.4526-0.6216-0.018038-0.077582-0.028275-0.1615-0.027625-0.24905l5.417e-4 -0.018627c0.00921-0.37252 0.20306-0.65899 0.43267-0.63954 0.22961 0.019454 0.40807 0.33739 0.39885 0.7099-0.00163 0.070098-0.00964 0.13753-0.023454 0.20007 0.41559 0.081278 0.86161 0.2877 1.4353 0.61884-0.11313-0.20822-0.2141-0.39592-0.31053-0.57469-0.15189-0.11769-0.31032-0.27088-0.63348-0.4367 0.22213 0.057702 0.38116 0.12428 0.50513 0.19869-0.98042-1.8249-1.0598-2.0674-1.396-2.8562z" style="fill-rule:evenodd;fill:#1793d0;stroke-width:.92857"/>
</svg>
