<svg width="15" height="15" version="1.1" viewBox="0 0 15.000001 14.999999" xmlns="http://www.w3.org/2000/svg">
 <g transform="translate(-1425 -494.02)">
  <path d="m1432.5 494.02a6.5 6.5 0 0 0 -4.4778 1.7991l0.6964 0.61663a5.5714 5.5714 0 0 1 3.7814 -1.4872 5.5714 5.5714 0 0 1 5.5714 5.5714 5.5714 5.5714 0 0 1 -1.0718 3.2772l0.6946 0.61845a6.5 6.5 0 0 0 1.3058 -3.8956 6.5 6.5 0 0 0 -6.5 -6.5zm-5.3919 2.88a6.5 6.5 0 0 0 -1.1081 3.62 6.5 6.5 0 0 0 6.5 6.5 6.5 6.5 0 0 0 4.0389 -1.4146l-0.691-0.63839a5.5714 5.5714 0 0 1 -3.3479 1.1244 5.5714 5.5714 0 0 1 -5.5714 -5.5714 5.5714 5.5714 0 0 1 0.8723 -2.9816z" style="fill:#f60"/>
  <path id="TheLeaf" d="m1430.3 503.15c-0.35-0.18685-0.581-0.43327-0.5745-0.61291 0-0.0495-0.069-0.1413-0.1579-0.20405-0.095-0.0674-0.2188-0.26576-0.3022-0.48502-0.077-0.20402-0.1992-0.43756-0.2702-0.51901-0.087-0.10029-0.1392-0.29635-0.1603-0.60768-0.021-0.31255-0.063-0.47343-0.133-0.50276-0.107-0.0453-0.2774-0.54044-0.3064-0.89035-0.01-0.11311-0.08-0.37876-0.1564-0.59036-0.1411-0.38955-0.1423-0.68621 0-1.0117 0.1238-0.29119-0.3106-1.0116-0.7124-1.1817-0.043-0.018-0.1016-0.10256-0.1313-0.18787-0.03-0.0853-0.078-0.16545-0.108-0.17802-0.05-0.0212-0.3366-0.42947-0.8408-1.1978-0.1846-0.28116-0.2571-0.54504-0.192-0.69759 0.037-0.0863 0.1746 2e-3 0.2153 0.13745 0.1299 0.43175 0.8333 1.3578 1.4416 1.8974 0.5152 0.45717 0.6724 0.51019 1.1255 0.37954 0.5112-0.14747 1.5249-0.12505 1.9205 0.0424 0.1162 0.0491 0.2663 0.0708 0.3336 0.0481 0.1715-0.0577 0.3708 0.0144 0.6998 0.25353 0.2192 0.15915 0.3177 0.20273 0.4349 0.19227 0.084-7e-3 0.312 0.0606 0.5081 0.15121 0.2355 0.10876 0.3994 0.15202 0.4824 0.12729 0.2166-0.0645 0.7338 0.19203 0.7829 0.3884 0.023 0.0922 0.1168 0.20895 0.2121 0.26431 0.5878 0.34122 0.7373 0.48726 0.8381 0.8183 0.055 0.17973 0.1745 0.42351 0.2659 0.54174 0.094 0.12096 0.1546 0.27323 0.1393 0.34816-0.1964 0.96017-0.3526 1.2535-0.7777 1.4595-0.1751 0.0849-0.4507 0.70795-0.395 0.89317 0.032 0.10641 0.8374 1.0634 1.172 1.3925 0.192 0.18895 0.3736 0.37782 0.4478 0.46587 0.042 0.05 0.1048 0.10274 0.1392 0.11732 0.034 0.0146 0.1271 0.0958 0.2062 0.18048 0.167 0.17918 1.82 1.643 2.0075 1.778 0.1604 0.11535 0.3429 0.49125 0.265 0.54601-0.1094 0.0771-0.5687-0.17006-0.8049-0.43322-0.1262-0.14058-0.4899-0.48551-0.8084-0.76653-0.5356-0.47264-1.107-1.0236-1.5528-1.4973-0.2739-0.29102-0.6978-0.68596-1.2153-1.1321-0.3028-0.26112-0.6346-0.29082-0.9136-0.0818-0.686 0.51388-1.4619 0.8521-1.712 0.74623-0.042-0.0179-0.1568-7e-3 -0.2545 0.0246-0.1886 0.0607-0.4111-0.0195-1.154-0.41625z" style="fill:#5a860a;stroke-width:.92857"/>
 </g>
</svg>
