<?xml version="1.0" encoding="UTF-8" standalone="no"?>
<!-- Created with Inkscape (http://www.inkscape.org/) -->

<svg
   xmlns:dc="http://purl.org/dc/elements/1.1/"
   xmlns:cc="http://creativecommons.org/ns#"
   xmlns:rdf="http://www.w3.org/1999/02/22-rdf-syntax-ns#"
   xmlns:svg="http://www.w3.org/2000/svg"
   xmlns="http://www.w3.org/2000/svg"
   xmlns:sodipodi="http://sodipodi.sourceforge.net/DTD/sodipodi-0.dtd"
   xmlns:inkscape="http://www.inkscape.org/namespaces/inkscape"
   width="14"
   height="14"
   viewBox="0 0 14.000001 13.999999"
   id="svg2"
   version="1.1"
   inkscape:version="0.91 r13725"
   sodipodi:docname="bodhi.svg"
   inkscape:export-filename="/home/josh/Code/unixporn/resources/Flairs/bodhi.png"
   inkscape:export-xdpi="90"
   inkscape:export-ydpi="90">
  <metadata
     id="metadata9">
    <rdf:RDF>
      <cc:Work
         rdf:about="">
        <dc:format>image/svg+xml</dc:format>
        <dc:type
           rdf:resource="http://purl.org/dc/dcmitype/StillImage" />
        <dc:title />
      </cc:Work>
    </rdf:RDF>
  </metadata>
  <defs
     id="defs4" />
  <sodipodi:namedview
     id="base"
     pagecolor="#ffffff"
     bordercolor="#666666"
     borderopacity="1.0"
     inkscape:pageopacity="0.0"
     inkscape:pageshadow="2"
     inkscape:zoom="5.6568542"
     inkscape:cx="-4.7278937"
     inkscape:cy="25.358571"
     inkscape:document-units="px"
     inkscape:current-layer="layer1"
     showgrid="true"
     fit-margin-top="0"
     fit-margin-left="0"
     fit-margin-right="0"
     fit-margin-bottom="0"
     inkscape:window-width="1580"
     inkscape:window-height="840"
     inkscape:window-x="10"
     inkscape:window-y="50"
     inkscape:window-maximized="0"
     units="px">
    <inkscape:grid
       type="xygrid"
       id="grid3380" />
  </sodipodi:namedview>
  <g
     inkscape:label="Livello 1"
     inkscape:groupmode="layer"
     id="layer1"
     transform="translate(-1425.0102,-495.02485)">
    <path
       style="opacity:1;fill:#ff6600;fill-opacity:1;stroke:none"
       d="M 7 0 A 6.9999997 6.9999997 0 0 0 2.1777344 1.9375 L 2.9277344 2.6015625 A 5.9999997 5.9999997 0 0 1 7 1 A 5.9999997 5.9999997 0 0 1 13 7 A 5.9999997 5.9999997 0 0 1 11.845703 10.529297 L 12.59375 11.195312 A 6.9999997 6.9999997 0 0 0 14 7 A 6.9999997 6.9999997 0 0 0 7 0 z M 1.1933594 3.1015625 A 6.9999997 6.9999997 0 0 0 0 7 A 6.9999997 6.9999997 0 0 0 7 14 A 6.9999997 6.9999997 0 0 0 11.349609 12.476562 L 10.605469 11.789062 A 5.9999997 5.9999997 0 0 1 7 13 A 5.9999997 5.9999997 0 0 1 1 7 A 5.9999997 5.9999997 0 0 1 1.9394531 3.7890625 L 1.1933594 3.1015625 z "
       transform="translate(1425.0102,495.02485)"
       id="path3375" />
    <path
       style="fill:#5a860a;fill-opacity:1"
       d="m 1429.6286,504.85665 c -0.3769,-0.20122 -0.6257,-0.4666 -0.6187,-0.66006 0,-0.0533 -0.074,-0.15216 -0.1701,-0.21974 -0.1025,-0.0726 -0.2356,-0.28621 -0.3254,-0.52233 -0.083,-0.21971 -0.2145,-0.47122 -0.291,-0.55893 -0.094,-0.10801 -0.1499,-0.31915 -0.1726,-0.65443 -0.023,-0.33659 -0.068,-0.50985 -0.1432,-0.54143 -0.1153,-0.0488 -0.2988,-0.58202 -0.33,-0.95884 -0.01,-0.12181 -0.086,-0.4079 -0.1684,-0.63577 -0.152,-0.41952 -0.1533,-0.739 0,-1.0895 0.1333,-0.31358 -0.3345,-1.0894 -0.7672,-1.27258 -0.046,-0.0194 -0.1095,-0.11045 -0.1415,-0.20233 -0.032,-0.0919 -0.084,-0.17817 -0.1163,-0.19171 -0.054,-0.0228 -0.3625,-0.46251 -0.9054,-1.28998 -0.1988,-0.30279 -0.2769,-0.58697 -0.2068,-0.75125 0.04,-0.0929 0.188,0.002 0.2319,0.14802 0.1398,0.46496 0.8974,1.4623 1.5524,2.0434 0.5549,0.49234 0.7242,0.54943 1.2121,0.40873 0.5505,-0.15881 1.6422,-0.13467 2.0683,0.0457 0.1251,0.0529 0.2867,0.0762 0.3592,0.0518 0.1847,-0.0622 0.3993,0.0155 0.7537,0.27303 0.236,0.17139 0.3421,0.21832 0.4683,0.20706 0.09,-0.008 0.336,0.0653 0.5472,0.16284 0.2536,0.11713 0.4301,0.16371 0.5195,0.13708 0.2333,-0.0695 0.7902,0.2068 0.8431,0.41828 0.025,0.0993 0.1258,0.22502 0.2284,0.28464 0.6331,0.36747 0.7941,0.52474 0.9026,0.88125 0.059,0.19355 0.1879,0.45609 0.2864,0.58341 0.1008,0.13026 0.1664,0.29425 0.15,0.37494 -0.2115,1.03403 -0.3798,1.34993 -0.8375,1.57181 -0.1886,0.0914 -0.4854,0.76241 -0.4254,0.96188 0.034,0.11459 0.9018,1.14522 1.2621,1.49964 0.2068,0.20348 0.4024,0.40688 0.4823,0.5017 0.045,0.0538 0.1128,0.11065 0.1499,0.12635 0.037,0.0157 0.1369,0.10315 0.222,0.19436 0.1799,0.19296 1.96,1.76944 2.162,1.91482 0.1727,0.12423 0.3692,0.52904 0.2854,0.58801 -0.1179,0.083 -0.6125,-0.18314 -0.8669,-0.46654 -0.1359,-0.1514 -0.5276,-0.52286 -0.8705,-0.82549 -0.5769,-0.509 -1.1922,-1.10236 -1.6723,-1.61244 -0.295,-0.31341 -0.7515,-0.73872 -1.3088,-1.21919 -0.3261,-0.28121 -0.6834,-0.31319 -0.9839,-0.0881 -0.7387,0.55341 -1.5743,0.91765 -1.8436,0.80364 -0.045,-0.0193 -0.1689,-0.007 -0.2741,0.0265 -0.2031,0.0654 -0.4427,-0.021 -1.2428,-0.44827 z"
       id="TheLeaf"
       inkscape:connector-curvature="0" />
  </g>
</svg>
