<svg width="15" height="15" version="1.1" viewBox="0 0 4.2333334 4.2333334" xmlns="http://www.w3.org/2000/svg" xmlns:xlink="http://www.w3.org/1999/xlink">
 <path d="m0.22637 1.8439 0.86431-0.83961 0.86431 0.83961-0.86431 0.83961z" style="fill:none"/>
 <path d="m1.2759 0.82432 0.86431-0.83961 0.86431 0.83961-0.86431 0.83961z" style="fill:none"/>
 <path d="m2.3254 1.8438 0.86431-0.83962 0.86431 0.83962-0.86431 0.83961z" style="fill:none"/>
 <path d="m1.2759 2.8634 0.86431-0.83961 0.86431 0.83961-0.86431 0.83961z" style="fill:none"/>
 <path d="m2.3254 1.8438 0.86431-0.83962 0.86431 0.83962-0.86431 0.83961z" style="fill:none"/>
 <path d="m2.3254 1.8438 0.86431-0.83962 0.86431 0.83962-0.86431 0.83961z" style="fill:none"/>
 <path d="m2.3254 1.8438 0.86431-0.83962 0.86431 0.83962-0.86431 0.83961z" style="fill:none"/>
 <path transform="scale(.28222)" d="m3 3v1.5l0.5-0.5 2 2h0.5v-0.5l-2-2 0.5-0.5zm1.5 0.5 1.5 1.5v-2h-1zm-1 1l-0.5 0.5v1h2z" style="fill:#9ccd2a"/>
 <path transform="scale(.28222)" d="m7.5 1-1.5 1h1l-1e-7 3.5 0.5 0.5 0.5-0.5 1e-7 -3.5h1z" style="fill:#efa724"/>
 <path d="m3.9511 2.1167-0.28222-0.42333v0.28222h-0.98778l-0.14111 0.14111 0.14111 0.14111h0.98778v0.28222z" style="fill:#262577"/>
 <path d="m2.1167 3.9511 0.42333-0.28222h-0.28222v-0.98778l-0.14111-0.14111-0.14111 0.14111v0.98778h-0.28222z" style="fill:#9ccd2a"/>
 <path d="m0.28222 2.1167 0.28222 0.42333v-0.28222h0.98778l0.14111-0.14111-0.14111-0.14111h-0.98778v-0.28222z" style="fill:#932279"/>
 <path d="m3.3867 0.84667h-0.42333l0.14111 0.14111-0.56444 0.56444v0.14111h0.14111l0.56444-0.56444 0.14111 0.14111zm-0.14111 0.42333-0.42333 0.42333h0.56444v-0.28222zm-0.28222-0.28222-0.14111-0.14111h-0.28222v0.56444z" style="fill:#932279"/>
 <path d="m0.84667 3.3867h0.42333l-0.14111-0.14111 0.56444-0.56444v-0.14111h-0.14111l-0.56444 0.56444-0.14111-0.14111zm0.14111-0.42333 0.42333-0.42333h-0.56444v0.28222zm0.28222 0.28222 0.14111 0.14111h0.28222v-0.56444z" style="fill:#262577"/>
 <path d="m3.3867 3.3867v-0.42333l-0.14111 0.14111-0.56444-0.56444h-0.14111v0.14111l0.56444 0.56444-0.14111 0.14111zm-0.42333-0.14111-0.42333-0.42333v0.56444h0.28222zm0.28222-0.28222 0.14111-0.14111v-0.28222h-0.56444z" style="fill:#efa724"/>
</svg>
