<?xml version="1.0" encoding="UTF-8" standalone="no"?>
<svg
   xmlns:dc="http://purl.org/dc/elements/1.1/"
   xmlns:cc="http://creativecommons.org/ns#"
   xmlns:rdf="http://www.w3.org/1999/02/22-rdf-syntax-ns#"
   xmlns:svg="http://www.w3.org/2000/svg"
   xmlns="http://www.w3.org/2000/svg"
   xmlns:xlink="http://www.w3.org/1999/xlink"
   xmlns:sodipodi="http://sodipodi.sourceforge.net/DTD/sodipodi-0.dtd"
   xmlns:inkscape="http://www.inkscape.org/namespaces/inkscape"
   width="14"
   viewBox="0 0 3.9511112 3.9511112"
   height="14"
   id="svg2"
   version="1.1"
   inkscape:version="0.91 r13725"
   sodipodi:docname="centos.svg"
   inkscape:export-filename="/home/josh/Code/unixporn/resources/Flairs/centos.png"
   inkscape:export-xdpi="33.75"
   inkscape:export-ydpi="33.75">
  <metadata
     id="metadata203">
    <rdf:RDF>
      <cc:Work
         rdf:about="">
        <dc:format>image/svg+xml</dc:format>
        <dc:type
           rdf:resource="http://purl.org/dc/dcmitype/StillImage" />
        <dc:title></dc:title>
      </cc:Work>
    </rdf:RDF>
  </metadata>
  <sodipodi:namedview
     pagecolor="#ffffff"
     bordercolor="#666666"
     borderopacity="1"
     objecttolerance="10"
     gridtolerance="10"
     guidetolerance="10"
     inkscape:pageopacity="0"
     inkscape:pageshadow="2"
     inkscape:window-width="1580"
     inkscape:window-height="840"
     id="namedview201"
     showgrid="true"
     inkscape:zoom="22.627417"
     inkscape:cx="12.432449"
     inkscape:cy="-0.13845555"
     inkscape:window-x="10"
     inkscape:window-y="50"
     inkscape:window-maximized="0"
     inkscape:current-layer="svg2"
     inkscape:object-nodes="true"
     inkscape:snap-smooth-nodes="true"
     showguides="true">
    <inkscape:grid
       type="xygrid"
       id="grid3739" />
  </sodipodi:namedview>
  <defs
     id="defs4">
    <clipPath
       id="clipPath6">
      <rect
         height="208.57001"
         y="1580.9301"
         x="-830"
         width="477.14001"
         id="rect8"
         style="fill:#ffff00" />
    </clipPath>
    <clipPath
       id="clipPath10">
      <rect
         height="208.57001"
         y="1580.9301"
         x="-830"
         width="477.14001"
         id="rect12"
         style="fill:#ffff00" />
    </clipPath>
    <clipPath
       id="clipPath14">
      <rect
         height="208.57001"
         y="1580.9301"
         x="-830"
         width="477.14001"
         id="rect16"
         style="fill:#ffff00" />
    </clipPath>
    <clipPath
       id="clipPath18">
      <rect
         height="208.57001"
         y="1580.9301"
         x="-830"
         width="477.14001"
         id="rect20"
         style="fill:#ffff00" />
    </clipPath>
    <clipPath
       id="clipPath22">
      <rect
         transform="matrix(0.99975,-0.02255,0.02255,0.99975,0,0)"
         height="240.87"
         y="780.64001"
         x="294.92999"
         width="357.87"
         id="rect24"
         style="fill:#ff0000" />
    </clipPath>
    <clipPath
       id="clipPath26">
      <rect
         height="195"
         y="857.53998"
         width="301.42999"
         id="rect28"
         x="0"
         style="fill:#ffffff" />
    </clipPath>
    <clipPath
       id="clipPath30">
      <rect
         height="208.57001"
         y="1580.9301"
         x="-830"
         width="477.14001"
         id="rect32"
         style="fill:#ffff00" />
    </clipPath>
    <clipPath
       id="clipPath34">
      <rect
         height="30.01"
         y="977.09003"
         x="276.37"
         width="79.480003"
         id="rect36"
         style="fill:#e20a17" />
    </clipPath>
    <clipPath
       id="clipPath38">
      <rect
         transform="matrix(0.93742901,0.34817646,-0.34817646,0.93742901,0,0)"
         height="37.48"
         y="0.064000003"
         x="8.2080002"
         width="506.45999"
         id="rect40"
         style="fill:#162d50" />
    </clipPath>
    <clipPath
       id="clipPath42">
      <rect
         transform="matrix(0.999992,0.00399993,-0.00399993,0.999992,0,0)"
         height="318.39999"
         y="758.66998"
         x="218.89999"
         width="357.38"
         id="rect44"
         style="fill:#ffffff" />
    </clipPath>
    <clipPath
       id="clipPath46">
      <rect
         transform="matrix(0.999992,0.00399993,-0.00399993,0.999992,0,0)"
         height="318.39999"
         y="758.66998"
         x="218.89999"
         width="357.38"
         id="rect48"
         style="fill:#ffffff" />
    </clipPath>
    <clipPath
       id="clipPath50">
      <rect
         transform="matrix(0.93742901,0.34817646,-0.34817646,0.93742901,0,0)"
         height="37.48"
         y="0.064000003"
         x="8.2080002"
         width="506.45999"
         id="rect52"
         style="fill:#162d50" />
    </clipPath>
    <clipPath
       id="clipPath54">
      <rect
         height="208.57001"
         y="1580.9301"
         x="-830"
         width="477.14001"
         id="rect56"
         style="fill:#ffff00" />
    </clipPath>
    <clipPath
       id="clipPath58">
      <rect
         transform="matrix(0.999942,0.01077022,-0.01077022,0.999942,0,0)"
         height="235.88"
         y="804.23999"
         x="221.39"
         width="350.45999"
         id="rect60" />
    </clipPath>
    <clipPath
       id="clipPath62">
      <rect
         transform="matrix(0.999996,0.00282848,-0.00282848,0.999996,0,0)"
         height="279.03"
         y="793.52002"
         x="257.32001"
         width="287.42999"
         id="rect64"
         style="fill:#ffffff" />
    </clipPath>
    <clipPath
       id="clipPath66">
      <rect
         height="195"
         y="0.059999999"
         width="301.42999"
         id="rect68"
         x="0"
         style="fill:#ffffff" />
    </clipPath>
    <clipPath
       id="clipPath70">
      <rect
         height="195"
         y="857.53998"
         width="301.42999"
         id="rect72"
         x="0"
         style="fill:#ffffff" />
    </clipPath>
    <path
       clip-path="url(#2)"
       id="0"
       d="m 699.2857,672.93231 a 40.71429,40.71429 0 1 1 -81.42858,0 40.71429,40.71429 0 1 1 81.42858,0 z"
       inkscape:connector-curvature="0"
       style="fill:#44aa00" />
    <clipPath
       id="clipPath75">
      <use
         xlink:href="#0"
         transform="matrix(4.3233,0,0,4.3233,-2450.68,-2667.55)"
         id="use77"
         x="0"
         y="0"
         width="100%"
         height="100%" />
    </clipPath>
    <clipPath
       id="clipPath79">
      <rect
         transform="matrix(0.88741602,0.46096942,-0.46096942,0.88741602,0,0)"
         height="41.389999"
         y="815.73999"
         x="448.12"
         width="63.987"
         id="rect81"
         style="fill:#ffffff" />
    </clipPath>
    <clipPath
       id="clipPath83">
      <rect
         height="195"
         y="857.53998"
         width="301.42999"
         id="rect85"
         x="0"
         style="fill:#ffffff" />
    </clipPath>
    <clipPath
       id="clipPath87">
      <rect
         height="208.57001"
         y="1580.9301"
         x="-830"
         width="477.14001"
         id="rect89"
         style="fill:#ffff00" />
    </clipPath>
    <clipPath
       id="clipPath91">
      <rect
         height="208.57001"
         y="1580.9301"
         x="-830"
         width="477.14001"
         id="rect93"
         style="fill:#ffff00" />
    </clipPath>
    <clipPath
       id="clipPath95">
      <rect
         height="208.57001"
         y="1580.9301"
         x="-830"
         width="477.14001"
         id="rect97"
         style="fill:#ffff00" />
    </clipPath>
    <clipPath
       id="clipPath99">
      <rect
         height="208.57001"
         y="1580.9301"
         x="-830"
         width="477.14001"
         id="rect101"
         style="fill:#ffff00" />
    </clipPath>
    <clipPath
       id="clipPath103">
      <rect
         height="208.57001"
         y="1580.9301"
         x="-830"
         width="477.14001"
         id="rect105"
         style="fill:#ffff00" />
    </clipPath>
    <clipPath
       id="clipPath107">
      <use
         xlink:href="#0"
         id="use109"
         x="0"
         y="0"
         width="100%"
         height="100%" />
    </clipPath>
    <clipPath
       id="clipPath111">
      <rect
         height="208.57001"
         y="1580.9301"
         x="-830"
         width="477.14001"
         id="rect113"
         style="fill:#ffff00" />
    </clipPath>
    <path
       id="1"
       d="m 699.2857,672.93231 a 40.71429,40.71429 0 1 1 -81.42858,0 40.71429,40.71429 0 1 1 81.42858,0 z"
       inkscape:connector-curvature="0"
       style="fill:#44aa00" />
    <clipPath
       id="2">
      <use
         xlink:href="#1"
         id="use117"
         x="0"
         y="0"
         width="100%"
         height="100%" />
    </clipPath>
    <clipPath
       id="clipPath119">
      <use
         transform="matrix(4.3233,0,0,4.3233,-2450.68,-2667.55)"
         xlink:href="#1"
         id="use121"
         x="0"
         y="0"
         width="100%"
         height="100%" />
    </clipPath>
    <linearGradient
       gradientUnits="userSpaceOnUse"
       x2="0"
       y2="40"
       y1="280"
       xlink:href="#4"
       id="3"
       gradientTransform="matrix(0.175,0,0,0.175,302.79999,215.99997)" />
    <linearGradient
       id="4">
      <stop
         stop-color="#151515"
         id="stop125" />
      <stop
         stop-color="#222"
         offset="1"
         id="stop127" />
    </linearGradient>
    <linearGradient
       gradientUnits="userSpaceOnUse"
       x2="0"
       y2="90"
       y1="230"
       xlink:href="#4"
       id="5"
       gradientTransform="matrix(0.375,0,0,0.375,298,16)" />
    <linearGradient
       gradientUnits="userSpaceOnUse"
       x2="0"
       y2="90"
       y1="230"
       xlink:href="#4"
       id="6"
       gradientTransform="matrix(0.25,0,0,0.25,299.99999,131.99999)" />
    <clipPath
       id="clipPath131">
      <rect
         height="20"
         rx="4"
         y="78"
         x="434"
         width="20"
         id="rect133"
         style="color:#bebebe" />
    </clipPath>
    <clipPath
       id="clipPath135">
      <rect
         height="22"
         rx="4"
         y="77"
         x="433"
         width="22"
         id="rect137"
         style="color:#bebebe" />
    </clipPath>
    <clipPath
       id="clipPath139">
      <rect
         height="22"
         rx="5"
         y="77"
         x="433"
         width="22"
         id="rect141"
         style="color:#bebebe" />
    </clipPath>
    <clipPath
       id="clipPath143">
      <rect
         height="30"
         rx="6"
         y="29"
         x="433"
         width="30"
         id="rect145"
         style="color:#bebebe" />
    </clipPath>
    <clipPath
       id="clipPath147">
      <rect
         transform="matrix(0,-1,1,0,0,0)"
         height="60"
         rx="12.5"
         y="142"
         x="306"
         width="60"
         id="rect149"
         style="color:#bebebe;fill:url(#6)" />
    </clipPath>
    <clipPath
       id="clipPath151">
      <rect
         height="90"
         rx="18.75"
         y="31"
         x="307"
         width="90"
         id="rect153"
         style="color:#bebebe;fill:url(#5)" />
    </clipPath>
    <clipPath
       id="clipPath155">
      <rect
         height="30"
         rx="4"
         y="29"
         x="433"
         width="30"
         id="rect157"
         style="color:#bebebe;opacity:0.2;fill:#6d6d6d" />
    </clipPath>
    <clipPath
       id="clipPath159">
      <rect
         height="22"
         rx="3"
         y="77"
         x="433"
         width="22"
         id="rect161"
         style="color:#bebebe;opacity:0.2;fill:#6d6d6d" />
    </clipPath>
    <clipPath
       id="clipPath163">
      <path
         d="m 144,70 c -49.705627,0 -90,40.29437 -90,90 0,49.70563 40.294373,90 90,90 49.70563,0 90,-40.29437 90,-90 0,-49.70563 -40.29437,-90 -90,-90 z m 0,32.1875 c 32.03251,0 58,25.96748 58,58 0,32.03252 -25.96749,58 -58,58 -32.03251,0 -58,-25.96748 -58,-58 0,-32.03252 25.96749,-58 58,-58 z"
         id="path165"
         inkscape:connector-curvature="0" />
    </clipPath>
    <clipPath
       id="clipPath167">
      <rect
         height="16"
         rx="3"
         y="116"
         x="432"
         width="16"
         id="rect169"
         style="color:#bebebe" />
    </clipPath>
    <clipPath
       id="clipPath171">
      <path
         d="m 145,215 c 33.13708,0 60,-26.86292 60,-60 0,-33.13708 -26.86292,-60 -60,-60 -33.13708,0 -60,26.86292 -60,60 0,12.50698 3.8285,24.10633 10.375,33.71875 L 89,211 111.28125,204.625 C 120.89367,211.1715 132.49302,215 145,215 Z"
         id="path173"
         inkscape:connector-curvature="0" />
    </clipPath>
    <clipPath
       id="clipPath175">
      <path
         d="m 152,204 a 8,8 0 1 1 -16,0 8,8 0 1 1 16,0 z"
         id="path177"
         inkscape:connector-curvature="0" />
    </clipPath>
    <clipPath
       id="clipPath179">
      <path
         d="m 98.03125,23.191212 c -41.492132,1.05238 -74.84375,35.06824 -74.84375,76.812498 0,42.40687 34.405632,76.8125 76.8125,76.8125 42.40687,0 76.8125,-34.40563 76.8125,-76.8125 0,-42.406866 -34.40563,-76.812498 -76.8125,-76.812498 -0.662607,0 -1.310145,-0.0167 -1.96875,0 z M 100,50.659962 c 27.24464,0 49.34375,22.099114 49.34375,49.343748 -1e-5,27.24464 -22.09911,49.34375 -49.34375,49.34375 -27.244636,-1e-5 -49.34375,-22.09911 -49.34375,-49.34375 0,-27.244634 22.099114,-49.343748 49.34375,-49.343748 z"
         id="path181"
         inkscape:connector-curvature="0" />
    </clipPath>
    <clipPath
       id="clipPath183">
      <rect
         height="16"
         rx="2"
         y="116"
         x="432"
         width="16"
         id="rect185"
         style="color:#bebebe;opacity:0.2;fill:#6d6d6d" />
    </clipPath>
    <clipPath
       id="clipPath187">
      <rect
         height="240"
         rx="50"
         y="36"
         x="24"
         width="240"
         id="rect189"
         style="color:#bebebe;fill:#986767" />
    </clipPath>
    <clipPath
       id="clipPath191">
      <rect
         transform="matrix(0,1,-1,0,0,0)"
         height="42"
         rx="9"
         y="223"
         x="307"
         width="42"
         id="rect193"
         style="color:#bebebe;fill:url(#3)" />
    </clipPath>
    <clipPath
       id="clipPath4429">
      <g
         id="g4431"
         transform="matrix(0.9947658,0,0,1,1.7860989,0)">
        <path
           style="display:inline;overflow:visible;visibility:visible;fill:#efa724;fill-opacity:1;fill-rule:evenodd;stroke:none;stroke-width:30;marker:none"
           id="path4433"
           d="m 322.54143,2800.9375 -4.43505,5.7298 -4.43495,-5.7298 0,-43.1429 -18.93972,0 23.37467,-25.5367 23.13125,25.5367 -18.6962,0 0,43.1429 z"
           inkscape:connector-curvature="0" />
      </g>
    </clipPath>
  </defs>
  <rect
     transform="matrix(0.71727941,0.69678566,-0.71727941,0.69678566,0,0)"
     y="0.24302128"
     x="2.9972558"
     height="1.1340961"
     width="1.1340961"
     id="rect3614"
     style="opacity:1;fill:#9ccd2a;fill-opacity:1;fill-rule:nonzero;stroke:none;stroke-width:0.5;stroke-linejoin:round;stroke-miterlimit:4;stroke-dasharray:none;stroke-opacity:1"
     inkscape:export-filename="/home/josh/Code/unixporn/resources/Flairs/centos.png"
     inkscape:export-xdpi="90"
     inkscape:export-ydpi="90" />
  <rect
     transform="matrix(0.71727941,0.69678566,-0.71727941,0.69678566,0,0)"
     y="0.24302079"
     x="1.5391307"
     height="1.1340966"
     width="1.1340966"
     id="rect3616"
     style="opacity:1;fill:#932279;fill-opacity:1;fill-rule:nonzero;stroke:none;stroke-width:0.5;stroke-linejoin:round;stroke-miterlimit:4;stroke-dasharray:none;stroke-opacity:1"
     inkscape:export-filename="/home/josh/Code/unixporn/resources/Flairs/centos.png"
     inkscape:export-xdpi="90"
     inkscape:export-ydpi="90" />
  <rect
     transform="matrix(0.71727941,0.69678566,-0.71727941,0.69678566,0,0)"
     y="-1.2151033"
     x="2.9972551"
     height="1.1340961"
     width="1.1340961"
     id="rect3618"
     style="opacity:1;fill:#262577;fill-opacity:1;fill-rule:nonzero;stroke:none;stroke-width:0.5;stroke-linejoin:round;stroke-miterlimit:4;stroke-dasharray:none;stroke-opacity:1"
     inkscape:export-filename="/home/josh/Code/unixporn/resources/Flairs/centos.png"
     inkscape:export-xdpi="90"
     inkscape:export-ydpi="90" />
  <rect
     transform="matrix(0.71727941,0.69678566,-0.71727941,0.69678566,0,0)"
     y="-1.2151033"
     x="1.5391307"
     height="1.1340966"
     width="1.1340966"
     id="rect3620"
     style="opacity:1;fill:#efa724;fill-opacity:1;fill-rule:nonzero;stroke:none;stroke-width:0.5;stroke-linejoin:round;stroke-miterlimit:4;stroke-dasharray:none;stroke-opacity:1"
     inkscape:export-filename="/home/josh/Code/unixporn/resources/Flairs/centos.png"
     inkscape:export-xdpi="90"
     inkscape:export-ydpi="90" />
  <path
     id="path3622"
     d="m 0.57620373,0.67263034 0,1.27940736 1.31703727,0 0,-1.27940736 -1.31703727,0 z m 0.082315,0.0799583 1.15240747,0 0,1.11948205 -1.15240747,0 0,-1.11948205 z"
     style="opacity:1;fill:#f9f9f9;fill-opacity:1;fill-rule:nonzero;stroke:none;stroke-width:0.5;stroke-linejoin:round;stroke-miterlimit:4;stroke-dasharray:none;stroke-opacity:1"
     inkscape:connector-curvature="0"
     inkscape:export-filename="/home/josh/Code/unixporn/resources/Flairs/centos.png"
     inkscape:export-xdpi="90"
     inkscape:export-ydpi="90" />
  <path
     id="path3624"
     d="m 2.0578706,0.67263034 0,1.27940736 1.317037,0 0,-1.27940736 -1.317037,0 z m 0.082315,0.0799583 1.1524075,0 0,1.11948205 -1.1524075,0 0,-1.11948205 z"
     style="opacity:1;fill:#f9f9f9;fill-opacity:1;fill-rule:nonzero;stroke:none;stroke-width:0.5;stroke-linejoin:round;stroke-miterlimit:4;stroke-dasharray:none;stroke-opacity:1"
     inkscape:connector-curvature="0"
     inkscape:export-filename="/home/josh/Code/unixporn/resources/Flairs/centos.png"
     inkscape:export-xdpi="90"
     inkscape:export-ydpi="90" />
  <path
     id="path3626"
     d="m 0.57620373,2.1119631 0,1.2794073 1.31703727,0 0,-1.2794073 -1.31703727,0 z m 0.082315,0.079968 1.15240747,0 0,1.119481 -1.15240747,0 0,-1.119481 z"
     style="opacity:1;fill:#f9f9f9;fill-opacity:1;fill-rule:nonzero;stroke:none;stroke-width:0.5;stroke-linejoin:round;stroke-miterlimit:4;stroke-dasharray:none;stroke-opacity:1"
     inkscape:connector-curvature="0"
     inkscape:export-filename="/home/josh/Code/unixporn/resources/Flairs/centos.png"
     inkscape:export-xdpi="90"
     inkscape:export-ydpi="90" />
  <path
     id="path3628"
     d="m 2.0578706,2.1119631 0,1.2794073 1.317037,0 0,-1.2794073 -1.317037,0 z m 0.082315,0.079968 1.1524075,0 0,1.119481 -1.1524075,0 0,-1.119481 z"
     style="opacity:1;fill:#f9f9f9;fill-opacity:1;fill-rule:nonzero;stroke:none;stroke-width:0.5;stroke-linejoin:round;stroke-miterlimit:4;stroke-dasharray:none;stroke-opacity:1"
     inkscape:connector-curvature="0"
     inkscape:export-filename="/home/josh/Code/unixporn/resources/Flairs/centos.png"
     inkscape:export-xdpi="90"
     inkscape:export-ydpi="90" />
  <rect
     style="opacity:1;fill:#9ccd2a;fill-opacity:1;fill-rule:nonzero;stroke:none;stroke-width:0.5;stroke-linejoin:round;stroke-miterlimit:4;stroke-dasharray:none;stroke-opacity:1"
     id="rect3630"
     width="1.1524075"
     height="1.1194816"
     x="0.65851879"
     y="0.75259262"
     inkscape:export-filename="/home/josh/Code/unixporn/resources/Flairs/centos.png"
     inkscape:export-xdpi="90"
     inkscape:export-ydpi="90" />
  <rect
     style="opacity:1;fill:#932279;fill-opacity:1;fill-rule:nonzero;stroke:none;stroke-width:0.5;stroke-linejoin:round;stroke-miterlimit:4;stroke-dasharray:none;stroke-opacity:1"
     id="rect3632"
     width="1.1524072"
     height="1.1194812"
     x="2.1401861"
     y="0.75259262"
     inkscape:export-filename="/home/josh/Code/unixporn/resources/Flairs/centos.png"
     inkscape:export-xdpi="90"
     inkscape:export-ydpi="90" />
  <rect
     style="opacity:1;fill:#efa724;fill-opacity:1;fill-rule:nonzero;stroke:none;stroke-width:0.5;stroke-linejoin:round;stroke-miterlimit:4;stroke-dasharray:none;stroke-opacity:1"
     id="rect3634"
     width="1.1524072"
     height="1.1194812"
     x="2.1401861"
     y="2.1919267"
     inkscape:export-filename="/home/josh/Code/unixporn/resources/Flairs/centos.png"
     inkscape:export-xdpi="90"
     inkscape:export-ydpi="90" />
  <rect
     style="opacity:1;fill:#262577;fill-opacity:1;fill-rule:nonzero;stroke:none;stroke-width:0.5;stroke-linejoin:round;stroke-miterlimit:4;stroke-dasharray:none;stroke-opacity:1"
     id="rect3636"
     width="1.1524075"
     height="1.1194816"
     x="0.65851879"
     y="2.1919258"
     inkscape:export-filename="/home/josh/Code/unixporn/resources/Flairs/centos.png"
     inkscape:export-xdpi="90"
     inkscape:export-ydpi="90" />
  <path
     style="opacity:1;fill:#f9f9f9;fill-opacity:1;fill-rule:nonzero;stroke:none;stroke-width:0.5;stroke-linejoin:round;stroke-miterlimit:4;stroke-dasharray:none;stroke-opacity:1"
     d="M 1.9755559,0 1.0458826,0.90311099 1.9755559,1.8062219 2.9052291,0.90311099 1.9755559,0 Z m 0,0.11288894 0.813464,0.79022205 L 1.9755559,1.6933331 1.1620916,0.90311099 1.9755559,0.11288894 Z"
     id="path3638"
     inkscape:connector-curvature="0"
     inkscape:export-filename="/home/josh/Code/unixporn/resources/Flairs/centos.png"
     inkscape:export-xdpi="90"
     inkscape:export-ydpi="90" />
  <path
     style="opacity:1;fill:#f9f9f9;fill-opacity:1;fill-rule:nonzero;stroke:none;stroke-width:0.5;stroke-linejoin:round;stroke-miterlimit:4;stroke-dasharray:none;stroke-opacity:1"
     d="M 3.0214382,1.128889 2.0917648,2.0319999 3.0214382,2.9351118 3.9511114,2.0319999 3.0214382,1.128889 Z m 0,0.1128887 L 3.834902,2.0319999 3.0214382,2.822223 2.2079741,2.0319999 3.0214382,1.2417777 Z"
     id="path3640"
     inkscape:connector-curvature="0"
     inkscape:export-filename="/home/josh/Code/unixporn/resources/Flairs/centos.png"
     inkscape:export-xdpi="90"
     inkscape:export-ydpi="90" />
  <path
     style="opacity:1;fill:#f9f9f9;fill-opacity:1;fill-rule:nonzero;stroke:none;stroke-width:0.5;stroke-linejoin:round;stroke-miterlimit:4;stroke-dasharray:none;stroke-opacity:1"
     d="M 0.92967325,1.128889 0,2.0319999 0.92967325,2.9351118 1.8593465,2.0319999 0.92967325,1.128889 Z m 0,0.1128887 L 1.7431374,2.0319999 0.92967325,2.822223 0.11620911,2.0319999 0.92967325,1.2417777 Z"
     id="path3642"
     inkscape:connector-curvature="0"
     inkscape:export-filename="/home/josh/Code/unixporn/resources/Flairs/centos.png"
     inkscape:export-xdpi="90"
     inkscape:export-ydpi="90" />
  <path
     style="opacity:1;fill:#f9f9f9;fill-opacity:1;fill-rule:nonzero;stroke:none;stroke-width:0.5;stroke-linejoin:round;stroke-miterlimit:4;stroke-dasharray:none;stroke-opacity:1"
     d="M 1.9755558,2.1448896 1.0458825,3.0480005 1.9755558,3.9511114 2.9052289,3.0480005 1.9755558,2.1448896 Z m 0,0.1128887 0.813464,0.7902222 L 1.9755558,3.8382226 1.1620916,3.0480005 1.9755558,2.2577783 Z"
     id="path3644"
     inkscape:connector-curvature="0"
     inkscape:export-filename="/home/josh/Code/unixporn/resources/Flairs/centos.png"
     inkscape:export-xdpi="90"
     inkscape:export-ydpi="90" />
  <path
     style="fill:none;stroke:none;stroke-width:0.29934162;stroke-linecap:butt;stroke-linejoin:miter;stroke-miterlimit:4;stroke-dashoffset:0;stroke-opacity:1"
     id="path3646"
     d="M 0.061736,2.0319951 0.92604145,1.1923806 1.7903473,2.0319951 0.92604145,2.8716094 0.061736,2.0319951 Z"
     inkscape:connector-curvature="0"
     inkscape:export-filename="/home/josh/Code/unixporn/resources/Flairs/centos.png"
     inkscape:export-xdpi="90"
     inkscape:export-ydpi="90" />
  <path
     style="fill:none;stroke:none;stroke-width:0.29932141;stroke-linecap:butt;stroke-linejoin:miter;stroke-miterlimit:4;stroke-dasharray:none;stroke-dashoffset:0;stroke-opacity:1"
     id="path3648"
     d="M 1.111251,1.0124623 1.9755565,0.17284764 2.8398623,1.0124623 1.9755565,1.8520768 1.111251,1.0124623 Z"
     inkscape:connector-curvature="0"
     inkscape:export-filename="/home/josh/Code/unixporn/resources/Flairs/centos.png"
     inkscape:export-xdpi="90"
     inkscape:export-ydpi="90" />
  <path
     style="fill:none;stroke:none;stroke-width:0.29934162;stroke-linecap:butt;stroke-linejoin:miter;stroke-miterlimit:4;stroke-dashoffset:0;stroke-opacity:1"
     id="path3650"
     d="M 2.1607639,2.0319941 3.0250694,1.1923787 3.8893753,2.0319941 3.0250694,2.8716075 2.1607639,2.0319941 Z"
     inkscape:connector-curvature="0"
     inkscape:export-filename="/home/josh/Code/unixporn/resources/Flairs/centos.png"
     inkscape:export-xdpi="90"
     inkscape:export-ydpi="90" />
  <path
     style="fill:none;stroke:none;stroke-width:0.29934162;stroke-linecap:butt;stroke-linejoin:miter;stroke-miterlimit:4;stroke-dashoffset:0;stroke-opacity:1"
     id="path3652"
     d="M 1.1112487,3.0515258 1.9755544,2.2119113 2.8398603,3.0515258 1.9755544,3.8911393 1.1112487,3.0515258 Z"
     inkscape:connector-curvature="0"
     inkscape:export-filename="/home/josh/Code/unixporn/resources/Flairs/centos.png"
     inkscape:export-xdpi="90"
     inkscape:export-ydpi="90" />
  <path
     inkscape:connector-curvature="0"
     d="M 2.1607639,2.0319941 3.0250694,1.1923787 3.8893753,2.0319941 3.0250694,2.8716075 2.1607639,2.0319941 Z"
     id="path3654"
     style="fill:none;stroke:none;stroke-width:0.29934162;stroke-linecap:butt;stroke-linejoin:miter;stroke-miterlimit:4;stroke-dashoffset:0;stroke-opacity:1"
     inkscape:export-filename="/home/josh/Code/unixporn/resources/Flairs/centos.png"
     inkscape:export-xdpi="90"
     inkscape:export-ydpi="90" />
  <path
     style="fill:none;stroke:none;stroke-width:0.29934162;stroke-linecap:butt;stroke-linejoin:miter;stroke-miterlimit:4;stroke-dashoffset:0;stroke-opacity:1"
     id="path3656"
     d="M 2.1607639,2.0319941 3.0250694,1.1923787 3.8893753,2.0319941 3.0250694,2.8716075 2.1607639,2.0319941 Z"
     inkscape:connector-curvature="0"
     inkscape:export-filename="/home/josh/Code/unixporn/resources/Flairs/centos.png"
     inkscape:export-xdpi="90"
     inkscape:export-ydpi="90" />
  <path
     inkscape:connector-curvature="0"
     d="M 2.1607639,2.0319941 3.0250694,1.1923787 3.8893753,2.0319941 3.0250694,2.8716075 2.1607639,2.0319941 Z"
     id="path3658"
     style="fill:none;stroke:none;stroke-width:0.29934162;stroke-linecap:butt;stroke-linejoin:miter;stroke-miterlimit:4;stroke-dashoffset:0;stroke-opacity:1"
     inkscape:export-filename="/home/josh/Code/unixporn/resources/Flairs/centos.png"
     inkscape:export-xdpi="90"
     inkscape:export-ydpi="90" />
</svg>
