<svg width="15" height="15" version="1.1" viewBox="0 0 4.2333334 4.2333334" xmlns="http://www.w3.org/2000/svg" xmlns:xlink="http://www.w3.org/1999/xlink">
 <path d="m2.2024 0.28227c-0.40881 0.013255 1.0892 2.0799-0.064358 1.9479 0.96192 0.26649 1.1822-0.97529 0.98577-1.5827-0.1946-0.60169-0.29582-0.2263-0.87577-0.35994-0.017309-0.004011-0.032463-0.005701-0.045649-0.005256zm-1.1462 0.28798c-0.63235-8.125e-4 -0.30653 0.21149-0.61283 0.72179-0.29253 0.48736 2.3109-0.38552 1.8134 0.70492 0.55068-0.83254-0.56223-1.4259-1.2006-1.4267zm0.44499 0.93302c-0.50595-0.0012072-1.0151 0.57358-1.1575 1.0098-0.19621 0.60117 0.10635 0.35696 0.497 0.80598 0.37309 0.42883 0.3475-2.3171 1.2308-1.5069-0.17482-0.21966-0.37231-0.30838-0.57029-0.30885zm2.1919 0.0973c-0.31416-0.024468-1.6011 1.6352-1.8135 0.589 0.043818 0.99724 1.2929 0.82307 1.8098 0.44852 0.51208-0.37102 0.1237-0.35124 0.071576-0.94413-0.0054508-0.061936-0.029349-0.090378-0.067927-0.093383zm-1.8546 0.3306c-0.93484 0.34984-0.38319 1.484 0.13275 1.8599 0.51108 0.37239 0.37228 0.0091929 0.92002-0.22362 0.52311-0.22233-2.0962-1.0465-1.0528-1.6363z" style="fill-rule:evenodd;fill:#1756b6;stroke-width:.92857"/>
</svg>
