<svg width="15" height="15" version="1.1" viewBox="0 0 4.2333334 4.2333334" xmlns="http://www.w3.org/2000/svg" xmlns:xlink="http://www.w3.org/1999/xlink">
 <g transform="matrix(.13199 0 0 .12909 -.29593 .74002)" style="fill:#d70751">
  <path d="m20.679 10.438c-0.50715 0.0071 0.09596 0.26134 0.75805 0.36322 0.18288-0.1428 0.34883-0.2873 0.49671-0.42785-0.41233 0.10104-0.83199 0.10329-1.2548 0.06463" style="fill:#d70751"/>
  <path d="m23.401 9.7596c0.30198-0.41684 0.52211-0.8732 0.59972-1.3451-0.06773 0.33641-0.25033 0.62682-0.4222 0.93331-0.94798 0.5969-0.08918-0.35447-5.64e-4 -0.716-1.0194 1.283-0.13998 0.76934-0.17695 1.1278" style="fill:#d70751"/>
  <path d="m24.405 7.1451c0.06124-0.91327-0.17978-0.62456-0.26077-0.27601 0.09455 0.049107 0.16933 0.64375 0.26077 0.27601" style="fill:#d70751"/>
  <path d="m18.755-5.3376c0.27065 0.048542 0.58476 0.085796 0.54074 0.15042 0.29605-0.064911 0.36322-0.12474-0.54074-0.15042" style="fill:#d70751"/>
  <path d="m19.296-5.1872-0.19135 0.039511 0.17808-0.015804 0.01326-0.023707" style="fill:#d70751"/>
  <path d="m27.736 7.4914c0.0302 0.82014-0.23989 1.2181-0.48345 1.9225l-0.43829 0.219c-0.3587 0.69652 0.03471 0.44224-0.22211 0.99624-0.55993 0.49784-1.6993 1.5579-2.0639 1.6547-0.26614-0.0059 0.18034-0.31411 0.23876-0.4349-0.74958 0.51477-0.60142 0.77272-1.7478 1.0854l-0.03358-0.07451c-2.8273 1.3301-6.7547-1.3058-6.7031-4.9025-0.0302 0.22832-0.0858 0.17131-0.14845 0.2636-0.14591-1.8505 0.85457-3.7092 2.542-4.4681 1.6504-0.81703 3.5854-0.48175 4.7676 0.62004-0.6494-0.85061-1.942-1.7523-3.4739-1.6679-1.5006 0.023707-2.9043 0.97734-3.3728 2.0125-0.76877 0.48401-0.85796 1.8658-1.193 2.1186-0.45071 3.3124 0.8478 4.7436 3.0443 6.427 0.34572 0.23312 0.09737 0.26839 0.14422 0.44591-0.72983-0.34177-1.3981-0.85767-1.9476-1.4893 0.29154 0.42672 0.60621 0.84159 1.0129 1.1676-0.68806-0.23312-1.6073-1.6674-1.8756-1.7258 1.1862 2.1237 4.8125 3.7245 6.7112 2.9303-0.87856 0.03246-1.9947 0.01806-2.982-0.34685-0.41458-0.21336-0.97846-0.65532-0.87771-0.73801 2.5914 0.96802 5.2682 0.73321 7.5105-1.0643 0.57037-0.44422 1.1935-1.2 1.3736-1.2105-0.27122 0.40781 0.04628 0.19614-0.162 0.55626 0.5684-0.91666-0.24694-0.3731 0.58759-1.583l0.30819 0.42446c-0.11458-0.76087 0.94488-1.6849 0.83735-2.8883 0.24299-0.36802 0.27122 0.39596 0.01327 1.2426 0.35786-0.93924 0.09426-1.0902 0.18627-1.8652 0.09934 0.26049 0.22973 0.53735 0.29662 0.81224-0.23312-0.90763 0.23932-1.5285 0.35616-2.056-0.11515-0.051082-0.35983 0.40132-0.41571-0.67084 0.0082-0.46567 0.12954-0.24412 0.17639-0.3587-0.091445-0.052493-0.33133-0.4095-0.47724-1.0942 0.10583-0.16087 0.28279 0.41712 0.42672 0.44083-0.092569-0.54441-0.25202-0.95956-0.25852-1.3772-0.42051-0.87884-0.14873 0.11712-0.48994-0.37733-0.4476-1.3962 0.3714-0.32399 0.42672-0.95843 0.67846 0.98298 1.0654 2.5064 1.2429 3.1375-0.13547-0.76934-0.35447-1.5147-0.62174-2.2358 0.20602 0.086642-0.33189-1.583 0.26783-0.47724-0.64064-2.3571-2.7418-4.5596-4.6747-5.5931 0.2365 0.21646 0.53509 0.48824 0.42785 0.53086-0.96125-0.57235-0.7922-0.61694-0.92992-0.8588-0.78317-0.31863-0.83453 0.025682-1.3533 5.645e-4 -1.476-0.78288-1.7605-0.69963-3.1188-1.1901l0.06181 0.28871c-0.9779-0.32568-1.1393 0.12361-2.1963 0.00113-0.06435-0.050236 0.33867-0.18175 0.67028-0.23001-0.94544 0.12474-0.90114-0.18627-1.8263 0.034431 0.22804-0.16002 0.46905-0.26585 0.71233-0.40188-0.77103 0.046849-1.8407 0.44873-1.5105 0.083256-1.2576 0.56106-3.4911 1.3487-4.7444 2.5239l-0.03951-0.26331c-0.57432 0.68947-2.5044 2.0591-2.6583 2.952l-0.15353 0.035842c-0.29888 0.50602-0.4922 1.0795-0.72927 1.6002-0.39088 0.66604-0.57291 0.25626-0.51731 0.36068-0.76877 1.5587-1.1506 2.8685-1.4805 3.9426 0.23509 0.35137 0.0056445 2.1153 0.094544 3.5269-0.38608 6.972 4.8932 13.741 10.664 15.304 0.84582 0.30254 2.1037 0.29097 3.1736 0.32202-1.2624-0.36096-1.4255-0.19135-2.6551-0.62004-0.88702-0.41769-1.0815-0.89464-1.7097-1.4399l0.24864 0.43942c-1.2322-0.43603-0.71656-0.53961-1.719-0.85711l0.26557-0.34685c-0.39934-0.0302-1.0578-0.6731-1.2378-1.029l-0.43688 0.01722c-0.52493-0.6477-0.80462-1.1145-0.7843-1.476l-0.14111 0.25146c-0.16002-0.2746-1.9312-2.4291-1.0123-1.9276-0.17074-0.15607-0.39765-0.254-0.64375-0.70104l0.18711-0.21393c-0.44224-0.56896-0.81393-1.2982-0.78571-1.5412 0.23594 0.31863 0.39963 0.37818 0.56162 0.43265-1.1168-2.7709-1.1794-0.15268-2.0252-2.8205l0.17893-0.01439c-0.13716-0.20659-0.22042-0.43096-0.33076-0.65109l0.077893-0.77611c-0.80405-0.92964-0.22493-3.9528-0.10894-5.6109 0.080433-0.67423 0.67112-1.3919 1.1204-2.5174l-0.27376-0.047131c0.52324-0.91271 2.9876-3.6655 4.1289-3.5238 0.55287-0.69455-0.10978-0.00254-0.21788-0.17752 1.2144-1.2567 1.5962-0.88787 2.4158-1.1139 0.88392-0.52465-0.75861 0.20461-0.33951-0.2001 1.528-0.39031 1.0829-0.88731 3.0762-1.0854 0.21026 0.11966-0.48796 0.18486-0.66322 0.34008 1.2731-0.62286 4.0287-0.48119 5.8186 0.34572 2.0769 0.97056 4.4103 3.8396 4.5023 6.5391l0.1047 0.028222c-0.05306 1.073 0.16425 2.3139-0.21223 3.4538l0.25626-0.53961" style="fill:#d70751"/>
  <path d="m15.143 11.134-0.07112 0.3556c0.3333 0.45268 0.59775 0.94319 1.0233 1.2971-0.30621-0.59775-0.53368-0.84469-0.95222-1.6527" style="fill:#d70751"/>
  <path d="m15.931 11.103c-0.17639-0.19502-0.28081-0.42982-0.39765-0.66379 0.11176 0.4112 0.34064 0.76454 0.55372 1.1238l-0.15607-0.46002" style="fill:#d70751"/>
  <path d="m29.874 8.0728-0.07451 0.18683c-0.1366 0.97028-0.43152 1.9304-0.88364 2.8205 0.49953-0.93924 0.82268-1.9665 0.95814-3.0074" style="fill:#d70751"/>
  <path d="m18.856-5.5809c0.3429-0.12559 0.843-0.068862 1.2068-0.15155-0.47413 0.039793-0.94601 0.0635-1.412 0.12361l0.20518 0.02794" style="fill:#d70751"/>
  <path d="m6.8174 0.82049c0.079022 0.73152-0.55033 1.0154 0.13942 0.53312 0.36971-0.83284-0.1445-0.23001-0.13942-0.53312" style="fill:#d70751"/>
  <path d="m6.0069 4.206c0.15889-0.48768 0.18768-0.78063 0.24836-1.0628-0.43914 0.56134-0.20207 0.681-0.24836 1.0628" style="fill:#d70751"/>
 </g>
</svg>
