<svg width="15" height="15" version="1.1" viewBox="0 0 4.2333334 4.2333334" xmlns="http://www.w3.org/2000/svg" xmlns:xlink="http://www.w3.org/1999/xlink">
 <defs>
  <linearGradient id="linearGradient3774" x1="6.7733" x2="6.7733" y1="13.547" y2="2.54" gradientTransform="matrix(.27083 0 0 .27083 .28222 .28222)" gradientUnits="userSpaceOnUse">
   <stop stop-color="#0091f3" offset="0"/>
   <stop stop-color="#00d4ff" offset="1"/>
  </linearGradient>
 </defs>
 <path d="m1.9856 0.28306c-0.22337 0.0056143-0.20874 0.04541-0.30301 0.2374-0.15222 0.31-0.25932 0.75857-0.23749 1.0233 0.023344 0.28315 0.099294 0.46733 0.24568 0.60577 0.17658 0.16699 0.39085 0.14587 0.57326-0.049112 0.16312-0.17437 0.22332-0.35656 0.2375-0.75312 0.00891-0.25062 0.014067-0.28036 0.03276-0.2374 0.072262 0.16611 0.091789 0.55829 0.04095 0.75312-0.041851 0.16039-0.14566 0.35676-0.22931 0.43386-0.11074 0.10206-0.22989 0.14774-0.39309 0.15553-0.1099 0.0052929-0.15346 0.0035286-0.2375-0.024561-0.21708-0.072486-0.4852-0.27947-0.63878-0.48298-0.21803-0.28889-0.43583-0.87549-0.49137-1.3425-0.010752-0.090389-0.025886-0.17214-0.032757-0.18009-0.03926-0.045219-0.18944 0.14236-0.2375 0.2947-0.030717 0.097291-0.03276 0.14391-0.03276 1.0069v0.90865l0.04095 0.024561c0.05787 0.037914 0.31021 0.11377 0.51594 0.15553 0.15668 0.031804 0.2193 0.041275 0.58964 0.040931 0.37009-3.435e-4 0.43911-0.00969 0.58145-0.040931 0.23175-0.050812 0.40499-0.13397 0.5487-0.27833 0.20246-0.20337 0.27802-0.40884 0.27844-0.72856 2.979e-4 -0.21197-0.029891-0.38164-0.11465-0.54847-0.031098-0.061212-0.060858-0.11106-0.05733-0.1146 0.019007-0.019008 0.23011 0.23349 0.27844 0.33563 0.30333 0.64107 0.15889 1.1641-0.4668 1.6863-0.27681 0.23102-0.75652 0.54864-1.0319 0.68763-0.096024 0.048453-0.11378 0.066346-0.090082 0.090044 0.74751 0.015344 1.3172 0.00888 2.1211 0.00888l0.090072-0.049808c0.18215-0.087314 0.29743-0.21578 0.35215-0.39293 0.031368-0.10156 0.03276-0.14736 0.03276-1.3916 0-1.3072-0.00222-1.4196-0.05733-1.4407-0.012675-0.004829-0.13592 0.009323-0.27025 0.032741-0.14898 0.025959-0.35892 0.047873-0.5405 0.057298-0.31672 0.016445-0.4768 0.046345-0.66335 0.12279-0.173 0.070887-0.27413 0.12776-0.36853 0.20465-0.084407 0.068751-0.095895 0.077944-0.12284 0.18828-0.037143 0.1521-0.060821 0.21983-0.12284 0.30288-0.045277 0.060636-0.09074 0.089979-0.090081 0.057302 0.0011143-0.058463 0.055269-0.24234 0.10646-0.34381 0.1522-0.3017 0.35054-0.51799 0.73705-0.81042 0.11913-0.090134 0.22112-0.16809 0.22112-0.18009 0-0.017865-0.086701-0.024558-0.47499-0.024558-0.13894 0-0.24493-0.001885-0.31939 0zm0.31939 0.76949c0.024746 0 0.025656 0.025183-0.00817 0.27014-0.035778 0.25891-0.12845 0.46534-0.24568 0.5894-0.082931 0.08775-0.1721 0.11129-0.2375 0.065492-0.036465-0.025545-0.081891-0.11315-0.081891-0.15553 0-0.021014 0.00789-0.021506 0.03276-0.00817 0.049595 0.026539 0.070274 0.020596 0.13103-0.032741 0.10178-0.089347 0.2078-0.34534 0.26206-0.63851 0.00594-0.032249 0.10037-0.090044 0.14741-0.090044z" style="fill:url(#linearGradient3774);stroke-width:.92857"/>
</svg>
