<?xml version="1.0" encoding="UTF-8" standalone="no"?>
<svg
   xmlns:dc="http://purl.org/dc/elements/1.1/"
   xmlns:cc="http://creativecommons.org/ns#"
   xmlns:rdf="http://www.w3.org/1999/02/22-rdf-syntax-ns#"
   xmlns:svg="http://www.w3.org/2000/svg"
   xmlns="http://www.w3.org/2000/svg"
   xmlns:xlink="http://www.w3.org/1999/xlink"
   xmlns:sodipodi="http://sodipodi.sourceforge.net/DTD/sodipodi-0.dtd"
   xmlns:inkscape="http://www.inkscape.org/namespaces/inkscape"
   width="14"
   viewBox="0 0 3.9511112 3.9511112"
   height="14"
   id="svg2"
   version="1.1"
   inkscape:version="0.91 r13725"
   sodipodi:docname="elementary.svg"
   inkscape:export-filename="/home/josh/Code/unixporn/resources/Flairs/elementary.png"
   inkscape:export-xdpi="90"
   inkscape:export-ydpi="90">
  <metadata
     id="metadata203">
    <rdf:RDF>
      <cc:Work
         rdf:about="">
        <dc:format>image/svg+xml</dc:format>
        <dc:type
           rdf:resource="http://purl.org/dc/dcmitype/StillImage" />
        <dc:title></dc:title>
      </cc:Work>
    </rdf:RDF>
  </metadata>
  <sodipodi:namedview
     pagecolor="#ffffff"
     bordercolor="#666666"
     borderopacity="1"
     objecttolerance="10"
     gridtolerance="10"
     guidetolerance="10"
     inkscape:pageopacity="0"
     inkscape:pageshadow="2"
     inkscape:window-width="1580"
     inkscape:window-height="840"
     id="namedview201"
     showgrid="true"
     inkscape:zoom="16.000001"
     inkscape:cx="10.958882"
     inkscape:cy="3.8766566"
     inkscape:window-x="10"
     inkscape:window-y="50"
     inkscape:window-maximized="0"
     inkscape:current-layer="svg2"
     inkscape:object-nodes="true"
     inkscape:snap-smooth-nodes="true">
    <inkscape:grid
       type="xygrid"
       id="grid7283" />
  </sodipodi:namedview>
  <defs
     id="defs4">
    <clipPath
       id="clipPath6">
      <rect
         height="208.57001"
         y="1580.9301"
         x="-830"
         width="477.14001"
         id="rect8"
         style="fill:#ffff00" />
    </clipPath>
    <clipPath
       id="clipPath10">
      <rect
         height="208.57001"
         y="1580.9301"
         x="-830"
         width="477.14001"
         id="rect12"
         style="fill:#ffff00" />
    </clipPath>
    <clipPath
       id="clipPath14">
      <rect
         height="208.57001"
         y="1580.9301"
         x="-830"
         width="477.14001"
         id="rect16"
         style="fill:#ffff00" />
    </clipPath>
    <clipPath
       id="clipPath18">
      <rect
         height="208.57001"
         y="1580.9301"
         x="-830"
         width="477.14001"
         id="rect20"
         style="fill:#ffff00" />
    </clipPath>
    <clipPath
       id="clipPath22">
      <rect
         transform="matrix(0.99975,-0.02255,0.02255,0.99975,0,0)"
         height="240.87"
         y="780.64001"
         x="294.92999"
         width="357.87"
         id="rect24"
         style="fill:#ff0000" />
    </clipPath>
    <clipPath
       id="clipPath26">
      <rect
         height="195"
         y="857.53998"
         width="301.42999"
         id="rect28"
         x="0"
         style="fill:#ffffff" />
    </clipPath>
    <clipPath
       id="clipPath30">
      <rect
         height="208.57001"
         y="1580.9301"
         x="-830"
         width="477.14001"
         id="rect32"
         style="fill:#ffff00" />
    </clipPath>
    <clipPath
       id="clipPath34">
      <rect
         height="30.01"
         y="977.09003"
         x="276.37"
         width="79.480003"
         id="rect36"
         style="fill:#e20a17" />
    </clipPath>
    <clipPath
       id="clipPath38">
      <rect
         transform="matrix(0.93742901,0.34817646,-0.34817646,0.93742901,0,0)"
         height="37.48"
         y="0.064000003"
         x="8.2080002"
         width="506.45999"
         id="rect40"
         style="fill:#162d50" />
    </clipPath>
    <clipPath
       id="clipPath42">
      <rect
         transform="matrix(0.999992,0.00399993,-0.00399993,0.999992,0,0)"
         height="318.39999"
         y="758.66998"
         x="218.89999"
         width="357.38"
         id="rect44"
         style="fill:#ffffff" />
    </clipPath>
    <clipPath
       id="clipPath46">
      <rect
         transform="matrix(0.999992,0.00399993,-0.00399993,0.999992,0,0)"
         height="318.39999"
         y="758.66998"
         x="218.89999"
         width="357.38"
         id="rect48"
         style="fill:#ffffff" />
    </clipPath>
    <clipPath
       id="clipPath50">
      <rect
         transform="matrix(0.93742901,0.34817646,-0.34817646,0.93742901,0,0)"
         height="37.48"
         y="0.064000003"
         x="8.2080002"
         width="506.45999"
         id="rect52"
         style="fill:#162d50" />
    </clipPath>
    <clipPath
       id="clipPath54">
      <rect
         height="208.57001"
         y="1580.9301"
         x="-830"
         width="477.14001"
         id="rect56"
         style="fill:#ffff00" />
    </clipPath>
    <clipPath
       id="clipPath58">
      <rect
         transform="matrix(0.999942,0.01077022,-0.01077022,0.999942,0,0)"
         height="235.88"
         y="804.23999"
         x="221.39"
         width="350.45999"
         id="rect60" />
    </clipPath>
    <clipPath
       id="clipPath62">
      <rect
         transform="matrix(0.999996,0.00282848,-0.00282848,0.999996,0,0)"
         height="279.03"
         y="793.52002"
         x="257.32001"
         width="287.42999"
         id="rect64"
         style="fill:#ffffff" />
    </clipPath>
    <clipPath
       id="clipPath66">
      <rect
         height="195"
         y="0.059999999"
         width="301.42999"
         id="rect68"
         x="0"
         style="fill:#ffffff" />
    </clipPath>
    <clipPath
       id="clipPath70">
      <rect
         height="195"
         y="857.53998"
         width="301.42999"
         id="rect72"
         x="0"
         style="fill:#ffffff" />
    </clipPath>
    <path
       clip-path="url(#2)"
       id="0"
       d="m 699.2857,672.93231 a 40.71429,40.71429 0 1 1 -81.42858,0 40.71429,40.71429 0 1 1 81.42858,0 z"
       inkscape:connector-curvature="0"
       style="fill:#44aa00" />
    <clipPath
       id="clipPath75">
      <use
         xlink:href="#0"
         transform="matrix(4.3233,0,0,4.3233,-2450.68,-2667.55)"
         id="use77"
         x="0"
         y="0"
         width="100%"
         height="100%" />
    </clipPath>
    <clipPath
       id="clipPath79">
      <rect
         transform="matrix(0.88741602,0.46096942,-0.46096942,0.88741602,0,0)"
         height="41.389999"
         y="815.73999"
         x="448.12"
         width="63.987"
         id="rect81"
         style="fill:#ffffff" />
    </clipPath>
    <clipPath
       id="clipPath83">
      <rect
         height="195"
         y="857.53998"
         width="301.42999"
         id="rect85"
         x="0"
         style="fill:#ffffff" />
    </clipPath>
    <clipPath
       id="clipPath87">
      <rect
         height="208.57001"
         y="1580.9301"
         x="-830"
         width="477.14001"
         id="rect89"
         style="fill:#ffff00" />
    </clipPath>
    <clipPath
       id="clipPath91">
      <rect
         height="208.57001"
         y="1580.9301"
         x="-830"
         width="477.14001"
         id="rect93"
         style="fill:#ffff00" />
    </clipPath>
    <clipPath
       id="clipPath95">
      <rect
         height="208.57001"
         y="1580.9301"
         x="-830"
         width="477.14001"
         id="rect97"
         style="fill:#ffff00" />
    </clipPath>
    <clipPath
       id="clipPath99">
      <rect
         height="208.57001"
         y="1580.9301"
         x="-830"
         width="477.14001"
         id="rect101"
         style="fill:#ffff00" />
    </clipPath>
    <clipPath
       id="clipPath103">
      <rect
         height="208.57001"
         y="1580.9301"
         x="-830"
         width="477.14001"
         id="rect105"
         style="fill:#ffff00" />
    </clipPath>
    <clipPath
       id="clipPath107">
      <use
         xlink:href="#0"
         id="use109"
         x="0"
         y="0"
         width="100%"
         height="100%" />
    </clipPath>
    <clipPath
       id="clipPath111">
      <rect
         height="208.57001"
         y="1580.9301"
         x="-830"
         width="477.14001"
         id="rect113"
         style="fill:#ffff00" />
    </clipPath>
    <path
       id="1"
       d="m 699.2857,672.93231 a 40.71429,40.71429 0 1 1 -81.42858,0 40.71429,40.71429 0 1 1 81.42858,0 z"
       inkscape:connector-curvature="0"
       style="fill:#44aa00" />
    <clipPath
       id="2">
      <use
         xlink:href="#1"
         id="use117"
         x="0"
         y="0"
         width="100%"
         height="100%" />
    </clipPath>
    <clipPath
       id="clipPath119">
      <use
         transform="matrix(4.3233,0,0,4.3233,-2450.68,-2667.55)"
         xlink:href="#1"
         id="use121"
         x="0"
         y="0"
         width="100%"
         height="100%" />
    </clipPath>
    <linearGradient
       gradientUnits="userSpaceOnUse"
       x2="0"
       y2="40"
       y1="280"
       xlink:href="#4"
       id="3"
       gradientTransform="matrix(0.175,0,0,0.175,302.79999,215.99997)" />
    <linearGradient
       id="4">
      <stop
         stop-color="#151515"
         id="stop125" />
      <stop
         stop-color="#222"
         offset="1"
         id="stop127" />
    </linearGradient>
    <linearGradient
       gradientUnits="userSpaceOnUse"
       x2="0"
       y2="90"
       y1="230"
       xlink:href="#4"
       id="5"
       gradientTransform="matrix(0.375,0,0,0.375,298,16)" />
    <linearGradient
       gradientUnits="userSpaceOnUse"
       x2="0"
       y2="90"
       y1="230"
       xlink:href="#4"
       id="6"
       gradientTransform="matrix(0.25,0,0,0.25,299.99999,131.99999)" />
    <clipPath
       id="clipPath131">
      <rect
         height="20"
         rx="4"
         y="78"
         x="434"
         width="20"
         id="rect133"
         style="color:#bebebe" />
    </clipPath>
    <clipPath
       id="clipPath135">
      <rect
         height="22"
         rx="4"
         y="77"
         x="433"
         width="22"
         id="rect137"
         style="color:#bebebe" />
    </clipPath>
    <clipPath
       id="clipPath139">
      <rect
         height="22"
         rx="5"
         y="77"
         x="433"
         width="22"
         id="rect141"
         style="color:#bebebe" />
    </clipPath>
    <clipPath
       id="clipPath143">
      <rect
         height="30"
         rx="6"
         y="29"
         x="433"
         width="30"
         id="rect145"
         style="color:#bebebe" />
    </clipPath>
    <clipPath
       id="clipPath147">
      <rect
         transform="matrix(0,-1,1,0,0,0)"
         height="60"
         rx="12.5"
         y="142"
         x="306"
         width="60"
         id="rect149"
         style="color:#bebebe;fill:url(#6)" />
    </clipPath>
    <clipPath
       id="clipPath151">
      <rect
         height="90"
         rx="18.75"
         y="31"
         x="307"
         width="90"
         id="rect153"
         style="color:#bebebe;fill:url(#5)" />
    </clipPath>
    <clipPath
       id="clipPath155">
      <rect
         height="30"
         rx="4"
         y="29"
         x="433"
         width="30"
         id="rect157"
         style="color:#bebebe;opacity:0.2;fill:#6d6d6d" />
    </clipPath>
    <clipPath
       id="clipPath159">
      <rect
         height="22"
         rx="3"
         y="77"
         x="433"
         width="22"
         id="rect161"
         style="color:#bebebe;opacity:0.2;fill:#6d6d6d" />
    </clipPath>
    <clipPath
       id="clipPath163">
      <path
         d="m 144,70 c -49.705627,0 -90,40.29437 -90,90 0,49.70563 40.294373,90 90,90 49.70563,0 90,-40.29437 90,-90 0,-49.70563 -40.29437,-90 -90,-90 z m 0,32.1875 c 32.03251,0 58,25.96748 58,58 0,32.03252 -25.96749,58 -58,58 -32.03251,0 -58,-25.96748 -58,-58 0,-32.03252 25.96749,-58 58,-58 z"
         id="path165"
         inkscape:connector-curvature="0" />
    </clipPath>
    <clipPath
       id="clipPath167">
      <rect
         height="16"
         rx="3"
         y="116"
         x="432"
         width="16"
         id="rect169"
         style="color:#bebebe" />
    </clipPath>
    <clipPath
       id="clipPath171">
      <path
         d="m 145,215 c 33.13708,0 60,-26.86292 60,-60 0,-33.13708 -26.86292,-60 -60,-60 -33.13708,0 -60,26.86292 -60,60 0,12.50698 3.8285,24.10633 10.375,33.71875 L 89,211 111.28125,204.625 C 120.89367,211.1715 132.49302,215 145,215 Z"
         id="path173"
         inkscape:connector-curvature="0" />
    </clipPath>
    <clipPath
       id="clipPath175">
      <path
         d="m 152,204 a 8,8 0 1 1 -16,0 8,8 0 1 1 16,0 z"
         id="path177"
         inkscape:connector-curvature="0" />
    </clipPath>
    <clipPath
       id="clipPath179">
      <path
         d="m 98.03125,23.191212 c -41.492132,1.05238 -74.84375,35.06824 -74.84375,76.812498 0,42.40687 34.405632,76.8125 76.8125,76.8125 42.40687,0 76.8125,-34.40563 76.8125,-76.8125 0,-42.406866 -34.40563,-76.812498 -76.8125,-76.812498 -0.662607,0 -1.310145,-0.0167 -1.96875,0 z M 100,50.659962 c 27.24464,0 49.34375,22.099114 49.34375,49.343748 -1e-5,27.24464 -22.09911,49.34375 -49.34375,49.34375 -27.244636,-1e-5 -49.34375,-22.09911 -49.34375,-49.34375 0,-27.244634 22.099114,-49.343748 49.34375,-49.343748 z"
         id="path181"
         inkscape:connector-curvature="0" />
    </clipPath>
    <clipPath
       id="clipPath183">
      <rect
         height="16"
         rx="2"
         y="116"
         x="432"
         width="16"
         id="rect185"
         style="color:#bebebe;opacity:0.2;fill:#6d6d6d" />
    </clipPath>
    <clipPath
       id="clipPath187">
      <rect
         height="240"
         rx="50"
         y="36"
         x="24"
         width="240"
         id="rect189"
         style="color:#bebebe;fill:#986767" />
    </clipPath>
    <clipPath
       id="clipPath191">
      <rect
         transform="matrix(0,1,-1,0,0,0)"
         height="42"
         rx="9"
         y="223"
         x="307"
         width="42"
         id="rect193"
         style="color:#bebebe;fill:url(#3)" />
    </clipPath>
    <linearGradient
       gradientTransform="matrix(1.10526,0,0,1.10526,-134.28026,-295.76492)"
       xlink:href="#0-3"
       id="1-5"
       y1="279.10001"
       y2="268.32999"
       gradientUnits="userSpaceOnUse"
       x2="0" />
    <linearGradient
       id="0-3">
      <stop
         stop-color="#dcdcdc"
         id="stop5956" />
      <stop
         offset="1"
         stop-color="#f9f9f9"
         id="stop5958" />
    </linearGradient>
    <linearGradient
       inkscape:collect="always"
       xlink:href="#linearGradient7336"
       id="linearGradient63059"
       gradientUnits="userSpaceOnUse"
       gradientTransform="matrix(-0.511281,0,0,0.42455,1578.612,-1.981893e-7)"
       x1="601.20001"
       y1="382.5"
       x2="990"
       y2="382.5" />
    <linearGradient
       inkscape:collect="always"
       xlink:href="#linearGradient8221"
       id="linearGradient63057"
       gradientUnits="userSpaceOnUse"
       gradientTransform="matrix(-0.501192,0,0,0.42455,1568.625,-1.981893e-7)"
       x1="380.92273"
       y1="360"
       x2="990"
       y2="360" />
    <linearGradient
       id="linearGradient7336">
      <stop
         style="stop-color:#ffffff;stop-opacity:1;"
         offset="0"
         id="stop7338" />
      <stop
         style="stop-color:#6fc1ff;stop-opacity:0;"
         offset="1"
         id="stop7340" />
    </linearGradient>
    <linearGradient
       id="linearGradient8221">
      <stop
         style="stop-color:#6fc1ff;stop-opacity:1;"
         offset="0"
         id="stop8223" />
      <stop
         style="stop-color:#6fc1ff;stop-opacity:0;"
         offset="1"
         id="stop8225" />
    </linearGradient>
    <linearGradient
       id="linearGradient57798">
      <stop
         style="stop-color:#ababab;stop-opacity:1;"
         offset="0"
         id="stop57800" />
      <stop
         style="stop-color:#000000;stop-opacity:0;"
         offset="1"
         id="stop57802" />
    </linearGradient>
    <linearGradient
       id="linearGradient57806">
      <stop
         id="stop57808"
         offset="0"
         style="stop-color:#ffffff;stop-opacity:1;" />
      <stop
         id="stop57810"
         offset="1"
         style="stop-color:#96bcd8;stop-opacity:0" />
    </linearGradient>
    <linearGradient
       id="linearGradient58210">
      <stop
         style="stop-color:#30a5ff;stop-opacity:1;"
         offset="0"
         id="stop58212" />
      <stop
         style="stop-color:#a6d9ff;stop-opacity:1;"
         offset="1"
         id="stop58214" />
    </linearGradient>
    <linearGradient
       id="linearGradient22774">
      <stop
         style="stop-color:#dd9144;stop-opacity:1;"
         offset="0"
         id="stop22776" />
      <stop
         id="stop22784"
         offset="0"
         style="stop-color:#b06f2e;stop-opacity:1;" />
      <stop
         id="stop22782"
         offset="1"
         style="stop-color:#633406;stop-opacity:1;" />
    </linearGradient>
    <linearGradient
       id="linearGradient22786">
      <stop
         style="stop-color:#737373;stop-opacity:1;"
         offset="0"
         id="stop22788" />
      <stop
         style="stop-color:#cdcdcd;stop-opacity:1;"
         offset="1"
         id="stop22790" />
    </linearGradient>
    <linearGradient
       id="linearGradient24542">
      <stop
         style="stop-color:#7c7c7c;stop-opacity:1;"
         offset="0"
         id="stop24544" />
      <stop
         style="stop-color:#323232;stop-opacity:1;"
         offset="1"
         id="stop24546" />
    </linearGradient>
    <linearGradient
       id="linearGradient30914">
      <stop
         style="stop-color:#545f00;stop-opacity:1;"
         offset="0"
         id="stop30916" />
      <stop
         style="stop-color:#000000;stop-opacity:1;"
         offset="1"
         id="stop30918" />
    </linearGradient>
    <linearGradient
       id="linearGradient30922">
      <stop
         style="stop-color:#323232;stop-opacity:1;"
         offset="0"
         id="stop30924" />
      <stop
         style="stop-color:#ffffff;stop-opacity:1;"
         offset="1"
         id="stop30926" />
    </linearGradient>
    <linearGradient
       id="linearGradient30930">
      <stop
         style="stop-color:#7c7c7c;stop-opacity:1;"
         offset="0"
         id="stop30932" />
      <stop
         style="stop-color:#ffffff;stop-opacity:1;"
         offset="1"
         id="stop30934" />
    </linearGradient>
    <linearGradient
       id="linearGradient30944">
      <stop
         style="stop-color:#ffffff;stop-opacity:1;"
         offset="0"
         id="stop30946" />
      <stop
         style="stop-color:#7e7e7e;stop-opacity:1;"
         offset="1"
         id="stop30948" />
    </linearGradient>
    <linearGradient
       id="linearGradient6016">
      <stop
         style="stop-color:#265ba7;stop-opacity:1;"
         offset="0"
         id="stop6018" />
      <stop
         style="stop-color:#1c4177;stop-opacity:1;"
         offset="1"
         id="stop6020" />
    </linearGradient>
    <inkscape:perspective
       id="perspective2861"
       inkscape:persp3d-origin="0.5 : 0.33333333 : 1"
       inkscape:vp_z="1 : 0.5 : 1"
       inkscape:vp_y="0 : 1000 : 0"
       inkscape:vp_x="0 : 0.5 : 1"
       sodipodi:type="inkscape:persp3d" />
    <inkscape:perspective
       id="perspective3415"
       inkscape:persp3d-origin="0.5 : 0.33333333 : 1"
       inkscape:vp_z="1 : 0.5 : 1"
       inkscape:vp_y="0 : 1000 : 0"
       inkscape:vp_x="0 : 0.5 : 1"
       sodipodi:type="inkscape:persp3d" />
    <inkscape:perspective
       id="perspective3135"
       inkscape:persp3d-origin="0.5 : 0.33333333 : 1"
       inkscape:vp_z="1 : 0.5 : 1"
       inkscape:vp_y="0 : 1000 : 0"
       inkscape:vp_x="0 : 0.5 : 1"
       sodipodi:type="inkscape:persp3d" />
    <inkscape:perspective
       sodipodi:type="inkscape:persp3d"
       inkscape:vp_x="0 : 85.039497 : 1"
       inkscape:vp_y="0 : 1000 : 0"
       inkscape:vp_z="779.617 : 85.039497 : 1"
       inkscape:persp3d-origin="389.8085 : 56.692998 : 1"
       id="perspective29" />
    <inkscape:perspective
       id="perspective29-6"
       inkscape:persp3d-origin="389.8085 : 56.692998 : 1"
       inkscape:vp_z="779.617 : 85.039497 : 1"
       inkscape:vp_y="0 : 1000 : 0"
       inkscape:vp_x="0 : 85.039497 : 1"
       sodipodi:type="inkscape:persp3d" />
    <inkscape:perspective
       sodipodi:type="inkscape:persp3d"
       inkscape:vp_x="0 : 0.5 : 1"
       inkscape:vp_y="0 : 1000 : 0"
       inkscape:vp_z="1 : 0.5 : 1"
       inkscape:persp3d-origin="0.5 : 0.33333333 : 1"
       id="perspective3135-3" />
    <inkscape:perspective
       sodipodi:type="inkscape:persp3d"
       inkscape:vp_x="0 : 0.5 : 1"
       inkscape:vp_y="0 : 1000 : 0"
       inkscape:vp_z="1 : 0.5 : 1"
       inkscape:persp3d-origin="0.5 : 0.33333333 : 1"
       id="perspective3415-6" />
    <inkscape:perspective
       sodipodi:type="inkscape:persp3d"
       inkscape:vp_x="0 : 0.5 : 1"
       inkscape:vp_y="0 : 1000 : 0"
       inkscape:vp_z="1 : 0.5 : 1"
       inkscape:persp3d-origin="0.5 : 0.33333333 : 1"
       id="perspective2861-4" />
    <clipPath
       id="clipPath3743"
       clipPathUnits="userSpaceOnUse">
      <rect
         y="820.19275"
         x="-87.687256"
         height="395.27271"
         width="456.79099"
         id="rect3745"
         style="color:#000000;display:inline;overflow:visible;visibility:visible;fill:#ffffff;fill-opacity:1;fill-rule:nonzero;stroke:none;stroke-width:1;marker:none;enable-background:accumulate" />
    </clipPath>
    <inkscape:perspective
       id="perspective2861-4-7"
       inkscape:persp3d-origin="0.5 : 0.33333333 : 1"
       inkscape:vp_z="1 : 0.5 : 1"
       inkscape:vp_y="0 : 1000 : 0"
       inkscape:vp_x="0 : 0.5 : 1"
       sodipodi:type="inkscape:persp3d" />
    <inkscape:perspective
       id="perspective3415-6-9"
       inkscape:persp3d-origin="0.5 : 0.33333333 : 1"
       inkscape:vp_z="1 : 0.5 : 1"
       inkscape:vp_y="0 : 1000 : 0"
       inkscape:vp_x="0 : 0.5 : 1"
       sodipodi:type="inkscape:persp3d" />
    <inkscape:perspective
       id="perspective3135-3-4"
       inkscape:persp3d-origin="0.5 : 0.33333333 : 1"
       inkscape:vp_z="1 : 0.5 : 1"
       inkscape:vp_y="0 : 1000 : 0"
       inkscape:vp_x="0 : 0.5 : 1"
       sodipodi:type="inkscape:persp3d" />
    <inkscape:perspective
       sodipodi:type="inkscape:persp3d"
       inkscape:vp_x="0 : 85.039497 : 1"
       inkscape:vp_y="0 : 1000 : 0"
       inkscape:vp_z="779.617 : 85.039497 : 1"
       inkscape:persp3d-origin="389.8085 : 56.692998 : 1"
       id="perspective29-6-1" />
    <inkscape:perspective
       id="perspective29-69"
       inkscape:persp3d-origin="389.8085 : 56.692998 : 1"
       inkscape:vp_z="779.617 : 85.039497 : 1"
       inkscape:vp_y="0 : 1000 : 0"
       inkscape:vp_x="0 : 85.039497 : 1"
       sodipodi:type="inkscape:persp3d" />
    <inkscape:perspective
       sodipodi:type="inkscape:persp3d"
       inkscape:vp_x="0 : 0.5 : 1"
       inkscape:vp_y="0 : 1000 : 0"
       inkscape:vp_z="1 : 0.5 : 1"
       inkscape:persp3d-origin="0.5 : 0.33333333 : 1"
       id="perspective3135-1" />
    <inkscape:perspective
       sodipodi:type="inkscape:persp3d"
       inkscape:vp_x="0 : 0.5 : 1"
       inkscape:vp_y="0 : 1000 : 0"
       inkscape:vp_z="1 : 0.5 : 1"
       inkscape:persp3d-origin="0.5 : 0.33333333 : 1"
       id="perspective3415-3" />
    <inkscape:perspective
       sodipodi:type="inkscape:persp3d"
       inkscape:vp_x="0 : 0.5 : 1"
       inkscape:vp_y="0 : 1000 : 0"
       inkscape:vp_z="1 : 0.5 : 1"
       inkscape:persp3d-origin="0.5 : 0.33333333 : 1"
       id="perspective2861-9" />
    <inkscape:path-effect
       effect="spiro"
       id="path-effect2991"
       is_visible="true" />
    <inkscape:path-effect
       is_visible="true"
       id="path-effect3177"
       effect="spiro" />
  </defs>
  <path
     style="fill:#353535;fill-opacity:1;stroke:none"
     d="M 1.9755556,1.8852145e-7 C 0.88448638,1.8852145e-7 0,0.88448639 0,1.9755554 c 0,1.09107 0.88448638,1.975556 1.9755556,1.975556 1.0910692,0 1.9755555,-0.884486 1.9755555,-1.975556 C 3.9511111,0.88448639 3.0666248,1.8852145e-7 1.9755556,1.8852145e-7 Z m 0,0.16462960147855 c 0.8295189,0 1.5287762,0.5577556 1.7432221,1.31868361 -0.1847023,0.380968 -0.4475205,0.723974 -0.7675858,1.001154 -0.1537557,0.133154 -0.321626,0.251854 -0.5070592,0.335433 -0.1854333,0.08358 -0.3893964,0.131001 -0.5924609,0.119356 -0.1525665,-0.0087 -0.3032776,-0.05125 -0.4368859,-0.125324 0.3540861,-0.191867 0.6735715,-0.447684 0.9350963,-0.754004 0.1716595,-0.201062 0.3218486,-0.429564 0.3796771,-0.687534 0.028914,-0.128986 0.033814,-0.26407 0.00679,-0.39346501 -0.027022,-0.129395 -0.086849,-0.252703 -0.1773875,-0.349015 -0.088451,-0.094091 -0.2045659,-0.160742 -0.3290534,-0.195086 -0.1244876,-0.0343448 -0.2569642,-0.0370034 -0.3839987,-0.013788 -0.2540688,0.04643 -0.4809059,0.194092 -0.66284,0.377414 C 0.86238435,1.1215844 0.66413319,1.5775284 0.70049906,2.0313244 c 0.0181829,0.226897 0.0942195,0.449853 0.22451367,0.636499 0.0290835,0.04166 0.0610571,0.08134 0.0952794,0.118945 -0.18981071,0.06643 -0.38634418,0.113715 -0.58566969,0.140347 -0.17113455,-0.27653 -0.2699926,-0.602462 -0.2699926,-0.95156 0,-1.00014601 0.81077913,-1.81092561 1.81092579,-1.81092561 z m 0.011524,0.3658896 c 0.127301,1.72e-4 0.2554667,0.03871 0.3570405,0.115446 0.091513,0.06913 0.1593215,0.167491 0.1977614,0.275549 0.03844,0.10805801 0.048305,0.22540301 0.03519,0.33934301 -0.02623,0.227879 -0.1411886,0.436862 -0.2800762,0.619419 -0.2459175,0.32324 -0.5727913,0.581955 -0.936331,0.763058 -0.037211,0.01854 -0.075012,0.03616 -0.1129771,0.05309 C 1.1685842,2.6272044 1.1007835,2.5450994 1.0491027,2.4535964 0.94111397,2.2623964 0.90550223,2.0352714 0.92645364,1.8166854 0.94740504,1.5980994 1.0224182,1.3874284 1.1231861,1.1923274 1.2400218,0.96611539 1.399279,0.75184439 1.6222196,0.62888239 c 0.1114703,-0.06148 0.2375595,-0.09854 0.3648604,-0.09837 z M 3.7702244,1.7331384 c 0.010611,0.0793 0.016258,0.160212 0.016258,0.242417 0,1.000147 -0.8107793,1.810926 -1.8109261,1.810926 -0.5616926,0 -1.06369006,-0.255702 -1.39585345,-0.657078 0.20502065,-0.04656 0.40540342,-0.113448 0.59760555,-0.198584 0.084051,0.06401 0.1768764,0.116511 0.2755488,0.15434 0.2841575,0.108939 0.6067711,0.09318 0.8943505,-0.0064 0.2875791,-0.09956 0.5425972,-0.278247 0.7649103,-0.486069 0.2648324,-0.24757 0.4881207,-0.539374 0.6581069,-0.859573 z"
     id="path2993"
     inkscape:connector-curvature="0" />
</svg>
