<svg width="15" height="15" version="1.1" viewBox="0 0 4.2333334 4.2333334" xmlns="http://www.w3.org/2000/svg" xmlns:xlink="http://www.w3.org/1999/xlink">
 <path d="m2.1167 0.28222c-1.0131 0-1.8344 0.82131-1.8344 1.8344 0 1.0131 0.82131 1.8344 1.8344 1.8344s1.8344-0.82131 1.8344-1.8344c0-1.0131-0.82131-1.8344-1.8344-1.8344zm0 0.15287c0.77027 0 1.4196 0.51792 1.6187 1.2245-0.17151 0.35376-0.41555 0.67226-0.71276 0.92964-0.14277 0.12364-0.29865 0.23386-0.47084 0.31147-0.17219 0.07761-0.36158 0.12164-0.55014 0.11083-0.14167-0.0080786-0.28161-0.047589-0.40568-0.11637 0.32879-0.17816 0.62546-0.41571 0.8683-0.70015 0.1594-0.1867 0.29886-0.39888 0.35256-0.63842 0.026849-0.11977 0.031399-0.24521 0.006305-0.36536-0.025092-0.12015-0.080646-0.23465-0.16472-0.32409-0.082133-0.08737-0.18995-0.14926-0.30555-0.18115-0.1156-0.031892-0.23861-0.03436-0.35657-0.012803-0.23592 0.043114-0.44656 0.18023-0.61549 0.35046-0.29778 0.30005-0.48187 0.72343-0.4481 1.1448 0.016884 0.21069 0.08749 0.41772 0.20848 0.59103 0.027007 0.038684 0.056696 0.07553 0.088473 0.11045-0.17625 0.061685-0.35875 0.10559-0.54384 0.13032-0.15891-0.25678-0.25071-0.55943-0.25071-0.88359 0-0.92871 0.75287-1.6816 1.6816-1.6816zm0.010701 0.33975c0.11821 1.5972e-4 0.23722 0.035945 0.33154 0.1072 0.084976 0.064192 0.14794 0.15553 0.18364 0.25587 0.035694 0.10034 0.044855 0.2093 0.032676 0.3151-0.024356 0.2116-0.1311 0.40566-0.26007 0.57517-0.22835 0.30015-0.53188 0.54039-0.86945 0.70855-0.034553 0.017216-0.069654 0.033577-0.10491 0.049298-0.073452-0.064276-0.13641-0.14052-0.1844-0.22548-0.10028-0.17754-0.13334-0.38844-0.11389-0.59142 0.019454-0.20297 0.08911-0.3986 0.18268-0.57976 0.10849-0.21005 0.25637-0.40902 0.46339-0.5232 0.10351-0.057089 0.22059-0.091501 0.3388-0.091344zm1.6558 1.1167c0.00985 0.073636 0.015097 0.14877 0.015097 0.2251 0 0.92871-0.75287 1.6816-1.6816 1.6816-0.52157 0-0.98771-0.23744-1.2961-0.61014 0.19038-0.043234 0.37645-0.10534 0.55492-0.1844 0.078047 0.059438 0.16424 0.10819 0.25587 0.14332 0.26386 0.10116 0.56343 0.086524 0.83047-0.0059428 0.26704-0.092449 0.50384-0.25837 0.71027-0.45135 0.24592-0.22989 0.45326-0.50085 0.6111-0.79817z" style="fill:#353535"/>
</svg>
