<?xml version="1.0" encoding="UTF-8" standalone="no"?>
<!-- Created with Inkscape (http://www.inkscape.org/) -->

<svg
   xmlns:dc="http://purl.org/dc/elements/1.1/"
   xmlns:cc="http://creativecommons.org/ns#"
   xmlns:rdf="http://www.w3.org/1999/02/22-rdf-syntax-ns#"
   xmlns:svg="http://www.w3.org/2000/svg"
   xmlns="http://www.w3.org/2000/svg"
   xmlns:sodipodi="http://sodipodi.sourceforge.net/DTD/sodipodi-0.dtd"
   xmlns:inkscape="http://www.inkscape.org/namespaces/inkscape"
   width="52.815434mm"
   height="45.68232mm"
   viewBox="0 0 52.815434 45.68232"
   version="1.1"
   id="svg896"
   inkscape:version="0.92.4 5da689c313, 2019-01-14"
   sodipodi:docname="endeavour-logo-sans-logotype.svg">
  <defs
     id="defs890" />
  <sodipodi:namedview
     id="base"
     pagecolor="#ffffff"
     bordercolor="#666666"
     borderopacity="1.0"
     inkscape:pageopacity="0.0"
     inkscape:pageshadow="2"
     inkscape:zoom="1.743335"
     inkscape:cx="37.710188"
     inkscape:cy="77.622505"
     inkscape:document-units="mm"
     inkscape:current-layer="layer1"
     showgrid="false"
     inkscape:window-width="1920"
     inkscape:window-height="1029"
     inkscape:window-x="1600"
     inkscape:window-y="0"
     inkscape:window-maximized="1" />
  <metadata
     id="metadata893">
    <rdf:RDF>
      <cc:Work
         rdf:about="">
        <dc:format>image/svg+xml</dc:format>
        <dc:type
           rdf:resource="http://purl.org/dc/dcmitype/StillImage" />
        <dc:title />
      </cc:Work>
    </rdf:RDF>
  </metadata>
  <g
     inkscape:label="Layer 1"
     inkscape:groupmode="layer"
     id="layer1"
     transform="translate(-70.724121,-123.68037)">
    <g
       transform="translate(228.09391,167.94644)"
       id="g3201">
      <path
         inkscape:connector-curvature="0"
         style="opacity:1;fill:#7f7fff;fill-opacity:1;stroke-width:0.58539104"
         d="m -126.6517,-42.323767 c 4.56539,6.44904 23.84413,31.44422 10.69937,36.6116992 -6.11941,2.812881 -34.03039,-1.647039 -33.61942,-0.920848 -1.99562,3.279839 -3.591,5.91592003 -3.591,5.91592003 0,0 21.45211,0.966808 38.13326,-1.26942103 23.737184,-3.182149 -4.87875,-33.5051802 -11.62221,-40.3373502 z"
         id="path3195" />
      <path
         inkscape:connector-curvature="0"
         style="opacity:1;fill:#ff7f7f;fill-opacity:1;stroke-width:0.58539104"
         d="m -126.70389,-42.339787 c -1.52445,0.20891 -29.4473,34.4743892 -29.4473,34.4743892 0,0 2.00676,0.56982 6.57944,1.232482 1.4847,-1.15443 22.28852,-36.2425012 22.92005,-35.6908512 -0.0107,-0.0141 -0.028,-0.0193 -0.0522,-0.016 z"
         id="path3197" />
      <path
         inkscape:connector-curvature="0"
         style="opacity:1;fill:#7f3fbf;fill-opacity:1;stroke-width:0.58539104"
         d="m -126.67651,-42.336167 c -0.95961,-0.15608 -22.89524,35.7032512 -22.89524,35.7032512 0,0 19.91462,2.100009 28.07942,1.96215 23.119264,-0.39036 0.17566,-30.5991912 -5.15937,-37.6530012 -0.007,-0.007 -0.0151,-0.0108 -0.0248,-0.0124 z"
         id="path3199" />
    </g>
  </g>
</svg>
