<svg width="15" height="15" version="1.0" xmlns="http://www.w3.org/2000/svg">
 <g transform="translate(-.21591 -217.8)">
  <path d="m2.6703 221.1c-0.082145-0.0502-1.0196-0.63827-1.1224-1.3778-0.10744-0.77353 0-1.2156 0-1.2156 1e-6 0 0.82575 0.26722 1.343 0.82879 0.2631 0.28564 0.45063 0.51809 0.58424 0.70518" style="fill-rule:evenodd;fill:#fff;stroke-width:.53933;stroke:#000"/>
  <path d="m4.1802 229.67c-1.0507-1.2494-2.1146-2.6212-2.4303-4.2812-0.11476-1.3602-0.0272-2.8164 0.68335-4.0092 0.48692-0.84125 1.1169-1.6646 2.0483-1.9996 1.2253-0.48637 2.5943-0.54438 3.8786-0.3128 2.0692 0.43178 4.1698 2.0138 4.9107 4.0441 0.60177 1.6663 1.2516 3.1002-0.11149 6.1719-0.7553 1.4606-2.6262 2.1562-3.6352 2.2392-0.76819 0.0671-2.0215-0.20373-2.7862-0.37595-0.71068-0.0896-2.0098-0.88127-2.5578-1.4764z" style="fill-rule:evenodd;fill:#dfdfdf;stroke-width:.53933;stroke:#000"/>
  <path d="m11.079 220.35c0.31273-0.20369 1.1357-0.59 1.8579 0.37127 0.48868 0.65046 0.17748 1.0794-0.21747 1.3377" style="fill-rule:evenodd;fill:#fff;stroke-width:.53933;stroke:#000"/>
  <path d="m6.8932 218.94c-0.82232 3e-3 -1.6472 0.137-2.413 0.44098-0.3279 0.1179-0.61736 0.29776-0.87746 0.5162l-0.013294 0.0513c0.37604 2.2654 0.17272 0.53434 0.28016 1.4736 0.10744 0.9393-0.066028-0.75488 1.1158-1.8599 1.1818-1.105 0.6562 0.56277 0.6562 0.56277s0.25692 0.18491 1.009 0.73745c0.75207 0.55252 0.21604 0.0547 0.21604 0.0547s-0.2686-0.9698 0-1.1908c0.2686-0.22102 0.96728-0.9382 1.2896-0.10941 0.32232 0.82879 0.042986 1.1808 0.042986 1.1808 1.8e-6 0 1.5868 0.32106 1.8914-0.40819 0.12284-0.29404 0.188-0.47339 0.25592-0.55381-0.63322-0.36112-1.3128-0.62496-1.9876-0.76577-0.48164-0.0869-0.97237-0.13182-1.4658-0.12989zm3.6528 1.0119c0.09684 0.35826 0.26107 0.88449 0.26107 0.88449-1e-6 0-0.18009 0.4515 0.35715 0.50675 0.53719 0.0553-0.23663 0.57375-0.23663 0.57375 1e-6 0-0.26092 0.58897 0.33 0.58897 0.59092 0-0.45072-0.17554 0.89227-0.17554s1.2798 2.4247 1.2798 2.4247c0.16554 0.71509 0.48768 2.1-0.47926 3.7023-0.96695 1.6023-1.9984 2.2602-3.2588 2.4395-2.6723 0.12195-4.221-0.94904-4.221-0.94904s-1.0761-0.4954-2.1504-1.5452c-0.072069-0.0705-0.1475-0.10423-0.22601-0.1094 0.34146 0.4803 0.71494 0.93542 1.0869 1.3777 0.54802 0.59517 1.8453 1.3873 2.5559 1.4768 0.76479 0.17222 2.0204 0.44308 2.7886 0.37604 1.009-0.083 2.9772-0.77858 3.7325-2.2392 1.3631-3.0717 0.61506-4.5043 0.0133-6.1706-0.47384-1.2984-1.5033-2.4141-2.7255-3.1622z" style="fill-rule:evenodd;stroke-width:.10787px;stroke:#000"/>
  <path d="m3.4818 227.02s0.32232-2.4311 2.8471-2.3759c2.5248 0.0553 4.2976 0.99455 4.2976 0.99455s1.4504 1.0498 1.3967 2.0444c-0.05372 0.99454-0.96695 1.8234-2.1488 1.9891-0.74136 0.10399-4.3513-0.27626-5.2108-0.66302-0.85951-0.38679-1.2355-1.5471-1.1818-1.9891z" style="fill-rule:evenodd;fill:#ba7e8d"/>
  <path d="m6.1323 222.34s-1.7215-0.15974-1.1942 1.0393c0.43633 0.99206 0.9186 0.96844 0.9186 0.96844s0.78081 0.25984 1.1023-0.87398c0.36101-1.273-0.5282-1.1574-0.82674-1.1338z" style="fill-rule:evenodd"/>
  <path d="m9.1677 221.73s-0.96435 0.28552-0.8913 1.1121c0.073063 0.82656 0.59907 1.2624 0.96435 1.2023 0.36529-0.0602 1.0228-0.18035 0.90591-1.082-0.11689-0.90172-0.58446-1.2924-0.97897-1.2323z" style="fill-rule:evenodd"/>
  <path d="m10.036 226.56s-0.77893-0.0692-0.88637 0.75971c-0.10744 0.8288 0.4969 1.1189 0.68492 1.1051 0.18802-0.0138 0.77893 0.13813 0.85951-0.81499 0.08058-0.95311-0.67149-1.0912-0.65806-1.0498z" style="fill-rule:evenodd"/>
  <path d="m5.7246 226.09s-0.71178 0.12432-0.6312 0.66302c0.080579 0.53873 0.34918 0.66306 0.75207 0.63543 0.4029-0.0276 0.6312-0.6216 0.48347-0.9255-0.14773-0.30388-0.59091-0.38677-0.60434-0.37295z" style="fill-rule:evenodd"/>
 </g>
</svg>
