<svg width="15" height="15" version="1.1" viewBox="0 0 4.2333334 4.2333334" xmlns="http://www.w3.org/2000/svg" xmlns:xlink="http://www.w3.org/1999/xlink">
 <path transform="scale(.28222)" d="m9.5 1a3.5 3.5 0 0 0 -3.5 3.5h2a1.5 1.5 0 0 1 1.5 -1.5 1.5 1.5 0 0 1 1.5 1.5 1.5 1.5 0 0 1 -1.5 1.5h-5a3.5 3.5 0 0 0 -3.5 3.5 3.5 3.5 0 0 0 3.5 3.5 3.5 3.5 0 0 0 3.5 -3.5h-2a1.5 1.5 0 0 1 -1.5 1.5 1.5 1.5 0 0 1 -1.5 -1.5 1.5 1.5 0 0 1 1.5 -1.5h5a3.5 3.5 0 0 0 3.5 -3.5 3.5 3.5 0 0 0 -3.5 -3.5z" style="fill:#9cf"/>
 <path transform="scale(.28222)" d="m9.5 1a1 1 0 0 0 -0.09375 0.0039062 3.5 3.5 0 0 0 -3.4062 3.4961v1.5h-1.5a1 1 0 0 0 -1 1 1 1 0 0 0 1 1h1.5v1.5a1.5 1.5 0 0 1 -1.5 1.5 1 1 0 0 0 -1 1 1 1 0 0 0 1 1 1 1 0 0 0 0.09375 -0.003906 3.5 3.5 0 0 0 3.4062 -3.4961v-1.5h1.5a1 1 0 0 0 1 -1 1 1 0 0 0 -1 -1h-1.5v-1.5a1.5 1.5 0 0 1 1.5 -1.5 1 1 0 0 0 1 -1 1 1 0 0 0 -1 -1z" style="fill:#294172"/>
</svg>
