<svg width="15" height="15" version="1.1" viewBox="0 0 4.2333334 4.2333334" xmlns="http://www.w3.org/2000/svg" xmlns:xlink="http://www.w3.org/1999/xlink">
 <path transform="scale(.28222)" d="m13.135 1c-0.74746 0.018858-1.8379 0.59749-2.8672 1.5215-0.12877 0.11446-0.25535 0.23321-0.37891 0.35547-0.12699 0.12719-0.25033 0.2577-0.36914 0.39062 0.089805 0.49068 0.48264 1.0939 1.0176 1.5625 0.39789 0.34762 0.83113 0.58264 1.1953 0.64844 0.12877-0.11446 0.25535-0.23321 0.37891-0.35547 0.12699-0.12719 0.25033-0.2577 0.36914-0.39062 1.3022-1.4521 1.8599-2.9516 1.3066-3.5137-0.14843-0.15065-0.37026-0.22504-0.65234-0.21875z" style="fill:#900"/>
 <path transform="scale(.28222)" d="m7.5 1a6.5 6.5 0 0 0 -6.5 6.5 6.5 6.5 0 0 0 6.5 6.5 6.5 6.5 0 0 0 6.5 -6.5 6.5 6.5 0 0 0 -0.69141 -2.9141 2.1066 5.25 45 0 1 -0.33594 0.39062 2.1066 5.25 45 0 1 0 0.0019531 2.547 1.23 45 0 1 -0.070312 0.6875 2.547 1.23 45 0 1 -2.5176 -0.55859 2.547 1.23 45 0 1 -1.2871 -2.7734 2.547 1.23 45 0 1 0.92578 -0.30469 2.1066 5.25 45 0 1 0.38476 -0.33398 6.5 6.5 0 0 0 -2.9082 -0.69531z" style="fill:#900"/>
 <path transform="scale(.28222)" d="m1.8652 1a3.9375 1.58 45 0 0 -0.65234 0.21875 3.9375 1.58 45 0 0 0.46094 2.4082 7 7 0 0 1 1.9531 -1.9512 3.9375 1.58 45 0 0 -1.7617 -0.67578z" style="fill:#900"/>
</svg>
