<svg width="15" height="15" version="1.1" viewBox="0 0 4.2333334 4.2333334" xmlns="http://www.w3.org/2000/svg" xmlns:xlink="http://www.w3.org/1999/xlink">
 <path d="m1.7361 0.28351c-0.79089 0.03718-1.41 0.75166-1.3785 1.1402 0.030696 0.37804 0.9926 0.7101 0.98128 0.72138-0.1968 0.1655-0.32659 0.27728-0.49064 0.42662-0.39506 0.35963-0.66797 0.62642-0.52958 1.0006 0.15964 0.43167 0.50861 0.41378 0.91898 0.33354 1.0578-0.20779 2.7988-1.5405 2.7102-2.0323-0.071713-0.39792-1.0447-1.1845-1.6199-1.466-0.17969-0.087948-0.38417-0.13384-0.59189-0.12411zm0.16355 0.6826c0.098945-0.00919 0.21419 0.015702 0.34267 0.077563 0.28059 0.13512 0.57124 0.49384 0 0.69811-0.15533 0.055548-0.65369-0.13363-0.63861-0.3956 0.013742-0.24186 0.13103-0.3647 0.29594-0.38008z" style="fill-rule:evenodd;fill:#a8a2f5;stroke-width:.92857"/>
</svg>
