<svg width="15" height="15" version="1.1" xmlns="http://www.w3.org/2000/svg">
 <path d="m7.8303 6.5818z" style="fill:none;stroke-width:.054009"/>
 <path d="m3.9206 6.6302-0.29165 1.2345-0.43748 1.0802 0.24999 0.26456 1.0208-0.41887 0.62494-0.46295 0.33332 0.46295 0.52081 1.1243 0.64583 1.2566l0.74997 0.99205 0.91661 0.37478 0.7708 0.0441 0.625-0.85978 0.20832-0.28659h0.49998l0.14582-0.17636 0.08333-0.24251-0.12499-0.30863-0.02083-0.22045 0.35415-0.0441 0.08333-0.33068-0.18749-0.33068 0.14582-0.41886 0.29165-0.22046 0.22915-0.37477-0.04167-0.48499-0.16666-0.17637-0.33332-0.0441-0.31249-0.11023-0.27082-0.19841 0.08333-0.30864 0.10416-0.74954 0.35415 0.35272 0.72914 0.50705 0.7708 0.022 0.16666-0.17637-0.37498-0.35272-0.39582-0.61728 0.7708-0.22044 0.72914-0.485 0.54162-0.8818 0.12499-0.94796-0.29165-1.1243-0.41665-0.68338-0.83329-0.72752-0.89578 0.11022-0.85412 0.26456-0.43748-0.0221 0.12499 0.22046 0.60411 0.11021 0.54162 0.0441 0.72914 0.30864 0.41665 0.85978-0.04167 0.70545-0.12499 0.5732-0.33332 0.46295-0.43748 0.066101-0.60411-0.33068-0.60411-0.74954-0.85412-0.74953-0.74997-0.22046-0.68748 0.24251-0.31249 0.17636-0.49998-0.33067-1.0833-0.15433-0.625 0.19841-0.56245 0.46295-0.43748 0.57319-0.49998 0.63929-0.52081 0.33068-0.74997-0.0661-0.43748-0.41887v-0.72747l0.18749-0.66136 0.33332-0.55114 0.41665-0.41885 0.68748-0.35274 0.70831-0.022 0.7708 0.022 0.54162-0.22044-0.62494-0.17637-0.60411-0.28659-0.64583-0.17637-0.72914 0.11023-0.9791 0.39682-0.70831 0.52908-0.49998 0.94796-0.12499 0.96998-0.020832 0.55113 0.14583 0.70545 0.31249 0.66136 0.56245 0.6393 0.74997 0.19841 0.66665-0.0882z" style="fill:#ee7000;stroke-width:.054009"/>
 <path d="m4.1263 1c-1.4046 9.9999e-4 -3.3445 0.99466-3.1062 3.4456 0.25486 2.6215 1.9559 2.8026 2.6191 2.7716-0.13632 0.65497-0.2471 1.2469-0.75601 1.8222-0.71367 0.80675 1.5211 0.5185 2.2696-0.33949-0.069331 0.39203-0.14417 0.95419 0.15411 1.447 0.055579 0.0918 0.090438-0.2442 0.16001-0.21717 0.065002 0.0252-0.00207 0.77345 0.36129 0.99722 0.067332 0.0415 0.11873-0.15521 0.16197-0.22966 0.1283-0.22082 0.05284 0.90393 0.58774 1.1308 0.077925 0.03309 0.093288-0.1266 0.14861-0.19054 0.59383 1.4524 3.0988 1.9833 2.9859 0.38775-0.053921-0.36136 0.25172-0.57041 0.5213-0.43726 0.26959 0.13313 0.70097-0.43761 0.32356-0.89403 0.34717-0.14267 0.74048-0.46394 0.45801-0.68483-0.39605-0.29242 0.04311-0.5713 0.29683-0.84622 0.41682-0.45163 0.14886-1.2846-0.23392-1.1694-0.31795 0.0956-0.56571-0.11848-0.69179-0.25902 0.03942-0.24055 0.14042-0.4842 0.13314-0.7889 0.96646 1.3955 2.3373 0.79057 2.3199 0.51542-0.01521-0.24154-0.42951 0.0822-0.93802-0.85162 1.0601-0.12595 1.3923-0.38602 1.954-1.7873 0.60364-1.5062-0.78644-4.0417-2.2496-3.4698-0.7676 0.30004-1.1387 0.34729-1.6312 0.35947-0.12901 3e-3 0.08113 0.30966 0.42419 0.3894 0.50028 0.11629 1.169-0.09 1.7408 0.50174 0.65737 0.68021 0.30473 2.7165-0.55941 2.4072-0.8642-0.30932-1.0802-1.4925-2.1985-1.9766-0.7304-0.31621-1.3143 0.0415-1.6315 0.32785-0.054913-0.0537-0.11263-0.10478-0.17299-0.15311-0.94043-0.7531-2.1281-0.49363-3.05 0.94151-0.76886 1.1969-1.6539 1.0158-1.919 0.43019-0.42476-0.9384 0.67374-2.7302 2.2877-2.5016 0.35004 0.0461 1.2667 0.0266 1.2832-0.34447 0.00677-0.15189-0.35785 0.0422-0.92742-0.42186-0.24871-0.20264-0.65737-0.3125-1.1256-0.31204zm2.8629 3.5022c0.9259-8e-3 1.458 0.52621 1.8089 0.49759 0.29052-0.0237 0.52055-0.24539 0.65726-0.28721 0.8132-0.24872 1.5637 0.41716 1.8695 1.2495 0.37972 1.0337 0.69824 1.3845 0.91798 1.4374 0.12421 0.0299-0.39897 0.23487-0.86451-0.38316-0.11735-0.15579-0.14165 0.26717-0.37461-0.0317-0.3124-0.40079-0.35652-0.93895-0.49138-1.3497-0.08321-0.25346-0.32135-0.52865-0.37286-0.46003-0.06891 0.0918 0.20704 0.56024 0.1582 0.80469-0.26542-0.23409-0.61581-0.0578-0.71125-0.0641-0.083927-6e-3 -0.11788-0.15785-0.14226-0.14169-0.032144 0.0213-0.00848 0.10353-0.026042 0.24687-0.00931 0.0759-0.063229 0.12984-0.043705 0.2052 0.053842 0.20777 0.48183 0.66458 0.60312 1.102 0.12076 0.43543 0.49077 1.0351 0.94825 0.87452 0.35641-0.12512 0.467 0.63751 0.1435 0.92277-0.32351 0.28528-0.70768 0.52051-0.40415 0.8271 0.19769 0.1997 0.20442 0.49596-0.19776 0.45638-0.55259-0.11958-1.1532 0.26329-1.5454 0.24256-0.5212-0.03801-0.97055-0.67965-1.0784-0.92694-0.10784-0.24724-0.12592 0.12363 0.10772 0.46597 0.23365 0.34233 0.84484 0.94145 1.6536 0.59909 0.80874-0.34233 1.0782 0.2472 0.86257 0.4564-0.21567 0.20922-1.0784-0.03801-1.4558 0.26626-0.25298 0.20398-0.34124 0.60855-0.12817 0.93445-1.5399-0.16608-1.9617-1.5505-2.1803-3.1124 0.017664-0.27536-0.29188 0.21906-0.33142 0.36569-0.06537 0.24241-0.33815-1.1526-0.27677-1.4341 0.10529-0.48293-0.15639-0.18173-0.26656 0.052-0.096467 0.20468-0.17042-0.33123-0.075082-0.52878 0.24675-0.51133 0.26506-0.613 0.34675-1.7166 0.066335-0.8962 0.50823-0.7854 0.60228-0.89365 0.057106-0.0657 0.00773-0.12287-0.24257-0.0761-0.30553 0.057099-0.84489 0.32331-0.84489 1.3313 0 0.50551-0.32311 1.0635-0.4191 0.93689-0.15065-0.19867-0.27832 0.69462-0.35461 0.75555-0.076315 0.0609-0.082805-0.26888-0.24101-0.0508-0.19042 0.26257-0.26167 0.4827-0.77369 0.71685-0.76556 0.35007 0.12903-0.43238 0.18006-1.1508 0.05538-0.77962 0.28206-2.3631 1.7161-2.7009 0.39648-0.0934 0.87584-0.435 1.2667-0.43852zm2.9209 1.5931c0.15604 0.0157 0.33829 0.0333 0.4138 0.18875 0.13014 0.26789 0.05096 0.6235-0.01829 1.1301-0.03635 0.26595-0.13739 0.0534-0.24442-0.37587-0.12249-0.49133-0.47205-0.55178-0.50908-0.78513-0.025966-0.16372 0.16931-0.17685 0.35798-0.1579z" style="stroke-width:.054009"/>
 <path d="m8.003 6.3991c0 0.15756-0.1207 0.28528-0.26958 0.28528-0.14889 0-0.26958-0.12772-0.26958-0.28528 0-0.15755 0.1207-0.28528 0.26958-0.28528 0.14889 0 0.26958 0.12773 0.26958 0.28528z" style="stroke-width:.013623"/>
 <path d="m7.4074 6.8575c0.10038 0.0159 0.072049-0.025499 0.042687-0.063-0.36597-0.46804 0.11539-0.86457 0.66435-0.53664 0.075721 0.0452 0.22488-0.10024 0.07156-0.23448-0.021727-0.019-0.027615-0.3183-0.071408-0.33542-0.04378-0.0171-0.04041 0.26533-0.099788 0.2584-0.28232-0.0738-0.71209-0.0262-0.84216 0.29799-0.067494 0.16824-0.043768 0.45653 0.23477 0.61317z" style="stroke-width:.054009"/>
 <path d="m9.8156 8.6283s-0.6856-0.81831-1.3506-0.5235c-0.66498 0.2948-0.31342 1.1026-0.19661 1.1026-0.068727-0.34332-0.07995-0.84578 0.38641-0.97948 0.40438-0.10461 0.87894 0.46397 1.0424 0.6086 0.14969 0.13246 0.28692-0.082501 0.11837-0.20824z" style="stroke-width:.054009"/>
 <path d="m9.1953 9.1698c0.016795-0.089801-0.20183-0.65658-0.58465-0.54764-0.47735 0.13587-0.062353 0.60405 0.16996 0.43621 0.070076-0.05059 0.088818-0.087995 0.12809-0.077894 0.11061 0.028399 0.13404 0.16809 0.13992 0.25251 0.00897 0.12899 0.13524-2e-3 0.14668-0.0632z" style="stroke-width:.054009"/>
 <path d="m8.0907 6.0987z" style="fill:none;stroke-width:.054009"/>
 <path d="m10.294 6.3991c0 0.15756-0.1207 0.28528-0.26958 0.28528-0.14889 0-0.26958-0.12772-0.26958-0.28528 0-0.15755 0.1207-0.28528 0.26958-0.28528 0.14888 0 0.26958 0.12773 0.26958 0.28528z" style="stroke-width:.013623"/>
</svg>
