<svg width="15" height="15" version="1.1" viewBox="0 0 4.2333334 4.2333334" xmlns="http://www.w3.org/2000/svg">
 <g transform="matrix(.2108 0 0 .2108 .018632 -9.2947)">
  <path transform="matrix(1.3388 0 0 1.3388 -.088386 44.093)" d="m8.5 1a4.5 4.5 0 0 0 -4.5 4.5 4.5 4.5 0 0 0 2.9531 4.2168 2.25 2.25 0 0 0 0.54688 -1.4668 2.25 2.25 0 0 0 -0.056641 -0.48828 2.5 2.5 0 0 1 -1.4434 -2.2617 2.5 2.5 0 0 1 2.5 -2.5h2.5v2.5a2.5 2.5 0 0 1 -0.67969 1.707 5 5 0 0 1 0.17969 1.293 5 5 0 0 1 -0.12695 1.0859 4.5 4.5 0 0 0 2.627 -4.0859v-4.5h-4.5zm1.873 8.5859a4.5 4.5 0 0 1 -1.4238 0.39062 4.5 4.5 0 0 0 1.4238 -0.39062zm-3.4199 0.13086a4.5 4.5 0 0 0 0.41602 0.13086 4.5 4.5 0 0 1 -0.41602 -0.13086zm3.0312-2.2129a2.5 2.5 0 0 1 -0.082031 0.058594 2.5 2.5 0 0 0 0.082031 -0.058594zm-0.20117 0.13477a2.5 2.5 0 0 1 -0.091797 0.052734 2.5 2.5 0 0 0 0.091797 -0.052734zm-0.22656 0.12109a2.5 2.5 0 0 1 -0.095703 0.042969 2.5 2.5 0 0 0 0.095703 -0.042969zm-0.21484 0.087891a2.5 2.5 0 0 1 -0.13086 0.042969 2.5 2.5 0 0 0 0.13086 -0.042969zm-0.23438 0.072266a2.5 2.5 0 0 1 -0.14062 0.033203 2.5 2.5 0 0 0 0.14062 -0.033203zm-1.627 1.9512a4.5 4.5 0 0 0 0.3418 0.072266 4.5 4.5 0 0 1 -0.3418 -0.072266z" style="fill:#5e9cd2"/>
  <path transform="matrix(1.3388 0 0 1.3388 -.088386 44.093)" d="m6.9453 4.2461a2 2 0 0 0 -0.44531 1.2539 2 2 0 0 0 0.16797 0.79492 2.5 2.5 0 0 1 0.5332 0.37695c0.50842 0.47212 0.79777 1.1343 0.79883 1.8281-3e-7 1.3807-1.1193 2.5-2.5 2.5h-2.5v-2-0.5a2.5 2.5 0 0 1 0.6543 -1.6816 6 6 0 0 1 -0.1543 -1.3184 6 6 0 0 1 0.10156 -1.0742 4.5 4.5 0 0 0 -2.6016 4.0742v0.5 4h4.5c2.4853 0 4.5-2.0147 4.5-4.5-0.0010399-1.3931-0.64727-2.7072-1.75-3.5586a4.5 4.5 0 0 0 -1.3047 -0.69531z" style="fill:#5e9cd2"/>
 </g>
</svg>
