<?xml version="1.0" encoding="UTF-8" standalone="no"?>
<svg
   xmlns:dc="http://purl.org/dc/elements/1.1/"
   xmlns:cc="http://creativecommons.org/ns#"
   xmlns:rdf="http://www.w3.org/1999/02/22-rdf-syntax-ns#"
   xmlns:svg="http://www.w3.org/2000/svg"
   xmlns="http://www.w3.org/2000/svg"
   xmlns:xlink="http://www.w3.org/1999/xlink"
   xmlns:sodipodi="http://sodipodi.sourceforge.net/DTD/sodipodi-0.dtd"
   xmlns:inkscape="http://www.inkscape.org/namespaces/inkscape"
   width="14"
   viewBox="0 0 3.9511112 3.9511112"
   height="14"
   id="svg2"
   version="1.1"
   inkscape:version="0.91 r13725"
   sodipodi:docname="kubuntu.svg"
   inkscape:export-filename="/home/josh/Code/unixporn/resources/Flairs/kubuntu.png"
   inkscape:export-xdpi="90"
   inkscape:export-ydpi="90">
  <metadata
     id="metadata207">
    <rdf:RDF>
      <cc:Work
         rdf:about="">
        <dc:format>image/svg+xml</dc:format>
        <dc:type
           rdf:resource="http://purl.org/dc/dcmitype/StillImage" />
        <dc:title></dc:title>
      </cc:Work>
    </rdf:RDF>
  </metadata>
  <sodipodi:namedview
     pagecolor="#ffffff"
     bordercolor="#666666"
     borderopacity="1"
     objecttolerance="10"
     gridtolerance="10"
     guidetolerance="10"
     inkscape:pageopacity="0"
     inkscape:pageshadow="2"
     inkscape:window-width="1580"
     inkscape:window-height="840"
     id="namedview205"
     showgrid="false"
     inkscape:zoom="4.9166667"
     inkscape:cx="-0.64072067"
     inkscape:cy="10.983051"
     inkscape:window-x="10"
     inkscape:window-y="50"
     inkscape:window-maximized="0"
     inkscape:current-layer="svg2" />
  <defs
     id="defs4">
    <clipPath
       id="clipPath6">
      <rect
         height="208.57001"
         y="1580.9301"
         x="-830"
         width="477.14001"
         id="rect8"
         style="fill:#ffff00" />
    </clipPath>
    <clipPath
       id="clipPath10">
      <rect
         height="208.57001"
         y="1580.9301"
         x="-830"
         width="477.14001"
         id="rect12"
         style="fill:#ffff00" />
    </clipPath>
    <clipPath
       id="clipPath14">
      <rect
         height="208.57001"
         y="1580.9301"
         x="-830"
         width="477.14001"
         id="rect16"
         style="fill:#ffff00" />
    </clipPath>
    <clipPath
       id="clipPath18">
      <rect
         height="208.57001"
         y="1580.9301"
         x="-830"
         width="477.14001"
         id="rect20"
         style="fill:#ffff00" />
    </clipPath>
    <clipPath
       id="clipPath22">
      <rect
         transform="matrix(0.99975,-0.02255,0.02255,0.99975,0,0)"
         height="240.87"
         y="780.64001"
         x="294.92999"
         width="357.87"
         id="rect24"
         style="fill:#ff0000" />
    </clipPath>
    <clipPath
       id="clipPath26">
      <rect
         height="195"
         y="857.53998"
         width="301.42999"
         id="rect28"
         x="0"
         style="fill:#ffffff" />
    </clipPath>
    <clipPath
       id="clipPath30">
      <rect
         height="208.57001"
         y="1580.9301"
         x="-830"
         width="477.14001"
         id="rect32"
         style="fill:#ffff00" />
    </clipPath>
    <clipPath
       id="clipPath34">
      <rect
         height="30.01"
         y="977.09003"
         x="276.37"
         width="79.480003"
         id="rect36"
         style="fill:#e20a17" />
    </clipPath>
    <clipPath
       id="clipPath38">
      <rect
         transform="matrix(0.93742901,0.34817646,-0.34817646,0.93742901,0,0)"
         height="37.48"
         y="0.064000003"
         x="8.2080002"
         width="506.45999"
         id="rect40"
         style="fill:#162d50" />
    </clipPath>
    <clipPath
       id="clipPath42">
      <rect
         transform="matrix(0.999992,0.00399993,-0.00399993,0.999992,0,0)"
         height="318.39999"
         y="758.66998"
         x="218.89999"
         width="357.38"
         id="rect44"
         style="fill:#ffffff" />
    </clipPath>
    <clipPath
       id="clipPath46">
      <rect
         transform="matrix(0.999992,0.00399993,-0.00399993,0.999992,0,0)"
         height="318.39999"
         y="758.66998"
         x="218.89999"
         width="357.38"
         id="rect48"
         style="fill:#ffffff" />
    </clipPath>
    <clipPath
       id="clipPath50">
      <rect
         transform="matrix(0.93742901,0.34817646,-0.34817646,0.93742901,0,0)"
         height="37.48"
         y="0.064000003"
         x="8.2080002"
         width="506.45999"
         id="rect52"
         style="fill:#162d50" />
    </clipPath>
    <clipPath
       id="clipPath54">
      <rect
         height="208.57001"
         y="1580.9301"
         x="-830"
         width="477.14001"
         id="rect56"
         style="fill:#ffff00" />
    </clipPath>
    <clipPath
       id="clipPath58">
      <rect
         transform="matrix(0.999942,0.01077022,-0.01077022,0.999942,0,0)"
         height="235.88"
         y="804.23999"
         x="221.39"
         width="350.45999"
         id="rect60" />
    </clipPath>
    <clipPath
       id="clipPath62">
      <rect
         transform="matrix(0.999996,0.00282848,-0.00282848,0.999996,0,0)"
         height="279.03"
         y="793.52002"
         x="257.32001"
         width="287.42999"
         id="rect64"
         style="fill:#ffffff" />
    </clipPath>
    <clipPath
       id="clipPath66">
      <rect
         height="195"
         y="0.059999999"
         width="301.42999"
         id="rect68"
         x="0"
         style="fill:#ffffff" />
    </clipPath>
    <clipPath
       id="clipPath70">
      <rect
         height="195"
         y="857.53998"
         width="301.42999"
         id="rect72"
         x="0"
         style="fill:#ffffff" />
    </clipPath>
    <path
       clip-path="url(#2)"
       id="0"
       d="m 699.2857,672.93231 a 40.71429,40.71429 0 1 1 -81.42858,0 40.71429,40.71429 0 1 1 81.42858,0 z"
       inkscape:connector-curvature="0"
       style="fill:#44aa00" />
    <clipPath
       id="clipPath75">
      <use
         xlink:href="#0"
         transform="matrix(4.3233,0,0,4.3233,-2450.68,-2667.55)"
         id="use77"
         x="0"
         y="0"
         width="100%"
         height="100%" />
    </clipPath>
    <clipPath
       id="clipPath79">
      <rect
         transform="matrix(0.88741602,0.46096942,-0.46096942,0.88741602,0,0)"
         height="41.389999"
         y="815.73999"
         x="448.12"
         width="63.987"
         id="rect81"
         style="fill:#ffffff" />
    </clipPath>
    <clipPath
       id="clipPath83">
      <rect
         height="195"
         y="857.53998"
         width="301.42999"
         id="rect85"
         x="0"
         style="fill:#ffffff" />
    </clipPath>
    <clipPath
       id="clipPath87">
      <rect
         height="208.57001"
         y="1580.9301"
         x="-830"
         width="477.14001"
         id="rect89"
         style="fill:#ffff00" />
    </clipPath>
    <clipPath
       id="clipPath91">
      <rect
         height="208.57001"
         y="1580.9301"
         x="-830"
         width="477.14001"
         id="rect93"
         style="fill:#ffff00" />
    </clipPath>
    <clipPath
       id="clipPath95">
      <rect
         height="208.57001"
         y="1580.9301"
         x="-830"
         width="477.14001"
         id="rect97"
         style="fill:#ffff00" />
    </clipPath>
    <clipPath
       id="clipPath99">
      <rect
         height="208.57001"
         y="1580.9301"
         x="-830"
         width="477.14001"
         id="rect101"
         style="fill:#ffff00" />
    </clipPath>
    <clipPath
       id="clipPath103">
      <rect
         height="208.57001"
         y="1580.9301"
         x="-830"
         width="477.14001"
         id="rect105"
         style="fill:#ffff00" />
    </clipPath>
    <clipPath
       id="clipPath107">
      <use
         xlink:href="#0"
         id="use109"
         x="0"
         y="0"
         width="100%"
         height="100%" />
    </clipPath>
    <clipPath
       id="clipPath111">
      <rect
         height="208.57001"
         y="1580.9301"
         x="-830"
         width="477.14001"
         id="rect113"
         style="fill:#ffff00" />
    </clipPath>
    <path
       id="1"
       d="m 699.2857,672.93231 a 40.71429,40.71429 0 1 1 -81.42858,0 40.71429,40.71429 0 1 1 81.42858,0 z"
       inkscape:connector-curvature="0"
       style="fill:#44aa00" />
    <clipPath
       id="2">
      <use
         xlink:href="#1"
         id="use117"
         x="0"
         y="0"
         width="100%"
         height="100%" />
    </clipPath>
    <clipPath
       id="clipPath119">
      <use
         transform="matrix(4.3233,0,0,4.3233,-2450.68,-2667.55)"
         xlink:href="#1"
         id="use121"
         x="0"
         y="0"
         width="100%"
         height="100%" />
    </clipPath>
    <linearGradient
       gradientUnits="userSpaceOnUse"
       x2="0"
       y2="40"
       y1="280"
       xlink:href="#4"
       id="3"
       gradientTransform="matrix(0.175,0,0,0.175,302.79999,215.99997)" />
    <linearGradient
       id="4">
      <stop
         stop-color="#151515"
         id="stop125" />
      <stop
         stop-color="#222"
         offset="1"
         id="stop127" />
    </linearGradient>
    <linearGradient
       gradientUnits="userSpaceOnUse"
       x2="0"
       y2="90"
       y1="230"
       xlink:href="#4"
       id="5"
       gradientTransform="matrix(0.375,0,0,0.375,298,16)" />
    <linearGradient
       gradientUnits="userSpaceOnUse"
       x2="0"
       y2="90"
       y1="230"
       xlink:href="#4"
       id="6"
       gradientTransform="matrix(0.25,0,0,0.25,299.99999,131.99999)" />
    <clipPath
       id="clipPath131">
      <rect
         height="20"
         rx="4"
         y="78"
         x="434"
         width="20"
         id="rect133"
         style="color:#bebebe" />
    </clipPath>
    <clipPath
       id="clipPath135">
      <rect
         height="22"
         rx="4"
         y="77"
         x="433"
         width="22"
         id="rect137"
         style="color:#bebebe" />
    </clipPath>
    <clipPath
       id="clipPath139">
      <rect
         height="22"
         rx="5"
         y="77"
         x="433"
         width="22"
         id="rect141"
         style="color:#bebebe" />
    </clipPath>
    <clipPath
       id="clipPath143">
      <rect
         height="30"
         rx="6"
         y="29"
         x="433"
         width="30"
         id="rect145"
         style="color:#bebebe" />
    </clipPath>
    <clipPath
       id="clipPath147">
      <rect
         transform="matrix(0,-1,1,0,0,0)"
         height="60"
         rx="12.5"
         y="142"
         x="306"
         width="60"
         id="rect149"
         style="color:#bebebe;fill:url(#6)" />
    </clipPath>
    <clipPath
       id="clipPath151">
      <rect
         height="90"
         rx="18.75"
         y="31"
         x="307"
         width="90"
         id="rect153"
         style="color:#bebebe;fill:url(#5)" />
    </clipPath>
    <clipPath
       id="clipPath155">
      <rect
         height="30"
         rx="4"
         y="29"
         x="433"
         width="30"
         id="rect157"
         style="color:#bebebe;opacity:0.2;fill:#6d6d6d" />
    </clipPath>
    <clipPath
       id="clipPath159">
      <rect
         height="22"
         rx="3"
         y="77"
         x="433"
         width="22"
         id="rect161"
         style="color:#bebebe;opacity:0.2;fill:#6d6d6d" />
    </clipPath>
    <clipPath
       id="clipPath163">
      <path
         d="m 144,70 c -49.705627,0 -90,40.29437 -90,90 0,49.70563 40.294373,90 90,90 49.70563,0 90,-40.29437 90,-90 0,-49.70563 -40.29437,-90 -90,-90 z m 0,32.1875 c 32.03251,0 58,25.96748 58,58 0,32.03252 -25.96749,58 -58,58 -32.03251,0 -58,-25.96748 -58,-58 0,-32.03252 25.96749,-58 58,-58 z"
         id="path165"
         inkscape:connector-curvature="0" />
    </clipPath>
    <clipPath
       id="clipPath167">
      <rect
         height="16"
         rx="3"
         y="116"
         x="432"
         width="16"
         id="rect169"
         style="color:#bebebe" />
    </clipPath>
    <clipPath
       id="clipPath171">
      <path
         d="m 145,215 c 33.13708,0 60,-26.86292 60,-60 0,-33.13708 -26.86292,-60 -60,-60 -33.13708,0 -60,26.86292 -60,60 0,12.50698 3.8285,24.10633 10.375,33.71875 L 89,211 111.28125,204.625 C 120.89367,211.1715 132.49302,215 145,215 Z"
         id="path173"
         inkscape:connector-curvature="0" />
    </clipPath>
    <clipPath
       id="clipPath175">
      <path
         d="m 152,204 a 8,8 0 1 1 -16,0 8,8 0 1 1 16,0 z"
         id="path177"
         inkscape:connector-curvature="0" />
    </clipPath>
    <clipPath
       id="clipPath179">
      <path
         d="m 98.03125,23.191212 c -41.492132,1.05238 -74.84375,35.06824 -74.84375,76.812498 0,42.40687 34.405632,76.8125 76.8125,76.8125 42.40687,0 76.8125,-34.40563 76.8125,-76.8125 0,-42.406866 -34.40563,-76.812498 -76.8125,-76.812498 -0.662607,0 -1.310145,-0.0167 -1.96875,0 z M 100,50.659962 c 27.24464,0 49.34375,22.099114 49.34375,49.343748 -1e-5,27.24464 -22.09911,49.34375 -49.34375,49.34375 -27.244636,-1e-5 -49.34375,-22.09911 -49.34375,-49.34375 0,-27.244634 22.099114,-49.343748 49.34375,-49.343748 z"
         id="path181"
         inkscape:connector-curvature="0" />
    </clipPath>
    <clipPath
       id="clipPath183">
      <rect
         height="16"
         rx="2"
         y="116"
         x="432"
         width="16"
         id="rect185"
         style="color:#bebebe;opacity:0.2;fill:#6d6d6d" />
    </clipPath>
    <clipPath
       id="clipPath187">
      <rect
         height="240"
         rx="50"
         y="36"
         x="24"
         width="240"
         id="rect189"
         style="color:#bebebe;fill:#986767" />
    </clipPath>
    <clipPath
       id="clipPath191">
      <rect
         transform="matrix(0,1,-1,0,0,0)"
         height="42"
         rx="9"
         y="223"
         x="307"
         width="42"
         id="rect193"
         style="color:#bebebe;fill:url(#3)" />
    </clipPath>
  </defs>
  <path
     d="m 1.8526739,1.7708852e-4 c -0.00193,1.412e-4 -0.00382,3.996e-4 -0.00576,8.8080148e-4 l -0.3569658,0.086471 c -0.014996,0.00365 -0.02572,0.017176 -0.02572,0.032647 l 0.1574205,0.7226355 0.00621,0.0035 c 0.119959,-0.03997 0.2478715,-0.06176 0.3813548,-0.06176 0.6024457,0 1.1015671,0.44119801 1.1884082,1.01645501 L 3.931951,1.6408614 c 0.014403,-0.0069 0.022009,-0.02255 0.018182,-0.03794 l -0.08692,-0.355117 c -0.00367,-0.01495 -0.017302,-0.02557 -0.032815,-0.02559 l -0.5862205,-4.4e-4 C 3.1946985,1.1289944 3.1335865,1.0415504 3.0614818,0.96192539 l 0.1911202,-0.535139 c 0.00533,-0.01488 -5.542e-4,-0.031455 -0.01419,-0.039705 L 2.9240149,0.19738059 c -0.013277,-0.00804 -0.029918,-0.006 -0.040796,0.00485 l -0.3951008,0.3922018 c -0.117138,-0.03721 -0.2372248,-0.05783 -0.3569665,-0.06132 l -0.245662,-0.513965 c -0.00516,-0.010768 -0.015687,-0.017845 -0.02705,-0.0189700015 -0.0019,-2.41499999e-4 -0.00383,-1.41199999e-4 -0.00576,0 z"
     id="path199"
     inkscape:connector-curvature="0"
     style="fill:#0079c1;fill-opacity:1;fill-rule:evenodd" />
  <path
     d="m 0.69397675,0.52340439 c -0.007477,7.7e-4 -0.0147892,0.0041 -0.020398,0.0097 l -0.25985344,0.258526 c -0.0109264,0.01091 -0.0129284,0.02783 -0.004877,0.04103 L 0.71348764,1.3311814 c -0.0539658,0.09027 -0.0972395,0.187623 -0.1281523,0.29029 l -0.55872951,0.11559 C 0.01106583,1.7402704 0,1.7538364 0,1.7697084 l 0,0.36573 c 0,0.01546 0.01030808,0.02904 0.02527583,0.03265 l 0.54232225,0.131467 c 0.0289118,0.118907 0.0738147,0.231689 0.13303071,0.335289 l -0.31395235,0.476464 c -0.008761,0.0133 -0.006882,0.0307 0.004433,0.04191 l 0.25985478,0.258525 c 0.0109264,0.01084 0.0279201,0.01283 0.0412387,0.0049 l 0.50196938,-0.552345 0,-0.0079 C 0.95703141,2.6379354 0.80793908,2.3265154 0.80793908,1.9797054 c 0,-0.384655 0.18324894,-0.725895 0.46693862,-0.944544 L 0.71614855,0.52869839 c -0.006688,-0.0043 -0.0147035,-0.0061 -0.0221713,-0.0053 z"
     id="path201"
     inkscape:connector-curvature="0"
     style="fill:#0079c1;fill-opacity:1;fill-rule:evenodd" />
  <path
     d="m 3.1825389,2.2373484 c -0.1185033,0.536257 -0.5987052,0.937926 -1.1733314,0.937926 -0.1513628,0 -0.2958491,-0.02814 -0.429246,-0.07897 l -0.00355,0.0022 -0.1920083,0.722636 c -8.925e-4,0.01586 0.00943,0.0299 0.024832,0.03397 l 0.3547486,0.09485 c 0.014953,0.004 0.031113,-0.0023 0.038579,-0.01588 l 0.2820244,-0.511312 c 0.1055562,0.0015 0.2117652,-0.0098 0.3166132,-0.03441 l 0.3795811,0.423965 c 0.010553,0.0118 0.028306,0.01455 0.042126,0.0066 l 0.3183886,-0.182644 c 0.013466,-0.0077 0.019851,-0.02367 0.01552,-0.03838 L 3.0007302,3.0649944 c 0.089126,-0.08428 0.1650416,-0.179142 0.2257095,-0.281907 l 0.5711451,0.03265 c 0.015954,9.04e-4 0.030465,-0.0094 0.034586,-0.02471 l 0.09534,-0.352936 c 0.00397,-0.01483 -0.00233,-0.03087 -0.015966,-0.03838 L 3.1825389,2.2373484 Z"
     id="path203"
     inkscape:connector-curvature="0"
     style="fill:#0079c1;fill-opacity:1;fill-rule:evenodd" />
</svg>
