<svg width="15" height="15" version="1.1" viewBox="0 0 4.2333334 4.2333334" xmlns="http://www.w3.org/2000/svg" xmlns:xlink="http://www.w3.org/1999/xlink">
 <path d="m2.0026 0.28236c-0.00179 1.3112e-4 -0.00355 3.7106e-4 -0.00535 8.1789e-4l-0.33147 0.080294c-0.013925 0.003389-0.023883 0.015949-0.023883 0.030315l0.14618 0.67102 0.00577 0.00325c0.11139-0.037115 0.23017-0.057349 0.35411-0.057349 0.55941 0 1.0229 0.40968 1.1035 0.94385l0.68187-0.14871c0.013374-0.00641 0.020437-0.020939 0.016883-0.03523l-0.080711-0.32975c-0.00341-0.013882-0.016066-0.023744-0.030471-0.023762l-0.54435-4.087e-4c-0.045945-0.086153-0.10269-0.16735-0.16965-0.24129l0.17747-0.49691c0.00495-0.013817-5.146e-4 -0.029208-0.013176-0.036869l-0.29194-0.17615c-0.012329-0.007466-0.027781-0.005571-0.037882 0.004504l-0.36688 0.36419c-0.10877-0.034552-0.22028-0.053699-0.33147-0.05694l-0.22811-0.47725c-0.00479-0.009999-0.014567-0.01657-0.025118-0.017615-0.00176-2.2425e-4 -0.00356-1.3111e-4 -0.00535 0z" style="fill-rule:evenodd;fill:#0079c1;stroke-width:.92857"/>
 <path d="m0.92663 0.76821c-0.006943 7.15e-4 -0.013733 0.003807-0.018941 0.009007l-0.24129 0.24006c-0.010146 0.010131-0.012005 0.025842-0.004529 0.038099l0.28288 0.46291c-0.050111 0.083822-0.090294 0.17422-0.119 0.26955l-0.51882 0.10733c-0.01443 0.00298-0.024705 0.015577-0.024705 0.030315v0.33961c0 0.014356 0.009572 0.026966 0.02347 0.030318l0.50358 0.12208c0.026847 0.11041 0.068542 0.21514 0.12353 0.31134l-0.29153 0.44243c-0.008135 0.01235-0.00639 0.028507 0.004116 0.038916l0.24129 0.24006c0.010146 0.010066 0.025926 0.011914 0.038293 0.00455l0.46611-0.51289v-0.00734c-0.2202-0.20285-0.35864-0.49203-0.35864-0.81407 0-0.35718 0.17016-0.67404 0.43359-0.87708l-0.51882-0.47029c-0.00621-0.003993-0.013653-0.005664-0.020588-0.004921z" style="fill-rule:evenodd;fill:#0079c1;stroke-width:.92857"/>
 <path d="m3.2374 2.3597c-0.11004 0.49795-0.55594 0.87093-1.0895 0.87093-0.14055 0-0.27472-0.02613-0.39858-0.073329l-0.0033 0.00204-0.17829 0.67102c-8.288e-4 0.014727 0.00876 0.027764 0.023058 0.031544l0.32941 0.088075c0.013885 0.00371 0.028891-0.00214 0.035823-0.014746l0.26188-0.47479c0.098016 0.00139 0.19664-0.0091 0.294-0.031952l0.35247 0.39368c0.0098 0.010957 0.026284 0.013511 0.039117 0.00613l0.29565-0.1696c0.012504-0.00715 0.018433-0.021979 0.014411-0.035639l-0.14494-0.49484c0.08276-0.07826 0.15325-0.16635 0.20959-0.26177l0.53035 0.030318c0.014814 8.394e-4 0.028289-0.00873 0.032115-0.022945l0.08853-0.32773c0.00369-0.013771-0.00216-0.028665-0.014826-0.035639z" style="fill-rule:evenodd;fill:#0079c1;stroke-width:.92857"/>
</svg>
