<svg width="15" height="15" version="1.1" viewBox="0 0 4.2333334 4.2333334" xmlns="http://www.w3.org/2000/svg" xmlns:xlink="http://www.w3.org/1999/xlink">
 <path d="m3.6075 2.6541c-0.056035 0.21077-0.34046 0.65091-0.49158 0.84463-0.15111 0.1945-0.13244 0.36962-0.41177 0.30143-0.27848-0.06819-0.35659-0.05579-0.64439-0.04029-0.28613 0.01549-0.22415-0.0078-0.40328 0.06587-0.17829 0.073607-0.77685-0.89268-0.82525-1.0724-0.047533-0.17979-0.070468-0.15809 0.053488-0.35259 0.12397-0.19449 0.14179-0.38667 0.30565-0.62224 0.16386-0.23634 0.35319-0.35645 0.33961-0.537-0.053476-0.67028-0.095939-1.005 0.2301-1.16 0.31074-0.14723 0.57054-0.059667 0.67327-0.009299 0.044149 0.021697 0.13414 0.063541 0.20122 0.13716 0.067073 0.072065 0.12735 0.18132 0.16131 0.31926 0.06962 0.27664-0.028868 0.1852 0.050092 0.50213 0.07811 0.31614 0.23688 0.47112 0.43045 0.72141 0.19355 0.2503 0.39562 0.66332 0.33109 0.90198z" style="stroke-width:1.0146"/>
 <path d="m1.9007 1.3803c-0.11037 0.0039-0.28527-0.27818-0.28952-0.16118-0.0034 0.09919 0.00255 0.09764 0.00255 0.19372 0 0.06432-0.032263 0.06897-0.10188 0.16583-0.035659 0.05114-0.063676 0.10616-0.085751 0.16195-0.013584 0.03332-0.02632 0.06819-0.036508 0.10228-0.00425 0.01705-0.011886 0.03487-0.016131 0.05192-0.03481 0.11701-0.15877 0.26114-0.18763 0.37815-0.028867 0.11623-0.062828 0.19062-0.058582 0.34639 0.00425 0.15575 0.00594 0.1108 0.057733 0.14955 0.050941 0.03876 0.10358 0.07515 0.18424 0.14026 0.084902 0.06742 0.26151 0.1852 0.28527 0.22162 0.02547 0.03719 0.024622 0.12088 0.00934 0.148-0.015282 0.02634-0.14858 0.04107-0.14773 0.04107-8.393e-4 0 0.11632 0.14723 0.13925 0.16814 0.022075 0.02016 0.11716 0.11702 0.50432 0.05114 0.2182-0.03719 0.38715-0.14877 0.50941-0.25649 0.15792-0.14024 0.078109-0.18054 0.098486-0.25105 0.029726-0.10152 0.12652-0.13948 0.14859-0.25416 0.00255-0.01627 0.00849-0.02867 0.024621-0.05269 0.024621-0.0341 0.01868-0.10151 0.01868-0.16349 0-0.16119-0.02039-0.32545-0.061141-0.44634-0.037359-0.11314-0.096791-0.19217-0.14772-0.29446-0.10189-0.2038-0.096788-0.29523-0.18763-0.42542-0.10358-0.15033-0.052639-0.25029-0.19018-0.24409-0.17153 0.0085-0.30992 0.22315-0.47208 0.22935z" style="fill:#f9f9f9;stroke-width:1.0146"/>
 <path d="m1.9593 0.8487c0.061979-7e-3 0.14688 7e-3 0.18595 0.03332 0.036508 0.0248 0.061979 0.03797 0.095079 0.04804 0.11123 0.03332 0.25725 0.04882 0.25046 0.14026-0.00764 0.10925-0.042451 0.15808-0.14179 0.18674-0.079808 0.02247-0.22243 0.14878-0.33282 0.14878-0.049244 0-0.11801 0.0023-0.15792-0.01085-0.038206-0.0124-0.091693-0.07129-0.15452-0.11856-0.062827-0.04649-0.12141-0.09609-0.1231-0.16118-0.00256-0.06895 0.046696-0.09144 0.1163-0.14644 0.03652-0.02944 0.10273-0.07826 0.14859-0.09996 0.04244-0.01936 0.069607-0.01549 0.11376-0.02015z" style="fill:#ffd133;stroke-width:1.0146"/>
 <path d="m3.5945 2.8254c0.052639 0.06973-0.00171 0.1604 0.036508 0.2162 0.062827 0.09144 0.18933 0.18364 0.23773 0.20921 0.03481 0.01937 0.084052 0.03796 0.082343 0.09453-0.00255 0.06433-0.037357 0.08137-0.056872 0.0992-0.039067 0.03566-0.23604 0.12476-0.36678 0.20612-0.16471 0.10306-0.22159 0.14878-0.27508 0.19759-0.083204 0.07595-0.16216 0.10151-0.28867 0.10151-0.1265 0-0.18339-0.02401-0.22243-0.05579-0.039067-0.031-0.082355-0.11004-0.078109-0.22782 0.0034-0.11701 0.044149-0.22395 0.063664-0.40605 0.0085-0.07825 0.00764-0.17512 0.00764-0.26114 0-0.10848 0.00171-0.2007 0.027168-0.21464 0.045859-0.02635 0.056035-0.0279 0.11037-0.0279 0.054325 0 0.078958 0.0031 0.096788 0.01936 0.016969 0.0155 0.010192 0.05114 0.00423 0.10152-0.0051 0.05038 0.021239 0.06664 0.047545 0.08756 0.026318 0.02015 0.050092 0.04572 0.13331 0.05192 0.083204 0.0054 0.11376-7e-3 0.15282-0.02945 0.039055-0.02247 0.094229-0.06277 0.11462-0.08601 0.019529-0.02247 0.067921-0.09995 0.077261-0.09995 0.00848 0 0.064525-0.01782 0.095939 0.02402z" style="fill:#ffd133;stroke-width:1.0146"/>
 <path d="m0.63311 2.9448c-0.0764 0.05037-0.26999 0.04572-0.31923 0.1046-0.048394 0.0589 0.00171 0.14414 8.5194e-4 0.30221 0 0.06743-0.012736 0.11857-0.021225 0.15963-0.011886 0.05192-0.019527 0.08835 0.004247 0.12553 0.0433 0.06588 0.11291 0.08215 0.51111 0.15808 0.2131 0.04029 0.41432 0.1449 0.54931 0.15497 0.13499 0.0093 0.16386-0.03176 0.24621-0.09841 0.081506-0.06664 0.10783-0.04572 0.10528-0.19217-0.0025431-0.14567-0.10528-0.18906-0.22159-0.35722-0.11632-0.16815-0.13499-0.19915-0.21225-0.31073-0.077261-0.11003-0.23008-0.30996-0.31753-0.31229-0.06962-0.0015-0.10867 0.03255-0.15197 0.07285-0.0433 0.04031-0.096788 0.14258-0.1732 0.19296z" style="fill:#ffd133;stroke-width:1.0146"/>
</svg>
