<?xml version="1.0" encoding="UTF-8" standalone="no"?>
<svg
   xmlns:dc="http://purl.org/dc/elements/1.1/"
   xmlns:cc="http://creativecommons.org/ns#"
   xmlns:rdf="http://www.w3.org/1999/02/22-rdf-syntax-ns#"
   xmlns:svg="http://www.w3.org/2000/svg"
   xmlns="http://www.w3.org/2000/svg"
   xmlns:xlink="http://www.w3.org/1999/xlink"
   xmlns:sodipodi="http://sodipodi.sourceforge.net/DTD/sodipodi-0.dtd"
   xmlns:inkscape="http://www.inkscape.org/namespaces/inkscape"
   width="14"
   viewBox="0 0 3.9511112 3.9511112"
   height="14"
   id="svg2"
   version="1.1"
   inkscape:version="0.91 r13725"
   sodipodi:docname="linux.svg"
   inkscape:export-filename="/home/josh/Code/unixporn/resources/Flairs/linux.png"
   inkscape:export-xdpi="90"
   inkscape:export-ydpi="90">
  <metadata
     id="metadata203">
    <rdf:RDF>
      <cc:Work
         rdf:about="">
        <dc:format>image/svg+xml</dc:format>
        <dc:type
           rdf:resource="http://purl.org/dc/dcmitype/StillImage" />
        <dc:title></dc:title>
      </cc:Work>
    </rdf:RDF>
  </metadata>
  <sodipodi:namedview
     pagecolor="#ffffff"
     bordercolor="#666666"
     borderopacity="1"
     objecttolerance="10"
     gridtolerance="10"
     guidetolerance="10"
     inkscape:pageopacity="0"
     inkscape:pageshadow="2"
     inkscape:window-width="1580"
     inkscape:window-height="840"
     id="namedview201"
     showgrid="true"
     inkscape:zoom="22.627417"
     inkscape:cx="14.10011"
     inkscape:cy="7.2050598"
     inkscape:window-x="10"
     inkscape:window-y="50"
     inkscape:window-maximized="0"
     inkscape:current-layer="svg2">
    <inkscape:grid
       type="xygrid"
       id="grid8283" />
  </sodipodi:namedview>
  <defs
     id="defs4">
    <inkscape:perspective
       sodipodi:type="inkscape:persp3d"
       inkscape:vp_x="0.20338983 : 24 : 1"
       inkscape:vp_y="0 : 1000 : 0"
       inkscape:vp_z="48.20339 : 24 : 1"
       inkscape:persp3d-origin="24.20339 : 16 : 1"
       id="perspective3180" />
    <clipPath
       id="clipPath6">
      <rect
         height="208.57001"
         y="1580.9301"
         x="-830"
         width="477.14001"
         id="rect8"
         style="fill:#ffff00" />
    </clipPath>
    <clipPath
       id="clipPath10">
      <rect
         height="208.57001"
         y="1580.9301"
         x="-830"
         width="477.14001"
         id="rect12"
         style="fill:#ffff00" />
    </clipPath>
    <clipPath
       id="clipPath14">
      <rect
         height="208.57001"
         y="1580.9301"
         x="-830"
         width="477.14001"
         id="rect16"
         style="fill:#ffff00" />
    </clipPath>
    <clipPath
       id="clipPath18">
      <rect
         height="208.57001"
         y="1580.9301"
         x="-830"
         width="477.14001"
         id="rect20"
         style="fill:#ffff00" />
    </clipPath>
    <clipPath
       id="clipPath22">
      <rect
         transform="matrix(0.99975,-0.02255,0.02255,0.99975,0,0)"
         height="240.87"
         y="780.64001"
         x="294.92999"
         width="357.87"
         id="rect24"
         style="fill:#ff0000" />
    </clipPath>
    <clipPath
       id="clipPath26">
      <rect
         height="195"
         y="857.53998"
         width="301.42999"
         id="rect28"
         x="0"
         style="fill:#ffffff" />
    </clipPath>
    <clipPath
       id="clipPath30">
      <rect
         height="208.57001"
         y="1580.9301"
         x="-830"
         width="477.14001"
         id="rect32"
         style="fill:#ffff00" />
    </clipPath>
    <clipPath
       id="clipPath34">
      <rect
         height="30.01"
         y="977.09003"
         x="276.37"
         width="79.480003"
         id="rect36"
         style="fill:#e20a17" />
    </clipPath>
    <clipPath
       id="clipPath38">
      <rect
         transform="matrix(0.93742901,0.34817646,-0.34817646,0.93742901,0,0)"
         height="37.48"
         y="0.064000003"
         x="8.2080002"
         width="506.45999"
         id="rect40"
         style="fill:#162d50" />
    </clipPath>
    <clipPath
       id="clipPath42">
      <rect
         transform="matrix(0.999992,0.00399993,-0.00399993,0.999992,0,0)"
         height="318.39999"
         y="758.66998"
         x="218.89999"
         width="357.38"
         id="rect44"
         style="fill:#ffffff" />
    </clipPath>
    <clipPath
       id="clipPath46">
      <rect
         transform="matrix(0.999992,0.00399993,-0.00399993,0.999992,0,0)"
         height="318.39999"
         y="758.66998"
         x="218.89999"
         width="357.38"
         id="rect48"
         style="fill:#ffffff" />
    </clipPath>
    <clipPath
       id="clipPath50">
      <rect
         transform="matrix(0.93742901,0.34817646,-0.34817646,0.93742901,0,0)"
         height="37.48"
         y="0.064000003"
         x="8.2080002"
         width="506.45999"
         id="rect52"
         style="fill:#162d50" />
    </clipPath>
    <clipPath
       id="clipPath54">
      <rect
         height="208.57001"
         y="1580.9301"
         x="-830"
         width="477.14001"
         id="rect56"
         style="fill:#ffff00" />
    </clipPath>
    <clipPath
       id="clipPath58">
      <rect
         transform="matrix(0.999942,0.01077022,-0.01077022,0.999942,0,0)"
         height="235.88"
         y="804.23999"
         x="221.39"
         width="350.45999"
         id="rect60" />
    </clipPath>
    <clipPath
       id="clipPath62">
      <rect
         transform="matrix(0.999996,0.00282848,-0.00282848,0.999996,0,0)"
         height="279.03"
         y="793.52002"
         x="257.32001"
         width="287.42999"
         id="rect64"
         style="fill:#ffffff" />
    </clipPath>
    <clipPath
       id="clipPath66">
      <rect
         height="195"
         y="0.059999999"
         width="301.42999"
         id="rect68"
         x="0"
         style="fill:#ffffff" />
    </clipPath>
    <clipPath
       id="clipPath70">
      <rect
         height="195"
         y="857.53998"
         width="301.42999"
         id="rect72"
         x="0"
         style="fill:#ffffff" />
    </clipPath>
    <path
       clip-path="url(#2)"
       id="0"
       d="m 699.2857,672.93231 a 40.71429,40.71429 0 1 1 -81.42858,0 40.71429,40.71429 0 1 1 81.42858,0 z"
       inkscape:connector-curvature="0"
       style="fill:#44aa00" />
    <clipPath
       id="clipPath75">
      <use
         xlink:href="#0"
         transform="matrix(4.3233,0,0,4.3233,-2450.68,-2667.55)"
         id="use77"
         x="0"
         y="0"
         width="100%"
         height="100%" />
    </clipPath>
    <clipPath
       id="clipPath79">
      <rect
         transform="matrix(0.88741602,0.46096942,-0.46096942,0.88741602,0,0)"
         height="41.389999"
         y="815.73999"
         x="448.12"
         width="63.987"
         id="rect81"
         style="fill:#ffffff" />
    </clipPath>
    <clipPath
       id="clipPath83">
      <rect
         height="195"
         y="857.53998"
         width="301.42999"
         id="rect85"
         x="0"
         style="fill:#ffffff" />
    </clipPath>
    <clipPath
       id="clipPath87">
      <rect
         height="208.57001"
         y="1580.9301"
         x="-830"
         width="477.14001"
         id="rect89"
         style="fill:#ffff00" />
    </clipPath>
    <clipPath
       id="clipPath91">
      <rect
         height="208.57001"
         y="1580.9301"
         x="-830"
         width="477.14001"
         id="rect93"
         style="fill:#ffff00" />
    </clipPath>
    <clipPath
       id="clipPath95">
      <rect
         height="208.57001"
         y="1580.9301"
         x="-830"
         width="477.14001"
         id="rect97"
         style="fill:#ffff00" />
    </clipPath>
    <clipPath
       id="clipPath99">
      <rect
         height="208.57001"
         y="1580.9301"
         x="-830"
         width="477.14001"
         id="rect101"
         style="fill:#ffff00" />
    </clipPath>
    <clipPath
       id="clipPath103">
      <rect
         height="208.57001"
         y="1580.9301"
         x="-830"
         width="477.14001"
         id="rect105"
         style="fill:#ffff00" />
    </clipPath>
    <clipPath
       id="clipPath107">
      <use
         xlink:href="#0"
         id="use109"
         x="0"
         y="0"
         width="100%"
         height="100%" />
    </clipPath>
    <clipPath
       id="clipPath111">
      <rect
         height="208.57001"
         y="1580.9301"
         x="-830"
         width="477.14001"
         id="rect113"
         style="fill:#ffff00" />
    </clipPath>
    <path
       id="1"
       d="m 699.2857,672.93231 a 40.71429,40.71429 0 1 1 -81.42858,0 40.71429,40.71429 0 1 1 81.42858,0 z"
       inkscape:connector-curvature="0"
       style="fill:#44aa00" />
    <clipPath
       id="2">
      <use
         xlink:href="#1"
         id="use117"
         x="0"
         y="0"
         width="100%"
         height="100%" />
    </clipPath>
    <clipPath
       id="clipPath119">
      <use
         transform="matrix(4.3233,0,0,4.3233,-2450.68,-2667.55)"
         xlink:href="#1"
         id="use121"
         x="0"
         y="0"
         width="100%"
         height="100%" />
    </clipPath>
    <linearGradient
       gradientUnits="userSpaceOnUse"
       x2="0"
       y2="40"
       y1="280"
       xlink:href="#4"
       id="3"
       gradientTransform="matrix(0.175,0,0,0.175,302.79999,215.99997)" />
    <linearGradient
       id="4">
      <stop
         stop-color="#151515"
         id="stop125" />
      <stop
         stop-color="#222"
         offset="1"
         id="stop127" />
    </linearGradient>
    <linearGradient
       gradientUnits="userSpaceOnUse"
       x2="0"
       y2="90"
       y1="230"
       xlink:href="#4"
       id="5"
       gradientTransform="matrix(0.375,0,0,0.375,298,16)" />
    <linearGradient
       gradientUnits="userSpaceOnUse"
       x2="0"
       y2="90"
       y1="230"
       xlink:href="#4"
       id="6"
       gradientTransform="matrix(0.25,0,0,0.25,299.99999,131.99999)" />
    <clipPath
       id="clipPath131">
      <rect
         height="20"
         rx="4"
         y="78"
         x="434"
         width="20"
         id="rect133"
         style="color:#bebebe" />
    </clipPath>
    <clipPath
       id="clipPath135">
      <rect
         height="22"
         rx="4"
         y="77"
         x="433"
         width="22"
         id="rect137"
         style="color:#bebebe" />
    </clipPath>
    <clipPath
       id="clipPath139">
      <rect
         height="22"
         rx="5"
         y="77"
         x="433"
         width="22"
         id="rect141"
         style="color:#bebebe" />
    </clipPath>
    <clipPath
       id="clipPath143">
      <rect
         height="30"
         rx="6"
         y="29"
         x="433"
         width="30"
         id="rect145"
         style="color:#bebebe" />
    </clipPath>
    <clipPath
       id="clipPath147">
      <rect
         transform="matrix(0,-1,1,0,0,0)"
         height="60"
         rx="12.5"
         y="142"
         x="306"
         width="60"
         id="rect149"
         style="color:#bebebe;fill:url(#6)" />
    </clipPath>
    <clipPath
       id="clipPath151">
      <rect
         height="90"
         rx="18.75"
         y="31"
         x="307"
         width="90"
         id="rect153"
         style="color:#bebebe;fill:url(#5)" />
    </clipPath>
    <clipPath
       id="clipPath155">
      <rect
         height="30"
         rx="4"
         y="29"
         x="433"
         width="30"
         id="rect157"
         style="color:#bebebe;opacity:0.2;fill:#6d6d6d" />
    </clipPath>
    <clipPath
       id="clipPath159">
      <rect
         height="22"
         rx="3"
         y="77"
         x="433"
         width="22"
         id="rect161"
         style="color:#bebebe;opacity:0.2;fill:#6d6d6d" />
    </clipPath>
    <clipPath
       id="clipPath163">
      <path
         d="m 144,70 c -49.705627,0 -90,40.29437 -90,90 0,49.70563 40.294373,90 90,90 49.70563,0 90,-40.29437 90,-90 0,-49.70563 -40.29437,-90 -90,-90 z m 0,32.1875 c 32.03251,0 58,25.96748 58,58 0,32.03252 -25.96749,58 -58,58 -32.03251,0 -58,-25.96748 -58,-58 0,-32.03252 25.96749,-58 58,-58 z"
         id="path165"
         inkscape:connector-curvature="0" />
    </clipPath>
    <clipPath
       id="clipPath167">
      <rect
         height="16"
         rx="3"
         y="116"
         x="432"
         width="16"
         id="rect169"
         style="color:#bebebe" />
    </clipPath>
    <clipPath
       id="clipPath171">
      <path
         d="m 145,215 c 33.13708,0 60,-26.86292 60,-60 0,-33.13708 -26.86292,-60 -60,-60 -33.13708,0 -60,26.86292 -60,60 0,12.50698 3.8285,24.10633 10.375,33.71875 L 89,211 111.28125,204.625 C 120.89367,211.1715 132.49302,215 145,215 Z"
         id="path173"
         inkscape:connector-curvature="0" />
    </clipPath>
    <clipPath
       id="clipPath175">
      <path
         d="m 152,204 a 8,8 0 1 1 -16,0 8,8 0 1 1 16,0 z"
         id="path177"
         inkscape:connector-curvature="0" />
    </clipPath>
    <clipPath
       id="clipPath179">
      <path
         d="m 98.03125,23.191212 c -41.492132,1.05238 -74.84375,35.06824 -74.84375,76.812498 0,42.40687 34.405632,76.8125 76.8125,76.8125 42.40687,0 76.8125,-34.40563 76.8125,-76.8125 0,-42.406866 -34.40563,-76.812498 -76.8125,-76.812498 -0.662607,0 -1.310145,-0.0167 -1.96875,0 z M 100,50.659962 c 27.24464,0 49.34375,22.099114 49.34375,49.343748 -1e-5,27.24464 -22.09911,49.34375 -49.34375,49.34375 -27.244636,-1e-5 -49.34375,-22.09911 -49.34375,-49.34375 0,-27.244634 22.099114,-49.343748 49.34375,-49.343748 z"
         id="path181"
         inkscape:connector-curvature="0" />
    </clipPath>
    <clipPath
       id="clipPath183">
      <rect
         height="16"
         rx="2"
         y="116"
         x="432"
         width="16"
         id="rect185"
         style="color:#bebebe;opacity:0.2;fill:#6d6d6d" />
    </clipPath>
    <clipPath
       id="clipPath187">
      <rect
         height="240"
         rx="50"
         y="36"
         x="24"
         width="240"
         id="rect189"
         style="color:#bebebe;fill:#986767" />
    </clipPath>
    <clipPath
       id="clipPath191">
      <rect
         transform="matrix(0,1,-1,0,0,0)"
         height="42"
         rx="9"
         y="223"
         x="307"
         width="42"
         id="rect193"
         style="color:#bebebe;fill:url(#3)" />
    </clipPath>
    <linearGradient
       id="al"
       x1="129.342"
       gradientUnits="userSpaceOnUse"
       x2="195.59801"
       gradientTransform="matrix(1,0,0,-1,8.3999,368.3)"
       y1="259.30499"
       y2="259.30499">
      <stop
         stop-color="#FAC700"
         offset="0"
         id="stop7262" />
      <stop
         stop-color="#F7C400"
         offset=".415"
         id="stop7264" />
      <stop
         stop-color="#F7C400"
         offset="1"
         id="stop7266" />
    </linearGradient>
    <linearGradient
       id="am"
       x1="129.293"
       gradientUnits="userSpaceOnUse"
       x2="195.554"
       gradientTransform="matrix(1,0,0,-1,8.3999,368.3)"
       y1="259.311"
       y2="259.311">
      <stop
         stop-color="#F6C200"
         offset="0"
         id="stop7271" />
      <stop
         stop-color="#EFBC00"
         offset=".415"
         id="stop7273" />
      <stop
         stop-color="#EFBC00"
         offset="1"
         id="stop7275" />
    </linearGradient>
    <linearGradient
       id="an"
       x1="129.245"
       gradientUnits="userSpaceOnUse"
       x2="195.50999"
       gradientTransform="matrix(1,0,0,-1,8.3999,368.3)"
       y1="259.31699"
       y2="259.31699">
      <stop
         stop-color="#F1BD00"
         offset="0"
         id="stop7280" />
      <stop
         stop-color="#E8B500"
         offset=".415"
         id="stop7282" />
      <stop
         stop-color="#E8B500"
         offset="1"
         id="stop7284" />
    </linearGradient>
    <linearGradient
       id="ao"
       x1="129.196"
       gradientUnits="userSpaceOnUse"
       x2="195.465"
       gradientTransform="matrix(1,0,0,-1,8.3999,368.3)"
       y1="259.32199"
       y2="259.32199">
      <stop
         stop-color="#EDB800"
         offset="0"
         id="stop7289" />
      <stop
         stop-color="#E0AD00"
         offset=".415"
         id="stop7291" />
      <stop
         stop-color="#E0AD00"
         offset="1"
         id="stop7293" />
    </linearGradient>
    <linearGradient
       id="ap"
       x1="129.14799"
       gradientUnits="userSpaceOnUse"
       x2="195.422"
       gradientTransform="matrix(1,0,0,-1,8.3999,368.3)"
       y1="259.327"
       y2="259.327">
      <stop
         stop-color="#E9B300"
         offset="0"
         id="stop7298" />
      <stop
         stop-color="#D8A500"
         offset=".415"
         id="stop7300" />
      <stop
         stop-color="#D8A500"
         offset="1"
         id="stop7302" />
    </linearGradient>
    <linearGradient
       id="aq"
       x1="129.099"
       gradientUnits="userSpaceOnUse"
       x2="195.379"
       gradientTransform="matrix(1,0,0,-1,8.3999,368.3)"
       y1="259.332"
       y2="259.332">
      <stop
         stop-color="#E4AE00"
         offset="0"
         id="stop7307" />
      <stop
         stop-color="#D19E00"
         offset=".415"
         id="stop7309" />
      <stop
         stop-color="#D19E00"
         offset="1"
         id="stop7311" />
    </linearGradient>
    <linearGradient
       id="ar"
       x1="129.05099"
       gradientUnits="userSpaceOnUse"
       x2="195.338"
       gradientTransform="matrix(1,0,0,-1,8.3999,368.3)"
       y1="259.336"
       y2="259.336">
      <stop
         stop-color="#E0A900"
         offset="0"
         id="stop7316" />
      <stop
         stop-color="#C99600"
         offset=".415"
         id="stop7318" />
      <stop
         stop-color="#C99600"
         offset="1"
         id="stop7320" />
    </linearGradient>
    <linearGradient
       id="w"
       x1="129.00301"
       gradientUnits="userSpaceOnUse"
       x2="195.29601"
       gradientTransform="matrix(1,0,0,-1,8.3999,368.3)"
       y1="259.34"
       y2="259.34">
      <stop
         stop-color="#DCA400"
         offset="0"
         id="stop7325" />
      <stop
         stop-color="#C18E00"
         offset=".415"
         id="stop7327" />
      <stop
         stop-color="#C18E00"
         offset="1"
         id="stop7329" />
    </linearGradient>
    <linearGradient
       id="x"
       x1="128.95399"
       gradientUnits="userSpaceOnUse"
       x2="195.255"
       gradientTransform="matrix(1,0,0,-1,8.3999,368.3)"
       y1="259.34299"
       y2="259.34299">
      <stop
         stop-color="#D79F00"
         offset="0"
         id="stop7334" />
      <stop
         stop-color="#BA8700"
         offset=".415"
         id="stop7336" />
      <stop
         stop-color="#BA8700"
         offset="1"
         id="stop7338" />
    </linearGradient>
    <linearGradient
       id="y"
       x1="128.90601"
       gradientUnits="userSpaceOnUse"
       x2="195.216"
       gradientTransform="matrix(1,0,0,-1,8.3999,368.3)"
       y1="259.34799"
       y2="259.34799">
      <stop
         stop-color="#D39B00"
         offset="0"
         id="stop7343" />
      <stop
         stop-color="#B27F00"
         offset=".415"
         id="stop7345" />
      <stop
         stop-color="#B27F00"
         offset="1"
         id="stop7347" />
    </linearGradient>
    <linearGradient
       id="z"
       x1="128.85699"
       gradientUnits="userSpaceOnUse"
       x2="195.17599"
       gradientTransform="matrix(1,0,0,-1,8.3999,368.3)"
       y1="259.35001"
       y2="259.35001">
      <stop
         stop-color="#CF9600"
         offset="0"
         id="stop7352" />
      <stop
         stop-color="#a70"
         offset=".415"
         id="stop7354" />
      <stop
         stop-color="#a70"
         offset="1"
         id="stop7356" />
    </linearGradient>
    <linearGradient
       id="aa"
       x1="128.80901"
       gradientUnits="userSpaceOnUse"
       x2="195.13699"
       gradientTransform="matrix(1,0,0,-1,8.3999,368.3)"
       y1="259.354"
       y2="259.354">
      <stop
         stop-color="#CA9100"
         offset="0"
         id="stop7361" />
      <stop
         stop-color="#A37000"
         offset=".415"
         id="stop7363" />
      <stop
         stop-color="#A37000"
         offset="1"
         id="stop7365" />
    </linearGradient>
    <linearGradient
       id="ab"
       x1="128.75999"
       gradientUnits="userSpaceOnUse"
       x2="195.099"
       gradientTransform="matrix(1,0,0,-1,8.3999,368.3)"
       y1="259.35599"
       y2="259.35599">
      <stop
         stop-color="#C68C00"
         offset="0"
         id="stop7370" />
      <stop
         stop-color="#9B6800"
         offset=".415"
         id="stop7372" />
      <stop
         stop-color="#9B6800"
         offset="1"
         id="stop7374" />
    </linearGradient>
    <linearGradient
       id="ac"
       x1="128.71201"
       gradientUnits="userSpaceOnUse"
       x2="195.062"
       gradientTransform="matrix(1,0,0,-1,8.3999,368.3)"
       y1="259.358"
       y2="259.358">
      <stop
         stop-color="#C28700"
         offset="0"
         id="stop7379" />
      <stop
         stop-color="#936000"
         offset=".415"
         id="stop7381" />
      <stop
         stop-color="#936000"
         offset="1"
         id="stop7383" />
    </linearGradient>
    <linearGradient
       id="ad"
       x1="128.66299"
       gradientUnits="userSpaceOnUse"
       x2="195.02499"
       gradientTransform="matrix(1,0,0,-1,8.3999,368.3)"
       y1="259.35999"
       y2="259.35999">
      <stop
         stop-color="#BD8200"
         offset="0"
         id="stop7388" />
      <stop
         stop-color="#8C5900"
         offset=".415"
         id="stop7390" />
      <stop
         stop-color="#8C5900"
         offset="1"
         id="stop7392" />
    </linearGradient>
    <linearGradient
       id="ae"
       x1="128.61501"
       gradientUnits="userSpaceOnUse"
       x2="194.989"
       gradientTransform="matrix(1,0,0,-1,8.3999,368.3)"
       y1="259.362"
       y2="259.362">
      <stop
         stop-color="#B97D00"
         offset="0"
         id="stop7397" />
      <stop
         stop-color="#845100"
         offset=".415"
         id="stop7399" />
      <stop
         stop-color="#845100"
         offset="1"
         id="stop7401" />
    </linearGradient>
    <linearGradient
       id="af"
       x1="128.567"
       gradientUnits="userSpaceOnUse"
       x2="194.95399"
       gradientTransform="matrix(1,0,0,-1,8.3999,368.3)"
       y1="259.36401"
       y2="259.36401">
      <stop
         stop-color="#B57800"
         offset="0"
         id="stop7406" />
      <stop
         stop-color="#7C4900"
         offset=".415"
         id="stop7408" />
      <stop
         stop-color="#7C4900"
         offset="1"
         id="stop7410" />
    </linearGradient>
    <linearGradient
       id="ah"
       x1="128.51801"
       gradientUnits="userSpaceOnUse"
       x2="194.918"
       gradientTransform="matrix(1,0,0,-1,8.3999,368.3)"
       y1="259.366"
       y2="259.366">
      <stop
         stop-color="#B07300"
         offset="0"
         id="stop7415" />
      <stop
         stop-color="#754200"
         offset=".415"
         id="stop7417" />
      <stop
         stop-color="#754200"
         offset="1"
         id="stop7419" />
    </linearGradient>
    <linearGradient
       id="ai"
       x1="128.47"
       gradientUnits="userSpaceOnUse"
       x2="194.886"
       gradientTransform="matrix(1,0,0,-1,8.3999,368.3)"
       y1="259.367"
       y2="259.367">
      <stop
         stop-color="#AC6E00"
         offset="0"
         id="stop7424" />
      <stop
         stop-color="#6D3A00"
         offset=".415"
         id="stop7426" />
      <stop
         stop-color="#6D3A00"
         offset="1"
         id="stop7428" />
    </linearGradient>
    <linearGradient
       id="aj"
       x1="128.42101"
       gradientUnits="userSpaceOnUse"
       x2="194.85001"
       gradientTransform="matrix(1,0,0,-1,8.3999,368.3)"
       y1="259.36899"
       y2="259.36899">
      <stop
         stop-color="#A86A00"
         offset="0"
         id="stop7433" />
      <stop
         stop-color="#663200"
         offset=".415"
         id="stop7435" />
      <stop
         stop-color="#663200"
         offset="1"
         id="stop7437" />
    </linearGradient>
  </defs>
  <path
     id="path5799"
     d="m 3.4274823,2.6540704 c -0.054429,0.21077 -0.3306965,0.650908 -0.4774894,0.844631 -0.1467816,0.194498 -0.1286388,0.369623 -0.3999699,0.301432 -0.270495,-0.06819 -0.3463654,-0.05579 -0.6259201,-0.04029 -0.2779286,0.01549 -0.217727,-0.0078 -0.3917229,0.06587 C 1.3591974,3.8993204 0.77779827,2.9330314 0.73079158,2.7532674 0.68462098,2.5734814 0.66234318,2.5951784 0.78274638,2.4006814 0.903161,2.2061944 0.92046785,2.0140104 1.079631,1.7784444 c 0.1591631,-0.236342 0.3430666,-0.35645 0.3298718,-0.537 -0.051943,-0.67028001 -0.093189,-1.00503321 0.2234996,-1.16001131 0.3018328,-0.1472293 0.5541846,-0.0596667 0.6539708,-0.0092987 0.042883,0.021697 0.1302993,0.063541 0.1954491,0.1371557 0.06515,0.072065 0.1237021,0.1813244 0.156689,0.3192553 0.067624,0.276636 -0.02804,0.185199 0.048656,0.50212901 0.075871,0.316145 0.2300859,0.471123 0.4181127,0.721412 0.1880041,0.250301 0.3842776,0.663318 0.3216021,0.901984 z"
     inkscape:connector-curvature="0" />
  <path
     style="fill:#f9f9f9;fill-opacity:1"
     inkscape:connector-curvature="0"
     d="m 1.6376779,1.0122004 c 0.04947,-0.0186 0.041142,-0.02107 0.074129,-0.08849 0.02639,-0.05192 0.049573,-0.07424 0.048747,-0.153278 0,-0.07749 -0.025565,-0.103835 -0.064325,-0.154203 -0.037111,-0.04804 -0.096488,-0.05037 -0.1335981,-0.04417 -0.021442,0.0031 -0.04947,0.02867 -0.068448,0.06664 -0.012371,0.02557 -0.022266,0.05812 -0.023102,0.09221 -0.00248,0.09144 0.00579,0.126307 0.028039,0.188299 0.026401,0.07285 0.090726,0.11082 0.1385576,0.09299 z"
     id="path5803" />
  <path
     id="path5845"
     d="m 1.5914935,0.69683039 c 0.02474,0 0.056078,0.0155 0.070911,0.03642 0.015669,0.02092 0.027214,0.05037 0.027214,0.08369 0,0.04959 -0.00577,0.10461 -0.037099,0.121657 -0.0099,0.0054 -0.031338,0.01007 -0.043708,0.01007 -0.028039,0 -0.030513,-0.01705 -0.056903,-0.04262 -0.00907,-0.0093 -0.036286,-0.05424 -0.036286,-0.09144 0,-0.02325 -0.00577,-0.05657 0.015669,-0.08601 0.014844,-0.0217 0.033812,-0.03177 0.060202,-0.03177 z"
     inkscape:connector-curvature="0" />
  <path
     style="fill:#f9f9f9;fill-opacity:1"
     inkscape:connector-curvature="0"
     d="m 2.1489793,1.0222744 c 0.1237018,-0.0124 0.1674097,-0.05734 0.189676,-0.13560601 0.019805,-0.06974 0.02063,-0.147229 -0.034625,-0.237892 -0.051955,-0.08678 -0.081643,-0.100735 -0.1567004,-0.10616 -0.1154438,-0.0093 -0.169884,0.06664 -0.1954377,0.120883 -0.027213,0.05889 -0.021442,0.05037 -0.019802,0.124758 0.00165,0.07826 0.048622,0.100079 0.077497,0.148897 0.028853,0.04805 0.1253743,0.08591 0.1393939,0.08512 z"
     id="path5893" />
  <path
     id="path5935"
     d="m 2.1390807,0.69373139 c 0.061851,0 0.098137,0.05192 0.1105072,0.118558 0.00495,0.03022 -0.00248,0.06509 -0.022266,0.08911 -0.022266,0.0279 -0.061851,0.04494 -0.094014,0.04494 -0.030514,0 -0.06515,0.0046 -0.083281,-0.0186 -0.018144,-0.02402 -0.022266,-0.07749 -0.022266,-0.115459 0,-0.04262 0.013194,-0.07284 0.036286,-0.09686 0.017307,-0.01783 0.048644,-0.0217 0.075035,-0.0217 z"
     inkscape:connector-curvature="0" />
  <path
     style="fill:#676767;fill-opacity:1"
     inkscape:connector-curvature="0"
     d="m 2.1521748,0.73026939 c 0.00656,-0.0062 0.021028,0 0.036137,0.01606 0.016437,0.0173 0.01709,0.03088 0.00395,0.04076 -0.012495,0.0099 -0.017755,-0.01482 -0.026288,-0.02407 -0.014466,-0.01421 -0.026949,-0.02102 -0.013801,-0.03274 z"
     id="path5979" />
  <path
     style="fill:#676767;fill-opacity:1"
     inkscape:connector-curvature="0"
     d="m 1.5972686,0.75025539 c 0.00722,-0.01048 0.036102,-0.0056 0.046606,0.01604 0.010503,0.02159 0.00852,0.06847 0.00131,0.07094 -0.019037,0.0056 -0.013126,-0.02036 -0.029539,-0.04379 -0.016402,-0.02219 -0.025588,-0.03269 -0.018372,-0.04318 z"
     id="path5889" />
  <path
     style="fill:#676767;fill-opacity:1"
     inkscape:connector-curvature="0"
     d="m 1.8417631,0.76873439 c 0.014569,-0.0038 0.029162,-0.003 0.054246,0.0098 0.022472,0.01227 0.012462,0.02633 -0.012382,0.02099 -0.02277,-0.0049 -0.017868,-0.0041 -0.035759,-0.0073 -0.029207,-0.005 -0.034304,-0.01642 -0.00611,-0.02356 z"
     id="path6007" />
  <path
     style="fill:#f9f9f9;fill-opacity:1"
     inkscape:connector-curvature="0"
     d="m 1.7696265,1.3802734 c -0.1072083,0.0039 -0.2770923,-0.278185 -0.2812156,-0.161177 -0.0033,0.09919 0.00248,0.09764 0.00248,0.193723 0,0.06432 -0.031338,0.06897 -0.098961,0.165826 -0.034637,0.05114 -0.061851,0.10616 -0.083293,0.161953 -0.013195,0.03332 -0.025565,0.06819 -0.035461,0.102285 -0.00413,0.01705 -0.011545,0.03487 -0.015669,0.05192 -0.033812,0.117009 -0.154215,0.261138 -0.1822541,0.378147 -0.028039,0.116233 -0.061027,0.190623 -0.056903,0.346387 0.00413,0.155753 0.00577,0.110798 0.056078,0.149554 0.049481,0.03876 0.1006109,0.07515 0.1789554,0.140255 0.082468,0.06742 0.2540128,0.185199 0.2770923,0.221619 0.02474,0.03719 0.023916,0.120883 0.00907,0.148004 -0.014844,0.02634 -0.1443188,0.04107 -0.1434942,0.04107 -8.153e-4,0 0.1129811,0.147229 0.1352589,0.168141 0.021442,0.02016 0.1138058,0.117019 0.4898596,0.05114 0.2119427,-0.03719 0.3760539,-0.148769 0.4948078,-0.256489 0.1533903,-0.140245 0.07587,-0.180539 0.095663,-0.251054 0.028874,-0.101522 0.1228886,-0.13948 0.1443302,-0.254164 0.00248,-0.01627 0.00825,-0.02867 0.023915,-0.05269 0.023915,-0.0341 0.018144,-0.101511 0.018144,-0.163491 0,-0.161188 -0.019805,-0.325454 -0.059388,-0.446337 -0.036288,-0.113135 -0.094016,-0.192174 -0.1434854,-0.294459 -0.098973,-0.203796 -0.094013,-0.295233 -0.1822541,-0.425415 -0.100611,-0.150329 -0.05113,-0.25029 -0.1847281,-0.244091 -0.1666082,0.0085 -0.3010309,0.223147 -0.4585449,0.229346 z"
     id="path6027" />
  <path
     id="path6069"
     d="m 1.8265272,0.84869839 c 0.060202,-0.007 0.1426695,0.007 0.1806164,0.03332 0.035461,0.0248 0.060202,0.03797 0.092353,0.04804 0.1080442,0.03332 0.2498778,0.04882 0.2432804,0.14025501 -0.00742,0.109249 -0.041234,0.158078 -0.1377215,0.186738 -0.07752,0.02247 -0.2160548,0.148779 -0.3232745,0.148779 -0.047832,0 -0.1146305,0.0023 -0.1533904,-0.01085 -0.037111,-0.0124 -0.089065,-0.07129 -0.1500917,-0.118558 -0.061026,-0.04649 -0.1179291,-0.09609 -0.119567,-0.161177 -0.00249,-0.06895 0.045357,-0.09144 0.1129696,-0.14644401 0.035473,-0.02944 0.099786,-0.07826 0.1443304,-0.09996 0.041223,-0.01936 0.067612,-0.01549 0.1104956,-0.02015 z"
     inkscape:connector-curvature="0"
     style="fill:#ffd133;fill-opacity:1" />
  <path
     style="fill:#995900;fill-opacity:1"
     inkscape:connector-curvature="0"
     d="m 1.6881322,0.92869539 c -0.00372,0.0088 0.022358,0.02539 0.035404,0.014 0.013997,-0.01138 0.030765,-0.02188 0.036366,-0.02539 0.025141,-0.01577 0.01584,-0.02714 -0.026092,-0.02014 -0.041956,0.007 -0.041956,0.02276 -0.045678,0.03152 z"
     id="path6159" />
  <path
     style="fill:#ffd133;fill-opacity:1"
     inkscape:connector-curvature="0"
     d="m 3.4148737,2.8254454 c 0.05113,0.06973 -0.00166,0.160402 0.035461,0.216205 0.061026,0.09144 0.1839036,0.183638 0.2309103,0.20921 0.033812,0.01937 0.081643,0.03796 0.079982,0.09453 -0.00248,0.06433 -0.036286,0.08137 -0.055242,0.0992 -0.037947,0.03566 -0.2292724,0.124758 -0.3562616,0.206121 -0.159988,0.103061 -0.2152413,0.148779 -0.2671962,0.197587 -0.080819,0.07595 -0.1575138,0.101511 -0.2803913,0.101511 -0.122877,0 -0.1781306,-0.02401 -0.2160545,-0.05579 -0.037947,-0.031 -0.079994,-0.110045 -0.07587,-0.227818 0.0033,-0.117008 0.042883,-0.223954 0.061839,-0.406053 0.00826,-0.07825 0.00742,-0.175115 0.00742,-0.261138 0,-0.108485 0.00166,-0.200697 0.026389,-0.214635 0.044544,-0.02635 0.054429,-0.0279 0.1072085,-0.0279 0.052768,0 0.076695,0.0031 0.094013,0.01936 0.016483,0.0155 0.0099,0.05114 0.00411,0.101521 -0.00495,0.05038 0.02063,0.06664 0.046182,0.08756 0.025564,0.02015 0.048656,0.04572 0.1294862,0.05192 0.080819,0.0054 0.1104955,-0.007 0.1484424,-0.02945 0.037935,-0.02247 0.091528,-0.06277 0.1113316,-0.08601 0.018969,-0.02247 0.065974,-0.09995 0.075046,-0.09995 0.00824,0 0.062675,-0.01782 0.093189,0.02402 z"
     id="path6555" />
  <path
     style="fill:#ffd133;fill-opacity:1"
     inkscape:connector-curvature="0"
     d="m 0.5383801,2.9447894 c -0.0742098,0.05037 -0.26224812,0.04572 -0.31007954,0.104599 -0.0470066,0.0589 0.001661,0.14414 8.2752e-4,0.302207 0,0.06743 -0.0123705,0.11857 -0.0206168,0.159628 -0.0115454,0.05192 -0.0189673,0.08835 0.004125,0.125532 0.0420587,0.06588 0.10967088,0.08215 0.49645704,0.158078 0.20699455,0.04029 0.40244368,0.144905 0.53356768,0.154968 0.1311191,0.0093 0.1591582,-0.03176 0.2391521,-0.09841 0.079169,-0.06664 0.1047344,-0.04572 0.1022603,-0.192172 -0.00247,-0.145671 -0.10226,-0.189065 -0.2152411,-0.357217 -0.1129811,-0.168151 -0.131124,-0.199146 -0.2061698,-0.310731 -0.075046,-0.110034 -0.22348824,-0.309956 -0.30843016,-0.312291 -0.0676237,-0.0015 -0.10555898,0.03255 -0.14761764,0.07285 -0.0420587,0.04031 -0.0940134,0.14258 -0.1682346,0.192959 z"
     id="path6731" />
  <path
     style="fill:#676767;fill-opacity:1"
     d="m 2.7335518,1.8434804 c -0.013853,-2.79e-4 -0.020136,0.0044 -0.016219,0.01622 0,0 0.113984,0.06217 0.2162444,0.178402 0.0033,0.0062 0.1150061,0.156881 0.091904,0.356803 -0.0033,0.0031 -0.010905,0.0887 -0.021626,0.12434 -0.026401,0.08524 -0.0613,0.13436 -0.032437,0.140559 0.025564,0.0062 0.093553,-0.165037 0.091904,-0.232463 0.023915,-0.06353 0.023183,-0.225162 -0.037843,-0.329772 -0.02144,-0.03797 -0.041688,-0.08417 -0.054059,-0.0865 -0.087828,-0.112746 -0.1963125,-0.166754 -0.2378686,-0.167589 z"
     id="path6907"
     inkscape:connector-curvature="0" />
  <path
     inkscape:connector-curvature="0"
     d="m 2.8087228,2.7626894 c 0.017329,0.01627 0.032174,-0.02402 0.049481,-0.03721 0.01732,-0.01317 0.045357,-0.04185 0.1014354,-0.04185 0.056078,0 0.051944,-0.0015 0.04947,-0.02171 -0.00165,-0.01936 -0.018144,-0.01781 -0.067612,-0.01085 -0.049481,0.0062 -0.082468,0.03023 -0.102272,0.05192 -0.018944,0.02093 -0.040398,0.05038 -0.030502,0.05969 z"
     id="path7083"
     style="fill:#676767;fill-opacity:1" />
  <path
     inkscape:connector-curvature="0"
     d="m 3.032211,2.6611684 c 0,0.0248 0.053604,0.03332 0.1047345,0.04028 0.050306,0.007 0.090714,0.01628 0.093188,0.06588 0.00248,0.04881 -0.010721,0.08368 0.01237,0.07981 0.049481,-0.0085 0.067624,-0.0589 0.066799,-0.08215 0,-0.02325 -0.036286,-0.06508 -0.1014241,-0.08833 -0.047843,-0.01705 -0.082468,-0.02481 -0.1245268,-0.02636 -0.05609,-0.0023 -0.051142,0.01086 -0.051142,0.01086 z"
     id="path7127"
     style="fill:#676767;fill-opacity:1" />
  <path
     style="fill:#995900;fill-opacity:1"
     inkscape:connector-curvature="0"
     d="m 1.5153504,1.1760904 c 0.022656,0.0147 0.023263,0.01729 0.056674,0.03782 0.053146,0.04055 0.1475832,0.04968 0.1938226,0.05112 0.1057536,0.01579 0.2947999,-0.07707 0.3696513,-0.119581 0.037695,-0.02651 0.1074371,-0.08127 0.1335406,-0.08219 0.016093,0.01598 -0.00756,0.01929 -0.041085,0.04063 -0.044739,0.02991 -0.08304,0.05549 -0.1508704,0.09164 -0.072595,0.03569 -0.1841555,0.09464 -0.3269854,0.08668 -0.074931,-0.01032 -0.075206,-0.01102 -0.1214798,-0.03321 -0.027489,-0.01864 -0.090497,-0.04959 -0.1132675,-0.0729 z"
     id="path7259" />
  <path
     id="use10864"
     d="m 1.9822068,0.93342539 c 0.00372,0.0088 -0.022358,0.02539 -0.035404,0.014 -0.013997,-0.01138 -0.030765,-0.02188 -0.036366,-0.02539 -0.025141,-0.01577 -0.015841,-0.02714 0.026091,-0.02014 0.041956,0.007 0.041956,0.02276 0.045678,0.03152 z"
     inkscape:connector-curvature="0"
     style="fill:#995900;fill-opacity:1" />
</svg>
