<svg width="15" height="15" version="1.1" viewBox="0 0 4.2333334 4.2333334" xmlns="http://www.w3.org/2000/svg">
 <path d="m2.2051 1.0308c-0.13883 0-0.26218 0.0515-0.36129 0.15155-0.099061 0.09999-0.15107 0.22483-0.15107 0.3657v0.71211l0.2828-0.00235v-0.71693c0-0.25431 0.42315-0.27823 0.42333 0.00718v0.70976h0.28222v-0.70976c0.00202-0.28266 0.42333-0.27466 0.41581 0l0.00752 0.85087c2.6e-6 0.29588-0.12108 0.42333-0.39221 0.42333h-1.0189c-0.14259 0-0.28222-0.11446-0.28222-0.42453v-1.551h-0.28222v1.6933c0 0.28222 0.28222 0.56444 0.56444 0.56444h1.1289c0.28222 0 0.56444-0.28222 0.56444-0.56444v-0.98778c0-0.14088-0.01848-0.26989-0.11754-0.36988-0.099109-0.10004-0.22246-0.15155-0.36129-0.15155-0.13627 0-0.27142 0.050535-0.36784 0.14325-0.096155-0.09257-0.19864-0.14325-0.33485-0.14325z" style="fill-rule:evenodd;fill:#d70751"/>
 <path d="m1.8388 3.6689c-0.73472 0-1.2744-0.39536-1.2744-1.1289v-1.4111h-0.56444v-0.84667h2.54c0.71744 0 1.4111 0.42573 1.4111 1.1289l-3e-7 2.2578h-2.1167zm1.8301-2.2578c0.005813-0.56444-0.56444-0.84667-1.1289-0.84667h-2.2578v0.28222h0.28222c0.12653 0 0.28222 0.10786 0.28222 0.28222v1.4111c0 0.54734 0.39577 0.84667 0.98778 0.84667l1.5522 3e-7c0.18739 0 0.28222-0.099978 0.28222-0.28222z" style="fill-rule:evenodd;fill:#d70751"/>
 <path d="m3.1033 2.2578 0.0011 0.14111c2.6e-6 0.29588-0.12134 0.42333-0.39247 0.42333h-0.73642v0.28222h0.84667c0.28222 0 0.56444-0.28222 0.56444-0.56444v-0.28222z" style="fill:#424f3c;opacity:.4"/>
</svg>
