<?xml version="1.0" encoding="UTF-8" standalone="no"?>
<svg
   xmlns:dc="http://purl.org/dc/elements/1.1/"
   xmlns:cc="http://creativecommons.org/ns#"
   xmlns:rdf="http://www.w3.org/1999/02/22-rdf-syntax-ns#"
   xmlns:svg="http://www.w3.org/2000/svg"
   xmlns="http://www.w3.org/2000/svg"
   xmlns:xlink="http://www.w3.org/1999/xlink"
   xmlns:sodipodi="http://sodipodi.sourceforge.net/DTD/sodipodi-0.dtd"
   xmlns:inkscape="http://www.inkscape.org/namespaces/inkscape"
   width="14"
   viewBox="0 0 3.9511112 3.9511112"
   height="14"
   id="svg2"
   version="1.1"
   inkscape:version="0.91 r13725"
   sodipodi:docname="lmde.svg"
   inkscape:export-filename="/home/josh/Code/unixporn/resources/Flairs/lmde.png"
   inkscape:export-xdpi="90"
   inkscape:export-ydpi="90">
  <metadata
     id="metadata207">
    <rdf:RDF>
      <cc:Work
         rdf:about="">
        <dc:format>image/svg+xml</dc:format>
        <dc:type
           rdf:resource="http://purl.org/dc/dcmitype/StillImage" />
        <dc:title></dc:title>
      </cc:Work>
    </rdf:RDF>
  </metadata>
  <sodipodi:namedview
     pagecolor="#ffffff"
     bordercolor="#666666"
     borderopacity="1"
     objecttolerance="10"
     gridtolerance="10"
     guidetolerance="10"
     inkscape:pageopacity="0"
     inkscape:pageshadow="2"
     inkscape:window-width="1580"
     inkscape:window-height="840"
     id="namedview205"
     showgrid="true"
     inkscape:zoom="27.812867"
     inkscape:cx="6.9258117"
     inkscape:cy="8.295544"
     inkscape:window-x="10"
     inkscape:window-y="50"
     inkscape:window-maximized="0"
     inkscape:current-layer="svg2"
     inkscape:object-nodes="true"
     inkscape:snap-smooth-nodes="true">
    <inkscape:grid
       type="xygrid"
       id="grid3184" />
  </sodipodi:namedview>
  <defs
     id="defs4">
    <clipPath
       id="clipPath6">
      <rect
         height="208.57001"
         y="1580.9301"
         x="-830"
         width="477.14001"
         id="rect8"
         style="fill:#ffff00" />
    </clipPath>
    <clipPath
       id="clipPath10">
      <rect
         height="208.57001"
         y="1580.9301"
         x="-830"
         width="477.14001"
         id="rect12"
         style="fill:#ffff00" />
    </clipPath>
    <clipPath
       id="clipPath14">
      <rect
         height="208.57001"
         y="1580.9301"
         x="-830"
         width="477.14001"
         id="rect16"
         style="fill:#ffff00" />
    </clipPath>
    <clipPath
       id="clipPath18">
      <rect
         height="208.57001"
         y="1580.9301"
         x="-830"
         width="477.14001"
         id="rect20"
         style="fill:#ffff00" />
    </clipPath>
    <clipPath
       id="clipPath22">
      <rect
         transform="matrix(0.99975,-0.02255,0.02255,0.99975,0,0)"
         height="240.87"
         y="780.64001"
         x="294.92999"
         width="357.87"
         id="rect24"
         style="fill:#ff0000" />
    </clipPath>
    <clipPath
       id="clipPath26">
      <rect
         height="195"
         y="857.53998"
         width="301.42999"
         id="rect28"
         x="0"
         style="fill:#ffffff" />
    </clipPath>
    <clipPath
       id="clipPath30">
      <rect
         height="208.57001"
         y="1580.9301"
         x="-830"
         width="477.14001"
         id="rect32"
         style="fill:#ffff00" />
    </clipPath>
    <clipPath
       id="clipPath34">
      <rect
         height="30.01"
         y="977.09003"
         x="276.37"
         width="79.480003"
         id="rect36"
         style="fill:#e20a17" />
    </clipPath>
    <clipPath
       id="clipPath38">
      <rect
         transform="matrix(0.93742901,0.34817646,-0.34817646,0.93742901,0,0)"
         height="37.48"
         y="0.064000003"
         x="8.2080002"
         width="506.45999"
         id="rect40"
         style="fill:#162d50" />
    </clipPath>
    <clipPath
       id="clipPath42">
      <rect
         transform="matrix(0.999992,0.00399993,-0.00399993,0.999992,0,0)"
         height="318.39999"
         y="758.66998"
         x="218.89999"
         width="357.38"
         id="rect44"
         style="fill:#ffffff" />
    </clipPath>
    <clipPath
       id="clipPath46">
      <rect
         transform="matrix(0.999992,0.00399993,-0.00399993,0.999992,0,0)"
         height="318.39999"
         y="758.66998"
         x="218.89999"
         width="357.38"
         id="rect48"
         style="fill:#ffffff" />
    </clipPath>
    <clipPath
       id="clipPath50">
      <rect
         transform="matrix(0.93742901,0.34817646,-0.34817646,0.93742901,0,0)"
         height="37.48"
         y="0.064000003"
         x="8.2080002"
         width="506.45999"
         id="rect52"
         style="fill:#162d50" />
    </clipPath>
    <clipPath
       id="clipPath54">
      <rect
         height="208.57001"
         y="1580.9301"
         x="-830"
         width="477.14001"
         id="rect56"
         style="fill:#ffff00" />
    </clipPath>
    <clipPath
       id="clipPath58">
      <rect
         transform="matrix(0.999942,0.01077022,-0.01077022,0.999942,0,0)"
         height="235.88"
         y="804.23999"
         x="221.39"
         width="350.45999"
         id="rect60" />
    </clipPath>
    <clipPath
       id="clipPath62">
      <rect
         transform="matrix(0.999996,0.00282848,-0.00282848,0.999996,0,0)"
         height="279.03"
         y="793.52002"
         x="257.32001"
         width="287.42999"
         id="rect64"
         style="fill:#ffffff" />
    </clipPath>
    <clipPath
       id="clipPath66">
      <rect
         height="195"
         y="0.059999999"
         width="301.42999"
         id="rect68"
         x="0"
         style="fill:#ffffff" />
    </clipPath>
    <clipPath
       id="clipPath70">
      <rect
         height="195"
         y="857.53998"
         width="301.42999"
         id="rect72"
         x="0"
         style="fill:#ffffff" />
    </clipPath>
    <path
       clip-path="url(#2)"
       id="0"
       d="m 699.2857,672.93231 a 40.71429,40.71429 0 1 1 -81.42858,0 40.71429,40.71429 0 1 1 81.42858,0 z"
       inkscape:connector-curvature="0"
       style="fill:#44aa00" />
    <clipPath
       id="clipPath75">
      <use
         xlink:href="#0"
         transform="matrix(4.3233,0,0,4.3233,-2450.68,-2667.55)"
         id="use77"
         x="0"
         y="0"
         width="100%"
         height="100%" />
    </clipPath>
    <clipPath
       id="clipPath79">
      <rect
         transform="matrix(0.88741602,0.46096942,-0.46096942,0.88741602,0,0)"
         height="41.389999"
         y="815.73999"
         x="448.12"
         width="63.987"
         id="rect81"
         style="fill:#ffffff" />
    </clipPath>
    <clipPath
       id="clipPath83">
      <rect
         height="195"
         y="857.53998"
         width="301.42999"
         id="rect85"
         x="0"
         style="fill:#ffffff" />
    </clipPath>
    <clipPath
       id="clipPath87">
      <rect
         height="208.57001"
         y="1580.9301"
         x="-830"
         width="477.14001"
         id="rect89"
         style="fill:#ffff00" />
    </clipPath>
    <clipPath
       id="clipPath91">
      <rect
         height="208.57001"
         y="1580.9301"
         x="-830"
         width="477.14001"
         id="rect93"
         style="fill:#ffff00" />
    </clipPath>
    <clipPath
       id="clipPath95">
      <rect
         height="208.57001"
         y="1580.9301"
         x="-830"
         width="477.14001"
         id="rect97"
         style="fill:#ffff00" />
    </clipPath>
    <clipPath
       id="clipPath99">
      <rect
         height="208.57001"
         y="1580.9301"
         x="-830"
         width="477.14001"
         id="rect101"
         style="fill:#ffff00" />
    </clipPath>
    <clipPath
       id="clipPath103">
      <rect
         height="208.57001"
         y="1580.9301"
         x="-830"
         width="477.14001"
         id="rect105"
         style="fill:#ffff00" />
    </clipPath>
    <clipPath
       id="clipPath107">
      <use
         xlink:href="#0"
         id="use109"
         x="0"
         y="0"
         width="100%"
         height="100%" />
    </clipPath>
    <clipPath
       id="clipPath111">
      <rect
         height="208.57001"
         y="1580.9301"
         x="-830"
         width="477.14001"
         id="rect113"
         style="fill:#ffff00" />
    </clipPath>
    <path
       id="1"
       d="m 699.2857,672.93231 a 40.71429,40.71429 0 1 1 -81.42858,0 40.71429,40.71429 0 1 1 81.42858,0 z"
       inkscape:connector-curvature="0"
       style="fill:#44aa00" />
    <clipPath
       id="2">
      <use
         xlink:href="#1"
         id="use117"
         x="0"
         y="0"
         width="100%"
         height="100%" />
    </clipPath>
    <clipPath
       id="clipPath119">
      <use
         transform="matrix(4.3233,0,0,4.3233,-2450.68,-2667.55)"
         xlink:href="#1"
         id="use121"
         x="0"
         y="0"
         width="100%"
         height="100%" />
    </clipPath>
    <linearGradient
       gradientUnits="userSpaceOnUse"
       x2="0"
       y2="40"
       y1="280"
       xlink:href="#4"
       id="3"
       gradientTransform="matrix(0.175,0,0,0.175,302.79999,215.99997)" />
    <linearGradient
       id="4">
      <stop
         stop-color="#151515"
         id="stop125" />
      <stop
         stop-color="#222"
         offset="1"
         id="stop127" />
    </linearGradient>
    <linearGradient
       gradientUnits="userSpaceOnUse"
       x2="0"
       y2="90"
       y1="230"
       xlink:href="#4"
       id="5"
       gradientTransform="matrix(0.375,0,0,0.375,298,16)" />
    <linearGradient
       gradientUnits="userSpaceOnUse"
       x2="0"
       y2="90"
       y1="230"
       xlink:href="#4"
       id="6"
       gradientTransform="matrix(0.25,0,0,0.25,299.99999,131.99999)" />
    <clipPath
       id="clipPath131">
      <rect
         height="20"
         rx="4"
         y="78"
         x="434"
         width="20"
         id="rect133"
         style="color:#bebebe" />
    </clipPath>
    <clipPath
       id="clipPath135">
      <rect
         height="22"
         rx="4"
         y="77"
         x="433"
         width="22"
         id="rect137"
         style="color:#bebebe" />
    </clipPath>
    <clipPath
       id="clipPath139">
      <rect
         height="22"
         rx="5"
         y="77"
         x="433"
         width="22"
         id="rect141"
         style="color:#bebebe" />
    </clipPath>
    <clipPath
       id="clipPath143">
      <rect
         height="30"
         rx="6"
         y="29"
         x="433"
         width="30"
         id="rect145"
         style="color:#bebebe" />
    </clipPath>
    <clipPath
       id="clipPath147">
      <rect
         transform="matrix(0,-1,1,0,0,0)"
         height="60"
         rx="12.5"
         y="142"
         x="306"
         width="60"
         id="rect149"
         style="color:#bebebe;fill:url(#6)" />
    </clipPath>
    <clipPath
       id="clipPath151">
      <rect
         height="90"
         rx="18.75"
         y="31"
         x="307"
         width="90"
         id="rect153"
         style="color:#bebebe;fill:url(#5)" />
    </clipPath>
    <clipPath
       id="clipPath155">
      <rect
         height="30"
         rx="4"
         y="29"
         x="433"
         width="30"
         id="rect157"
         style="color:#bebebe;opacity:0.2;fill:#6d6d6d" />
    </clipPath>
    <clipPath
       id="clipPath159">
      <rect
         height="22"
         rx="3"
         y="77"
         x="433"
         width="22"
         id="rect161"
         style="color:#bebebe;opacity:0.2;fill:#6d6d6d" />
    </clipPath>
    <clipPath
       id="clipPath163">
      <path
         d="m 144,70 c -49.705627,0 -90,40.29437 -90,90 0,49.70563 40.294373,90 90,90 49.70563,0 90,-40.29437 90,-90 0,-49.70563 -40.29437,-90 -90,-90 z m 0,32.1875 c 32.03251,0 58,25.96748 58,58 0,32.03252 -25.96749,58 -58,58 -32.03251,0 -58,-25.96748 -58,-58 0,-32.03252 25.96749,-58 58,-58 z"
         id="path165"
         inkscape:connector-curvature="0" />
    </clipPath>
    <clipPath
       id="clipPath167">
      <rect
         height="16"
         rx="3"
         y="116"
         x="432"
         width="16"
         id="rect169"
         style="color:#bebebe" />
    </clipPath>
    <clipPath
       id="clipPath171">
      <path
         d="m 145,215 c 33.13708,0 60,-26.86292 60,-60 0,-33.13708 -26.86292,-60 -60,-60 -33.13708,0 -60,26.86292 -60,60 0,12.50698 3.8285,24.10633 10.375,33.71875 L 89,211 111.28125,204.625 C 120.89367,211.1715 132.49302,215 145,215 Z"
         id="path173"
         inkscape:connector-curvature="0" />
    </clipPath>
    <clipPath
       id="clipPath175">
      <path
         d="m 152,204 a 8,8 0 1 1 -16,0 8,8 0 1 1 16,0 z"
         id="path177"
         inkscape:connector-curvature="0" />
    </clipPath>
    <clipPath
       id="clipPath179">
      <path
         d="m 98.03125,23.191212 c -41.492132,1.05238 -74.84375,35.06824 -74.84375,76.812498 0,42.40687 34.405632,76.8125 76.8125,76.8125 42.40687,0 76.8125,-34.40563 76.8125,-76.8125 0,-42.406866 -34.40563,-76.812498 -76.8125,-76.812498 -0.662607,0 -1.310145,-0.0167 -1.96875,0 z M 100,50.659962 c 27.24464,0 49.34375,22.099114 49.34375,49.343748 -1e-5,27.24464 -22.09911,49.34375 -49.34375,49.34375 -27.244636,-1e-5 -49.34375,-22.09911 -49.34375,-49.34375 0,-27.244634 22.099114,-49.343748 49.34375,-49.343748 z"
         id="path181"
         inkscape:connector-curvature="0" />
    </clipPath>
    <clipPath
       id="clipPath183">
      <rect
         height="16"
         rx="2"
         y="116"
         x="432"
         width="16"
         id="rect185"
         style="color:#bebebe;opacity:0.2;fill:#6d6d6d" />
    </clipPath>
    <clipPath
       id="clipPath187">
      <rect
         height="240"
         rx="50"
         y="36"
         x="24"
         width="240"
         id="rect189"
         style="color:#bebebe;fill:#986767" />
    </clipPath>
    <clipPath
       id="clipPath191">
      <rect
         transform="matrix(0,1,-1,0,0,0)"
         height="42"
         rx="9"
         y="223"
         x="307"
         width="42"
         id="rect193"
         style="color:#bebebe;fill:url(#3)" />
    </clipPath>
    <clipPath
       id="clipPath6-8">
      <rect
         id="rect8-3"
         width="477.14001"
         x="-830"
         y="1580.9301"
         height="208.57001"
         style="fill:#ffff00" />
    </clipPath>
    <clipPath
       id="clipPath10-9">
      <rect
         id="rect12-1"
         width="477.14001"
         x="-830"
         y="1580.9301"
         height="208.57001"
         style="fill:#ffff00" />
    </clipPath>
    <clipPath
       id="clipPath14-1">
      <rect
         id="rect16-7"
         width="477.14001"
         x="-830"
         y="1580.9301"
         height="208.57001"
         style="fill:#ffff00" />
    </clipPath>
    <clipPath
       id="clipPath18-1">
      <rect
         id="rect20-8"
         width="477.14001"
         x="-830"
         y="1580.9301"
         height="208.57001"
         style="fill:#ffff00" />
    </clipPath>
    <clipPath
       id="clipPath22-3">
      <rect
         id="rect24-7"
         width="357.87"
         x="294.92999"
         y="780.64001"
         height="240.87"
         transform="matrix(0.99975,-0.02255,0.02255,0.99975,0,0)"
         style="fill:#ff0000" />
    </clipPath>
    <clipPath
       id="clipPath26-2">
      <rect
         id="rect28-0"
         width="301.42999"
         y="857.53998"
         height="195"
         x="0"
         style="fill:#ffffff" />
    </clipPath>
    <clipPath
       id="clipPath30-2">
      <rect
         id="rect32-5"
         width="477.14001"
         x="-830"
         y="1580.9301"
         height="208.57001"
         style="fill:#ffff00" />
    </clipPath>
    <clipPath
       id="clipPath34-0">
      <rect
         id="rect36-7"
         width="79.480003"
         x="276.37"
         y="977.09003"
         height="30.01"
         style="fill:#e20a17" />
    </clipPath>
    <clipPath
       id="clipPath38-8">
      <rect
         id="rect40-9"
         width="506.45999"
         x="8.2080002"
         y="0.064000003"
         height="37.48"
         transform="matrix(0.93742901,0.34817646,-0.34817646,0.93742901,0,0)"
         style="fill:#162d50" />
    </clipPath>
    <clipPath
       id="clipPath42-0">
      <rect
         id="rect44-2"
         width="357.38"
         x="218.89999"
         y="758.66998"
         height="318.39999"
         transform="matrix(0.999992,0.00399993,-0.00399993,0.999992,0,0)"
         style="fill:#ffffff" />
    </clipPath>
    <clipPath
       id="clipPath46-0">
      <rect
         id="rect48-3"
         width="357.38"
         x="218.89999"
         y="758.66998"
         height="318.39999"
         transform="matrix(0.999992,0.00399993,-0.00399993,0.999992,0,0)"
         style="fill:#ffffff" />
    </clipPath>
    <clipPath
       id="clipPath50-0">
      <rect
         id="rect52-9"
         width="506.45999"
         x="8.2080002"
         y="0.064000003"
         height="37.48"
         transform="matrix(0.93742901,0.34817646,-0.34817646,0.93742901,0,0)"
         style="fill:#162d50" />
    </clipPath>
    <clipPath
       id="clipPath54-1">
      <rect
         id="rect56-8"
         width="477.14001"
         x="-830"
         y="1580.9301"
         height="208.57001"
         style="fill:#ffff00" />
    </clipPath>
    <clipPath
       id="clipPath58-4">
      <rect
         id="rect60-4"
         width="350.45999"
         x="221.39"
         y="804.23999"
         height="235.88"
         transform="matrix(0.999942,0.01077022,-0.01077022,0.999942,0,0)" />
    </clipPath>
    <clipPath
       id="clipPath62-6">
      <rect
         id="rect64-3"
         width="287.42999"
         x="257.32001"
         y="793.52002"
         height="279.03"
         transform="matrix(0.999996,0.00282848,-0.00282848,0.999996,0,0)"
         style="fill:#ffffff" />
    </clipPath>
    <clipPath
       id="clipPath66-7">
      <rect
         id="rect68-4"
         width="301.42999"
         y="0.059999999"
         height="195"
         x="0"
         style="fill:#ffffff" />
    </clipPath>
    <clipPath
       id="clipPath70-9">
      <rect
         id="rect72-8"
         width="301.42999"
         y="857.53998"
         height="195"
         x="0"
         style="fill:#ffffff" />
    </clipPath>
    <path
       d="m 699.2857,672.93231 a 40.71429,40.71429 0 1 1 -81.42858,0 40.71429,40.71429 0 1 1 81.42858,0 z"
       id="0-6"
       clip-path="url(#2-0)"
       inkscape:connector-curvature="0"
       style="fill:#44aa00" />
    <clipPath
       id="clipPath75-0">
      <use
         id="use77-5"
         transform="matrix(4.3233,0,0,4.3233,-2450.68,-2667.55)"
         xlink:href="#0-6"
         x="0"
         y="0"
         width="100%"
         height="100%" />
    </clipPath>
    <clipPath
       id="clipPath79-7">
      <rect
         id="rect81-8"
         width="63.987"
         x="448.12"
         y="815.73999"
         height="41.389999"
         transform="matrix(0.88741602,0.46096942,-0.46096942,0.88741602,0,0)"
         style="fill:#ffffff" />
    </clipPath>
    <clipPath
       id="clipPath83-9">
      <rect
         id="rect85-6"
         width="301.42999"
         y="857.53998"
         height="195"
         x="0"
         style="fill:#ffffff" />
    </clipPath>
    <clipPath
       id="clipPath87-2">
      <rect
         id="rect89-1"
         width="477.14001"
         x="-830"
         y="1580.9301"
         height="208.57001"
         style="fill:#ffff00" />
    </clipPath>
    <clipPath
       id="clipPath91-0">
      <rect
         id="rect93-9"
         width="477.14001"
         x="-830"
         y="1580.9301"
         height="208.57001"
         style="fill:#ffff00" />
    </clipPath>
    <clipPath
       id="clipPath95-1">
      <rect
         id="rect97-7"
         width="477.14001"
         x="-830"
         y="1580.9301"
         height="208.57001"
         style="fill:#ffff00" />
    </clipPath>
    <clipPath
       id="clipPath99-9">
      <rect
         id="rect101-3"
         width="477.14001"
         x="-830"
         y="1580.9301"
         height="208.57001"
         style="fill:#ffff00" />
    </clipPath>
    <clipPath
       id="clipPath103-0">
      <rect
         id="rect105-1"
         width="477.14001"
         x="-830"
         y="1580.9301"
         height="208.57001"
         style="fill:#ffff00" />
    </clipPath>
    <clipPath
       id="clipPath107-3">
      <use
         id="use109-5"
         xlink:href="#0-6"
         x="0"
         y="0"
         width="100%"
         height="100%" />
    </clipPath>
    <clipPath
       id="clipPath111-2">
      <rect
         id="rect113-4"
         width="477.14001"
         x="-830"
         y="1580.9301"
         height="208.57001"
         style="fill:#ffff00" />
    </clipPath>
    <path
       d="m 699.2857,672.93231 a 40.71429,40.71429 0 1 1 -81.42858,0 40.71429,40.71429 0 1 1 81.42858,0 z"
       id="1-8"
       inkscape:connector-curvature="0"
       style="fill:#44aa00" />
    <clipPath
       id="2-0">
      <use
         id="use117-9"
         xlink:href="#1-8"
         x="0"
         y="0"
         width="100%"
         height="100%" />
    </clipPath>
    <clipPath
       id="clipPath119-3">
      <use
         id="use121-6"
         xlink:href="#1-8"
         transform="matrix(4.3233,0,0,4.3233,-2450.68,-2667.55)"
         x="0"
         y="0"
         width="100%"
         height="100%" />
    </clipPath>
    <linearGradient
       gradientTransform="matrix(0.175,0,0,0.175,302.79999,215.99997)"
       id="3-4"
       xlink:href="#4"
       y1="280"
       y2="40"
       x2="0"
       gradientUnits="userSpaceOnUse" />
    <linearGradient
       gradientTransform="matrix(0.375,0,0,0.375,298,16)"
       id="5-3"
       xlink:href="#4"
       y1="230"
       y2="90"
       x2="0"
       gradientUnits="userSpaceOnUse" />
    <linearGradient
       gradientTransform="matrix(0.25,0,0,0.25,299.99999,131.99999)"
       id="6-1"
       xlink:href="#4"
       y1="230"
       y2="90"
       x2="0"
       gradientUnits="userSpaceOnUse" />
    <clipPath
       id="clipPath131-9">
      <rect
         id="rect133-3"
         width="20"
         x="434"
         y="78"
         rx="4"
         height="20"
         style="color:#bebebe" />
    </clipPath>
    <clipPath
       id="clipPath135-6">
      <rect
         id="rect137-8"
         width="22"
         x="433"
         y="77"
         rx="4"
         height="22"
         style="color:#bebebe" />
    </clipPath>
    <clipPath
       id="clipPath139-3">
      <rect
         id="rect141-7"
         width="22"
         x="433"
         y="77"
         rx="5"
         height="22"
         style="color:#bebebe" />
    </clipPath>
    <clipPath
       id="clipPath143-4">
      <rect
         id="rect145-7"
         width="30"
         x="433"
         y="29"
         rx="6"
         height="30"
         style="color:#bebebe" />
    </clipPath>
    <clipPath
       id="clipPath147-9">
      <rect
         style="color:#bebebe;fill:url(#6-1)"
         id="rect149-6"
         width="60"
         x="306"
         y="142"
         rx="12.5"
         height="60"
         transform="matrix(0,-1,1,0,0,0)" />
    </clipPath>
    <clipPath
       id="clipPath151-6">
      <rect
         style="color:#bebebe;fill:url(#5-3)"
         id="rect153-0"
         width="90"
         x="307"
         y="31"
         rx="18.75"
         height="90" />
    </clipPath>
    <clipPath
       id="clipPath155-3">
      <rect
         id="rect157-6"
         width="30"
         x="433"
         y="29"
         rx="4"
         height="30"
         style="color:#bebebe;opacity:0.2;fill:#6d6d6d" />
    </clipPath>
    <clipPath
       id="clipPath159-3">
      <rect
         id="rect161-5"
         width="22"
         x="433"
         y="77"
         rx="3"
         height="22"
         style="color:#bebebe;opacity:0.2;fill:#6d6d6d" />
    </clipPath>
    <clipPath
       id="clipPath163-7">
      <path
         id="path165-8"
         d="m 144,70 c -49.705627,0 -90,40.29437 -90,90 0,49.70563 40.294373,90 90,90 49.70563,0 90,-40.29437 90,-90 0,-49.70563 -40.29437,-90 -90,-90 z m 0,32.1875 c 32.03251,0 58,25.96748 58,58 0,32.03252 -25.96749,58 -58,58 -32.03251,0 -58,-25.96748 -58,-58 0,-32.03252 25.96749,-58 58,-58 z"
         inkscape:connector-curvature="0" />
    </clipPath>
    <clipPath
       id="clipPath167-2">
      <rect
         id="rect169-1"
         width="16"
         x="432"
         y="116"
         rx="3"
         height="16"
         style="color:#bebebe" />
    </clipPath>
    <clipPath
       id="clipPath171-3">
      <path
         id="path173-1"
         d="m 145,215 c 33.13708,0 60,-26.86292 60,-60 0,-33.13708 -26.86292,-60 -60,-60 -33.13708,0 -60,26.86292 -60,60 0,12.50698 3.8285,24.10633 10.375,33.71875 L 89,211 111.28125,204.625 C 120.89367,211.1715 132.49302,215 145,215 Z"
         inkscape:connector-curvature="0" />
    </clipPath>
    <clipPath
       id="clipPath175-2">
      <path
         id="path177-2"
         d="m 152,204 a 8,8 0 1 1 -16,0 8,8 0 1 1 16,0 z"
         inkscape:connector-curvature="0" />
    </clipPath>
    <clipPath
       id="clipPath179-6">
      <path
         id="path181-0"
         d="m 98.03125,23.191212 c -41.492132,1.05238 -74.84375,35.06824 -74.84375,76.812498 0,42.40687 34.405632,76.8125 76.8125,76.8125 42.40687,0 76.8125,-34.40563 76.8125,-76.8125 0,-42.406866 -34.40563,-76.812498 -76.8125,-76.812498 -0.662607,0 -1.310145,-0.0167 -1.96875,0 z M 100,50.659962 c 27.24464,0 49.34375,22.099114 49.34375,49.343748 -1e-5,27.24464 -22.09911,49.34375 -49.34375,49.34375 -27.244636,-1e-5 -49.34375,-22.09911 -49.34375,-49.34375 0,-27.244634 22.099114,-49.343748 49.34375,-49.343748 z"
         inkscape:connector-curvature="0" />
    </clipPath>
    <clipPath
       id="clipPath183-8">
      <rect
         id="rect185-8"
         width="16"
         x="432"
         y="116"
         rx="2"
         height="16"
         style="color:#bebebe;opacity:0.2;fill:#6d6d6d" />
    </clipPath>
    <clipPath
       id="clipPath187-3">
      <rect
         id="rect189-2"
         width="240"
         x="24"
         y="36"
         rx="50"
         height="240"
         style="color:#bebebe;fill:#986767" />
    </clipPath>
    <clipPath
       id="clipPath191-9">
      <rect
         style="color:#bebebe;fill:url(#3-4)"
         id="rect193-2"
         width="42"
         x="307"
         y="223"
         rx="9"
         height="42"
         transform="matrix(0,1,-1,0,0,0)" />
    </clipPath>
  </defs>
  <path
     d="m 2.2051182,1.0307691 c -0.1388265,0 -0.2621783,0.0515 -0.3612887,0.15155 -0.099061,0.09999 -0.1510746,0.2248251 -0.1510741,0.3657021 l 0,0.712106 0.2828003,-0.00235 0,-0.7169318 c 0,-0.2543123 0.4231542,-0.2782319 0.4233334,0.00718 l 0,0.7097567 0.2822222,0 0,-0.7097567 c 0.00202,-0.2826567 0.4233334,-0.274664 0.4158108,0 l 0.00752,0.8508679 c 2.6e-6,0.2958838 -0.1210831,0.4233333 -0.3922107,0.4233333 l -1.0189005,0 c -0.1425883,0 -0.2822223,-0.1144602 -0.2822223,-0.4245292 l 0,-1.55102647 -0.2822222,0 0,1.69333347 c 0,0.2822222 0.2822222,0.5644445 0.5644445,0.5644445 l 1.1288915,0 c 0.2822223,0 0.5644445,-0.2822223 0.5644445,-0.5644445 l 0,-0.9877821 c 0,-0.140877 -0.01848,-0.2698879 -0.1175416,-0.36988 -0.099109,-0.100045 -0.2224623,-0.151549 -0.3612883,-0.151549 -0.136269,0 -0.2714211,0.050535 -0.3678368,0.1432512 C 2.4438452,1.0814745 2.3413603,1.0307933 2.2051467,1.0307933 Z"
     id="path199"
     inkscape:connector-curvature="0"
     style="fill:#d70751;fill-opacity:1;fill-rule:evenodd"
     sodipodi:nodetypes="ccscccccccccccsccccccccsccc" />
  <path
     d="m 1.838805,3.6688892 c -0.7347224,0 -1.27436051,-0.395362 -1.27436051,-1.128889 l 0,-1.4111112 -0.56444449,0 0,-0.84666676 2.5400002,0 c 0.7174443,0 1.4111113,0.42572508 1.4111112,1.12888896 l -3e-7,2.257763 -2.1123252,0 0,0 -0.00434,0 z M 3.6688892,1.4111112 C 3.6747022,0.84666673 3.1044447,0.56444449 2.5400002,0.56444449 l -2.25777796,0 0,0.28222224 0.28222225,0 c 0.12652771,0 0.28222224,0.10786324 0.28222224,0.28222227 l 0,1.4111112 c 0,0.547335 0.39577217,0.8466666 0.98777787,0.8466667 l 1.5522223,3e-7 c 0.1873859,0 0.2822223,-0.099978 0.2822223,-0.2822222 z"
     id="path203"
     inkscape:connector-curvature="0"
     style="fill:#d70751;fill-opacity:1;fill-rule:evenodd"
     sodipodi:nodetypes="ccccccscccccccccsccsscc" />
  <path
     style="opacity:0.4;fill:#424f3c;fill-opacity:1;stroke:none"
     d="M 10.996094 8 L 11 8.5 C 11.000009 9.5484071 10.570063 10 9.609375 10 L 7 10 L 7 11 L 10 11 C 11 11 12 9.9999998 12 9 L 12 8 L 10.996094 8 z "
     transform="scale(0.28222224,0.28222224)"
     id="rect3529" />
</svg>
