<svg width="15" height="15" version="1.1" viewBox="0 0 4.2333334 4.2333334" xmlns="http://www.w3.org/2000/svg" xmlns:xlink="http://www.w3.org/1999/xlink">
 <path d="m2.9896 0.53511a0.047676 0.047737 0 0 0 -0.00238 0.002387c-0.13146 0.033124-0.31022 0.10319-0.41505 0.15047-0.00542 0.00103-0.011502-0.001095-0.016697 0-0.021105 0.004448-0.048982 0.015215-0.076331 0.026272-0.0547 0.022115-0.1258 0.057941-0.20991 0.1027-0.16823 0.089514-0.38929 0.21845-0.62735 0.36304-0.46908 0.2849-0.9975 0.62031-1.3167 0.82878-0.002577 0.00102-0.007006 0.00855-0.009541 0.00956-0.002366 0.00158-0.004813 0.00567-0.007157 0.00715a0.047676 0.047737 0 0 0 -0.019083 0.016723 0.047676 0.047737 0 0 0 0 0.00955 0.047676 0.047737 0 0 0 -0.007155 0.00718 0.047676 0.047737 0 0 0 0.007155 0.01911 0.047676 0.047737 0 0 0 0 0.00715 0.047676 0.047737 0 0 0 0.009541 0.00956 0.047676 0.047737 0 0 0 0.009541 0.00715 0.047676 0.047737 0 0 0 0.016697 0.00956 0.047676 0.047737 0 0 0 0.007155 0 0.047676 0.047737 0 0 0 0.009541 0 0.047676 0.047737 0 0 0 0.007156 0c0.002531-9.273e-4 0.00697-0.00855 0.009541-0.00956 0.1895-0.072713 0.49064-0.18454 0.75138-0.2699 0.13214-0.043253 0.25451-0.082958 0.34587-0.1027 0.045684-0.00987 0.084323-0.00622 0.10973-0.00715 0.010162-3.631e-4 0.00509-0.00112 0.00954 0-0.00703 0.020243-0.025797 0.05407-0.050092 0.093148-0.04859 0.078148-0.12255 0.18939-0.21945 0.32005-0.19197 0.25884-0.45425 0.61158-0.69413 1.0175-0.002293 0.0039-0.004865 0.00325-0.007155 0.00715a0.047676 0.047737 0 0 0 -0.009541 0.016723 0.047676 0.047737 0 0 0 0 0.016723 0.047676 0.047737 0 0 0 0.009541 0.00955 0.047676 0.047737 0 0 0 0 0.00715 0.047676 0.047737 0 0 0 0.007155 0.00955 0.047676 0.047737 0 0 0 0.016697 0.00715 0.047676 0.047737 0 0 0 0.009541 0 0.047676 0.047737 0 0 0 0.007155 0 0.047676 0.047737 0 0 0 0.016697 0 0.047676 0.047737 0 0 0 0.016697 -0.00715c0.002096-0.00232 0.007426-0.00725 0.009541-0.00955 0.002116-0.00232 0.007408-0.00483 0.009541-0.00715 0.19955-0.21753 0.47645-0.5651 0.72514-0.84789 0.12701-0.14442 0.24503-0.26722 0.33872-0.35348 0.026303-0.024217 0.045187-0.035741 0.066789-0.052548-0.00908 0.015312-0.012955 0.025099-0.023853 0.042993-0.060284 0.098957-0.14704 0.23642-0.24569 0.39886-0.23578 0.38826-0.41884 0.74237-0.59156 1.0748a0.047676 0.047737 0 0 0 0 0.00715 0.047676 0.047737 0 0 0 0 0.00956 0.047676 0.047737 0 0 0 0 0.00715c-4.0629e-4 0.0013-0.002357-2.638e-4 0 0.00956-0.002002 0.00557-0.006457 0.00929-0.009541 0.016723-0.01013 0.024347-0.023148 0.047756-0.033394 0.066875-0.00156 0.00288-0.005841 0.00725-0.007159 0.00956a0.047676 0.047737 0 0 0 0 0.00715 0.047676 0.047737 0 0 0 0 0.00956 0.047676 0.047737 0 0 0 0 0.023883 0.047676 0.047737 0 0 0 0 0.00955 0.047676 0.047737 0 0 0 0.007159 0.00956 0.047676 0.047737 0 0 0 0.009541 0.00715 0.047676 0.047737 0 0 0 0.023853 0.00955 0.047676 0.047737 0 0 0 0.009541 0 0.047676 0.047737 0 0 0 0.016697 -0.00955 0.047676 0.047737 0 0 0 0.009541 -0.00715c0.001586-0.00177 0.005538-0.0077 0.007159-0.00956 9.36e-4 -0.00102-9.4457e-4 -0.00845 0-0.00955 0.22549-0.25801 0.74692-1.0004 0.96368-1.3113 0.1015-0.14557 0.22452-0.33132 0.33872-0.48246 0.0571-0.075576 0.10815-0.14094 0.15982-0.1863 0.051672-0.045361 0.096014-0.066467 0.12642-0.066876 0.065838-8.84e-4 0.14313 0.029501 0.22899 0.1027 0.085862 0.0732 0.18264 0.18626 0.27908 0.3296 0.19288 0.28667 0.39664 0.70352 0.60826 1.2014 0.07108 0.16722 0.059341 0.1874 0.10018 0.30333a0.047676 0.047737 0 0 0 0.00954 0.01911 0.047676 0.047737 0 0 0 0.00954 0.00715c0.016968 0.01338 0.053193 0.02131 0.073946 0.00955 0.020751-0.011765 0.020735-0.031832 0.026238-0.042993 0.0055-0.011162 0.014127-0.019249 0.0167-0.026269a0.047676 0.047737 0 0 0 0 -0.00715 0.047676 0.047737 0 0 0 0.00954 -0.016723 0.047676 0.047737 0 0 0 0 -0.00956c-0.0051706-0.11256-0.060902-0.32218-0.15266-0.65196-0.19784-0.71101-0.40456-1.4866-0.90404-1.8701l0.023853-0.16958c0.028297-0.036298 0.061216-0.089071 0.093028-0.13375 0.00689-0.009673 0.02031-0.017021 0.026238-0.026272a0.047676 0.047737 0 0 0 0.00954 -0.009553 0.047676 0.047737 0 0 0 0 -0.007168 0.047676 0.047737 0 0 0 0 -0.016719 0.047676 0.047737 0 0 0 -0.00954 -0.016719 0.047676 0.047737 0 0 0 -0.00954 -0.009554 0.047676 0.047737 0 0 0 -0.00716 -0.007168 0.047676 0.047737 0 0 0 -0.00954 0 0.047676 0.047737 0 0 0 -0.00716 0 0.047676 0.047737 0 0 0 -0.014312 -0.002387z" style="fill-rule:evenodd;fill:#0068c8"/>
</svg>
