<svg width="15" height="15" version="1.1" viewBox="0 0 4.2333334 4.2333334" xmlns="http://www.w3.org/2000/svg" xmlns:xlink="http://www.w3.org/1999/xlink">
 <path d="m1.9827 0.14111c-0.040507 3.828e-5 -0.078038 0.015555-0.10666 0.044648-0.028603 0.029113-0.044706 0.067944-0.044648 0.10914 5.69e-5 0.084797 0.070254 0.15379 0.15379 0.15379 0.08363-7.695e-5 0.15138-0.068781 0.15131-0.15379-7.58e-5 -0.084759-0.070121-0.15379-0.15379-0.15379zm0.45641 0.23068c-0.094055 5.777e-5 -0.17119 0.077945-0.17115 0.17363 9.48e-5 0.095339 0.077173 0.17363 0.17115 0.17363 0.045568-5.786e-5 0.08932-0.019344 0.12154-0.052091 0.032187-0.032709 0.049647-0.075156 0.04961-0.12154-9.47e-5 -0.095361-0.077059-0.17363-0.17115-0.17363zm-0.35967 0.30758c-0.050629 3.857e-5 -0.098158 0.020665-0.13395 0.057047-0.035769 0.036344-0.057089 0.084838-0.057051 0.13643 9.48e-5 0.10594 0.086553 0.191 0.191 0.191 0.050648-3.86e-5 0.098177-0.018225 0.13395-0.054569 0.035769-0.036363 0.054608-0.084857 0.05457-0.13643-5.69e-5 -0.10596-0.083903-0.19348-0.18852-0.19348zm0.41672 0.32742c-0.11498 9.64e-5 -0.20847 0.096467-0.20836 0.21332 7.57e-5 0.11655 0.093454 0.21084 0.20836 0.21084 0.11496-1.157e-4 0.20845-0.096467 0.20836-0.21332-1.136e-4 -0.11655-0.093302-0.21084-0.20836-0.21084zm-0.68213 0.11658c-0.12541 1.341e-4 -0.2283 0.10315-0.2282 0.23068 1.328e-4 0.12711 0.10291 0.23068 0.2282 0.23068 0.12541-1.35e-4 0.22582-0.10315 0.22572-0.23068-1.516e-4 -0.12711-0.10024-0.23068-0.22572-0.23068zm-0.37703 0.40432c-0.042066-2.9e-6 -0.084886 0.012998-0.11906 0.042168-0.29996 0.25597-0.47129 0.63594-0.47129 1.0418 0 0.73853 0.56972 1.3395 1.27 1.3395s1.27-0.60091 1.27-1.3395c0-0.40607-0.17157-0.78608-0.47129-1.0418-0.06837-0.058339-0.16975-0.058359-0.23812 0-0.16123 0.13767-0.35432 0.21084-0.56059 0.21084-0.20602 0-0.39935-0.073189-0.56059-0.21084-0.034195-0.029179-0.076997-0.042168-0.11906-0.042168zm0.017363 0.4316c0.19802 0.12757 0.42876 0.19596 0.66229 0.19596 0.23375 0 0.46424-0.068406 0.66229-0.19596 0.1532 0.17685 0.23813 0.40715 0.23813 0.65236 0 0.53108-0.40396 0.9649-0.90041 0.9649-0.49647 0-0.90041-0.43382-0.90041-0.9649 0-0.24504 0.084703-0.47542 0.23812-0.65236z" style="fill:#384865;stroke-width:.96429"/>
</svg>
