<?xml version="1.0" encoding="UTF-8" standalone="no"?>
<svg
   xmlns:dc="http://purl.org/dc/elements/1.1/"
   xmlns:cc="http://creativecommons.org/ns#"
   xmlns:rdf="http://www.w3.org/1999/02/22-rdf-syntax-ns#"
   xmlns:svg="http://www.w3.org/2000/svg"
   xmlns="http://www.w3.org/2000/svg"
   xmlns:xlink="http://www.w3.org/1999/xlink"
   xmlns:sodipodi="http://sodipodi.sourceforge.net/DTD/sodipodi-0.dtd"
   xmlns:inkscape="http://www.inkscape.org/namespaces/inkscape"
   width="14"
   viewBox="0 0 3.9511112 3.9511112"
   height="14"
   id="svg2"
   version="1.1"
   inkscape:version="0.91 r13725"
   sodipodi:docname="mageia.svg"
   inkscape:export-filename="/home/josh/Code/unixporn/resources/Flairs/mageia.png"
   inkscape:export-xdpi="90"
   inkscape:export-ydpi="90">
  <metadata
     id="metadata221">
    <rdf:RDF>
      <cc:Work
         rdf:about="">
        <dc:format>image/svg+xml</dc:format>
        <dc:type
           rdf:resource="http://purl.org/dc/dcmitype/StillImage" />
        <dc:title></dc:title>
      </cc:Work>
    </rdf:RDF>
  </metadata>
  <sodipodi:namedview
     pagecolor="#ffffff"
     bordercolor="#666666"
     borderopacity="1"
     objecttolerance="10"
     gridtolerance="10"
     guidetolerance="10"
     inkscape:pageopacity="0"
     inkscape:pageshadow="2"
     inkscape:window-width="1580"
     inkscape:window-height="840"
     id="namedview219"
     showgrid="true"
     inkscape:zoom="24.464289"
     inkscape:cx="-3.13693"
     inkscape:cy="8.7133586"
     inkscape:window-x="10"
     inkscape:window-y="50"
     inkscape:window-maximized="0"
     inkscape:current-layer="svg2">
    <inkscape:grid
       type="xygrid"
       id="grid3990" />
  </sodipodi:namedview>
  <defs
     id="defs4">
    <linearGradient
       id="linearGradient3972">
      <stop
         style="stop-color:#ffffff;stop-opacity:1;"
         offset="0"
         id="stop3974" />
      <stop
         style="stop-color:#ffffff;stop-opacity:0;"
         offset="1"
         id="stop3976" />
    </linearGradient>
    <linearGradient
       id="0">
      <stop
         stop-color="#2a344b"
         id="stop7" />
      <stop
         offset="1"
         stop-color="#455b7e"
         id="stop9" />
    </linearGradient>
    <clipPath
       id="clipPath11">
      <rect
         height="208.57001"
         y="1580.9301"
         x="-830"
         width="477.14001"
         id="rect13"
         style="fill:#ffff00" />
    </clipPath>
    <clipPath
       id="clipPath15">
      <rect
         height="208.57001"
         y="1580.9301"
         x="-830"
         width="477.14001"
         id="rect17"
         style="fill:#ffff00" />
    </clipPath>
    <clipPath
       id="clipPath19">
      <rect
         height="208.57001"
         y="1580.9301"
         x="-830"
         width="477.14001"
         id="rect21"
         style="fill:#ffff00" />
    </clipPath>
    <clipPath
       id="clipPath23">
      <rect
         height="208.57001"
         y="1580.9301"
         x="-830"
         width="477.14001"
         id="rect25"
         style="fill:#ffff00" />
    </clipPath>
    <clipPath
       id="clipPath27">
      <rect
         transform="matrix(0.99975,-0.02255,0.02255,0.99975,0,0)"
         height="240.87"
         y="780.64001"
         x="294.92999"
         width="357.87"
         id="rect29"
         style="fill:#ff0000" />
    </clipPath>
    <clipPath
       id="clipPath31">
      <rect
         height="195"
         y="857.53998"
         width="301.42999"
         id="rect33"
         x="0"
         style="fill:#ffffff" />
    </clipPath>
    <clipPath
       id="clipPath35">
      <rect
         height="208.57001"
         y="1580.9301"
         x="-830"
         width="477.14001"
         id="rect37"
         style="fill:#ffff00" />
    </clipPath>
    <clipPath
       id="clipPath39">
      <rect
         height="30.01"
         y="977.09003"
         x="276.37"
         width="79.480003"
         id="rect41"
         style="fill:#e20a17" />
    </clipPath>
    <clipPath
       id="clipPath43">
      <rect
         transform="matrix(0.93742901,0.34817646,-0.34817646,0.93742901,0,0)"
         height="37.48"
         y="0.064000003"
         x="8.2080002"
         width="506.45999"
         id="rect45"
         style="fill:#162d50" />
    </clipPath>
    <clipPath
       id="clipPath47">
      <rect
         transform="matrix(0.999992,0.00399993,-0.00399993,0.999992,0,0)"
         height="318.39999"
         y="758.66998"
         x="218.89999"
         width="357.38"
         id="rect49"
         style="fill:#ffffff" />
    </clipPath>
    <clipPath
       id="clipPath51">
      <rect
         transform="matrix(0.999992,0.00399993,-0.00399993,0.999992,0,0)"
         height="318.39999"
         y="758.66998"
         x="218.89999"
         width="357.38"
         id="rect53"
         style="fill:#ffffff" />
    </clipPath>
    <clipPath
       id="clipPath55">
      <rect
         transform="matrix(0.93742901,0.34817646,-0.34817646,0.93742901,0,0)"
         height="37.48"
         y="0.064000003"
         x="8.2080002"
         width="506.45999"
         id="rect57"
         style="fill:#162d50" />
    </clipPath>
    <clipPath
       id="clipPath59">
      <rect
         height="208.57001"
         y="1580.9301"
         x="-830"
         width="477.14001"
         id="rect61"
         style="fill:#ffff00" />
    </clipPath>
    <clipPath
       id="clipPath63">
      <rect
         transform="matrix(0.999942,0.01077022,-0.01077022,0.999942,0,0)"
         height="235.88"
         y="804.23999"
         x="221.39"
         width="350.45999"
         id="rect65" />
    </clipPath>
    <clipPath
       id="clipPath67">
      <rect
         transform="matrix(0.999996,0.00282848,-0.00282848,0.999996,0,0)"
         height="279.03"
         y="793.52002"
         x="257.32001"
         width="287.42999"
         id="rect69"
         style="fill:#ffffff" />
    </clipPath>
    <clipPath
       id="clipPath71">
      <rect
         height="195"
         y="0.059999999"
         width="301.42999"
         id="rect73"
         x="0"
         style="fill:#ffffff" />
    </clipPath>
    <clipPath
       id="clipPath75">
      <rect
         height="195"
         y="857.53998"
         width="301.42999"
         id="rect77"
         x="0"
         style="fill:#ffffff" />
    </clipPath>
    <path
       clip-path="url(#3)"
       id="1"
       d="m 699.2857,672.93231 a 40.71429,40.71429 0 1 1 -81.42858,0 40.71429,40.71429 0 1 1 81.42858,0 z"
       inkscape:connector-curvature="0"
       style="fill:#44aa00" />
    <clipPath
       id="clipPath80">
      <use
         xlink:href="#1"
         transform="matrix(4.3233,0,0,4.3233,-2450.68,-2667.55)"
         id="use82"
         x="0"
         y="0"
         width="100%"
         height="100%" />
    </clipPath>
    <clipPath
       id="clipPath84">
      <rect
         transform="matrix(0.88741602,0.46096942,-0.46096942,0.88741602,0,0)"
         height="41.389999"
         y="815.73999"
         x="448.12"
         width="63.987"
         id="rect86"
         style="fill:#ffffff" />
    </clipPath>
    <clipPath
       id="clipPath88">
      <rect
         height="195"
         y="857.53998"
         width="301.42999"
         id="rect90"
         x="0"
         style="fill:#ffffff" />
    </clipPath>
    <clipPath
       id="clipPath92">
      <rect
         height="208.57001"
         y="1580.9301"
         x="-830"
         width="477.14001"
         id="rect94"
         style="fill:#ffff00" />
    </clipPath>
    <clipPath
       id="clipPath96">
      <rect
         height="208.57001"
         y="1580.9301"
         x="-830"
         width="477.14001"
         id="rect98"
         style="fill:#ffff00" />
    </clipPath>
    <clipPath
       id="clipPath100">
      <rect
         height="208.57001"
         y="1580.9301"
         x="-830"
         width="477.14001"
         id="rect102"
         style="fill:#ffff00" />
    </clipPath>
    <clipPath
       id="clipPath104">
      <rect
         height="208.57001"
         y="1580.9301"
         x="-830"
         width="477.14001"
         id="rect106"
         style="fill:#ffff00" />
    </clipPath>
    <clipPath
       id="clipPath108">
      <rect
         height="208.57001"
         y="1580.9301"
         x="-830"
         width="477.14001"
         id="rect110"
         style="fill:#ffff00" />
    </clipPath>
    <clipPath
       id="clipPath112">
      <use
         xlink:href="#1"
         id="use114"
         x="0"
         y="0"
         width="100%"
         height="100%" />
    </clipPath>
    <clipPath
       id="clipPath116">
      <rect
         height="208.57001"
         y="1580.9301"
         x="-830"
         width="477.14001"
         id="rect118"
         style="fill:#ffff00" />
    </clipPath>
    <path
       id="2"
       d="m 699.2857,672.93231 a 40.71429,40.71429 0 1 1 -81.42858,0 40.71429,40.71429 0 1 1 81.42858,0 z"
       inkscape:connector-curvature="0"
       style="fill:#44aa00" />
    <clipPath
       id="3">
      <use
         xlink:href="#2"
         id="use122"
         x="0"
         y="0"
         width="100%"
         height="100%" />
    </clipPath>
    <clipPath
       id="clipPath124">
      <use
         transform="matrix(4.3233,0,0,4.3233,-2450.68,-2667.55)"
         xlink:href="#2"
         id="use126"
         x="0"
         y="0"
         width="100%"
         height="100%" />
    </clipPath>
    <linearGradient
       gradientUnits="userSpaceOnUse"
       x2="0"
       y2="40"
       y1="280"
       xlink:href="#5"
       id="4"
       gradientTransform="matrix(0.175,0,0,0.175,302.79999,215.99997)" />
    <linearGradient
       id="5">
      <stop
         stop-color="#151515"
         id="stop130" />
      <stop
         stop-color="#222"
         offset="1"
         id="stop132" />
    </linearGradient>
    <linearGradient
       gradientUnits="userSpaceOnUse"
       x2="0"
       y2="90"
       y1="230"
       xlink:href="#5"
       id="6"
       gradientTransform="matrix(0.375,0,0,0.375,298,16)" />
    <linearGradient
       gradientUnits="userSpaceOnUse"
       x2="0"
       y2="90"
       y1="230"
       xlink:href="#5"
       id="7"
       gradientTransform="matrix(0.25,0,0,0.25,299.99999,131.99999)" />
    <clipPath
       id="clipPath136">
      <rect
         height="20"
         rx="4"
         y="78"
         x="434"
         width="20"
         id="rect138"
         style="color:#bebebe" />
    </clipPath>
    <clipPath
       id="clipPath140">
      <rect
         height="22"
         rx="4"
         y="77"
         x="433"
         width="22"
         id="rect142"
         style="color:#bebebe" />
    </clipPath>
    <clipPath
       id="clipPath144">
      <rect
         height="22"
         rx="5"
         y="77"
         x="433"
         width="22"
         id="rect146"
         style="color:#bebebe" />
    </clipPath>
    <clipPath
       id="clipPath148">
      <rect
         height="30"
         rx="6"
         y="29"
         x="433"
         width="30"
         id="rect150"
         style="color:#bebebe" />
    </clipPath>
    <clipPath
       id="clipPath152">
      <rect
         transform="matrix(0,-1,1,0,0,0)"
         height="60"
         rx="12.5"
         y="142"
         x="306"
         width="60"
         id="rect154"
         style="color:#bebebe;fill:url(#7)" />
    </clipPath>
    <clipPath
       id="clipPath156">
      <rect
         height="90"
         rx="18.75"
         y="31"
         x="307"
         width="90"
         id="rect158"
         style="color:#bebebe;fill:url(#6)" />
    </clipPath>
    <clipPath
       id="clipPath160">
      <rect
         height="30"
         rx="4"
         y="29"
         x="433"
         width="30"
         id="rect162"
         style="color:#bebebe;opacity:0.2;fill:#6d6d6d" />
    </clipPath>
    <clipPath
       id="clipPath164">
      <rect
         height="22"
         rx="3"
         y="77"
         x="433"
         width="22"
         id="rect166"
         style="color:#bebebe;opacity:0.2;fill:#6d6d6d" />
    </clipPath>
    <clipPath
       id="clipPath168">
      <path
         d="m 144,70 c -49.705627,0 -90,40.29437 -90,90 0,49.70563 40.294373,90 90,90 49.70563,0 90,-40.29437 90,-90 0,-49.70563 -40.29437,-90 -90,-90 z m 0,32.1875 c 32.03251,0 58,25.96748 58,58 0,32.03252 -25.96749,58 -58,58 -32.03251,0 -58,-25.96748 -58,-58 0,-32.03252 25.96749,-58 58,-58 z"
         id="path170"
         inkscape:connector-curvature="0" />
    </clipPath>
    <clipPath
       id="clipPath172">
      <rect
         height="16"
         rx="3"
         y="116"
         x="432"
         width="16"
         id="rect174"
         style="color:#bebebe" />
    </clipPath>
    <clipPath
       id="clipPath176">
      <path
         d="m 145,215 c 33.13708,0 60,-26.86292 60,-60 0,-33.13708 -26.86292,-60 -60,-60 -33.13708,0 -60,26.86292 -60,60 0,12.50698 3.8285,24.10633 10.375,33.71875 L 89,211 111.28125,204.625 C 120.89367,211.1715 132.49302,215 145,215 Z"
         id="path178"
         inkscape:connector-curvature="0" />
    </clipPath>
    <clipPath
       id="clipPath180">
      <path
         d="m 152,204 a 8,8 0 1 1 -16,0 8,8 0 1 1 16,0 z"
         id="path182"
         inkscape:connector-curvature="0" />
    </clipPath>
    <clipPath
       id="clipPath184">
      <path
         d="m 98.03125,23.191212 c -41.492132,1.05238 -74.84375,35.06824 -74.84375,76.812498 0,42.40687 34.405632,76.8125 76.8125,76.8125 42.40687,0 76.8125,-34.40563 76.8125,-76.8125 0,-42.406866 -34.40563,-76.812498 -76.8125,-76.812498 -0.662607,0 -1.310145,-0.0167 -1.96875,0 z M 100,50.659962 c 27.24464,0 49.34375,22.099114 49.34375,49.343748 -1e-5,27.24464 -22.09911,49.34375 -49.34375,49.34375 -27.244636,-1e-5 -49.34375,-22.09911 -49.34375,-49.34375 0,-27.244634 22.099114,-49.343748 49.34375,-49.343748 z"
         id="path186"
         inkscape:connector-curvature="0" />
    </clipPath>
    <clipPath
       id="clipPath188">
      <rect
         height="16"
         rx="2"
         y="116"
         x="432"
         width="16"
         id="rect190"
         style="color:#bebebe;opacity:0.2;fill:#6d6d6d" />
    </clipPath>
    <clipPath
       id="clipPath192">
      <rect
         height="240"
         rx="50"
         y="36"
         x="24"
         width="240"
         id="rect194"
         style="color:#bebebe;fill:#986767" />
    </clipPath>
    <clipPath
       id="clipPath196">
      <rect
         transform="matrix(0,1,-1,0,0,0)"
         height="42"
         rx="9"
         y="223"
         x="307"
         width="42"
         id="rect198"
         style="color:#bebebe;fill:url(#4)" />
    </clipPath>
    <linearGradient
       xlink:href="#0"
       id="8"
       x1="6.8140001"
       y1="12.72"
       x2="6.7740002"
       y2="0.82700002"
       gradientUnits="userSpaceOnUse"
       gradientTransform="translate(20.205198,1.4350283)" />
    <linearGradient
       inkscape:collect="always"
       xlink:href="#0"
       id="linearGradient3978"
       x1="7.0429673"
       y1="4.1050649"
       x2="7.6495304"
       y2="4.1050649"
       gradientUnits="userSpaceOnUse"
       gradientTransform="matrix(1.9999999,0,0,1.9999999,-6.7733323,-6.773332)" />
    <linearGradient
       inkscape:collect="always"
       xlink:href="#0"
       id="linearGradient3980"
       x1="6.2678809"
       y1="3.6603394"
       x2="6.8070145"
       y2="3.6603394"
       gradientUnits="userSpaceOnUse"
       gradientTransform="matrix(1.9999999,0,0,1.9999999,-6.7733323,-6.773332)" />
    <linearGradient
       inkscape:collect="always"
       xlink:href="#0"
       id="linearGradient3982"
       x1="7.0766654"
       y1="5.3023796"
       x2="7.8180199"
       y2="5.3023796"
       gradientUnits="userSpaceOnUse"
       gradientTransform="matrix(1.9999999,0,0,1.9999999,-6.7733323,-6.773332)" />
    <linearGradient
       inkscape:collect="always"
       xlink:href="#0"
       id="linearGradient3984"
       x1="6.369009"
       y1="4.6866188"
       x2="7.0429678"
       y2="4.6866188"
       gradientUnits="userSpaceOnUse"
       gradientTransform="matrix(1.9999999,0,0,1.9999999,-6.7733323,-6.773332)" />
    <linearGradient
       inkscape:collect="always"
       xlink:href="#0"
       id="linearGradient3986"
       x1="5.8298421"
       y1="5.5418458"
       x2="6.6385922"
       y2="5.5418458"
       gradientUnits="userSpaceOnUse"
       gradientTransform="matrix(1.9999999,0,0,1.9999999,-6.7733323,-6.773332)" />
    <linearGradient
       inkscape:collect="always"
       xlink:href="#0"
       id="linearGradient3988"
       x1="4.5155554"
       y1="8.0048904"
       x2="9.0311117"
       y2="8.0048904"
       gradientUnits="userSpaceOnUse"
       gradientTransform="matrix(7.0866136,0,0,7.0866136,-23.999996,-23.999995)" />
    <linearGradient
       inkscape:collect="always"
       xlink:href="#0"
       id="linearGradient3993"
       gradientUnits="userSpaceOnUse"
       gradientTransform="matrix(0.58333329,0,0,0.58333329,-1.9849624,-1.9755548)"
       x1="6.9144444"
       y1="10.16"
       x2="6.9144444"
       y2="3.3866663" />
  </defs>
  <path
     style="fill:url(#linearGradient3993);fill-opacity:1"
     d="M 1.8272421,2.8852145e-7 C 1.7852351,3.9988521e-5 1.7463141,0.01613129 1.7166316,0.04630229 c -0.029662,0.030191 -0.046361,0.070461 -0.046302,0.1131829 5.9e-5,0.087938 0.072856,0.1594849 0.159485,0.1594849 0.086727,-7.98e-5 0.1569912,-0.071328 0.1569126,-0.1594849 C 1.9866486,0.07158719 1.9140092,1.8852145e-7 1.8272422,1.8852145e-7 Z M 2.3005523,0.23922769 c -0.097539,5.99e-5 -0.1775306,0.080832 -0.1774913,0.1800637 9.83e-5,0.09887 0.080031,0.180064 0.1774913,0.180064 0.047256,-6e-5 0.092628,-0.02006 0.1260446,-0.05402 0.033379,-0.03392 0.051486,-0.07794 0.051447,-0.126045 -9.82e-5,-0.098893 -0.079913,-0.1800637 -0.1774913,-0.1800637 z m -0.372989,0.3189697 c -0.052504,4e-5 -0.1017934,0.02143 -0.1389062,0.05916 -0.037093,0.03769 -0.059203,0.08798 -0.059164,0.141479 9.83e-5,0.109867 0.089759,0.19807 0.19807,0.19807 0.052524,-4e-5 0.1018132,-0.0189 0.1389063,-0.05659 0.037093,-0.03771 0.056631,-0.088 0.056591,-0.141478 -5.89e-5,-0.109888 -0.08701,-0.200643 -0.1954977,-0.200643 z m 0.4321528,0.339549 c -0.1192403,10e-5 -0.2161944,0.10004 -0.2160764,0.22122101 7.86e-5,0.120862 0.096915,0.218649 0.2160764,0.218649 0.1192202,-1.2e-4 0.2161747,-0.10004 0.2160764,-0.221221 C 2.5756747,0.99553339 2.4790345,0.89774639 2.3597161,0.89774639 Z M 1.6523232,1.0186464 c -0.1300516,1.39e-4 -0.2367534,0.106971 -0.2366551,0.239227 1.376e-4,0.131817 0.1067214,0.239228 0.2366551,0.239228 0.1300515,-1.4e-4 0.234181,-0.106972 0.2340827,-0.239228 -1.573e-4,-0.131817 -0.1039526,-0.239227 -0.2340827,-0.239227 z m -0.3909954,0.419291 c -0.043624,-3e-6 -0.08803,0.01348 -0.1234722,0.04373 -0.31107421,0.265449 -0.48874444,0.65949 -0.48874444,1.080382 0,0.765878 0.59082444,1.389062 1.31703724,1.389062 0.7262128,0 1.317037,-0.623164 1.317037,-1.389062 0,-0.421112 -0.1779257,-0.815192 -0.4887442,-1.080382 -0.070903,-0.0605 -0.1760412,-0.06052 -0.2469444,0 -0.1672035,0.142771 -0.3674395,0.218648 -0.5813484,0.218648 -0.2136533,0 -0.4141449,-0.0759 -0.5813484,-0.218648 -0.035461,-0.03026 -0.079848,-0.04373 -0.1234722,-0.04373 z m 0.018006,0.447587 c 0.2053581,0.132295 0.4446385,0.203214 0.6868143,0.203214 0.2424117,0 0.4814365,-0.07094 0.6868142,-0.203214 0.1588689,0.183398 0.2469445,0.422229 0.2469445,0.676525 0,0.550753 -0.4189191,1.000639 -0.9337587,1.000639 -0.5148593,0 -0.9337587,-0.449886 -0.9337587,-1.000639 0,-0.254116 0.08784,-0.493027 0.2469444,-0.676525 z"
     id="path207"
     inkscape:connector-curvature="0" />
</svg>
