<?xml version="1.0" encoding="UTF-8" standalone="no"?>
<!-- Created with Inkscape (http://www.inkscape.org/) -->

<svg
   xmlns:dc="http://purl.org/dc/elements/1.1/"
   xmlns:cc="http://creativecommons.org/ns#"
   xmlns:rdf="http://www.w3.org/1999/02/22-rdf-syntax-ns#"
   xmlns:svg="http://www.w3.org/2000/svg"
   xmlns="http://www.w3.org/2000/svg"
   xmlns:sodipodi="http://sodipodi.sourceforge.net/DTD/sodipodi-0.dtd"
   xmlns:inkscape="http://www.inkscape.org/namespaces/inkscape"
   width="14"
   height="14"
   viewBox="0 0 14 14"
   id="svg12241"
   version="1.1"
   inkscape:version="0.91 r13725"
   sodipodi:docname="neon.svg"
   inkscape:export-filename="/home/josh/Code/unixporn/resources/Flairs/neon.png"
   inkscape:export-xdpi="90"
   inkscape:export-ydpi="90">
  <defs
     id="defs12243" />
  <sodipodi:namedview
     id="base"
     pagecolor="#ffffff"
     bordercolor="#666666"
     borderopacity="1.0"
     inkscape:pageopacity="0.0"
     inkscape:pageshadow="2"
     inkscape:zoom="9.314772"
     inkscape:cx="-19.659961"
     inkscape:cy="15.872652"
     inkscape:document-units="px"
     inkscape:current-layer="layer1"
     showgrid="true"
     units="px"
     inkscape:window-width="1580"
     inkscape:window-height="840"
     inkscape:window-x="10"
     inkscape:window-y="50"
     inkscape:window-maximized="0"
     inkscape:snap-bbox="true"
     inkscape:bbox-nodes="true"
     inkscape:snap-center="true"
     showguides="false"
     inkscape:snap-global="true">
    <inkscape:grid
       type="xygrid"
       id="grid4134" />
  </sodipodi:namedview>
  <metadata
     id="metadata12246">
    <rdf:RDF>
      <cc:Work
         rdf:about="">
        <dc:format>image/svg+xml</dc:format>
        <dc:type
           rdf:resource="http://purl.org/dc/dcmitype/StillImage" />
        <dc:title></dc:title>
      </cc:Work>
    </rdf:RDF>
  </metadata>
  <g
     inkscape:label="Layer 1"
     inkscape:groupmode="layer"
     id="layer1"
     transform="translate(0,-1038.3622)">
    <circle
       style="opacity:1;fill:#1eaca4;fill-opacity:1;stroke:none"
       id="path4154"
       cx="13"
       cy="1045.3622"
       r="1" />
    <circle
       style="opacity:1;fill:#1eaca4;fill-opacity:1;stroke:none"
       id="path4156"
       cx="7"
       cy="1051.3622"
       r="1" />
    <circle
       style="opacity:1;fill:#1eaca4;fill-opacity:1;stroke:none"
       id="path4158"
       cx="1"
       cy="1045.3622"
       r="1" />
    <circle
       style="opacity:1;fill:#1eaca4;fill-opacity:1;stroke:none"
       id="path4160"
       cx="7"
       cy="1045.3622"
       r="2" />
    <circle
       style="opacity:1;fill:#1eaca4;fill-opacity:1;stroke:none"
       id="path4162"
       cx="7"
       cy="1039.3622"
       r="1" />
    <circle
       style="opacity:1;fill:#1eaca4;fill-opacity:1;stroke:none"
       id="path4164"
       cx="7"
       cy="1041.3622"
       r="1" />
    <circle
       style="opacity:1;fill:#1eaca4;fill-opacity:1;stroke:none"
       id="path4166"
       cx="7"
       cy="1049.3622"
       r="1" />
    <circle
       r="1"
       cy="744.13245"
       cx="-728.23291"
       id="circle4168"
       style="opacity:1;fill:#1eaca4;fill-opacity:1;stroke:none"
       transform="matrix(0.70710678,-0.70710678,0.70710678,0.70710678,0,0)" />
    <circle
       r="1"
       cy="750.13245"
       cx="-734.23291"
       id="circle4170"
       style="opacity:1;fill:#1eaca4;fill-opacity:1;stroke:none"
       transform="matrix(0.70710678,-0.70710678,0.70710678,0.70710678,0,0)" />
    <circle
       r="1"
       cy="744.13245"
       cx="-740.23291"
       id="circle4172"
       style="opacity:1;fill:#1eaca4;fill-opacity:1;stroke:none"
       transform="matrix(0.70710678,-0.70710678,0.70710678,0.70710678,0,0)" />
    <circle
       r="1"
       cy="738.13245"
       cx="-734.23291"
       id="circle4174"
       style="opacity:1;fill:#1eaca4;fill-opacity:1;stroke:none"
       transform="matrix(0.70710678,-0.70710678,0.70710678,0.70710678,0,0)" />
    <path
       style="opacity:1;fill:#1eaca4;fill-opacity:1;stroke:none"
       d="M 7 0.5 A 6.5 6.5 0 0 0 0.5 7 A 6.5 6.5 0 0 0 7 13.5 A 6.5 6.5 0 0 0 13.5 7 A 6.5 6.5 0 0 0 7 0.5 z M 7 1.5 A 5.5 5.5 0 0 1 12.5 7 A 5.5 5.5 0 0 1 7 12.5 A 5.5 5.5 0 0 1 1.5 7 A 5.5 5.5 0 0 1 7 1.5 z "
       transform="translate(0,1038.3622)"
       id="path4176" />
    <path
       style="opacity:1;fill:#1eaca4;fill-opacity:1;stroke:none"
       d="M 7 2.5 A 4.5 4.5 0 0 0 2.5 7 A 4.5 4.5 0 0 0 7 11.5 A 4.5 4.5 0 0 0 11.5 7 A 4.5 4.5 0 0 0 7 2.5 z M 7 3.5 A 3.5 3.5 0 0 1 10.5 7 A 3.5 3.5 0 0 1 7 10.5 A 3.5 3.5 0 0 1 3.5 7 A 3.5 3.5 0 0 1 7 3.5 z "
       transform="translate(0,1038.3622)"
       id="path4181" />
  </g>
</svg>
