<svg width="15" height="15" version="1.1" viewBox="0 0 15 15" xmlns="http://www.w3.org/2000/svg" xmlns:xlink="http://www.w3.org/1999/xlink">
 <defs>
  <linearGradient id="linearGradient5855" x1="213.96" x2="282.26" y1="338.62" y2="515.97" gradientTransform="translate(983.36 601.39)" gradientUnits="userSpaceOnUse">
   <stop style="stop-color:#637ddf" offset="0"/>
   <stop style="stop-color:#649afa" offset=".23169"/>
   <stop style="stop-color:#719efa" offset="1"/>
  </linearGradient>
 </defs>
 <g transform="translate(-132.58 488.72)">
  <g transform="translate(72.039 -1799.4)" style="display:none">
   <path d="m460.61 594.73-250.86-1e-5 -125.43-217.26 125.43-217.25l250.86 1e-5 125.43 217.26z" style="color:#000000;display:inline;fill:#4e4d52;opacity:.236"/>
   <path transform="translate(0 -308.27)" d="m385.59 773.07h-100.83l-50.417-87.326 50.417-87.326 100.83 1e-5 50.417 87.326z" style="color:#000000;display:inline;fill:#4e4d52"/>
   <path transform="translate(0 -308.27)" d="m1216.6 938.53 123.05 228.14-42.681-1.2616-43.482-79.772-39.651 80.327-32.688-19.798 53.474-100.28-37.116-73.89z" style="fill-rule:evenodd;fill:url(#linearGradient5855)"/>
   <rect id="rect5884" transform="rotate(-30)" x="-34.742" y="446.17" width="48.835" height="226.23" style="color-rendering:auto;color:#000000;display:inline;fill:#c53a3a;image-rendering:auto;isolation:auto;mix-blend-mode:normal;opacity:.415;shape-rendering:auto;solid-color:#000000"/>
   <path transform="translate(0 -308.27)" d="m251.99 878.64-14.024 24.291h-28.049l-14.024-24.291 14.024-24.291h28.049z" style="color-rendering:auto;color:#000000;display:inline;fill-rule:evenodd;image-rendering:auto;isolation:auto;mix-blend-mode:normal;opacity:.509;shape-rendering:auto;solid-color:#000000"/>
   <use transform="rotate(60 268.3 489.45)" width="100%" height="100%" xlink:href="#rect5884"/>
   <rect transform="rotate(30 575.24 -154.13)" x="545.71" y="467.07" width="5.3947" height="115.13" style="color-rendering:auto;color:#000000;display:inline;fill-opacity:.65079;fill-rule:evenodd;image-rendering:auto;isolation:auto;mix-blend-mode:normal;shape-rendering:auto;solid-color:#000000"/>
  </g>
  <path transform="translate(132.58 -488.72)" d="m4.2559 6.6191l-0.57617 0.99805 1.3477 2.3359-1.4023 2.3379 0.41016 0.70898h0.16406l1.3184-2.1973 1.2695 2.1973h1.1543l-3.6855-6.3809z" style="fill:#5277c3"/>
  <path transform="translate(132.58 -488.72)" d="m12.695 4-3.4629 6h1.1543l1.4434-2.5h2.3086l0.28906-0.5-0.28906-0.5h-1.7305l0.86524-1.5z" style="fill:#5277c3"/>
  <path transform="translate(132.58 -488.72)" d="m4.0352 1-0.21289 0.36914 0.97852 1.6309h-1.9199l-0.57617 1h7.0864l-0.57812-1h-3.0122l-1.2012-2z" style="fill:#5277c3"/>
  <path transform="translate(132.58 -488.72)" d="m7.5 1l3.4648 6 0.57617-0.99805-1.5449-2.6777 1.1777-1.9629-0.20898-0.36133h-0.57227l-0.88672 1.4766-0.85156-1.4766h-1.1543z" style="fill:#7ebae4"/>
  <path transform="translate(132.58 -488.72)" d="m6.209 10 0.57812 1h2.8125l1.2012 2h0.16406l0.41016-0.70898-0.77539-1.291h1.5195l0.57617-1z" style="fill:#7ebae4"/>
  <path transform="translate(132.58 -488.72)" d="m4.6133 4-1.4434 2.5h-2.3086l-0.28906 0.5 0.28906 0.5h1.7305l-0.86523 1.5 0.57812 1 3.4629-6z" style="fill:#7ebae4"/>
 </g>
</svg>
