<svg width="15" height="15" version="1.1" viewBox="0 0 4.2333334 4.2333334" xmlns="http://www.w3.org/2000/svg" xmlns:xlink="http://www.w3.org/1999/xlink">
 <path d="m1.2966 0.56444-0.011107 0.0036-0.0037 0.0072s-0.0068 0.28851-0.0074 0.32038c-0.048812-0.015692-0.19788-0.064582-0.41465-0.12239-0.084582-0.021154-0.16542-0.032989-0.24064-0.039598-0.2125 0.3566-0.3369 0.7697-0.3369 1.2131 0 0.5412 0.18215 1.0378 0.48869 1.4399 0.026385-0.017964 0.054649-0.035034 0.081448-0.0576 0.149-0.11247 0.39639-0.084424 0.70342-0.0504 0.14713 0.016276 0.31559 0.035855 0.48869 0.0396 0.48366 0.00261 1.0042-0.083098 1.3254-0.21959 0.20763-0.088556 0.34264-0.14963 0.42575-0.22319 0.029977-0.023883 0.043204-0.062969 0.059235-0.10439l0.011107-0.0288c0.013452-0.033465 0.035779-0.1047 0.044426-0.14399 0.00387-0.017188 0.00514-0.033663-0.0074-0.0432l-0.044427 0.00722c-0.14095 0.082175-0.4957 0.23838-0.82559 0.24478-0.40875 0.0083009-1.2321-0.39967-1.318-0.44277l-0.0074-0.0108c-0.020588-0.047802-0.1442-0.33251-0.1703-0.39237 0.59299 0.37969 1.0856 0.59012 1.4624 0.62276 0.41894 0.03619 0.74505-0.18577 0.88483-0.28078 0.027285-0.01809 0.046968-0.032923 0.055533-0.036l0.011107-0.0144c-0.023176-0.14314-0.24546-0.83433-0.41095-1.0007-0.045896-0.045639-0.081406-0.090888-0.15549-0.13319-0.59906-0.3395-2.0214-0.54492-2.088-0.55437zm1.5586 0.58676c0.010075-1.611e-4 0.023134-3.5e-4 0.03332 0 0.33557 0.011719 0.59642 0.28589 0.58495 0.61196-0.0059521 0.15774-0.074042 0.30271-0.19251 0.41037-0.1188 0.10823-0.27373 0.16351-0.43686 0.15839-0.33502-0.012172-0.59582-0.28634-0.58495-0.61196 0.0057386-0.15798 0.073328-0.30305 0.19251-0.41037 0.11125-0.10145 0.2521-0.15618 0.40354-0.15839zm-0.014809 0.17279c-0.097747 0.00579-0.19064 0.045774-0.26286 0.11159-0.082294 0.075106-0.12971 0.17421-0.13328 0.28438-0.00777 0.22761 0.17334 0.41994 0.40724 0.42837 0.11367 0.00334 0.22428-0.033104 0.30728-0.10799 0.082787-0.075483 0.12974-0.17828 0.13328-0.28798 0.00782-0.22799-0.17699-0.42039-0.41094-0.42837-0.014137-5.053e-4 -0.02678-8.659e-4 -0.040724 0zm0.11107 0.20519c0.10395 0 0.18881 0.054785 0.18881 0.12239 0 0.067281-0.08486 0.12239-0.18881 0.12239-0.10428 0-0.18881-0.055209-0.18881-0.12239 0-0.067606 0.084531-0.12239 0.18881-0.12239z" style="fill:#73ba25;stroke-width:.91532"/>
</svg>
