<svg width="15" height="15" version="1.1" viewBox="0 0 4.2333334 4.2333334" xmlns="http://www.w3.org/2000/svg">
 <g transform="matrix(.0064796 -.0063546 .0063386 .0065162 -4.7222 -1.4027)" style="fill:#374d7e">
  <path d="m378.91 855.96c-18.817 0-35.267 10.108-44.241 25.182-4.5794 7.6927-7.217 16.673-7.217 26.276 0 28.419 23.038 51.458 51.458 51.458 28.419 0 51.458-23.038 51.458-51.458 0-9.6027-2.6375-18.583-7.217-26.276-8.9735-15.074-25.424-25.182-44.241-25.182z" style="fill-rule:evenodd;fill:#374d7e"/>
  <path d="m151.12 866.12c-15.694 0-29.415 8.4305-36.899 21.003-3.8195 6.4162-6.0194 13.906-6.0194 21.915 0 23.703 19.215 42.919 42.919 42.919s42.919-19.215 42.919-42.919c0-8.0092-2.1998-15.499-6.0194-21.915-7.4845-12.573-21.205-21.003-36.899-21.003z" style="fill-rule:evenodd;fill:#374d7e"/>
  <path d="m384.01 744.02c-16.878 0-31.633 9.0662-39.682 22.587-4.1075 6.9-6.4732 14.955-6.4732 23.568 0 25.491 20.664 46.155 46.155 46.155 25.491 0 46.155-20.664 46.155-46.155 0-8.613-2.3657-16.668-6.4732-23.568-8.0488-13.521-22.804-22.587-39.682-22.587z" style="fill-rule:evenodd;fill:#374d7e"/>
  <path d="m143.78 754.4c-14.306 0-26.814 7.6851-33.637 19.146-3.4818 5.8489-5.4871 12.677-5.4871 19.978 0 21.607 17.516 39.124 39.124 39.124 21.607 0 39.124-17.516 39.124-39.124 0-7.3009-2.0053-14.129-5.4871-19.978-6.8226-11.461-19.33-19.146-33.637-19.146z" style="fill-rule:evenodd;fill:#374d7e"/>
  <path d="m371.48 637.86c-15.694 0-29.415 8.4306-36.899 21.003-3.8195 6.4162-6.0194 13.906-6.0194 21.915 0 23.703 19.215 42.919 42.919 42.919s42.919-19.215 42.919-42.919c0-8.0092-2.1998-15.499-6.0194-21.915-7.4845-12.573-21.205-21.003-36.899-21.003z" style="fill-rule:evenodd;fill:#374d7e"/>
  <path d="m153.69 648.62c-13.786 0-25.839 7.4055-32.413 18.45-3.3551 5.6361-5.2875 12.215-5.2875 19.251 0 20.821 16.879 37.701 37.701 37.701s37.701-16.879 37.701-37.701c0-7.0354-1.9324-13.615-5.2875-19.251-6.5745-11.044-18.627-18.45-32.413-18.45z" style="fill-rule:evenodd;fill:#374d7e"/>
  <path d="m259.9 868.21c-16.704 0-31.308 8.973-39.274 22.355-4.0653 6.8291-6.4067 14.801-6.4067 23.326 0 25.228 20.452 45.68 45.68 45.68 25.229 0 45.68-20.452 45.68-45.68 0-8.5246-2.3414-16.497-6.4067-23.326-7.9661-13.382-22.57-22.355-39.274-22.355z" style="fill-rule:evenodd;fill:#374d7e"/>
  <path d="m262.59 750.14c-16.37 0-30.682 8.7938-38.489 21.908-3.9841 6.6927-6.2787 14.505-6.2787 22.86 0 24.725 20.043 44.768 44.768 44.768s44.768-20.043 44.768-44.768c0-8.3542-2.2946-16.167-6.2787-22.86-7.807-13.115-22.119-21.908-38.489-21.908z" style="fill-rule:evenodd;fill:#374d7e"/>
  <path d="m261.38 635.59c-14.511 0-27.197 7.7949-34.117 19.42-3.5315 5.9324-5.5655 12.858-5.5655 20.263 0 21.916 17.767 39.683 39.683 39.683 21.916 0 39.683-17.767 39.683-39.683 0-7.4053-2.034-14.331-5.5655-20.263-6.9201-11.625-19.606-19.42-34.117-19.42z" style="fill-rule:evenodd;fill:#374d7e"/>
 </g>
</svg>
