<svg width="15" height="15" version="1.1" viewBox="0 0 4.2333334 4.2333334" xmlns="http://www.w3.org/2000/svg" xmlns:xlink="http://www.w3.org/1999/xlink">
 <g transform="matrix(.024253 0 0 .024229 21.636 20.158)">
  <circle cx="-804.79" cy="-744.57" r="64" style="fill:#4c5263"/>
  <path d="m-827.79-812.57c-9.6308 31.459-23.867 61.397-40 90l-1 2 1.5416 0.79445c1.3533 0.62831 3.135 1.0508 5.5469 1.5332 2.4119 0.48238 5.3789 0.96316 8.7129 1.4394 6.6681 0.95258 14.798 1.8837 22.686 2.7031 15.775 1.6389 30.582 2.834 30.582 2.834l2.5195 0.20313-0.19335-2.5215s-3.907-50.83-4.6367-59.182l-0.0391-0.45117-0.21875-0.39844c-4.6238-7.3839-22.584-38.085-25.501-38.955zm2 9c6.828 12.012 12.727 18.822 20 32 0.72571 8.3981 3.583 51.759 3.8912 55.765-2.1576-0.17632-13.548-1.0926-27.959-2.5898-7.8564-0.81626-15.948-1.7429-22.52-2.6816-3.2855-0.46935-6.1922-0.94351-8.4766-1.4004-1.1271-0.22542-1.1519-0.88079-1.9361-1.0933 11.783-20.819 30.499-53.468 37-80z" style="color-rendering:auto;color:#000000;fill-rule:evenodd;fill:#4c5263;image-rendering:auto;isolation:auto;mix-blend-mode:normal;shape-rendering:auto;solid-color:#000000;text-decoration-color:#000000;text-decoration-line:none;text-decoration-style:solid;text-indent:0;text-transform:none;white-space:normal"/>
  <path d="m-742.14-731.42c-9.3457 12.608-26.609 19.346-47.175 22.334-21.457 3.1176-46.338 2.1913-68.539 0.29492 1.0633 1.5884 2.2304 3.1284 3.4316 4.6152 21.372 1.6944 44.918 2.3869 65.728-0.63672 17.356-2.5218 33.04-7.6381 43.799-17.146 1.174-3.0571 2.1394-6.4433 2.7552-9.4612z" style="color-rendering:auto;color:#000000;fill-rule:evenodd;fill:#fff;image-rendering:auto;isolation:auto;mix-blend-mode:normal;shape-rendering:auto;solid-color:#000000;text-decoration-color:#000000;text-decoration-line:none;text-decoration-style:solid;text-indent:0;text-transform:none;white-space:normal"/>
  <path d="m-793.79-765.57-1.0287 4.4995c10.049 6.7214 19.625 12.59 25.844 18.83 6.2189 6.2402 9.1332 12.381 6.7695 20.98l-1.1016 4.0137 3.916-1.4102c12.235-4.4024 18.049-12.933 21.601-19.914l1-2-2-2c-5.9631-6.2797-15.174-10.442-25.861-14.231-10.687-3.7889-22.326-7.1262-29.139-8.769zm11.936 7.9507c4.9734 1.3668 10.391 2.9854 15.76 4.8887 9.7406 3.4534 18.963 7.894 24.174 12.693-2.9797 5.4949-7.524 11.833-15.363 15.771 0.8405-8.2219-2.7823-15.151-8.6328-21.021-4.3185-4.3333-9.9579-8.325-15.938-12.332z" style="color-rendering:auto;color:#000000;fill-rule:evenodd;fill:#4c5263;image-rendering:auto;isolation:auto;mix-blend-mode:normal;shape-rendering:auto;solid-color:#000000;text-decoration-color:#000000;text-decoration-line:none;text-decoration-style:solid;text-indent:0;text-transform:none;white-space:normal"/>
  <circle cx="-804.71" cy="-744.64" r="64.075" style="fill-opacity:0"/>
  <path d="m-788.7-704.81c-21.748 3.0688-43.9 2.3079-65.724 0.63872 14.044 17.91 38.453 26.936 61 22.586 21.76-3.7402 40.833-19.676 48.517-40.35-12.922 9.166-28.189 14.729-43.792 17.126z" style="fill:#5294e2"/>
  <path d="m-800.79-769.57c9.6385 19.855 9.6472 39.499 4 54 7.9518 0.0481 20.928 0.93977 35-6-11.566-26.41-39-48-39-48z" style="fill-rule:evenodd;fill:#fff"/>
  <path d="m-825.79-803.57c-6.5014 26.532-25.218 59.182-37 80l10.415 2.4956c6.571 0.93871 14.663 1.8654 22.52 2.6816 14.41 1.4972 25.907 2.6463 28.066 2.8227-0.3084-4.0089-3.2741-47.6-4-56-7.2732-13.178-13.172-19.988-20-32z" style="fill-rule:evenodd;fill:#fff"/>
  <path d="m-781.79-757.57c5.9813 4.008 11.68 7.6656 16 12 5.8501 5.8701 8.8398 13.779 8 22 7.8383-3.9384 13.02-10.506 16-16-5.2114-4.799-14.26-9.5468-24-13-5.3706-1.9041-11.025-3.6328-16-5z" style="fill-rule:evenodd;fill:#fff"/>
 </g>
</svg>
