<svg width="15" height="15" version="1.1" viewBox="0 0 4.2333334 4.2333334" xmlns="http://www.w3.org/2000/svg" xmlns:xlink="http://www.w3.org/1999/xlink">
 <path d="m3.2852 1.2906e-4c-0.13449-0.003359-0.26833 0.057974-0.34036 0.17803-0.10472 0.17455-0.0408 0.39771 0.14058 0.49849 0.18142 0.10085 0.41323 0.046368 0.51794-0.12818 0.10476-0.17463 0.040858-0.40478-0.14058-0.50561-0.056691-0.031498-0.11645-0.041201-0.17758-0.042727zm-0.97668 0.38455c-0.26233 0-0.51236 0.05883-0.73251 0.16379l0.26637 0.45576c0.14187-0.06353 0.29933-0.0997 0.46614-0.0997 0.57888 0 1.0527 0.43091 1.1025 0.97561l0.54013-0.0071c-0.026603-0.40218-0.20783-0.76717-0.48834-1.0326-0.14422 0.05244-0.30735 0.044424-0.45134-0.035606-0.14418-0.080108-0.23419-0.21653-0.25897-0.36318-0.14017-0.037333-0.29141-0.05697-0.44395-0.05697zm-0.91749 0.27061c-0.33197 0.21347-0.57814 0.53643-0.68072 0.91864 0.11981 0.094 0.19978 0.23832 0.19978 0.39879 0 0.16043-0.079938 0.30481-0.19978 0.39879 0.10256 0.38225 0.34875 0.70519 0.68072 0.91864l0.28117-0.44152c-0.28488-0.19294-0.47354-0.51504-0.47354-0.87591 0-0.36081 0.18866-0.68293 0.47354-0.87591zm-1.0137 0.95424c-0.20955 0-0.37735 0.1615-0.37735 0.36318 0 0.2016 0.16781 0.36318 0.37735 0.36318 0.20947 0 0.37735-0.16158 0.37735-0.36318 0-0.2017-0.16787-0.36318-0.37735-0.36318zm3.0336 0.45576c-0.049736 0.54478-0.52358 0.97561-1.1025 0.97561-0.16683 0-0.32425-0.03616-0.46614-0.0997l-0.26637 0.45576c0.22017 0.10492 0.47018 0.16379 0.73251 0.16379 0.15253 0 0.30376-0.01964 0.44395-0.05697 0.024774-0.14665 0.11477-0.28302 0.25897-0.36318 0.14399-0.07999 0.30713-0.08807 0.45134-0.03561 0.28049-0.26544 0.46178-0.63042 0.48834-1.0326l-0.54013-0.007115zm-0.14798 1.1536c-0.06113 0.0015-0.1209 0.01835-0.17758 0.04985-0.18144 0.10081-0.24529 0.32394-0.14058 0.49849 0.10476 0.17463 0.33649 0.23611 0.51794 0.1353 0.18138-0.10079 0.24533-0.32388 0.14058-0.49848-0.071997-0.12-0.20588-0.18851-0.34036-0.18515z" style="fill:#dd4814"/>
</svg>
