<svg width="15" height="15" version="1.1" viewBox="0 0 4.2333334 4.2333334" xmlns="http://www.w3.org/2000/svg" xmlns:xlink="http://www.w3.org/1999/xlink">
 <g transform="matrix(.063257 0 0 .063257 .28222 .25674)" style="fill-rule:evenodd;fill:none">
  <g id="mate">
   <g transform="translate(0 .2569)">
    <path d="m58 29.146c0 16.016-12.984 29-29 29-16.017 0-29-12.984-29-29s12.983-29 29-29c16.016-1.2e-4 29 12.984 29 29z" style="fill:#87a556"/>
    <path d="m29 11.411c-7.303 0-13.587 4.45-16.3 10.774l2.089 1.234c2.26-5.618 7.769-9.566 14.211-9.566 0.829 0 1.638 0.073 2.429 0.201v-2.467c-0.795-0.11-1.603-0.176-2.429-0.176zm7.263 1.561-0.013 2.706c0.403 0.216 0.791 0.455 1.171 0.705l2.29-1.347c-1.064-0.81-2.216-1.508-3.448-2.064zm-7.263 4.468c-5.087 0-9.437 3.285-11.039 7.842l2.165 1.284c1.112-3.86 4.644-6.671 8.874-6.671 0.836 0 1.646 0.108 2.417 0.314v-2.505c-0.781-0.165-1.59-0.264-2.417-0.264zm14.223 1.12-2.102 1.246c1.988 2.581 3.172 5.82 3.172 9.34 0 3.587-1.228 6.874-3.285 9.478l2.102 1.246c2.269-2.981 3.625-6.701 3.625-10.724 0-3.961-1.306-7.628-3.512-10.586zm-5.249 3.109-2.127 1.246c1.494 1.643 2.404 3.823 2.404 6.231 0 2.478-0.969 4.704-2.542 6.356l2.152 1.271c1.769-2.052 2.845-4.723 2.845-7.627 0-2.84-1.032-5.444-2.732-7.477zm-26.57 5.35c-0.088 0.696-0.139 1.406-0.139 2.127 0 0.718 0.055 1.42 0.139 2.114l2.328-1.372c-0.012-0.245-0.025-0.493-0.025-0.742s0.013-0.497 0.025-0.743zm8.722 4.707-2.165 1.271c1.598 4.563 5.948 7.855 11.039 7.855 0.827 0 1.636-0.099 2.417-0.265v-2.517c-0.771 0.202-1.58 0.315-2.417 0.315-4.23 0-7.762-2.802-8.874-6.659zm-5.337 3.147-2.089 1.233c2.713 6.325 8.997 10.775 16.3 10.775 0.816 0 1.618-0.067 2.404-0.177v-2.454c-0.784 0.124-1.583 0.189-2.404 0.189-6.442 0-11.951-3.948-14.211-9.566zm22.468 7.149c-0.325 0.209-0.666 0.408-1.007 0.592l-0.013 2.706c1.176-0.53 2.287-1.176 3.311-1.938z" style="fill:#fff"/>
    <path d="m33.846 7.9875-0.013 13.316 11.278-6.658-11.265-6.6585zm-25.375 14.5-0.0126 13.317 11.278-6.658-11.265-6.659h-1e-4zm25.362 14.714-0.012 13.305 11.278-6.659z" style="fill:#fff"/>
   </g>
  </g>
 </g>
</svg>
