<svg width="15" height="15" version="1.1" viewBox="0 0 4.2333334 4.2333334" xmlns="http://www.w3.org/2000/svg" xmlns:xlink="http://www.w3.org/1999/xlink">
 <g transform="matrix(.063504 0 0 .063504 .28222 .26781)" style="fill-rule:evenodd;fill:none">
  <g id="gnome">
   <g transform="matrix(1,0,0,-1,0,58.001)">
    <circle transform="matrix(1,0,0,-1,0,57.774)" cx="28.887" cy="28.887" r="28.887" style="fill:#0087ed"/>
    <g transform="matrix(1,0,0,-1,12.785,47.54)" style="fill:#fff">
     <g transform="translate(.098443 .0146)">
      <path d="m14.371 0.013728c-0.846 0.50778-1.925 1.2272-3.237 2.1581-1.2907 0.9098-2.6659 2.0946-4.1257 3.5545-1.2695 1.2694-2.1582 2.5178-2.6659 3.7449-0.4868 1.2488-0.6559 2.4758-0.5078 3.6818 0.1482 1.206 0.5607 2.38 1.2377 3.522 0.6982 1.164 1.6081 2.307 2.7294 3.428l9.2673 9.267 2.951-2.952-8.632-8.632c-2.0102-2.01-3.1314-3.766-3.3642-5.268-0.2327-1.502 0.402-3.0045 1.9042-4.5067 0.317-0.3174 0.656-0.6347 1.016-0.9521 0.359-0.3174 0.698-0.6135 1.015-0.8886 0.339-0.2539 0.635-0.4866 0.889-0.6982 0.296-0.2116 0.518-0.349 0.666-0.4126l18.987 18.987 2.952-2.952-21.082-21.081v-2.72e-4zm-0.918 9.3781-2.953 2.9512 13.933 13.933c-0.063 0.148-0.201 0.37-0.412 0.666-0.212 0.254-0.444 0.55-0.698 0.889-0.276 0.317-0.572 0.656-0.889 1.015-0.318 0.36-0.635 0.698-0.952 1.016-1.502 1.502-3.005 2.137-4.507 1.904s-3.258-1.354-5.268-3.364l-8.6323-8.632-2.9515 2.951 9.2671 9.267c1.1217 1.121 2.2637 2.031 3.4277 2.729 1.142 0.678 2.317 1.09 3.523 1.238 1.205 0.148 2.433-0.021 3.681-0.508 1.227-0.507 2.475-1.396 3.745-2.665 1.46-1.46 2.645-2.836 3.554-4.126 0.931-1.312 1.651-2.391 2.158-3.237l-16.026-16.027z"/>
     </g>
    </g>
   </g>
  </g>
 </g>
</svg>
