<svg width="15" height="15" preserveAspectRatio="xMidYMid" version="1.1" viewBox="0 0 15 15" xmlns="http://www.w3.org/2000/svg">
 <path d="m2.0156 4.0156c-0.66251 1.0415-1.0148 2.25-1.0156 3.4844 0 3.5899 2.9101 6.5 6.5 6.5 1.2334-0.0027 2.4405-0.35636 3.4805-1.0195l-1.4609-1.4609c-0.62653 0.31536-1.3181 0.4799-2.0195 0.48047-2.4853 0-4.5-2.0147-4.5-4.5 0.0014836-0.70092 0.16668-1.3918 0.48242-2.0176z" style="fill:#478061"/>
 <path d="M 10,7.5 A 2.5,2.5 0 0 1 7.5,10 2.5,2.5 0 0 1 5,7.5 2.5,2.5 0 0 1 7.5,5 2.5,2.5 0 0 1 10,7.5 Z" style="fill:#abc2ab"/>
 <path d="m7.5 1c-1.2334 0.0027468-2.4405 0.35636-3.4805 1.0195l1.4609 1.4609c0.62653-0.31536 1.3181-0.4799 2.0195-0.48047 2.4853 0 4.5 2.0147 4.5 4.5-0.0015 0.70092-0.16668 1.3918-0.48242 2.0176l1.4668 1.4668c0.66251-1.0415 1.0148-2.25 1.0156-3.4844 0-3.5899-2.9101-6.5-6.5-6.5z" style="fill:#abc2ab"/>
</svg>
