<svg width="15" height="15" version="1.1" viewBox="0 0 4.2333334 4.2333334" xmlns="http://www.w3.org/2000/svg" xmlns:xlink="http://www.w3.org/1999/xlink">
 <circle cx="2.1167" cy="2.1167" r="1.8344" style="fill:#04a"/>
 <g transform="matrix(.091722 0 0 .091722 -29.922 -33.921)">
  <path d="m355.84 380.4c-0.0604 0.037-0.0851 0.0689-0.0703 0.0449-0.6791 1.1485-0.68514 2.6522-0.99219 4.002a0.49822 0.49822 0 0 1 0 0.0703c-0.1505 1.478-0.63371 2.982-0.24609 4.4004a0.49822 0.49822 0 0 1 0.0391 0.0899c0.0721 0.0932 0.16294 0.17837 0.2168 0.18945 0.0403 8e-3 0.10045-0.0102 0.24023-0.10742 0.15127-0.1053 0.24855-0.2987 0.29297-0.57618a0.49822 0.49822 0 0 1 0.0859 -0.20898c0.60561-2.4033 1.0377-4.9278 0.87695-7.3984a0.49822 0.49822 0 0 1 0 -0.0254c-0.021-0.11401-0.0566-0.18236-0.16601-0.31445-0.0753-0.0907-0.12141-0.13888-0.14063-0.15234-0.0192-0.0135-3e-3 -0.0158-0.0723-0.0117a0.49822 0.49822 0 0 1 -0.0645 -2e-3z" style="fill:#fff"/>
  <path transform="translate(-.49107 -.26786)" d="m361.9 381.84a0.46681 0.46681 0 0 1 -0.0508 4e-3c-1.042 0.5071-1.5779 1.7321-2.2988 2.7168a0.46681 0.46681 0 0 1 -0.0527 0.13868c-0.90784 1.6089-2.0639 3.2037-2.1856 5.0644 6e-3 0.29418 0.17347 0.46224 0.34766 0.5 0.16423 0.0345 0.4648-0.0716 0.58789-0.25586 0.0107-0.0266 2e-3 -0.0534 0.0176-0.0762a0.46681 0.46681 0 0 1 0.0117 -0.0176c1.646-2.2617 2.89-4.9444 3.9121-7.5508a0.46681 0.46681 0 0 1 2e-3 -8e-3c0.0707-0.17114 0.0746-0.23837 0.0117-0.36719-0.0185-0.0381-0.20261-0.1609-0.30274-0.14844z" style="fill:#fff"/>
 </g>
 <path d="m1.743 1.1463c-0.015341 0.00288-0.038165 0.016594-0.05446 0.022926-0.057631 0.021868-0.089429 0.071268-0.10319 0.12898-0.014009 0.059057-0.00934 0.12482 0 0.19204 0.00934 0.067089 0.022704 0.13634 0.037262 0.18918 0.012515 0.045714 0.021477 0.067944 0.025797 0.083126v0.011468c0 0.00501-0.0024 0.00455-0.00573 0.00864-0.00184 0.00102 0.00184 0.00576 0 0.00576-0.00415 0.00316-0.00917 0.00576-0.014332 0.00576-0.010182 6.342e-4 -0.018141-0.00306-0.028663-0.00576-0.00717-0.00167-0.016505-0.00743-0.014332-0.00576-0.00333-0.00204-0.00929-0.00223-0.011465-0.00576 0 0.00139 0.00201 0.0013 0-0.00288-0.00233-0.00436-0.00492-0.015266-0.0086-0.022927-0.00817-0.017373-0.014591-0.037514-0.025797-0.063059-0.022363-0.050876-0.051139-0.11338-0.083123-0.17198-0.032102-0.058834-0.069913-0.11223-0.11179-0.14905-0.020928-0.018395-0.046762-0.036827-0.071658-0.042993-0.024031-0.00604-0.052545-9.109e-4 -0.077391 0.011468-0.064202 0.03562-0.10054 0.093944-0.11465 0.15478-0.014176 0.061768-0.00747 0.1329 0.00286 0.19491 0.010506 0.061871 0.026773 0.11289 0.037263 0.15478 0.00449 0.017661 0.00997 0.034153 0.011465 0.042993 0 0.00873-0.00357 0.031627-0.00573 0.040133-0.01084 0.037542-0.037201 0.10032-0.037263 0.10032 0 0-0.50016 1.3284 0.57326 1.2354 0.00884-6.231e-4 0.028925-0.00576 0.037263-0.00576 0.2108-0.042445 0.41028-0.10619 0.5876-0.17771 0.034836-0.016696 0.080537-0.03328 0.13185-0.05733 0.10262-0.048079 0.23155-0.10969 0.35542-0.17771 0.12392-0.068074 0.23889-0.14061 0.32676-0.21784 0.088016-0.077333 0.15226-0.16209 0.14045-0.24649-0.018675-0.13607-0.10904-0.23718-0.2293-0.31529-0.12072-0.078398-0.27125-0.13251-0.42135-0.17198-0.15004-0.039457-0.29572-0.071545-0.40702-0.088856-0.055632-0.0086358-0.10776-0.011189-0.14045-0.017197-0.00967-0.00167-0.014836-0.00409-0.020065-0.00576-0.00281-3.77e-4 -0.00306-0.00121-0.00573-0.00288-0.00333-0.00204-0.00946-0.00223-0.011465-0.00576-0.00184-0.00334 0-0.00761 0-0.011468 0-0.00149-1.56e-5 -0.00371 0-0.00576v-0.083116c-0.00183-0.068612-0.00587-0.15919-0.020065-0.24364-0.014343-0.084797-0.036463-0.16591-0.083123-0.22071-0.027732-0.032602-0.066992-0.053996-0.11465-0.05733-0.014342-0.00167-0.030369-0.00288-0.045861 0z" style="fill:#fff"/>
</svg>
