<?xml version="1.0" encoding="UTF-8" standalone="no"?>
<!-- Created with Inkscape (http://www.inkscape.org/) -->

<svg
   xmlns:dc="http://purl.org/dc/elements/1.1/"
   xmlns:cc="http://creativecommons.org/ns#"
   xmlns:rdf="http://www.w3.org/1999/02/22-rdf-syntax-ns#"
   xmlns:svg="http://www.w3.org/2000/svg"
   xmlns="http://www.w3.org/2000/svg"
   xmlns:xlink="http://www.w3.org/1999/xlink"
   xmlns:sodipodi="http://sodipodi.sourceforge.net/DTD/sodipodi-0.dtd"
   xmlns:inkscape="http://www.inkscape.org/namespaces/inkscape"
   width="480"
   height="480"
   id="svg2"
   version="1.1"
   inkscape:version="0.48.5 r10040"
   sodipodi:docname="flairs.svg">
  <defs
     id="defs4">
    <linearGradient
       inkscape:collect="always"
       xlink:href="#0"
       id="linearGradient3774"
       x1="6.7733335"
       y1="13.546667"
       x2="6.7733335"
       y2="2.54"
       gradientUnits="userSpaceOnUse" />
    <linearGradient
       id="0">
      <stop
         stop-color="#0091f3"
         id="stop7" />
      <stop
         offset="1"
         stop-color="#00d4ff"
         id="stop9" />
    </linearGradient>
    <linearGradient
       gradientTransform="matrix(3.543307,0,0,3.543307,144,572.36218)"
       y2="2.54"
       x2="6.7733335"
       y1="13.546667"
       x1="6.7733335"
       gradientUnits="userSpaceOnUse"
       id="linearGradient4677"
       xlink:href="#0"
       inkscape:collect="always" />
  </defs>
  <sodipodi:namedview
     id="base"
     pagecolor="#ffffff"
     bordercolor="#666666"
     borderopacity="1.0"
     inkscape:pageopacity="0.0"
     inkscape:pageshadow="2"
     inkscape:zoom="1.979899"
     inkscape:cx="215.68839"
     inkscape:cy="473.76733"
     inkscape:document-units="px"
     inkscape:current-layer="layer1"
     showgrid="true"
     inkscape:window-width="1280"
     inkscape:window-height="937"
     inkscape:window-x="0"
     inkscape:window-y="0"
     inkscape:window-maximized="1">
    <inkscape:grid
       type="xygrid"
       id="grid3004"
       empspacing="5"
       visible="true"
       enabled="true"
       snapvisiblegridlinesonly="true" />
  </sodipodi:namedview>
  <metadata
     id="metadata7">
    <rdf:RDF>
      <cc:Work
         rdf:about="">
        <dc:format>image/svg+xml</dc:format>
        <dc:type
           rdf:resource="http://purl.org/dc/dcmitype/StillImage" />
        <dc:title></dc:title>
      </cc:Work>
    </rdf:RDF>
  </metadata>
  <g
     inkscape:label="Layer 1"
     inkscape:groupmode="layer"
     id="layer1"
     transform="translate(0,-572.36218)">
    <path
       d="m 23.996555,572.36229 c -2.136891,5.23798 -3.425872,8.66422 -5.805054,13.74648 1.458774,1.54593 3.249274,3.3462 6.157117,5.37946 -3.126181,-1.28611 -5.258679,-2.57734 -6.852241,-3.91726 C 14.451409,593.92319 9.6808552,602.97162 0,620.36218 c 7.6088765,-4.39169 13.507119,-7.09925 19.004049,-8.13238 -0.235983,-1.01495 -0.369919,-2.11283 -0.361415,-3.25834 l 0.0071,-0.24371 c 0.120473,-4.87365 2.656623,-8.62151 5.660631,-8.36703 3.003937,0.25448 5.338826,4.41403 5.218141,9.28768 -0.02126,0.91706 -0.126142,1.79928 -0.30685,2.6175 5.437189,1.06337 11.27236,3.76399 18.778344,8.09628 -1.480039,-2.72419 -2.80105,-5.17984 -4.062606,-7.51861 -1.987224,-1.5398 -4.05991,-3.54389 -8.287842,-5.7134 2.906071,0.75492 4.986764,1.62591 6.608603,2.59948 -12.826892,-23.87521 -13.865572,-27.04772 -18.26408,-37.36736 z"
       id="path199"
       inkscape:connector-curvature="0"
       style="fill:#1793d0;fill-opacity:1;fill-rule:evenodd" />
    <path
       d="m 73.1222,572.3628 c -5.348457,0.17341 14.249805,27.21105 -0.841992,25.48458 12.58479,3.48646 15.467026,-12.75975 12.896867,-20.70648 -2.545961,-7.87191 -3.870155,-2.96071 -11.457668,-4.70906 -0.226453,-0.0524 -0.424708,-0.0746 -0.597214,-0.0687 z m -14.996241,3.76768 c -8.272985,-0.0106 -4.010264,2.76693 -8.017625,9.44323 -3.827206,6.37614 30.233733,-5.04375 23.72482,9.2225 7.204553,-10.89211 -7.355605,-18.65456 -15.707195,-18.66573 z m 5.821769,12.20673 c -6.619314,-0.0156 -13.280941,7.50415 -15.143517,13.21089 -2.566999,7.86508 1.391438,4.67014 6.502259,10.54466 4.881075,5.61041 4.54639,-30.31408 16.102296,-19.71488 -2.28715,-2.87386 -4.87087,-4.03451 -7.461038,-4.04067 z m 28.677201,1.27298 c -4.110091,-0.32011 -20.947799,21.39269 -23.725856,7.70582 0.573274,13.04687 16.914979,10.76819 23.678117,5.86802 6.699498,-4.85405 1.61842,-4.5953 0.936433,-12.35211 -0.0713,-0.81028 -0.383971,-1.18242 -0.888694,-1.22173 z m -24.264141,4.32517 c -12.230493,4.57694 -5.013227,19.41468 1.736781,24.33294 6.686476,4.87194 4.870552,0.11998 12.036582,-2.92564 6.843879,-2.90871 -27.424228,-13.6917 -13.773363,-21.4073 z"
       id="path199-9"
       style="fill:#1756b6;fill-opacity:1;fill-rule:evenodd"
       inkscape:connector-curvature="0" />
    <g
       transform="matrix(1.6267673,0,0,1.5682831,90.265857,581.35225)"
       id="g199"
       style="fill:#d70751;fill-opacity:1">
      <path
         d="m 20.678512,10.43806 c -0.507153,0.0071 0.09596,0.261337 0.758049,0.36322 0.18288,-0.142805 0.348826,-0.287303 0.496711,-0.427849 -0.412327,0.101035 -0.831991,0.103293 -1.25476,0.06463"
         id="path201"
         inkscape:connector-curvature="0"
         style="fill:#d70751;fill-opacity:1" />
      <path
         d="m 23.400545,9.7595975 c 0.301978,-0.4168423 0.522111,-0.8731956 0.599722,-1.3450712 -0.06773,0.3364089 -0.250331,0.6268156 -0.422204,0.9333089 -0.947984,0.5969001 -0.08918,-0.3544711 -5.64e-4,-0.7159978 -1.019387,1.2829823 -0.139983,0.7693378 -0.176954,1.1277601"
         id="path203"
         inkscape:connector-curvature="0"
         style="fill:#d70751;fill-opacity:1" />
      <path
         d="m 24.405256,7.1450907 c 0.06124,-0.9132711 -0.179775,-0.6245578 -0.260773,-0.2760133 0.09455,0.049107 0.169333,0.6437489 0.260773,0.2760133"
         id="path205"
         inkscape:connector-curvature="0"
         style="fill:#d70751;fill-opacity:1" />
      <path
         d="m 18.75545,-5.3375985 c 0.270651,0.048542 0.584764,0.085796 0.540737,0.1504244 0.296051,-0.064911 0.36322,-0.1247422 -0.540737,-0.1504244"
         id="path207"
         inkscape:connector-curvature="0"
         style="fill:#d70751;fill-opacity:1" />
      <path
         d="m 19.296187,-5.1871741 -0.191346,0.039511 0.178082,-0.015804 0.01326,-0.023707"
         id="path209"
         inkscape:connector-curvature="0"
         style="fill:#d70751;fill-opacity:1" />
      <path
         d="m 27.735761,7.4913774 c 0.0302,0.8201378 -0.239889,1.2180712 -0.483447,1.9224978 l -0.438291,0.2190045 c -0.358704,0.6965243 0.03471,0.4422423 -0.222109,0.9962443 -0.559929,0.49784 -1.69926,1.557867 -2.063891,1.654669 -0.266135,-0.0059 0.18034,-0.314113 0.23876,-0.434904 -0.749582,0.514773 -0.601415,0.772724 -1.747802,1.085426 l -0.03358,-0.07451 c -2.827302,1.330113 -6.754706,-1.305843 -6.70306,-4.9024827 -0.0302,0.2283178 -0.0858,0.1713089 -0.148449,0.2635956 -0.145909,-1.8505312 0.854569,-3.7092468 2.541976,-4.4681424 1.650436,-0.8170333 3.585351,-0.4817533 4.76758,0.6200423 C 22.79405,3.522204 21.501472,2.6205039 19.96957,2.7048884 18.468994,2.7285951 17.065221,3.682224 16.596732,4.7174151 15.827958,5.2014262 15.738776,6.5831863 15.403778,6.8360574 14.953069,10.1485 16.251574,11.579649 18.44811,13.263104 c 0.345722,0.233116 0.09737,0.268394 0.144215,0.445911 -0.729827,-0.341771 -1.398129,-0.857673 -1.947615,-1.489286 0.291535,0.42672 0.606213,0.841586 1.012895,1.167553 -0.688058,-0.233116 -1.607256,-1.667369 -1.875649,-1.725789 1.18618,2.123722 4.812454,3.724487 6.711245,2.930313 -0.878558,0.03246 -1.994747,0.01806 -2.98196,-0.346851 -0.414585,-0.21336 -0.978465,-0.65532 -0.877711,-0.738011 2.591364,0.968022 5.268242,0.733214 7.510498,-1.06426 0.570371,-0.444218 1.193517,-1.200009 1.373575,-1.210451 -0.271215,0.407811 0.04628,0.196145 -0.161995,0.55626 0.568395,-0.916658 -0.246945,-0.373098 0.587586,-1.582984 l 0.308187,0.424462 c -0.114582,-0.7608713 0.94488,-1.6848669 0.837353,-2.8882625 0.242994,-0.3680178 0.271216,0.3959578 0.01327,1.2426245 0.357858,-0.9392356 0.09426,-1.0902245 0.186266,-1.8652067 0.09934,0.2604911 0.229729,0.5373511 0.296616,0.8122356 C 29.35177,7.0237352 29.82421,6.4028463 29.94105,5.8753729 29.825904,5.8242909 29.581217,6.2766929 29.525337,5.2045307 29.533537,4.738864 29.654877,4.9604085 29.701726,4.8458262 29.610281,4.7933329 29.370392,4.4363218 29.224483,3.7516506 29.330317,3.590784 29.50727,4.1687751 29.651203,4.1924818 29.558634,3.6480751 29.399179,3.2329262 29.392688,2.8152373 28.972177,1.9363973 29.243957,2.9323595 28.90275,2.4379062 28.455145,1.0417528 29.274154,2.113915 29.32947,1.4794795 30.007932,2.4624595 30.394859,3.9858951 30.572377,4.616944 30.43691,3.8476062 30.217905,3.1022573 29.950641,2.3811795 30.156663,2.4678217 29.618748,0.798195 30.21847,1.9039417 c -0.640645,-2.35712007 -2.741789,-4.5595823 -4.674729,-5.5930802 0.236502,0.2164645 0.535093,0.4882445 0.427849,0.5308601 -0.961249,-0.5723467 -0.792198,-0.6169378 -0.929922,-0.8588023 -0.783167,-0.3186289 -0.834532,0.025682 -1.353256,5.645e-4 -1.476022,-0.7828845 -1.760502,-0.6996289 -3.118838,-1.1901312 l 0.06181,0.2887134 c -0.9779,-0.3256845 -1.139331,0.1236133 -2.196254,0.00113 -0.06435,-0.050236 0.338667,-0.1817511 0.670278,-0.2300111 -0.945444,0.1247423 -0.901135,-0.1862666 -1.82626,0.034431 0.228036,-0.16002 0.469053,-0.2658533 0.712329,-0.4018844 -0.771031,0.046849 -1.840653,0.4487333 -1.510453,0.083256 -1.257583,0.5610578 -3.491089,1.3487401 -4.744438,2.5239134 l -0.03951,-0.2633133 c -0.574323,0.6894689 -2.5044405,2.0590934 -2.6582516,2.95204453 l -0.1535289,0.0358422 C 8.5864182,0.32349721 8.393096,0.89697278 8.1560293,1.4176728 7.7651515,2.0837173 7.5831182,1.6739306 7.6387159,1.7783528 6.8699426,3.3370662 6.4880959,4.6468596 6.1581781,5.7209974 6.3932692,6.072364 6.1638226,7.836253 6.2527226,9.2479286 5.8666426,16.219947 11.145892,22.989329 16.91649,24.552276 c 0.84582,0.302542 2.103684,0.290971 3.173588,0.322015 -1.26238,-0.360962 -1.425504,-0.191346 -2.655146,-0.620042 -0.887025,-0.417689 -1.081476,-0.894644 -1.709703,-1.439898 l 0.248638,0.43942 c -1.232182,-0.436033 -0.716562,-0.539609 -1.719015,-0.857109 l 0.265571,-0.346851 c -0.399345,-0.0302 -1.057769,-0.6731 -1.237827,-1.028982 l -0.43688,0.01722 c -0.524933,-0.6477 -0.804616,-1.114495 -0.784295,-1.476022 l -0.141112,0.25146 c -0.16002,-0.274602 -1.9312463,-2.429087 -1.012331,-1.927578 -0.170744,-0.156069 -0.397651,-0.254 -0.643749,-0.70104 L 10.451343,16.97094 C 10.0091,16.40198 9.6374138,15.672718 9.665636,15.429724 c 0.2359378,0.318629 0.399627,0.378178 0.561622,0.432647 C 9.1105049,13.091513 9.0478515,15.709689 8.2020315,13.041842 l 0.1789289,-0.01439 c -0.13716,-0.20659 -0.2204156,-0.430957 -0.3307645,-0.65109 l 0.077893,-0.776111 C 7.3240381,10.670611 7.9031582,7.6474463 8.0191515,5.9893907 8.0995848,5.3151618 8.690276,4.5974707 9.1395738,3.4719684 L 8.8658182,3.4248373 c 0.52324,-0.9127067 2.9876048,-3.66550233 4.1289108,-3.52382677 0.552874,-0.69454891 -0.109784,-0.00254 -0.217875,-0.17751778 1.214402,-1.25673555 1.596249,-0.88787115 2.415822,-1.11393115 0.88392,-0.5246511 -0.758613,0.2046111 -0.339513,-0.2000956 1.527951,-0.3903133 1.082886,-0.8873066 3.076222,-1.0854266 0.210256,0.1196622 -0.487962,0.1848555 -0.663222,0.3400777 1.273104,-0.6228644 4.028722,-0.4811889 5.818576,0.3457223 2.076873,0.9705622 4.410286,3.8396334 4.502291,6.539089 l 0.104704,0.028222 c -0.05306,1.0730089 0.164254,2.31394 -0.212231,3.4538356 l 0.256258,-0.5396089"
         id="path211"
         inkscape:connector-curvature="0"
         style="fill:#d70751;fill-opacity:1" />
      <path
         d="m 15.143005,11.134302 -0.07112,0.3556 c 0.333304,0.452684 0.597747,0.943187 1.023338,1.297093 -0.306211,-0.597746 -0.533682,-0.844691 -0.952218,-1.652693"
         id="path213"
         inkscape:connector-curvature="0"
         style="fill:#d70751;fill-opacity:1" />
      <path
         d="m 15.930969,11.103258 c -0.176388,-0.195016 -0.280811,-0.429825 -0.397651,-0.663787 0.11176,0.411198 0.340643,0.76454 0.55372,1.123809 l -0.156069,-0.460022"
         id="path215"
         inkscape:connector-curvature="0"
         style="fill:#d70751;fill-opacity:1" />
      <path
         d="m 29.873877,8.0727552 -0.07451,0.1868311 c -0.136596,0.97028 -0.431518,1.9303997 -0.883638,2.8205287 0.499533,-0.939235 0.822678,-1.9665242 0.958145,-3.0073598"
         id="path217"
         inkscape:connector-curvature="0"
         style="fill:#d70751;fill-opacity:1" />
      <path
         d="m 18.855638,-5.5808741 c 0.3429,-0.1255889 0.842998,-0.068862 1.206783,-0.1515533 -0.474134,0.039793 -0.946009,0.0635 -1.411958,0.1236133 l 0.205175,0.02794"
         id="path219"
         inkscape:connector-curvature="0"
         style="fill:#d70751;fill-opacity:1" />
      <path
         d="M 6.8174492,0.82049056 C 6.8964715,1.5520106 6.2671159,1.8359261 6.956867,1.3536084 7.3265781,0.52077055 6.8123692,1.1235972 6.8174492,0.82049056"
         id="path221"
         inkscape:connector-curvature="0"
         style="fill:#d70751;fill-opacity:1" />
      <path
         d="M 6.006907,4.2060284 C 6.1657981,3.7183484 6.1945848,3.4254017 6.2552626,3.1431795 5.8161248,3.7045195 6.0531914,3.8241818 6.006907,4.2060284"
         id="path223"
         inkscape:connector-curvature="0"
         style="fill:#d70751;fill-opacity:1" />
    </g>
    <path
       d="m 166.28576,572.37323 c -2.92232,0.0734 -2.73088,0.5941 -3.9643,3.10585 -1.99154,4.05578 -3.39263,9.92443 -3.10714,13.38728 0.30541,3.70447 1.29906,6.11411 3.2143,7.92526 2.31022,2.18469 5.11353,1.90845 7.5,-0.64259 2.13404,-2.28122 2.92175,-4.66492 3.10715,-9.85303 0.11661,-3.27892 0.18404,-3.66794 0.4286,-3.10585 0.94539,2.17319 1.20087,7.30413 0.53574,9.85304 -0.54753,2.09841 -1.90568,4.66753 -3.00001,5.6762 -1.4488,1.33532 -3.00765,1.93286 -5.14285,2.03487 -1.43778,0.0687 -2.00771,0.0458 -3.10715,-0.3213 -2.84011,-0.94832 -6.34781,-3.65626 -8.35721,-6.31879 -2.85243,-3.77955 -5.70198,-11.45401 -6.42858,-17.56411 -0.14067,-1.18256 -0.33867,-2.25209 -0.42856,-2.35616 -0.51364,-0.5916 -2.47846,1.86247 -3.10715,3.85554 C 144.02672,579.3223 144,579.93226 144,591.22252 l 0,11.8879 0.53575,0.32129 c 0.7571,0.49601 4.05853,1.48847 6.75,2.03486 2.04991,0.41612 2.86909,0.53995 7.7143,0.5355 4.84193,-0.005 5.74485,-0.12684 7.60715,-0.53549 3.03194,-0.66474 5.29843,-1.7527 7.17858,-3.64134 2.64874,-2.66072 3.63736,-5.3488 3.64286,-9.53175 0.004,-2.7732 -0.39107,-4.99299 -1.5,-7.17558 -0.40686,-0.80077 -0.79622,-1.45298 -0.75005,-1.49937 0.24867,-0.24868 3.01059,3.05472 3.64287,4.39103 3.9685,8.38715 2.07881,15.23027 -6.10715,22.06223 -3.62151,3.02248 -9.89751,7.17785 -13.50001,8.99625 -1.25628,0.63397 -1.48861,0.86805 -1.17854,1.17803 0.0814,0.0797 6.33865,0.13989 13.92858,0.10686 l 13.82143,-0.10686 1.17853,-0.53554 c 2.38301,-1.14232 3.89123,-2.82305 4.60714,-5.14071 0.41038,-1.32867 0.42859,-1.92792 0.42859,-18.2067 0,-17.10235 -0.029,-18.57286 -0.75004,-18.84929 -0.16583,-0.0637 -1.77825,0.122 -3.53572,0.4284 -1.9491,0.3397 -4.69575,0.62635 -7.07142,0.74969 -4.14365,0.21511 -6.23793,0.60629 -8.67859,1.60647 -2.26336,0.92748 -3.58637,1.67149 -4.82142,2.67746 -1.1043,0.89944 -1.2546,1.01973 -1.60715,2.46325 -0.48593,1.98997 -0.79572,2.87605 -1.60713,3.96264 -0.59237,0.79328 -1.18715,1.17713 -1.17853,0.74969 0.0146,-0.7649 0.72308,-3.17056 1.39286,-4.49813 1.99118,-3.94711 4.58607,-6.77687 9.64286,-10.60271 1.55862,-1.17922 2.89286,-2.19917 2.89286,-2.35617 0,-0.23372 -1.13431,-0.32129 -6.21429,-0.32129 -1.81773,0 -3.20438,-0.0247 -4.17857,0 z m 4.17857,10.06723 c 0.32375,0 0.33566,0.32949 -0.1069,3.53424 -0.46809,3.38729 -1.68052,6.08806 -3.21429,7.71108 -1.08498,1.14808 -2.25153,1.45597 -3.10715,0.85678 -0.47707,-0.33417 -1.07137,-1.48034 -1.07137,-2.03487 0,-0.27486 0.10321,-0.2813 0.4286,-0.1071 0.64885,0.34723 0.91939,0.2694 1.71428,-0.4284 1.33155,-1.16899 2.71862,-4.51816 3.42857,-8.35366 0.0777,-0.42196 1.31313,-1.17808 1.92857,-1.17808 z"
       id="path19"
       inkscape:connector-curvature="0"
       style="fill:url(#linearGradient4677);fill-opacity:1" />
    <path
       d="m 226.39792,599.55284 c 7.47395,0 13.60208,-6.12912 13.60208,-13.59793 0,-7.46881 -6.12813,-13.59273 -13.60208,-13.59273 -7.47395,0 -13.60208,6.12392 -13.60208,13.59273 l 0,10.41676 0,3.18117 3.17816,0 10.42392,0 z m 0,-6.36234 -7.24057,0 0,-7.23559 c 0,-4.02865 3.20914,-7.23559 7.24057,-7.23559 4.03143,0 7.24057,3.20694 7.24057,7.23559 0,4.02866 -3.20914,7.23559 -7.24057,7.23559 z"
       id="path199-4"
       inkscape:connector-curvature="0"
       style="color:#000000;fill:#99ccff;fill-opacity:1" />
    <path
       d="m 205.60208,593.16972 c -7.47395,0 -13.60208,6.12912 -13.60208,13.59793 0,7.46882 6.12813,13.59273 13.60208,13.59273 7.47394,0 13.60207,-6.12391 13.60207,-13.59273 l 0,-10.41676 0,-3.18117 -3.17815,0 -10.42392,0 z m 0,6.36234 7.24056,0 0,7.23559 c 0,4.02865 -3.20913,7.23559 -7.24056,7.23559 -4.03143,0 -7.24057,-3.20694 -7.24057,-7.23559 0,-4.02866 3.20914,-7.23559 7.24057,-7.23559 z"
       id="path201-1"
       inkscape:connector-curvature="0"
       style="color:#000000;fill:#99ccff;fill-opacity:1" />
    <path
       d="m 226.40405,572.36394 c -7.51593,0 -13.60728,6.08743 -13.60728,13.59793 l 0,7.2304 -5.70091,0 c -1.77726,0 -3.21019,1.39794 -3.20936,3.17077 0,1.76187 1.41988,3.16037 3.17815,3.16037 l 4.71782,0 c 0.56025,0 1.0143,0.45469 1.0143,1.01361 l 0,6.23758 c -0.007,3.95977 -3.22086,7.16802 -7.18335,7.16802 -1.34227,0 -1.67415,-0.1767 -2.59038,-0.1767 -1.92508,0 -3.20936,1.28865 -3.20936,3.06161 5e-4,1.46679 1.25413,2.72669 2.79324,3.12919 1.05552,0.27574 1.86622,0.40546 3.0065,0.40546 7.51592,0 13.61248,-6.08744 13.61248,-13.59793 l 0,-7.2304 5.69571,0 c 1.77725,0 3.21539,-1.39794 3.21456,-3.17077 0,-1.76187 -1.41988,-3.16038 -3.17816,-3.16038 l -4.72301,0 c -0.56026,0 -1.0143,-0.45468 -1.0143,-1.01361 l 0,-6.23758 c 0.007,-3.95977 3.22085,-7.16802 7.18335,-7.16802 1.34226,0 1.67415,0.1767 2.59037,0.1767 1.92508,0 3.21456,-1.28866 3.21456,-3.06161 -4.9e-4,-1.46681 -1.25933,-2.73192 -2.79843,-3.13442 -1.05553,-0.27571 -1.86622,-0.40025 -3.0065,-0.40025 z"
       id="path203-5"
       inkscape:connector-curvature="0"
       style="fill:#294172;fill-opacity:1" />
    <path
       d="m 259.02068,572.37901 c -10.34718,0.48643 -18.44728,9.83398 -18.03449,14.91783 0.4016,4.9459 12.98621,9.29027 12.83811,9.43779 -2.57475,2.16524 -4.27281,3.62771 -6.41905,5.58151 -5.16861,4.70508 -8.73908,8.19551 -6.92852,13.09115 2.08861,5.64748 6.65414,5.41342 12.02301,4.36372 13.83892,-2.71852 36.61715,-20.1544 35.45766,-26.58824 -0.93822,-5.20594 -13.66811,-15.49697 -21.1931,-19.18005 -2.35084,-1.15063 -5.02612,-1.75105 -7.74362,-1.62371 z m 2.13969,8.9304 c 1.2945,-0.12076 2.80227,0.20544 4.48314,1.01482 3.671,1.76772 7.47355,6.46092 0,9.13336 -2.03223,0.72672 -8.55226,-1.74828 -8.35496,-5.17558 0.17979,-3.16421 1.71432,-4.77131 3.87182,-4.9726 z"
       id="path199-7"
       inkscape:connector-curvature="0"
       style="fill:#a8a2f5;fill-opacity:1;fill-rule:evenodd" />
    <path
       d="m 310.50718,572.36386 c -0.0235,0.002 -0.0464,0.005 -0.07,0.0107 l -4.33659,1.05049 c -0.18218,0.0444 -0.31247,0.20866 -0.31247,0.39661 l 1.91242,8.77892 0.0754,0.0429 c 1.45732,-0.48559 3.01126,-0.75033 4.63288,-0.75033 7.3188,0 13.38237,5.35988 14.43736,12.34838 l 8.92098,-1.94551 c 0.17497,-0.0832 0.26738,-0.27396 0.22089,-0.46092 l -1.05588,-4.31443 c -0.0446,-0.18163 -0.21018,-0.3107 -0.39865,-0.31086 l -7.12169,-0.005 c -0.6011,-1.12715 -1.34352,-2.1895 -2.21948,-3.15681 l 2.32182,-6.50113 c 0.0648,-0.18073 -0.007,-0.38214 -0.17238,-0.48236 l -3.81945,-2.3046 c -0.16129,-0.0977 -0.36346,-0.0729 -0.49561,0.059 l -4.79987,4.76462 c -1.42305,-0.45203 -2.88192,-0.70258 -4.3366,-0.74498 l -2.98443,-6.24386 c -0.0626,-0.13081 -0.19057,-0.21679 -0.32862,-0.23046 -0.0231,-0.003 -0.0466,-0.002 -0.07,0 z"
       id="path199-45"
       inkscape:connector-curvature="0"
       style="fill:#0079c1;fill-opacity:1;fill-rule:evenodd" />
    <path
       d="m 296.43076,578.72027 c -0.0908,0.009 -0.17966,0.0495 -0.2478,0.11791 l -3.15683,3.14069 c -0.13274,0.13248 -0.15706,0.33805 -0.0592,0.49844 l 3.70091,6.05628 c -0.65561,1.09659 -1.18132,2.27933 -1.55686,3.52658 l -6.78772,1.4042 C 288.13443,593.50337 288,593.66815 288,593.86098 l 0,4.44306 c 0,0.18784 0.12523,0.35285 0.30706,0.39661 l 6.58839,1.59713 c 0.35124,1.44453 0.89674,2.81467 1.61613,4.07325 l -3.81405,5.78831 c -0.10643,0.16161 -0.0836,0.37299 0.0539,0.50916 l 3.15684,3.14069 c 0.13274,0.13167 0.33919,0.15587 0.50099,0.059 l 6.09816,-6.71015 0,-0.0965 c -2.8809,-2.65291 -4.69215,-6.43619 -4.69215,-10.64941 0,-4.67297 2.2262,-8.81852 5.6726,-11.47478 l -6.78771,-6.15275 c -0.0813,-0.0527 -0.17863,-0.0741 -0.26935,-0.0643 z"
       id="path201-7"
       inkscape:connector-curvature="0"
       style="fill:#0079c1;fill-opacity:1;fill-rule:evenodd" />
    <path
       d="m 326.66301,599.54209 c -1.43963,6.51471 -7.27335,11.39438 -14.25419,11.39438 -1.83883,0 -3.59412,-0.34186 -5.21469,-0.95936 l -0.0431,0.0269 -2.33261,8.77893 c -0.0108,0.19272 0.11454,0.36326 0.30168,0.41268 l 4.30966,1.15231 c 0.18166,0.0482 0.37797,-0.0283 0.46868,-0.19297 l 3.42617,-6.21168 c 1.28234,0.0177 2.57262,-0.11916 3.84637,-0.41804 l 4.61133,5.15052 c 0.1282,0.1434 0.34388,0.17671 0.51176,0.0804 l 3.86794,-2.21885 c 0.16359,-0.0938 0.24116,-0.2875 0.18854,-0.46627 l -1.89625,-6.47433 c 1.08274,-1.02391 2.00501,-2.1763 2.74203,-3.42475 l 6.93854,0.3966 c 0.19382,0.011 0.3701,-0.11375 0.42018,-0.30013 l 1.15823,-4.28763 c 0.0482,-0.18022 -0.0283,-0.37504 -0.19396,-0.46628 l -8.85632,-1.97246 z"
       id="path203-3"
       inkscape:connector-curvature="0"
       style="fill:#0079c1;fill-opacity:1;fill-rule:evenodd" />
  </g>
</svg>
