<?xml version="1.0" encoding="UTF-8" standalone="no"?>
<svg
   xmlns:dc="http://purl.org/dc/elements/1.1/"
   xmlns:cc="http://creativecommons.org/ns#"
   xmlns:rdf="http://www.w3.org/1999/02/22-rdf-syntax-ns#"
   xmlns:svg="http://www.w3.org/2000/svg"
   xmlns="http://www.w3.org/2000/svg"
   xmlns:xlink="http://www.w3.org/1999/xlink"
   xmlns:sodipodi="http://sodipodi.sourceforge.net/DTD/sodipodi-0.dtd"
   xmlns:inkscape="http://www.inkscape.org/namespaces/inkscape"
   width="48"
   viewBox="0 0 13.546667 13.546667"
   height="48"
   id="svg2"
   version="1.1"
   inkscape:version="0.48.4 r9939"
   sodipodi:docname="distributor-logo-lubuntu.svg">
  <metadata
     id="metadata203">
    <rdf:RDF>
      <cc:Work
         rdf:about="">
        <dc:format>image/svg+xml</dc:format>
        <dc:type
           rdf:resource="http://purl.org/dc/dcmitype/StillImage" />
      </cc:Work>
    </rdf:RDF>
  </metadata>
  <sodipodi:namedview
     pagecolor="#ffffff"
     bordercolor="#666666"
     borderopacity="1"
     objecttolerance="10"
     gridtolerance="10"
     guidetolerance="10"
     inkscape:pageopacity="0"
     inkscape:pageshadow="2"
     inkscape:window-width="1280"
     inkscape:window-height="960"
     id="namedview201"
     showgrid="true"
     inkscape:zoom="9.8333333"
     inkscape:cx="20.19775"
     inkscape:cy="18.596843"
     inkscape:window-x="0"
     inkscape:window-y="0"
     inkscape:window-maximized="1"
     inkscape:current-layer="svg2" />
  <defs
     id="defs4">
    <clipPath
       id="clipPath6">
      <rect
         height="208.57"
         y="1580.93"
         x="-830"
         width="477.14"
         fill="#ff0"
         id="rect8" />
    </clipPath>
    <clipPath
       id="clipPath10">
      <rect
         height="208.57"
         y="1580.93"
         x="-830"
         width="477.14"
         fill="#ff0"
         id="rect12" />
    </clipPath>
    <clipPath
       id="clipPath14">
      <rect
         height="208.57"
         y="1580.93"
         x="-830"
         width="477.14"
         fill="#ff0"
         id="rect16" />
    </clipPath>
    <clipPath
       id="clipPath18">
      <rect
         height="208.57"
         y="1580.93"
         x="-830"
         width="477.14"
         fill="#ff0"
         id="rect20" />
    </clipPath>
    <clipPath
       id="clipPath22">
      <rect
         transform="matrix(.99975 -.02255 .02255 .99975 0 0)"
         height="240.87"
         y="780.64"
         x="294.93"
         width="357.87"
         fill="#f00"
         id="rect24" />
    </clipPath>
    <clipPath
       id="clipPath26">
      <rect
         height="195"
         y="857.54"
         width="301.43"
         fill="#fff"
         id="rect28" />
    </clipPath>
    <clipPath
       id="clipPath30">
      <rect
         height="208.57"
         y="1580.93"
         x="-830"
         width="477.14"
         fill="#ff0"
         id="rect32" />
    </clipPath>
    <clipPath
       id="clipPath34">
      <rect
         height="30.01"
         y="977.09"
         x="276.37"
         width="79.48"
         fill="#e20a17"
         id="rect36" />
    </clipPath>
    <clipPath
       id="clipPath38">
      <rect
         transform="rotate(20.37582)"
         height="37.48"
         y="0.064"
         x="8.208"
         width="506.46"
         fill="#162d50"
         id="rect40" />
    </clipPath>
    <clipPath
       id="clipPath42">
      <rect
         transform="rotate(.22918)"
         height="318.4"
         y="758.67"
         x="218.9"
         width="357.38"
         fill="#fff"
         id="rect44" />
    </clipPath>
    <clipPath
       id="clipPath46">
      <rect
         transform="rotate(.22918)"
         height="318.4"
         y="758.67"
         x="218.9"
         width="357.38"
         fill="#fff"
         id="rect48" />
    </clipPath>
    <clipPath
       id="clipPath50">
      <rect
         transform="rotate(20.37582)"
         height="37.48"
         y="0.064"
         x="8.208"
         width="506.46"
         fill="#162d50"
         id="rect52" />
    </clipPath>
    <clipPath
       id="clipPath54">
      <rect
         height="208.57"
         y="1580.93"
         x="-830"
         width="477.14"
         fill="#ff0"
         id="rect56" />
    </clipPath>
    <clipPath
       id="clipPath58">
      <rect
         transform="rotate(.6171)"
         height="235.88"
         y="804.24"
         x="221.39"
         width="350.46"
         id="rect60" />
    </clipPath>
    <clipPath
       id="clipPath62">
      <rect
         transform="rotate(.16206)"
         height="279.03"
         y="793.52"
         x="257.32"
         width="287.43"
         fill="#fff"
         id="rect64" />
    </clipPath>
    <clipPath
       id="clipPath66">
      <rect
         height="195"
         y="0.06"
         width="301.43"
         fill="#fff"
         id="rect68" />
    </clipPath>
    <clipPath
       id="clipPath70">
      <rect
         height="195"
         y="857.54"
         width="301.43"
         fill="#fff"
         id="rect72" />
    </clipPath>
    <path
       clip-path="url(#2)"
       id="0"
       d="m 699.2857,672.93231 a 40.714287,40.714287 0 1 1 -81.42858,0 40.714287,40.714287 0 1 1 81.42858,0 z"
       fill="#4a0" />
    <clipPath
       id="clipPath75">
      <use
         xlink:href="#0"
         transform="matrix(4.3233 0 0 4.3233 -2450.68 -2667.55)"
         id="use77" />
    </clipPath>
    <clipPath
       id="clipPath79">
      <rect
         transform="rotate(27.44968)"
         height="41.39"
         y="815.74"
         x="448.12"
         width="63.987"
         fill="#fff"
         id="rect81" />
    </clipPath>
    <clipPath
       id="clipPath83">
      <rect
         height="195"
         y="857.54"
         width="301.43"
         fill="#fff"
         id="rect85" />
    </clipPath>
    <clipPath
       id="clipPath87">
      <rect
         height="208.57"
         y="1580.93"
         x="-830"
         width="477.14"
         fill="#ff0"
         id="rect89" />
    </clipPath>
    <clipPath
       id="clipPath91">
      <rect
         height="208.57"
         y="1580.93"
         x="-830"
         width="477.14"
         fill="#ff0"
         id="rect93" />
    </clipPath>
    <clipPath
       id="clipPath95">
      <rect
         height="208.57"
         y="1580.93"
         x="-830"
         width="477.14"
         fill="#ff0"
         id="rect97" />
    </clipPath>
    <clipPath
       id="clipPath99">
      <rect
         height="208.57"
         y="1580.93"
         x="-830"
         width="477.14"
         fill="#ff0"
         id="rect101" />
    </clipPath>
    <clipPath
       id="clipPath103">
      <rect
         height="208.57"
         y="1580.93"
         x="-830"
         width="477.14"
         fill="#ff0"
         id="rect105" />
    </clipPath>
    <clipPath
       id="clipPath107">
      <use
         xlink:href="#0"
         id="use109" />
    </clipPath>
    <clipPath
       id="clipPath111">
      <rect
         height="208.57"
         y="1580.93"
         x="-830"
         width="477.14"
         fill="#ff0"
         id="rect113" />
    </clipPath>
    <path
       id="1"
       d="m 699.2857,672.93231 a 40.714287,40.714287 0 1 1 -81.42858,0 40.714287,40.714287 0 1 1 81.42858,0 z"
       fill="#4a0" />
    <clipPath
       id="2">
      <use
         xlink:href="#1"
         id="use117" />
    </clipPath>
    <clipPath
       id="clipPath119">
      <use
         transform="matrix(4.3233 0 0 4.3233 -2450.68 -2667.55)"
         xlink:href="#1"
         id="use121" />
    </clipPath>
    <linearGradient
       gradientUnits="userSpaceOnUse"
       x2="0"
       y2="40"
       y1="280"
       xlink:href="#4"
       id="3"
       gradientTransform="matrix(.175 0 0 .175 302.79999 215.99997)" />
    <linearGradient
       id="4">
      <stop
         stop-color="#151515"
         id="stop125" />
      <stop
         stop-color="#222"
         offset="1"
         id="stop127" />
    </linearGradient>
    <linearGradient
       gradientUnits="userSpaceOnUse"
       x2="0"
       y2="90"
       y1="230"
       xlink:href="#4"
       id="5"
       gradientTransform="matrix(.375 0 0 .375 298 16)" />
    <linearGradient
       gradientUnits="userSpaceOnUse"
       x2="0"
       y2="90"
       y1="230"
       xlink:href="#4"
       id="6"
       gradientTransform="matrix(.25 0 0 .25 299.99999 131.99999)" />
    <clipPath
       id="clipPath131">
      <rect
         color="#bebebe"
         height="20"
         rx="4"
         y="78"
         x="434"
         width="20"
         id="rect133" />
    </clipPath>
    <clipPath
       id="clipPath135">
      <rect
         color="#bebebe"
         height="22"
         rx="4"
         y="77"
         x="433"
         width="22"
         id="rect137" />
    </clipPath>
    <clipPath
       id="clipPath139">
      <rect
         color="#bebebe"
         height="22"
         rx="5"
         y="77"
         x="433"
         width="22"
         id="rect141" />
    </clipPath>
    <clipPath
       id="clipPath143">
      <rect
         color="#bebebe"
         height="30"
         rx="6"
         y="29"
         x="433"
         width="30"
         id="rect145" />
    </clipPath>
    <clipPath
       id="clipPath147">
      <rect
         color="#bebebe"
         fill="url(#6)"
         transform="matrix(0 -1 1 0 0 0)"
         height="60"
         rx="12.5"
         y="142"
         x="306"
         width="60"
         id="rect149" />
    </clipPath>
    <clipPath
       id="clipPath151">
      <rect
         color="#bebebe"
         fill="url(#5)"
         height="90"
         rx="18.75"
         y="31"
         x="307"
         width="90"
         id="rect153" />
    </clipPath>
    <clipPath
       id="clipPath155">
      <rect
         color="#bebebe"
         fill="#6d6d6d"
         opacity="0.2"
         height="30"
         rx="4"
         y="29"
         x="433"
         width="30"
         id="rect157" />
    </clipPath>
    <clipPath
       id="clipPath159">
      <rect
         color="#bebebe"
         fill="#6d6d6d"
         opacity="0.2"
         height="22"
         rx="3"
         y="77"
         x="433"
         width="22"
         id="rect161" />
    </clipPath>
    <clipPath
       id="clipPath163">
      <path
         d="m 144,70 c -49.705627,0 -90,40.29437 -90,90 0,49.70563 40.294373,90 90,90 49.70563,0 90,-40.29437 90,-90 0,-49.70563 -40.29437,-90 -90,-90 z m 0,32.1875 c 32.03251,0 58,25.96748 58,58 0,32.03252 -25.96749,58 -58,58 -32.03251,0 -58,-25.96748 -58,-58 0,-32.03252 25.96749,-58 58,-58 z"
         id="path165" />
    </clipPath>
    <clipPath
       id="clipPath167">
      <rect
         color="#bebebe"
         height="16"
         rx="3"
         y="116"
         x="432"
         width="16"
         id="rect169" />
    </clipPath>
    <clipPath
       id="clipPath171">
      <path
         d="m 145,215 c 33.13708,0 60,-26.86292 60,-60 0,-33.13708 -26.86292,-60 -60,-60 -33.13708,0 -60,26.86292 -60,60 0,12.50698 3.8285,24.10633 10.375,33.71875 L 89,211 111.28125,204.625 C 120.89367,211.1715 132.49302,215 145,215 z"
         id="path173" />
    </clipPath>
    <clipPath
       id="clipPath175">
      <path
         d="m 152,204 a 8,8 0 1 1 -16,0 8,8 0 1 1 16,0 z"
         id="path177" />
    </clipPath>
    <clipPath
       id="clipPath179">
      <path
         d="m 98.03125,23.191212 c -41.492132,1.05238 -74.84375,35.06824 -74.84375,76.812498 0,42.40687 34.405632,76.8125 76.8125,76.8125 42.40687,0 76.8125,-34.40563 76.8125,-76.8125 0,-42.406866 -34.40563,-76.812498 -76.8125,-76.812498 -0.662607,0 -1.310145,-0.0167 -1.96875,0 z M 100,50.659962 c 27.24464,0 49.34375,22.099114 49.34375,49.343748 -1e-5,27.24464 -22.09911,49.34375 -49.34375,49.34375 -27.244636,-1e-5 -49.34375,-22.09911 -49.34375,-49.34375 0,-27.244634 22.099114,-49.343748 49.34375,-49.343748 z"
         id="path181" />
    </clipPath>
    <clipPath
       id="clipPath183">
      <rect
         color="#bebebe"
         fill="#6d6d6d"
         opacity="0.2"
         height="16"
         rx="2"
         y="116"
         x="432"
         width="16"
         id="rect185" />
    </clipPath>
    <clipPath
       id="clipPath187">
      <rect
         color="#bebebe"
         fill="#986767"
         height="240"
         rx="50"
         y="36"
         x="24"
         width="240"
         id="rect189" />
    </clipPath>
    <clipPath
       id="clipPath191">
      <rect
         color="#bebebe"
         fill="url(#3)"
         transform="rotate(90)"
         height="42"
         rx="9"
         y="223"
         x="307"
         width="42"
         id="rect193" />
    </clipPath>
  </defs>
  <path
     style="fill:#0068c8;fill-opacity:1;fill-rule:evenodd;stroke:none"
     d="m 9.9963958,1.1288592 a 0.1760336,0.1762606 0 0 0 -0.00881,0.00882 c -0.485389,0.1223035 -1.14543,0.3810194 -1.5324846,0.5555809 -0.019983,0.00381 -0.04247,-0.00404 -0.061652,0 -0.077927,0.016412 -0.180858,0.056177 -0.2818369,0.097006 C 7.9096548,1.8719249 7.6471283,2.0042067 7.3365618,2.1694722 6.7154286,2.5000032 5.8991785,2.9760754 5.0202163,3.5099228 3.2882354,4.5618608 1.3371334,5.800302 0.15853315,6.5700305 c -0.009513,0.00365 -0.0258683,0.031682 -0.0352296,0.035275 -0.008737,0.00571 -0.0177753,0.020804 -0.02642219,0.026456 a 0.1760336,0.1762606 0 0 0 -0.07045917,0.061731 0.1760336,0.1762606 0 0 0 0,0.035275 A 0.1760336,0.1762606 0 0 0 0,6.7552235 a 0.1760336,0.1762606 0 0 0 0.0264222,0.07055 0.1760336,0.1762606 0 0 0 0,0.026456 0.1760336,0.1762606 0 0 0 0.03522959,0.035275 0.1760336,0.1762606 0 0 0 0.03522958,0.026456 0.1760336,0.1762606 0 0 0 0.06165178,0.035275 0.1760336,0.1762606 0 0 0 0.0264222,0 0.1760336,0.1762606 0 0 0 0.0352296,0 0.1760336,0.1762606 0 0 0 0.0264222,0 c 0.009342,-0.00359 0.0257366,-0.031633 0.0352295,-0.035275 C 0.98153453,6.6455043 2.0934376,6.2325999 3.0561669,5.9174427 3.5440623,5.7577261 3.9958854,5.6111429 4.3332394,5.5382362 4.5019165,5.5017832 4.644587,5.5151352 4.7383797,5.5117802 c 0.037517,-0.00134 0.018799,-0.00402 0.03523,0 -0.02595,0.074751 -0.095253,0.1996569 -0.1849556,0.3439314 C 4.4092484,6.1442602 4.1361721,6.5549977 3.7783734,7.0374245 3.0695561,7.9931361 2.1011541,9.2955806 1.2154207,10.794214 c -0.00847,0.01434 -0.017964,0.01209 -0.026422,0.02646 a 0.1760336,0.1762606 0 0 0 -0.03523,0.06174 0.1760336,0.1762606 0 0 0 0,0.06174 0.1760336,0.1762606 0 0 0 0.03523,0.03528 0.1760336,0.1762606 0 0 0 0,0.02646 0.1760336,0.1762606 0 0 0 0.026422,0.03528 0.1760336,0.1762606 0 0 0 0.061652,0.02646 0.1760336,0.1762606 0 0 0 0.03523,0 0.1760336,0.1762606 0 0 0 0.026422,0 0.1760336,0.1762606 0 0 0 0.061652,0 0.1760336,0.1762606 0 0 0 0.061652,-0.02646 c 0.00774,-0.0084 0.027419,-0.0268 0.03523,-0.03528 0.00781,-0.0085 0.027352,-0.01787 0.03523,-0.02646 C 2.2692667,10.17621 3.2916735,8.8928814 4.2099358,7.8487498 4.6788864,7.3155189 5.1146663,6.8620871 5.4605863,6.5435742 5.5577054,6.4541492 5.6274307,6.4115991 5.7071933,6.3495616 5.6736516,6.4060906 5.6593567,6.44225 5.6191193,6.5082992 5.3965294,6.8736784 5.0762038,7.3812277 4.7119574,7.9810312 3.8413825,9.4146042 3.1654668,10.722097 2.527723,11.949471 a 0.1760336,0.1762606 0 0 0 0,0.02646 0.1760336,0.1762606 0 0 0 0,0.03528 0.1760336,0.1762606 0 0 0 0,0.02646 c -0.0015,0.0047 -0.00871,-9.73e-4 0,0.03528 -0.00742,0.02063 -0.023823,0.03432 -0.03523,0.06174 -0.037401,0.08991 -0.085468,0.176349 -0.1233035,0.246925 -0.00576,0.01074 -0.021565,0.02683 -0.026422,0.03528 a 0.1760336,0.1762606 0 0 0 0,0.02646 0.1760336,0.1762606 0 0 0 0,0.03528 0.1760336,0.1762606 0 0 0 0,0.08818 0.1760336,0.1762606 0 0 0 0,0.03528 0.1760336,0.1762606 0 0 0 0.026422,0.03528 0.1760336,0.1762606 0 0 0 0.03523,0.02646 0.1760336,0.1762606 0 0 0 0.088073,0.03528 0.1760336,0.1762606 0 0 0 0.03523,0 0.1760336,0.1762606 0 0 0 0.061652,-0.03528 0.1760336,0.1762606 0 0 0 0.03523,-0.02646 c 0.00586,-0.0066 0.020441,-0.02847 0.026422,-0.03528 0.00346,-0.0039 -0.0035,-0.03129 0,-0.03528 C 3.4835873,11.614249 5.4088877,8.8730751 6.2092146,7.7253003 6.5839844,7.1878211 7.0382052,6.5019703 7.4598653,5.943899 7.6706956,5.6648634 7.8591752,5.423503 8.0499609,5.2560361 8.2407466,5.0885692 8.4044758,5.0106193 8.516753,5.0091111 c 0.2430966,-0.00325 0.528479,0.1089226 0.8455101,0.3792064 0.3170311,0.2702836 0.6743779,0.6877462 1.0304659,1.216988 0.712176,1.0584836 1.4645,2.5976144 2.245887,4.4358335 0.262448,0.617413 0.219103,0.691951 0.36991,1.119982 a 0.1760336,0.1762606 0 0 0 0.03523,0.07055 0.1760336,0.1762606 0 0 0 0.03523,0.02646 c 0.06265,0.04939 0.196405,0.0787 0.27303,0.03528 0.07662,-0.04343 0.07656,-0.117546 0.09688,-0.158738 0.02032,-0.0412 0.05216,-0.07108 0.06166,-0.097 a 0.1760336,0.1762606 0 0 0 0,-0.02646 0.1760336,0.1762606 0 0 0 0.03523,-0.06174 0.1760336,0.1762606 0 0 0 0,-0.03528 C 13.526689,11.498314 13.320912,10.724305 12.982104,9.5066756 12.251618,6.8813961 11.488358,4.0176006 9.6440999,2.6015912 L 9.7321737,1.9754596 C 9.8366541,1.8414367 9.9582028,1.6465789 10.075663,1.4816093 c 0.02543,-0.035715 0.07499,-0.062846 0.09688,-0.097006 a 0.1760336,0.1762606 0 0 0 0.03523,-0.035275 0.1760336,0.1762606 0 0 0 0,-0.026456 0.1760336,0.1762606 0 0 0 0,-0.061731 0.1760336,0.1762606 0 0 0 -0.03523,-0.061731 0.1760336,0.1762606 0 0 0 -0.03523,-0.035275 0.1760336,0.1762606 0 0 0 -0.02642,-0.026456 0.1760336,0.1762606 0 0 0 -0.03523,0 0.1760336,0.1762606 0 0 0 -0.02642,0 0.1760336,0.1762606 0 0 0 -0.052846,-0.00882 z"
     id="path199"
     inkscape:connector-curvature="0" />
</svg>
