<?xml version="1.0" encoding="UTF-8" standalone="no"?>
<svg
   xmlns:dc="http://purl.org/dc/elements/1.1/"
   xmlns:cc="http://creativecommons.org/ns#"
   xmlns:rdf="http://www.w3.org/1999/02/22-rdf-syntax-ns#"
   xmlns:svg="http://www.w3.org/2000/svg"
   xmlns="http://www.w3.org/2000/svg"
   xmlns:sodipodi="http://sodipodi.sourceforge.net/DTD/sodipodi-0.dtd"
   xmlns:inkscape="http://www.inkscape.org/namespaces/inkscape"
   width="48"
   viewBox="0 0 13.546667 13.546667"
   height="48"
   id="svg2"
   version="1.1"
   inkscape:version="0.48.4 r9939"
   sodipodi:docname="osx.svg">
  <metadata
     id="metadata32">
    <rdf:RDF>
      <cc:Work
         rdf:about="">
        <dc:format>image/svg+xml</dc:format>
        <dc:type
           rdf:resource="http://purl.org/dc/dcmitype/StillImage" />
      </cc:Work>
    </rdf:RDF>
  </metadata>
  <defs
     id="defs30" />
  <sodipodi:namedview
     pagecolor="#ffffff"
     bordercolor="#666666"
     borderopacity="1"
     objecttolerance="10"
     gridtolerance="10"
     guidetolerance="10"
     inkscape:pageopacity="0"
     inkscape:pageshadow="2"
     inkscape:window-width="1280"
     inkscape:window-height="960"
     id="namedview28"
     showgrid="false"
     inkscape:zoom="9.8333332"
     inkscape:cx="25.477372"
     inkscape:cy="30.765984"
     inkscape:window-x="0"
     inkscape:window-y="0"
     inkscape:window-maximized="1"
     inkscape:current-layer="svg2" />
  <path
     inkscape:connector-curvature="0"
     d="m 1.1288889,-3.08e-6 4.1141077,6.82697998 -4.0489838,6.7196901 3.0625915,0 2.5167315,-4.1767501 2.5167281,4.1767501 3.0645091,0 -4.048984,-6.7196901 4.112189,-6.82697998 -3.0625933,0 L 6.7733358,4.2859169 4.1914804,-3.08e-6 l -3.0625915,0 z"
     id="path3705"
     style="fill:#2d2d2d;fill-opacity:1;fill-rule:evenodd;stroke:none" />
  <path
     inkscape:connector-curvature="0"
     d="M 1.1288889,-3.08e-6 3.8314066,4.4854369 c 0.7416182,-0.4307 1.5144958,-0.84355 2.3232832,-1.22723 L 4.1914804,-3.08e-6 l -3.0625915,0 z m 8.2262958,0 L 7.832504,2.5278869 c 1.1764861,-0.46603 2.427412,-0.86415 3.767433,-1.17077 l 0.817841,-1.35711998 -3.0625933,0 z"
     id="path3771"
     style="opacity:0.47619048;fill:#d0d0d0;fill-opacity:1;fill-rule:evenodd;stroke:none" />
</svg>
