<?xml version="1.0" encoding="UTF-8" standalone="no"?>
<svg
   xmlns:dc="http://purl.org/dc/elements/1.1/"
   xmlns:cc="http://creativecommons.org/ns#"
   xmlns:rdf="http://www.w3.org/1999/02/22-rdf-syntax-ns#"
   xmlns:svg="http://www.w3.org/2000/svg"
   xmlns="http://www.w3.org/2000/svg"
   xmlns:sodipodi="http://sodipodi.sourceforge.net/DTD/sodipodi-0.dtd"
   xmlns:inkscape="http://www.inkscape.org/namespaces/inkscape"
   width="48"
   viewBox="0 0 13.546667 13.546667"
   height="48"
   id="svg2"
   version="1.1"
   inkscape:version="0.91 r13725"
   sodipodi:docname="android.svg"
   inkscape:export-filename="/home/josh/Code/unixporn/resources/Flairs/android.png"
   inkscape:export-xdpi="33.75"
   inkscape:export-ydpi="33.75">
  <metadata
     id="metadata203">
    <rdf:RDF>
      <cc:Work
         rdf:about="">
        <dc:format>image/svg+xml</dc:format>
        <dc:type
           rdf:resource="http://purl.org/dc/dcmitype/StillImage" />
      </cc:Work>
    </rdf:RDF>
  </metadata>
  <sodipodi:namedview
     pagecolor="#ffffff"
     bordercolor="#666666"
     borderopacity="1"
     objecttolerance="10"
     gridtolerance="10"
     guidetolerance="10"
     inkscape:pageopacity="0"
     inkscape:pageshadow="2"
     inkscape:window-width="1260"
     inkscape:window-height="962"
     id="namedview201"
     showgrid="true"
     inkscape:zoom="5.6568543"
     inkscape:cx="-24.017137"
     inkscape:cy="10.745819"
     inkscape:window-x="10"
     inkscape:window-y="52"
     inkscape:window-maximized="0"
     inkscape:current-layer="layer1"
     inkscape:object-nodes="true"
     inkscape:snap-smooth-nodes="true">
    <inkscape:grid
       type="xygrid"
       id="grid7283" />
  </sodipodi:namedview>
  <defs
     id="defs4" />
  <g
     inkscape:label="Layer 1"
     id="layer1"
     transform="matrix(0.28222222,0,0,0.28222222,-169.17058,-119.75917)">
    <rect
       style="opacity:1;fill:#a4c639;fill-opacity:1;fill-rule:nonzero;stroke:none;stroke-width:0.5;stroke-linejoin:round;stroke-miterlimit:4;stroke-dasharray:none;stroke-opacity:1"
       id="rect4589"
       width="1"
       height="12"
       x="757.896"
       y="63.722267"
       rx="0.5"
       ry="0.52491266"
       transform="matrix(0.87384776,0.48619964,-0.48619964,0.87384776,0,0)" />
    <rect
       transform="matrix(-0.87384776,0.48619964,0.48619964,0.87384776,0,0)"
       ry="0.52491266"
       rx="0.5"
       y="669.98724"
       x="-331.74646"
       height="12"
       width="1"
       id="rect4591"
       style="opacity:1;fill:#a4c639;fill-opacity:1;fill-rule:nonzero;stroke:none;stroke-width:0.5;stroke-linejoin:round;stroke-miterlimit:4;stroke-dasharray:none;stroke-opacity:1" />
    <path
       id="path3757"
       d="M 24 3 A 13.00002 12 0 0 0 11 15 L 37 15 A 13.00002 12 0 0 0 24 3 z "
       style="opacity:1;fill:#a4c639;fill-opacity:1;fill-rule:nonzero;stroke:none;stroke-width:0.5;stroke-linejoin:round;stroke-miterlimit:4;stroke-dasharray:none;stroke-opacity:1"
       transform="translate(599.42332,424.34352)" />
    <flowRoot
       style="font-style:normal;font-weight:normal;font-size:40px;line-height:125%;font-family:Sans;letter-spacing:0px;word-spacing:0px;fill:#000000;fill-opacity:1;stroke:none;stroke-width:1px;stroke-linecap:butt;stroke-linejoin:miter;stroke-opacity:1"
       id="flowRoot3201"
       xml:space="preserve"><flowRegion
         id="flowRegion3203"><rect
           y="238.54292"
           x="21.213203"
           height="1009.7485"
           width="1308.1476"
           id="rect3205" /></flowRegion><flowPara
         id="flowPara3207" /></flowRoot>    <path
       style="opacity:1;fill:#a4c639;fill-opacity:1;fill-rule:nonzero;stroke:none;stroke-width:0.5;stroke-linejoin:round;stroke-miterlimit:4;stroke-dasharray:none;stroke-opacity:1"
       d="M 11 16 L 11 35 A 3 3 0 0 0 14 38 L 34 38 A 3 3 0 0 0 37 35 L 37 16 L 11 16 z "
       id="path3724"
       transform="translate(599.42332,424.34352)" />
    <path
       style="opacity:1;fill:#a4c639;fill-opacity:1;fill-rule:nonzero;stroke:none;stroke-width:0.5;stroke-linejoin:round;stroke-miterlimit:4;stroke-dasharray:none;stroke-opacity:1"
       d="m 615.42332,459.34352 0,10 a 3,3 0 0 0 3,3 3,3 0 0 0 3,-3 l 0,-10 -6,0 z"
       id="path3708"
       inkscape:connector-curvature="0" />
    <path
       style="opacity:1;fill:#a4c639;fill-opacity:1;fill-rule:nonzero;stroke:none;stroke-width:0.5;stroke-linejoin:round;stroke-miterlimit:4;stroke-dasharray:none;stroke-opacity:1"
       d="m 625.42332,459.34352 0,10 a 3,3 0 0 0 3,3 3,3 0 0 0 3,-3 l 0,-10 -6,0 z"
       id="path3710"
       inkscape:connector-curvature="0" />
    <path
       style="opacity:1;fill:#a4c639;fill-opacity:1;fill-rule:nonzero;stroke:none;stroke-width:0.5;stroke-linejoin:round;stroke-miterlimit:4;stroke-dasharray:none;stroke-opacity:1"
       d="M 7 16 A 3 3 0 0 0 4 19 L 4 30 A 3 3 0 0 0 7 33 A 3 3 0 0 0 10 30 L 10 19 A 3 3 0 0 0 7 16 z "
       transform="translate(599.42332,424.34352)"
       id="path3716" />
    <path
       inkscape:connector-curvature="0"
       style="opacity:1;fill:#a4c639;fill-opacity:1;fill-rule:nonzero;stroke:none;stroke-width:0.5;stroke-linejoin:round;stroke-miterlimit:4;stroke-dasharray:none;stroke-opacity:1"
       d="m 640.42332,440.34352 a 3,3 0 0 0 -3,3 l 0,11 a 3,3 0 0 0 3,3 3,3 0 0 0 3,-3 l 0,-11 a 3,3 0 0 0 -3,-3 z"
       id="path3716-0" />
    <circle
       style="opacity:1;fill:#f9f9f9;fill-opacity:1;fill-rule:nonzero;stroke:none;stroke-width:0.5;stroke-linejoin:round;stroke-miterlimit:4;stroke-dasharray:none;stroke-opacity:1"
       id="path4583"
       cx="629.42334"
       cy="434.34351"
       r="1" />
    <circle
       style="opacity:1;fill:#f9f9f9;fill-opacity:1;fill-rule:nonzero;stroke:none;stroke-width:0.5;stroke-linejoin:round;stroke-miterlimit:4;stroke-dasharray:none;stroke-opacity:1"
       id="path4585"
       cx="617.42334"
       cy="434.34351"
       r="1" />
  </g>
</svg>
