<?xml version="1.0" encoding="UTF-8" standalone="no"?>
<svg
   xmlns:dc="http://purl.org/dc/elements/1.1/"
   xmlns:cc="http://creativecommons.org/ns#"
   xmlns:rdf="http://www.w3.org/1999/02/22-rdf-syntax-ns#"
   xmlns:svg="http://www.w3.org/2000/svg"
   xmlns="http://www.w3.org/2000/svg"
   xmlns:xlink="http://www.w3.org/1999/xlink"
   xmlns:sodipodi="http://sodipodi.sourceforge.net/DTD/sodipodi-0.dtd"
   xmlns:inkscape="http://www.inkscape.org/namespaces/inkscape"
   width="14"
   viewBox="0 0 3.9511112 3.9511112"
   height="14"
   id="svg2"
   version="1.1"
   inkscape:version="0.91 r13725"
   sodipodi:docname="deepin.svg">
  <metadata
     id="metadata23">
    <rdf:RDF>
      <cc:Work
         rdf:about="">
        <dc:format>image/svg+xml</dc:format>
        <dc:type
           rdf:resource="http://purl.org/dc/dcmitype/StillImage" />
        <dc:title></dc:title>
      </cc:Work>
    </rdf:RDF>
  </metadata>
  <sodipodi:namedview
     pagecolor="#ffffff"
     bordercolor="#666666"
     borderopacity="1"
     objecttolerance="10"
     gridtolerance="10"
     guidetolerance="10"
     inkscape:pageopacity="0"
     inkscape:pageshadow="2"
     inkscape:window-width="1580"
     inkscape:window-height="840"
     id="namedview21"
     showgrid="true"
     inkscape:zoom="13.906433"
     inkscape:cx="-1.7006108"
     inkscape:cy="8.3291513"
     inkscape:window-x="10"
     inkscape:window-y="50"
     inkscape:window-maximized="0"
     inkscape:current-layer="svg2">
    <inkscape:grid
       type="xygrid"
       id="grid3776" />
  </sodipodi:namedview>
  <defs
     id="defs4">
    <linearGradient
       id="0">
      <stop
         stop-color="#0091f3"
         id="stop7" />
      <stop
         offset="1"
         stop-color="#00d4ff"
         id="stop9" />
    </linearGradient>
    <linearGradient
       xlink:href="#0"
       id="1"
       gradientUnits="userSpaceOnUse"
       gradientTransform="matrix(1.10525,0,0,1.10525,-147.88281,-299.55061)"
       y1="279.10001"
       x2="0"
       y2="268.32999" />
    <linearGradient
       xlink:href="#0"
       id="2"
       x1="6.803"
       y1="12.76"
       x2="6.7950001"
       y2="0.76599997"
       gradientUnits="userSpaceOnUse"
       gradientTransform="translate(-13.403164,2.0664407)" />
    <linearGradient
       inkscape:collect="always"
       xlink:href="#0"
       id="linearGradient3774"
       x1="6.7733335"
       y1="13.546667"
       x2="6.7733335"
       y2="2.54"
       gradientUnits="userSpaceOnUse"
       gradientTransform="matrix(0.29166645,0,0,0.29166645,0,3.0885215e-6)" />
  </defs>
  <path
     d="M 1.8344471,9.1248852e-4 C 1.5938968,0.00695869 1.6096549,0.04981539 1.5081269,0.25656969 1.3441931,0.59042039 1.2288632,1.0734964 1.2523632,1.3585404 c 0.02514,0.304932 0.1069319,0.503281 0.2645838,0.652366 0.1901657,0.179832 0.420919,0.157094 0.6173608,-0.05289 0.1756628,-0.187779 0.2405032,-0.383992 0.2557643,-0.811051 0.0096,-0.26990301 0.015149,-0.30192601 0.03528,-0.25565701 0.07782,0.17888601 0.09885,0.60123801 0.0441,0.81105001 -0.04507,0.172731 -0.1568655,0.384207 -0.2469456,0.467236 -0.1192577,0.109916 -0.2475734,0.159103 -0.4233323,0.167499 -0.1183504,0.0057 -0.1652644,0.0038 -0.2557643,-0.02645 C 1.3096271,2.2325814 1.0208919,2.0096784 0.85548811,1.7905124 0.62069081,1.4793994 0.386131,0.84767839 0.32632109,0.34472729 0.3147421,0.24738529 0.29844407,0.15934679 0.2910442,0.15078059 0.24876421,0.10208329 0.08703032,0.30408909 0.03527997,0.46814839 0.00219975,0.57292339 0,0.62313239 0,1.5524874 l 0,0.978549 0.04409994,0.02645 c 0.06232101,0.04083 0.33407702,0.122523 0.55562484,0.167499 0.16873744,0.03425 0.23616836,0.04445 0.63500042,0.04408 0.3985627,-3.7e-4 0.4728865,-0.01044 0.6261809,-0.04408 0.2495737,-0.05472 0.4361387,-0.144273 0.5909031,-0.299736 0.2180305,-0.219017 0.2994084,-0.440285 0.2998608,-0.784603 3.208e-4,-0.228276 -0.03219,-0.410998 -0.1234721,-0.590657 -0.03349,-0.06592 -0.06554,-0.11960201 -0.06174,-0.12342001 0.020469,-0.02047 0.2478158,0.25144901 0.2998617,0.36144601 0.3266663,0.690387 0.1711171,1.253677 -0.5027084,1.816047 -0.2981036,0.248795 -0.8147114,0.590843 -1.1112501,0.740525 -0.1034104,0.05218 -0.1225344,0.07145 -0.097011,0.09697 0.0067,0.0066 0.521764,0.01151 1.1465274,0.0088 l 1.1377079,-0.0088 0.09701,-0.04408 c 0.1961567,-0.09403 0.3203057,-0.232379 0.3792355,-0.423156 0.033781,-0.10937 0.03528,-0.158696 0.03528,-1.49868 0,-1.40777601 -0.00239,-1.52882101 -0.06174,-1.55157501 -0.01365,-0.0052 -0.146376,0.01004 -0.2910417,0.03526 -0.1604396,0.02796 -0.3865295,0.05156 -0.5820825,0.06171 -0.3410832,0.01771 -0.5134738,0.04991 -0.7143754,0.132237 -0.1863086,0.07634 -0.2952116,0.137588 -0.3968745,0.220394 -0.0909,0.07404 -0.1032718,0.08394 -0.1322918,0.20276201 -0.04,0.163804 -0.0655,0.236741 -0.1322909,0.326183 -0.04876,0.0653 -0.09772,0.0969 -0.09701,0.06171 0.0012,-0.06296 0.05952,-0.260984 0.1146529,-0.370262 0.1639029,-0.32490601 0.3775006,-0.55783701 0.7937497,-0.87276021 0.1282968,-0.097067 0.2381247,-0.1810234 0.2381247,-0.1939469 0,-0.019239 -0.09337,-0.0264470015 -0.5115278,-0.0264470015 -0.1496258,0 -0.2637679,-0.002029999 -0.3439578,0 z M 2.1784048,0.82959439 c 0.02665,0 0.02763,0.02712 -0.0088,0.29092001 -0.03853,0.278824 -0.1383312,0.501137 -0.2645832,0.634735 -0.08931,0.0945 -0.1853343,0.119848 -0.2557642,0.07053 -0.03927,-0.02751 -0.08819,-0.121853 -0.08819,-0.167499 0,-0.02263 0.0085,-0.02316 0.03528,-0.0088 0.05341,0.02858 0.07568,0.02218 0.1411108,-0.03526 0.1096066,-0.09622 0.2237825,-0.37191 0.2822222,-0.68762901 0.0064,-0.03473 0.1080899,-0.09697 0.15875,-0.09697 z"
     id="path19"
     inkscape:connector-curvature="0"
     style="fill:url(#linearGradient3774);fill-opacity:1"
     inkscape:export-filename="/home/josh/Code/unixporn/resources/Flairs/deepin.png"
     inkscape:export-xdpi="89.999954"
     inkscape:export-ydpi="89.999954" />
</svg>
