<?xml version="1.0" encoding="UTF-8" standalone="no"?>
<svg
   xmlns:dc="http://purl.org/dc/elements/1.1/"
   xmlns:cc="http://creativecommons.org/ns#"
   xmlns:rdf="http://www.w3.org/1999/02/22-rdf-syntax-ns#"
   xmlns:svg="http://www.w3.org/2000/svg"
   xmlns="http://www.w3.org/2000/svg"
   xmlns:xlink="http://www.w3.org/1999/xlink"
   xmlns:sodipodi="http://sodipodi.sourceforge.net/DTD/sodipodi-0.dtd"
   xmlns:inkscape="http://www.inkscape.org/namespaces/inkscape"
   width="48"
   viewBox="0 0 13.546667 13.546667"
   height="48"
   id="svg2"
   version="1.1"
   inkscape:version="0.91 r13725"
   sodipodi:docname="elementary.svg"
   inkscape:export-filename="/home/josh/Code/unixporn/resources/Flairs/ubuntu-gnome.png"
   inkscape:export-xdpi="33.75"
   inkscape:export-ydpi="33.75">
  <metadata
     id="metadata203">
    <rdf:RDF>
      <cc:Work
         rdf:about="">
        <dc:format>image/svg+xml</dc:format>
        <dc:type
           rdf:resource="http://purl.org/dc/dcmitype/StillImage" />
      </cc:Work>
    </rdf:RDF>
  </metadata>
  <sodipodi:namedview
     pagecolor="#ffffff"
     bordercolor="#666666"
     borderopacity="1"
     objecttolerance="10"
     gridtolerance="10"
     guidetolerance="10"
     inkscape:pageopacity="0"
     inkscape:pageshadow="2"
     inkscape:window-width="1260"
     inkscape:window-height="962"
     id="namedview201"
     showgrid="true"
     inkscape:zoom="4.0000002"
     inkscape:cx="12.458437"
     inkscape:cy="6.497482"
     inkscape:window-x="10"
     inkscape:window-y="52"
     inkscape:window-maximized="0"
     inkscape:current-layer="svg2"
     inkscape:object-nodes="true"
     inkscape:snap-smooth-nodes="true">
    <inkscape:grid
       type="xygrid"
       id="grid7283" />
  </sodipodi:namedview>
  <defs
     id="defs4">
    <clipPath
       id="clipPath6">
      <rect
         height="208.57"
         y="1580.93"
         x="-830"
         width="477.14"
         fill="#ff0"
         id="rect8" />
    </clipPath>
    <clipPath
       id="clipPath10">
      <rect
         height="208.57"
         y="1580.93"
         x="-830"
         width="477.14"
         fill="#ff0"
         id="rect12" />
    </clipPath>
    <clipPath
       id="clipPath14">
      <rect
         height="208.57"
         y="1580.93"
         x="-830"
         width="477.14"
         fill="#ff0"
         id="rect16" />
    </clipPath>
    <clipPath
       id="clipPath18">
      <rect
         height="208.57"
         y="1580.93"
         x="-830"
         width="477.14"
         fill="#ff0"
         id="rect20" />
    </clipPath>
    <clipPath
       id="clipPath22">
      <rect
         transform="matrix(.99975 -.02255 .02255 .99975 0 0)"
         height="240.87"
         y="780.64"
         x="294.93"
         width="357.87"
         fill="#f00"
         id="rect24" />
    </clipPath>
    <clipPath
       id="clipPath26">
      <rect
         height="195"
         y="857.54"
         width="301.43"
         fill="#fff"
         id="rect28" />
    </clipPath>
    <clipPath
       id="clipPath30">
      <rect
         height="208.57"
         y="1580.93"
         x="-830"
         width="477.14"
         fill="#ff0"
         id="rect32" />
    </clipPath>
    <clipPath
       id="clipPath34">
      <rect
         height="30.01"
         y="977.09"
         x="276.37"
         width="79.48"
         fill="#e20a17"
         id="rect36" />
    </clipPath>
    <clipPath
       id="clipPath38">
      <rect
         transform="rotate(20.37582)"
         height="37.48"
         y="0.064"
         x="8.208"
         width="506.46"
         fill="#162d50"
         id="rect40" />
    </clipPath>
    <clipPath
       id="clipPath42">
      <rect
         transform="rotate(.22918)"
         height="318.4"
         y="758.67"
         x="218.9"
         width="357.38"
         fill="#fff"
         id="rect44" />
    </clipPath>
    <clipPath
       id="clipPath46">
      <rect
         transform="rotate(.22918)"
         height="318.4"
         y="758.67"
         x="218.9"
         width="357.38"
         fill="#fff"
         id="rect48" />
    </clipPath>
    <clipPath
       id="clipPath50">
      <rect
         transform="rotate(20.37582)"
         height="37.48"
         y="0.064"
         x="8.208"
         width="506.46"
         fill="#162d50"
         id="rect52" />
    </clipPath>
    <clipPath
       id="clipPath54">
      <rect
         height="208.57"
         y="1580.93"
         x="-830"
         width="477.14"
         fill="#ff0"
         id="rect56" />
    </clipPath>
    <clipPath
       id="clipPath58">
      <rect
         transform="rotate(.6171)"
         height="235.88"
         y="804.24"
         x="221.39"
         width="350.46"
         id="rect60" />
    </clipPath>
    <clipPath
       id="clipPath62">
      <rect
         transform="rotate(.16206)"
         height="279.03"
         y="793.52"
         x="257.32"
         width="287.43"
         fill="#fff"
         id="rect64" />
    </clipPath>
    <clipPath
       id="clipPath66">
      <rect
         height="195"
         y="0.06"
         width="301.43"
         fill="#fff"
         id="rect68" />
    </clipPath>
    <clipPath
       id="clipPath70">
      <rect
         height="195"
         y="857.54"
         width="301.43"
         fill="#fff"
         id="rect72" />
    </clipPath>
    <path
       clip-path="url(#2)"
       id="0"
       d="m 699.2857,672.93231 a 40.714287,40.714287 0 1 1 -81.42858,0 40.714287,40.714287 0 1 1 81.42858,0 z"
       fill="#4a0" />
    <clipPath
       id="clipPath75">
      <use
         xlink:href="#0"
         transform="matrix(4.3233 0 0 4.3233 -2450.68 -2667.55)"
         id="use77" />
    </clipPath>
    <clipPath
       id="clipPath79">
      <rect
         transform="rotate(27.44968)"
         height="41.39"
         y="815.74"
         x="448.12"
         width="63.987"
         fill="#fff"
         id="rect81" />
    </clipPath>
    <clipPath
       id="clipPath83">
      <rect
         height="195"
         y="857.54"
         width="301.43"
         fill="#fff"
         id="rect85" />
    </clipPath>
    <clipPath
       id="clipPath87">
      <rect
         height="208.57"
         y="1580.93"
         x="-830"
         width="477.14"
         fill="#ff0"
         id="rect89" />
    </clipPath>
    <clipPath
       id="clipPath91">
      <rect
         height="208.57"
         y="1580.93"
         x="-830"
         width="477.14"
         fill="#ff0"
         id="rect93" />
    </clipPath>
    <clipPath
       id="clipPath95">
      <rect
         height="208.57"
         y="1580.93"
         x="-830"
         width="477.14"
         fill="#ff0"
         id="rect97" />
    </clipPath>
    <clipPath
       id="clipPath99">
      <rect
         height="208.57"
         y="1580.93"
         x="-830"
         width="477.14"
         fill="#ff0"
         id="rect101" />
    </clipPath>
    <clipPath
       id="clipPath103">
      <rect
         height="208.57"
         y="1580.93"
         x="-830"
         width="477.14"
         fill="#ff0"
         id="rect105" />
    </clipPath>
    <clipPath
       id="clipPath107">
      <use
         xlink:href="#0"
         id="use109" />
    </clipPath>
    <clipPath
       id="clipPath111">
      <rect
         height="208.57"
         y="1580.93"
         x="-830"
         width="477.14"
         fill="#ff0"
         id="rect113" />
    </clipPath>
    <path
       id="1"
       d="m 699.2857,672.93231 a 40.714287,40.714287 0 1 1 -81.42858,0 40.714287,40.714287 0 1 1 81.42858,0 z"
       fill="#4a0" />
    <clipPath
       id="2">
      <use
         xlink:href="#1"
         id="use117" />
    </clipPath>
    <clipPath
       id="clipPath119">
      <use
         transform="matrix(4.3233 0 0 4.3233 -2450.68 -2667.55)"
         xlink:href="#1"
         id="use121" />
    </clipPath>
    <linearGradient
       gradientUnits="userSpaceOnUse"
       x2="0"
       y2="40"
       y1="280"
       xlink:href="#4"
       id="3"
       gradientTransform="matrix(.175 0 0 .175 302.79999 215.99997)" />
    <linearGradient
       id="4">
      <stop
         stop-color="#151515"
         id="stop125" />
      <stop
         stop-color="#222"
         offset="1"
         id="stop127" />
    </linearGradient>
    <linearGradient
       gradientUnits="userSpaceOnUse"
       x2="0"
       y2="90"
       y1="230"
       xlink:href="#4"
       id="5"
       gradientTransform="matrix(.375 0 0 .375 298 16)" />
    <linearGradient
       gradientUnits="userSpaceOnUse"
       x2="0"
       y2="90"
       y1="230"
       xlink:href="#4"
       id="6"
       gradientTransform="matrix(.25 0 0 .25 299.99999 131.99999)" />
    <clipPath
       id="clipPath131">
      <rect
         color="#bebebe"
         height="20"
         rx="4"
         y="78"
         x="434"
         width="20"
         id="rect133" />
    </clipPath>
    <clipPath
       id="clipPath135">
      <rect
         color="#bebebe"
         height="22"
         rx="4"
         y="77"
         x="433"
         width="22"
         id="rect137" />
    </clipPath>
    <clipPath
       id="clipPath139">
      <rect
         color="#bebebe"
         height="22"
         rx="5"
         y="77"
         x="433"
         width="22"
         id="rect141" />
    </clipPath>
    <clipPath
       id="clipPath143">
      <rect
         color="#bebebe"
         height="30"
         rx="6"
         y="29"
         x="433"
         width="30"
         id="rect145" />
    </clipPath>
    <clipPath
       id="clipPath147">
      <rect
         color="#bebebe"
         fill="url(#6)"
         transform="matrix(0 -1 1 0 0 0)"
         height="60"
         rx="12.5"
         y="142"
         x="306"
         width="60"
         id="rect149" />
    </clipPath>
    <clipPath
       id="clipPath151">
      <rect
         color="#bebebe"
         fill="url(#5)"
         height="90"
         rx="18.75"
         y="31"
         x="307"
         width="90"
         id="rect153" />
    </clipPath>
    <clipPath
       id="clipPath155">
      <rect
         color="#bebebe"
         fill="#6d6d6d"
         opacity="0.2"
         height="30"
         rx="4"
         y="29"
         x="433"
         width="30"
         id="rect157" />
    </clipPath>
    <clipPath
       id="clipPath159">
      <rect
         color="#bebebe"
         fill="#6d6d6d"
         opacity="0.2"
         height="22"
         rx="3"
         y="77"
         x="433"
         width="22"
         id="rect161" />
    </clipPath>
    <clipPath
       id="clipPath163">
      <path
         d="m 144,70 c -49.705627,0 -90,40.29437 -90,90 0,49.70563 40.294373,90 90,90 49.70563,0 90,-40.29437 90,-90 0,-49.70563 -40.29437,-90 -90,-90 z m 0,32.1875 c 32.03251,0 58,25.96748 58,58 0,32.03252 -25.96749,58 -58,58 -32.03251,0 -58,-25.96748 -58,-58 0,-32.03252 25.96749,-58 58,-58 z"
         id="path165" />
    </clipPath>
    <clipPath
       id="clipPath167">
      <rect
         color="#bebebe"
         height="16"
         rx="3"
         y="116"
         x="432"
         width="16"
         id="rect169" />
    </clipPath>
    <clipPath
       id="clipPath171">
      <path
         d="m 145,215 c 33.13708,0 60,-26.86292 60,-60 0,-33.13708 -26.86292,-60 -60,-60 -33.13708,0 -60,26.86292 -60,60 0,12.50698 3.8285,24.10633 10.375,33.71875 L 89,211 111.28125,204.625 C 120.89367,211.1715 132.49302,215 145,215 z"
         id="path173" />
    </clipPath>
    <clipPath
       id="clipPath175">
      <path
         d="m 152,204 a 8,8 0 1 1 -16,0 8,8 0 1 1 16,0 z"
         id="path177" />
    </clipPath>
    <clipPath
       id="clipPath179">
      <path
         d="m 98.03125,23.191212 c -41.492132,1.05238 -74.84375,35.06824 -74.84375,76.812498 0,42.40687 34.405632,76.8125 76.8125,76.8125 42.40687,0 76.8125,-34.40563 76.8125,-76.8125 0,-42.406866 -34.40563,-76.812498 -76.8125,-76.812498 -0.662607,0 -1.310145,-0.0167 -1.96875,0 z M 100,50.659962 c 27.24464,0 49.34375,22.099114 49.34375,49.343748 -1e-5,27.24464 -22.09911,49.34375 -49.34375,49.34375 -27.244636,-1e-5 -49.34375,-22.09911 -49.34375,-49.34375 0,-27.244634 22.099114,-49.343748 49.34375,-49.343748 z"
         id="path181" />
    </clipPath>
    <clipPath
       id="clipPath183">
      <rect
         color="#bebebe"
         fill="#6d6d6d"
         opacity="0.2"
         height="16"
         rx="2"
         y="116"
         x="432"
         width="16"
         id="rect185" />
    </clipPath>
    <clipPath
       id="clipPath187">
      <rect
         color="#bebebe"
         fill="#986767"
         height="240"
         rx="50"
         y="36"
         x="24"
         width="240"
         id="rect189" />
    </clipPath>
    <clipPath
       id="clipPath191">
      <rect
         color="#bebebe"
         fill="url(#3)"
         transform="rotate(90)"
         height="42"
         rx="9"
         y="223"
         x="307"
         width="42"
         id="rect193" />
    </clipPath>
    <linearGradient
       gradientTransform="matrix(1.10526,0,0,1.10526,-134.28026,-295.76492)"
       xlink:href="#0-3"
       id="1-5"
       y1="279.1"
       y2="268.33"
       gradientUnits="userSpaceOnUse"
       x2="0" />
    <linearGradient
       id="0-3">
      <stop
         stop-color="#dcdcdc"
         id="stop5956" />
      <stop
         offset="1"
         stop-color="#f9f9f9"
         id="stop5958" />
    </linearGradient>
    <linearGradient
       inkscape:collect="always"
       xlink:href="#linearGradient7336"
       id="linearGradient63059"
       gradientUnits="userSpaceOnUse"
       gradientTransform="matrix(-0.511281,0,0,0.42455,1578.612,-1.981893e-7)"
       x1="601.20001"
       y1="382.5"
       x2="990"
       y2="382.5" />
    <linearGradient
       inkscape:collect="always"
       xlink:href="#linearGradient8221"
       id="linearGradient63057"
       gradientUnits="userSpaceOnUse"
       gradientTransform="matrix(-0.501192,0,0,0.42455,1568.625,-1.981893e-7)"
       x1="380.92273"
       y1="360"
       x2="990"
       y2="360" />
    <linearGradient
       id="linearGradient7336">
      <stop
         style="stop-color:#ffffff;stop-opacity:1;"
         offset="0"
         id="stop7338" />
      <stop
         style="stop-color:#6fc1ff;stop-opacity:0;"
         offset="1"
         id="stop7340" />
    </linearGradient>
    <linearGradient
       id="linearGradient8221">
      <stop
         style="stop-color:#6fc1ff;stop-opacity:1;"
         offset="0"
         id="stop8223" />
      <stop
         style="stop-color:#6fc1ff;stop-opacity:0;"
         offset="1"
         id="stop8225" />
    </linearGradient>
    <linearGradient
       id="linearGradient57798">
      <stop
         style="stop-color:#ababab;stop-opacity:1;"
         offset="0"
         id="stop57800" />
      <stop
         style="stop-color:#000000;stop-opacity:0;"
         offset="1"
         id="stop57802" />
    </linearGradient>
    <linearGradient
       id="linearGradient57806">
      <stop
         id="stop57808"
         offset="0"
         style="stop-color:#ffffff;stop-opacity:1;" />
      <stop
         id="stop57810"
         offset="1"
         style="stop-color:#96bcd8;stop-opacity:0" />
    </linearGradient>
    <linearGradient
       id="linearGradient58210">
      <stop
         style="stop-color:#30a5ff;stop-opacity:1;"
         offset="0"
         id="stop58212" />
      <stop
         style="stop-color:#a6d9ff;stop-opacity:1;"
         offset="1"
         id="stop58214" />
    </linearGradient>
    <linearGradient
       id="linearGradient22774">
      <stop
         style="stop-color:#dd9144;stop-opacity:1;"
         offset="0"
         id="stop22776" />
      <stop
         id="stop22784"
         offset="0"
         style="stop-color:#b06f2e;stop-opacity:1;" />
      <stop
         id="stop22782"
         offset="1"
         style="stop-color:#633406;stop-opacity:1;" />
    </linearGradient>
    <linearGradient
       id="linearGradient22786">
      <stop
         style="stop-color:#737373;stop-opacity:1;"
         offset="0"
         id="stop22788" />
      <stop
         style="stop-color:#cdcdcd;stop-opacity:1;"
         offset="1"
         id="stop22790" />
    </linearGradient>
    <linearGradient
       id="linearGradient24542">
      <stop
         style="stop-color:#7c7c7c;stop-opacity:1;"
         offset="0"
         id="stop24544" />
      <stop
         style="stop-color:#323232;stop-opacity:1;"
         offset="1"
         id="stop24546" />
    </linearGradient>
    <linearGradient
       id="linearGradient30914">
      <stop
         style="stop-color:#545f00;stop-opacity:1;"
         offset="0"
         id="stop30916" />
      <stop
         style="stop-color:#000000;stop-opacity:1;"
         offset="1"
         id="stop30918" />
    </linearGradient>
    <linearGradient
       id="linearGradient30922">
      <stop
         style="stop-color:#323232;stop-opacity:1;"
         offset="0"
         id="stop30924" />
      <stop
         style="stop-color:#ffffff;stop-opacity:1;"
         offset="1"
         id="stop30926" />
    </linearGradient>
    <linearGradient
       id="linearGradient30930">
      <stop
         style="stop-color:#7c7c7c;stop-opacity:1;"
         offset="0"
         id="stop30932" />
      <stop
         style="stop-color:#ffffff;stop-opacity:1;"
         offset="1"
         id="stop30934" />
    </linearGradient>
    <linearGradient
       id="linearGradient30944">
      <stop
         style="stop-color:#ffffff;stop-opacity:1;"
         offset="0"
         id="stop30946" />
      <stop
         style="stop-color:#7e7e7e;stop-opacity:1;"
         offset="1"
         id="stop30948" />
    </linearGradient>
    <linearGradient
       id="linearGradient6016">
      <stop
         style="stop-color:#265ba7;stop-opacity:1;"
         offset="0"
         id="stop6018" />
      <stop
         style="stop-color:#1c4177;stop-opacity:1;"
         offset="1"
         id="stop6020" />
    </linearGradient>
    <inkscape:perspective
       id="perspective2861"
       inkscape:persp3d-origin="0.5 : 0.33333333 : 1"
       inkscape:vp_z="1 : 0.5 : 1"
       inkscape:vp_y="0 : 1000 : 0"
       inkscape:vp_x="0 : 0.5 : 1"
       sodipodi:type="inkscape:persp3d" />
    <inkscape:perspective
       id="perspective3415"
       inkscape:persp3d-origin="0.5 : 0.33333333 : 1"
       inkscape:vp_z="1 : 0.5 : 1"
       inkscape:vp_y="0 : 1000 : 0"
       inkscape:vp_x="0 : 0.5 : 1"
       sodipodi:type="inkscape:persp3d" />
    <inkscape:perspective
       id="perspective3135"
       inkscape:persp3d-origin="0.5 : 0.33333333 : 1"
       inkscape:vp_z="1 : 0.5 : 1"
       inkscape:vp_y="0 : 1000 : 0"
       inkscape:vp_x="0 : 0.5 : 1"
       sodipodi:type="inkscape:persp3d" />
    <inkscape:perspective
       sodipodi:type="inkscape:persp3d"
       inkscape:vp_x="0 : 85.039497 : 1"
       inkscape:vp_y="0 : 1000 : 0"
       inkscape:vp_z="779.617 : 85.039497 : 1"
       inkscape:persp3d-origin="389.8085 : 56.692998 : 1"
       id="perspective29" />
    <inkscape:perspective
       id="perspective29-6"
       inkscape:persp3d-origin="389.8085 : 56.692998 : 1"
       inkscape:vp_z="779.617 : 85.039497 : 1"
       inkscape:vp_y="0 : 1000 : 0"
       inkscape:vp_x="0 : 85.039497 : 1"
       sodipodi:type="inkscape:persp3d" />
    <inkscape:perspective
       sodipodi:type="inkscape:persp3d"
       inkscape:vp_x="0 : 0.5 : 1"
       inkscape:vp_y="0 : 1000 : 0"
       inkscape:vp_z="1 : 0.5 : 1"
       inkscape:persp3d-origin="0.5 : 0.33333333 : 1"
       id="perspective3135-3" />
    <inkscape:perspective
       sodipodi:type="inkscape:persp3d"
       inkscape:vp_x="0 : 0.5 : 1"
       inkscape:vp_y="0 : 1000 : 0"
       inkscape:vp_z="1 : 0.5 : 1"
       inkscape:persp3d-origin="0.5 : 0.33333333 : 1"
       id="perspective3415-6" />
    <inkscape:perspective
       sodipodi:type="inkscape:persp3d"
       inkscape:vp_x="0 : 0.5 : 1"
       inkscape:vp_y="0 : 1000 : 0"
       inkscape:vp_z="1 : 0.5 : 1"
       inkscape:persp3d-origin="0.5 : 0.33333333 : 1"
       id="perspective2861-4" />
    <clipPath
       id="clipPath3743"
       clipPathUnits="userSpaceOnUse">
      <rect
         y="820.19275"
         x="-87.687256"
         height="395.27271"
         width="456.79099"
         id="rect3745"
         style="color:#000000;fill:#ffffff;fill-opacity:1;fill-rule:nonzero;stroke:none;stroke-width:1;marker:none;visibility:visible;display:inline;overflow:visible;enable-background:accumulate" />
    </clipPath>
    <inkscape:perspective
       id="perspective2861-4-7"
       inkscape:persp3d-origin="0.5 : 0.33333333 : 1"
       inkscape:vp_z="1 : 0.5 : 1"
       inkscape:vp_y="0 : 1000 : 0"
       inkscape:vp_x="0 : 0.5 : 1"
       sodipodi:type="inkscape:persp3d" />
    <inkscape:perspective
       id="perspective3415-6-9"
       inkscape:persp3d-origin="0.5 : 0.33333333 : 1"
       inkscape:vp_z="1 : 0.5 : 1"
       inkscape:vp_y="0 : 1000 : 0"
       inkscape:vp_x="0 : 0.5 : 1"
       sodipodi:type="inkscape:persp3d" />
    <inkscape:perspective
       id="perspective3135-3-4"
       inkscape:persp3d-origin="0.5 : 0.33333333 : 1"
       inkscape:vp_z="1 : 0.5 : 1"
       inkscape:vp_y="0 : 1000 : 0"
       inkscape:vp_x="0 : 0.5 : 1"
       sodipodi:type="inkscape:persp3d" />
    <inkscape:perspective
       sodipodi:type="inkscape:persp3d"
       inkscape:vp_x="0 : 85.039497 : 1"
       inkscape:vp_y="0 : 1000 : 0"
       inkscape:vp_z="779.617 : 85.039497 : 1"
       inkscape:persp3d-origin="389.8085 : 56.692998 : 1"
       id="perspective29-6-1" />
    <inkscape:perspective
       id="perspective29-69"
       inkscape:persp3d-origin="389.8085 : 56.692998 : 1"
       inkscape:vp_z="779.617 : 85.039497 : 1"
       inkscape:vp_y="0 : 1000 : 0"
       inkscape:vp_x="0 : 85.039497 : 1"
       sodipodi:type="inkscape:persp3d" />
    <inkscape:perspective
       sodipodi:type="inkscape:persp3d"
       inkscape:vp_x="0 : 0.5 : 1"
       inkscape:vp_y="0 : 1000 : 0"
       inkscape:vp_z="1 : 0.5 : 1"
       inkscape:persp3d-origin="0.5 : 0.33333333 : 1"
       id="perspective3135-1" />
    <inkscape:perspective
       sodipodi:type="inkscape:persp3d"
       inkscape:vp_x="0 : 0.5 : 1"
       inkscape:vp_y="0 : 1000 : 0"
       inkscape:vp_z="1 : 0.5 : 1"
       inkscape:persp3d-origin="0.5 : 0.33333333 : 1"
       id="perspective3415-3" />
    <inkscape:perspective
       sodipodi:type="inkscape:persp3d"
       inkscape:vp_x="0 : 0.5 : 1"
       inkscape:vp_y="0 : 1000 : 0"
       inkscape:vp_z="1 : 0.5 : 1"
       inkscape:persp3d-origin="0.5 : 0.33333333 : 1"
       id="perspective2861-9" />
    <inkscape:path-effect
       effect="spiro"
       id="path-effect2991"
       is_visible="true" />
    <inkscape:path-effect
       is_visible="true"
       id="path-effect3177"
       effect="spiro" />
  </defs>
  <path
     style="fill:#353535;fill-opacity:1;stroke:none"
     d="M 6.773334,-1.2e-6 C 3.032525,-1.2e-6 0,3.0325238 0,6.7733328 c 0,3.7408092 3.032525,6.7733342 6.773334,6.7733342 3.740809,0 6.773334,-3.032525 6.773334,-6.7733342 0,-3.740809 -3.032525,-6.773334 -6.773334,-6.773334 z m 0,0.5644445 c 2.8440651,0 5.241519,1.9123043 5.976762,4.5212004 C 12.116831,6.3918209 11.21574,7.5678408 10.118373,8.5181719 9.5912107,8.9746998 9.0156555,9.381674 8.3798842,9.6682275 7.7441131,9.9547811 7.0448108,10.117376 6.3485895,10.07745 5.8255043,10.047453 5.3087805,9.9017416 4.8506949,9.6477664 6.0647046,8.9899368 7.1600832,8.1128517 8.0567397,7.0626106 8.6452866,6.3732539 9.1602206,5.5898205 9.3584898,4.7053493 9.4576246,4.2631135 9.474424,3.7999663 9.3817731,3.3563269 9.2891223,2.9126875 9.0840018,2.4899181 8.7735842,2.1597046 8.4703246,1.8371056 8.0722152,1.6085907 7.6454008,1.4908378 7.2185861,1.373085 6.7643806,1.3639695 6.328834,1.4435656 5.4577408,1.6027579 4.6800135,2.1090235 4.0562393,2.7375546 2.9567466,3.8454318 2.2770283,5.4086686 2.4017113,6.9645384 2.4640527,7.7424732 2.7247497,8.5068938 3.1714725,9.1468219 3.2711875,9.289663 3.380811,9.4257153 3.4981448,9.5546331 2.8473644,9.7823916 2.1735353,9.9445139 1.4901335,10.035822 0.90338642,9.087721 0.5644445,7.9702407 0.5644445,6.7733328 c 0,-3.4290751 2.7798144,-6.2088895 6.2088895,-6.2088895 z m 0.039511,1.2544779 c 0.4364606,5.915e-4 0.8758858,0.1327239 1.224139,0.3958167 0.3137587,0.2370333 0.546245,0.5742532 0.678039,0.944739 0.1317939,0.3704856 0.1656161,0.7728112 0.12065,1.1634612 C 8.7457408,5.1042377 8.3515978,5.8207501 7.8754119,6.4466605 7.0322659,7.5549123 5.9115557,8.4419346 4.6651338,9.0628608 4.5375526,9.1264175 4.4079496,9.1868275 4.2777838,9.2448942 4.006572,9.0075586 3.7741139,8.7260644 3.5969226,8.4123385 3.2266754,7.7567981 3.104578,6.9780812 3.1764114,6.2286439 3.2482449,5.4792067 3.5054329,4.7569074 3.8509226,4.0879881 4.2515025,3.3124057 4.797527,2.577762 5.561895,2.1561768 5.944079,1.9453841 6.3763846,1.8183297 6.8128451,1.8189212 Z m 6.1136399,4.1232671 c 0.03638,0.2718924 0.05574,0.5492964 0.05574,0.8311445 0,3.4290752 -2.779815,6.2088892 -6.20889,6.2088892 -1.9258036,0 -3.6469378,-0.876695 -4.7857838,-2.252839 0.702928,-0.159649 1.3899547,-0.388966 2.0489335,-0.680861 0.2881763,0.219467 0.6064333,0.399468 0.944739,0.529167 0.9742542,0.373505 2.0803582,0.319461 3.0663448,-0.02187 C 9.0335538,10.214484 9.9079018,9.6018279 10.670118,8.8892941 11.578115,8.040482 12.343675,7.0400139 12.926485,5.9421883 Z"
     id="path2993"
     inkscape:connector-curvature="0" />
</svg>
