<?xml version="1.0" encoding="UTF-8" standalone="no"?>
<!-- Created with Inkscape (http://www.inkscape.org/) -->

<svg
   xmlns:dc="http://purl.org/dc/elements/1.1/"
   xmlns:cc="http://creativecommons.org/ns#"
   xmlns:rdf="http://www.w3.org/1999/02/22-rdf-syntax-ns#"
   xmlns:svg="http://www.w3.org/2000/svg"
   xmlns="http://www.w3.org/2000/svg"
   xmlns:sodipodi="http://sodipodi.sourceforge.net/DTD/sodipodi-0.dtd"
   xmlns:inkscape="http://www.inkscape.org/namespaces/inkscape"
   id="svg3189"
   height="14"
   width="14"
   version="1.1"
   inkscape:version="0.91 r13725"
   sodipodi:docname="gnu.svg"
   inkscape:export-filename="/home/josh/Code/unixporn/resources/Flairs/gnu.png"
   inkscape:export-xdpi="90"
   inkscape:export-ydpi="90">
  <defs
     id="defs31" />
  <sodipodi:namedview
     pagecolor="#ffffff"
     bordercolor="#666666"
     borderopacity="1"
     objecttolerance="10"
     gridtolerance="10"
     guidetolerance="10"
     inkscape:pageopacity="0"
     inkscape:pageshadow="2"
     inkscape:window-width="1580"
     inkscape:window-height="840"
     id="namedview29"
     showgrid="false"
     inkscape:zoom="20.569382"
     inkscape:cx="9.1464204"
     inkscape:cy="4.9086611"
     inkscape:window-x="10"
     inkscape:window-y="50"
     inkscape:window-maximized="0"
     inkscape:current-layer="svg3189" />
  <metadata
     id="metadata3194">
    <rdf:RDF>
      <cc:Work
         rdf:about="">
        <dc:format>image/svg+xml</dc:format>
        <dc:type
           rdf:resource="http://purl.org/dc/dcmitype/StillImage" />
        <dc:title></dc:title>
      </cc:Work>
    </rdf:RDF>
  </metadata>
  <g
     transform="matrix(0.05650371,0,0,0.05559558,10.142668,-21.634627)"
     id="g5206">
    <path
       style="fill:none"
       inkscape:connector-curvature="0"
       d="M -49.323,507.53 Z"
       id="path5140" />
    <path
       style="fill:#ffffff"
       inkscape:connector-curvature="0"
       d="m -136.75,423.46 c -6.7402,0.46967 -24.021,10.684 -24.743,15.557 -0.38813,2.6218 5.1279,-2.1143 7.9197,-1.4347 3.3321,0.81129 5.844,3.6775 6.3538,0.82976 1.9039,-10.634 13.526,-15.165 10.469,-14.952 z"
       id="path5142" />
    <path
       style="fill:#ee7000"
       inkscape:connector-curvature="0"
       d="m -123.84,508.4 -5.5587,22.206 -8.3381,19.43 4.7646,4.7586 19.455,-7.5342 11.911,-8.3271 6.3528,8.3271 9.9262,20.223 12.309,22.602 14.294,17.844 17.47,6.7412 14.691,0.79292 11.912,-15.465 3.9705,-5.1549 9.5292,0 2.7793,-3.1722 1.5882,-4.3619 -2.3823,-5.5515 -0.39705,-3.9651 6.7499,-0.79324 1.5882,-5.948 -3.5734,-5.9479 2.7793,-7.5342 5.5587,-3.9654 4.3675,-6.7409 -0.79411,-8.7237 -3.1764,-3.1722 -6.3528,-0.79302 -5.9558,-1.9827 -5.1616,-3.5688 1.5882,-5.5515 1.9852,-13.482 6.7499,6.3444 13.897,9.1203 14.691,0.39651 3.1764,-3.1724 -7.1469,-6.3444 -7.544,-11.103 14.691,-3.9651 13.897,-8.7237 10.323,-15.861 2.3823,-17.051 -5.5587,-20.223 -7.941,-12.292 -15.882,-13.086 -17.073,1.9827 -16.279,4.7586 -8.338,-0.39662 2.3823,3.9654 11.514,1.9824 10.323,0.79313 13.897,5.5515 7.941,15.465 -0.7941,12.689 -2.3823,10.31 -6.3528,8.3271 -8.3381,1.1895 -11.514,-5.9478 -11.514,-13.482 -16.279,-13.482 -14.294,-3.9653 -13.103,4.362 -5.9558,3.1722 -9.5292,-5.9478 -20.647,-2.7759 -11.912,3.5688 -10.72,8.3271 -8.338,10.31 -9.5292,11.499 -9.9262,5.9479 -14.294,-1.1895 -8.3381,-7.5342 0,-13.085 3.5735,-11.896 6.3528,-9.9134 7.941,-7.5339 13.103,-6.3447 13.5,-0.3963 14.691,0.3963 10.323,-3.9651 -11.911,-3.1724 -11.514,-5.1549 -12.309,-3.1723 -13.897,1.9828 -18.661,7.1375 -13.5,9.5166 -9.5292,17.051 -2.3823,17.447 -0.39705,9.9132 2.7794,12.689 5.9558,11.896 10.72,11.499 14.294,3.5688 12.706,-1.5862 z"
       id="path5144" />
    <path
       style="fill:#000000"
       inkscape:connector-curvature="0"
       d="m -119.92,407.13 c -26.77,0.0247 -63.744,17.891 -59.203,61.977 4.8574,47.153 37.278,50.41 49.919,49.853 -2.5982,11.781 -4.7095,22.429 -14.409,32.777 -13.602,14.511 28.992,9.3263 43.257,-6.1064 -1.3214,7.0514 -2.7478,17.163 2.9373,26.027 1.0593,1.6519 1.7237,-4.3925 3.0497,-3.9062 1.2389,0.45409 -0.03953,13.912 6.886,17.937 1.2833,0.74586 2.263,-2.7917 3.0871,-4.1308 2.4453,-3.972 1.0071,16.259 11.202,20.34 1.4852,0.59439 1.778,-2.2772 2.8325,-3.4272 11.318,26.124 59.062,35.674 56.91,6.9744 -1.0277,-6.4998 4.7977,-10.26 9.9357,-7.865 5.1382,2.3946 13.36,-7.8712 6.1668,-16.081 6.6169,-2.5661 14.113,-8.3449 8.7294,-12.318 -7.5484,-5.2597 0.82174,-10.276 5.6573,-15.221 7.9443,-8.1234 2.8371,-23.106 -4.4584,-21.035 -6.0599,1.7197 -10.782,-2.131 -13.185,-4.6589 0.75124,-4.3269 2.6762,-8.7093 2.5376,-14.19 18.42,25.101 44.547,14.22 44.216,9.2708 -0.28992,-4.3446 -8.1861,1.4795 -17.878,-15.318 20.205,-2.2655 26.537,-6.9434 37.241,-32.148 11.505,-27.092 -14.989,-72.698 -42.875,-62.411 -14.63,5.3968 -21.703,6.2467 -31.089,6.4657 -2.4589,0.0569 1.5463,5.57 8.0848,7.0043 9.535,2.0916 22.28,-1.6187 33.179,9.0248 12.529,12.235 5.8079,48.862 -10.662,43.298 -16.471,-5.5637 -20.587,-26.845 -41.901,-35.553 -13.921,-5.6877 -25.049,0.74694 -31.096,5.897 -1.0466,-0.96662 -2.1467,-1.8846 -3.297,-2.754 -17.924,-13.546 -40.561,-8.8789 -58.131,16.935 -14.654,21.529 -31.522,18.271 -36.574,7.7378 -8.0956,-16.879 12.841,-49.109 43.602,-44.997 6.6716,0.82944 24.142,0.47794 24.457,-6.196 0.12899,-2.7321 -6.8203,0.75929 -17.676,-7.588 -4.7402,-3.6449 -12.529,-5.621 -21.453,-5.6127 z m 54.565,62.994 c 17.647,-0.14932 27.788,9.465 34.476,8.9502 5.5372,-0.42627 9.9213,-4.4138 12.527,-5.1661 15.499,-4.4738 29.803,7.5035 35.631,22.475 7.2372,18.593 13.308,24.903 17.496,25.855 2.3673,0.53788 -7.6041,4.2246 -16.477,-6.892 -2.2366,-2.8022 -2.6997,4.8057 -7.1398,-0.56979 -5.9542,-7.209 -6.7951,-16.889 -9.3653,-24.277 -1.5859,-4.5589 -6.1247,-9.5088 -7.1065,-8.2745 -1.3133,1.6509 3.946,10.077 3.0152,14.474 -5.0588,-4.2107 -11.737,-1.0395 -13.556,-1.1527 -1.5996,-0.0999 -2.2467,-2.8392 -2.7114,-2.5486 -0.61263,0.38297 -0.16161,1.8623 -0.49634,4.4406 -0.17744,1.3659 -1.2051,2.3354 -0.83299,3.6908 1.0262,3.7372 9.1833,11.954 11.495,19.822 2.3016,7.8321 9.3537,18.619 18.073,15.73 6.7929,-2.2505 8.9008,11.467 2.7351,16.598 -6.1659,5.1313 -13.488,9.3624 -7.7029,14.877 3.7679,3.592 3.8962,8.9208 -3.7691,8.209 -10.532,-2.151 -21.98,4.7357 -29.455,4.3629 -9.9338,-0.68431 -18.498,-12.225 -20.554,-16.673 -2.0554,-4.447 -2.3999,2.2238 2.053,8.3814 4.4532,6.1576 16.102,16.934 31.516,10.776 15.414,-6.1575 20.55,4.4463 16.44,8.2092 -4.1105,3.7633 -20.554,-0.68399 -27.747,4.7893 -4.8217,3.6689 -6.5038,10.946 -2.4429,16.808 -29.35,-2.9873 -37.389,-27.889 -41.556,-55.982 0.33667,-4.953 -5.5631,3.9402 -6.3167,6.5777 -1.2459,4.3602 -6.445,-20.732 -5.2751,-25.795 2.0067,-8.6864 -2.9807,-3.2687 -5.0804,0.93547 -1.8386,3.6815 -3.248,-5.9579 -1.431,-9.5113 4.7028,-9.1972 5.0519,-11.026 6.6088,-30.876 1.2643,-16.12 9.6865,-14.127 11.479,-16.074 1.0884,-1.1817 0.14723,-2.2102 -4.6232,-1.3695 -5.8232,1.0262 -16.103,5.8155 -16.103,23.946 0,9.0927 -6.1582,19.129 -7.9877,16.852 -2.8713,-3.5736 -5.3046,12.494 -6.7586,13.59 -1.4545,1.0952 -1.5782,-4.8364 -4.5934,-0.91301 -3.6293,4.7228 -4.9872,8.6823 -14.746,12.894 -14.591,6.2967 2.4592,-7.7772 3.4319,-20.699 1.0555,-14.023 5.3758,-42.505 32.707,-48.581 7.5566,-1.6804 16.693,-7.8243 24.143,-7.8877 z m 55.671,28.656 c 2.974,0.28188 6.4476,0.59977 7.8868,3.3951 2.4805,4.8185 0.97134,11.215 -0.34864,20.328 -0.69272,4.7838 -2.6186,0.96126 -4.6584,-6.7608 -2.3345,-8.8374 -8.997,-9.9248 -9.7026,-14.122 -0.4949,-2.945 3.2269,-3.181 6.8229,-2.8403 z"
       id="path5146" />
    <path
       style="fill:#000000"
       inkscape:connector-curvature="0"
       transform="matrix(0.25239811,0,0,0.25206824,249.80375,39.758391)"
       d="m -1172.1,1842.7 c 0,11.243 -9.1142,20.357 -20.357,20.357 -11.2428,0 -20.357,-9.1142 -20.357,-20.357 0,-11.2428 9.1142,-20.357 20.357,-20.357 11.2428,0 20.357,9.1142 20.357,20.357 z"
       id="path5148" />
    <path
       style="fill:#000000"
       inkscape:connector-curvature="0"
       d="m -57.384,512.49 c 1.9132,0.2863 1.3732,-0.45794 0.81357,-1.1334 -6.9752,-8.4187 2.1992,-15.551 12.662,-9.6525 1.4432,0.81365 4.2861,-1.8031 1.3639,-4.2176 -0.4141,-0.34204 -0.52631,-5.7254 -1.361,-6.0333 -0.83443,-0.30788 -0.77017,4.7726 -1.9019,4.6479 -5.3809,-1.3281 -13.572,-0.47106 -16.051,5.36 -1.2864,3.026 -0.8342,8.2116 4.4745,11.029 z"
       id="path5150" />
    <path
       style="fill:#000000"
       inkscape:connector-curvature="0"
       d="m -11.485,544.34 c 0,0 -13.067,-14.719 -25.741,-9.4162 -12.674,5.3026 -5.9736,19.833 -3.7472,19.833 -1.3099,-6.1753 -1.5238,-15.213 7.3648,-17.618 7.7072,-1.8816 16.752,8.3456 19.867,10.947 2.8529,2.3825 5.4686,-1.4842 2.2561,-3.7456 z"
       id="path5152" />
    <path
       style="fill:#000000"
       inkscape:connector-curvature="0"
       d="m -23.307,554.08 c 0.32011,-1.6154 -3.8468,-11.81 -11.143,-9.8504 -9.0979,2.4438 -1.1884,10.865 3.2394,7.846 1.3356,-0.91087 1.6928,-1.5829 2.4414,-1.4017 2.1081,0.51006 2.5548,3.0235 2.6668,4.542 0.17096,2.3201 2.5776,-0.0355 2.7956,-1.1359 z"
       id="path5154" />
    <path
       style="fill:none"
       inkscape:connector-curvature="0"
       d="M -44.36,498.84 Z"
       id="path5156" />
    <path
       style="fill:#000000"
       inkscape:connector-curvature="0"
       transform="matrix(0.25239811,0,0,0.25206824,293.47621,39.758391)"
       d="m -1172.1,1842.7 c 0,11.243 -9.1142,20.357 -20.357,20.357 -11.2428,0 -20.357,-9.1142 -20.357,-20.357 0,-11.2428 9.1142,-20.357 20.357,-20.357 11.2428,0 20.357,9.1142 20.357,20.357 z"
       id="path5158" />
    <path
       style="fill:#ffffff"
       inkscape:connector-curvature="0"
       transform="matrix(0.0966394,0,0,0.0965131,66.495475,324.09923)"
       d="m -1172.1,1842.7 c 0,11.243 -9.1142,20.357 -20.357,20.357 -11.2428,0 -20.357,-9.1142 -20.357,-20.357 0,-11.2428 9.1142,-20.357 20.357,-20.357 11.2428,0 20.357,9.1142 20.357,20.357 z"
       id="path5160" />
    <path
       style="fill:#ffffff"
       inkscape:connector-curvature="0"
       transform="matrix(0.0966394,0,0,-0.0965131,110.23152,679.7923)"
       d="m -1172.1,1842.7 c 0,11.243 -9.1142,20.357 -20.357,20.357 -11.2428,0 -20.357,-9.1142 -20.357,-20.357 0,-11.2428 9.1142,-20.357 20.357,-20.357 11.2428,0 20.357,9.1142 20.357,20.357 z"
       id="path5162" />
    <path
       style="fill:#2e3436"
       inkscape:connector-curvature="0"
       d="m -117.31,412.8 c -2.2184,0.0118 -4.6644,0.19756 -7.3809,0.59879 6.5894,4.2141 -1.1361,4.0193 -3.5516,4.1605 -15.01,0.87939 -26.135,7.3529 -23.851,6.8099 5.1941,-1.2345 13.963,0.52156 7.8379,2.6341 -13.191,4.5498 -24.001,7.811 -27.769,34.393 -2.1383,15.084 8.393,35.042 8.0776,32.245 -1.1919,-10.571 3.2202,-15.873 4.2709,-11.053 2.645,12.133 8.8833,21.113 13.967,22.847 -3.3212,-7.0984 -4.4071,-17.962 0.50952,-12.677 6.2481,6.7166 11.26,9.8876 20.838,9.4812 0,0 12.02,-21.465 30.414,-27.396 13.521,-4.3602 -8.7999,-4.675 4.9229,-7.895 9.1511,-2.147 20.249,-1.6441 16.755,-2.9783 -10.382,-3.9634 -0.065,-5.5598 6.9912,-4.7369 22.641,2.6404 30.246,22.411 43.108,12.213 2.3611,-1.8721 5.5082,-6.1103 8.6546,-6.1439 3.1466,-0.0333 -1.5926,4.158 4.4733,3.3452 9.1389,-1.2249 5.2996,1.5281 6.8186,1.8333 5.647,1.1342 11.172,5.6872 11.172,5.6872 0,0 -22.609,-38.259 -42.306,-25.306 -3.2773,2.1554 -1.8722,3.2726 0.66873,2.0634 3.8774,-1.8455 13.074,-0.24429 6.292,0.7233 -9.2245,1.316 -10.894,7.987 -10.894,7.987 -38.831,-32.448 -60.277,-7.0736 -71.828,8.8525 -7.607,11.371 -24.379,20.769 -35.472,12.647 -9.0322,-6.6128 -4.1198,5.9208 -7.7551,1.085 -8.4416,-11.229 -1.3629,-29.153 3.0646,-35.987 5.851,-9.0308 11.122,-14.696 16.979,-18.229 5.8573,-3.5335 -5.1663,-6.3057 0.27742,-6.8021 5.4434,-0.49674 19.007,-2.3918 32.655,0.40391 2.3048,0.47203 8.6992,0.78562 12.056,-1.0175 -9.9609,-1.4816 -14.466,-9.8652 -29.995,-9.7883 z"
       id="path5164" />
    <path
       style="fill:#2e3436"
       inkscape:connector-curvature="0"
       d="m 16.106,481.37 c 0,0 21.616,13.145 27.097,-12.276 0.82172,-3.8107 4.5018,1.0058 5.8434,3.81 1.2948,2.7056 3.7288,-4.0838 1.519,-9.5062 -1.9573,-4.8029 -5.2461,-13.814 -3.4526,-12.013 4.1096,4.1288 4.5786,2.1468 3.0282,-2.8407 -1.5504,-4.9878 -5.12,-12.981 -17.807,-18.94 -5.9446,-2.7922 -11.394,-4.2436 -17.387,-4.5433 -5.9923,-0.29983 -12.527,0.55206 -14.828,-1.5042 5.0864,0 18.551,-1.4492 24.706,-4.354 15.728,-7.4227 58.032,28.871 32,67.481 -4.1758,6.1936 1.1253,-7.3625 -2.2702,-5.0103 -3.6655,2.5396 -6.6356,11.3 -16.822,13.987 -3.5302,0.9316 2.2386,-2.3291 1.2236,-6.2321 -0.77473,-2.9802 -12.336,3.6042 -22.851,-8.0588 z"
       id="path5166" />
  </g>
</svg>
