<?xml version="1.0" encoding="UTF-8" standalone="no"?>
<svg
   xmlns:dc="http://purl.org/dc/elements/1.1/"
   xmlns:cc="http://creativecommons.org/ns#"
   xmlns:rdf="http://www.w3.org/1999/02/22-rdf-syntax-ns#"
   xmlns:svg="http://www.w3.org/2000/svg"
   xmlns="http://www.w3.org/2000/svg"
   xmlns:xlink="http://www.w3.org/1999/xlink"
   xmlns:sodipodi="http://sodipodi.sourceforge.net/DTD/sodipodi-0.dtd"
   xmlns:inkscape="http://www.inkscape.org/namespaces/inkscape"
   width="48"
   viewBox="0 0 13.546667 13.546667"
   height="48"
   id="svg2"
   version="1.1"
   inkscape:version="0.91 r13725"
   sodipodi:docname="lmde.svg"
   inkscape:export-filename="/home/josh/Code/unixporn/resources/Flairs/lmde.png"
   inkscape:export-xdpi="33.75"
   inkscape:export-ydpi="33.75">
  <metadata
     id="metadata207">
    <rdf:RDF>
      <cc:Work
         rdf:about="">
        <dc:format>image/svg+xml</dc:format>
        <dc:type
           rdf:resource="http://purl.org/dc/dcmitype/StillImage" />
      </cc:Work>
    </rdf:RDF>
  </metadata>
  <sodipodi:namedview
     pagecolor="#ffffff"
     bordercolor="#666666"
     borderopacity="1"
     objecttolerance="10"
     gridtolerance="10"
     guidetolerance="10"
     inkscape:pageopacity="0"
     inkscape:pageshadow="2"
     inkscape:window-width="1260"
     inkscape:window-height="962"
     id="namedview205"
     showgrid="true"
     inkscape:zoom="4.9166666"
     inkscape:cx="-22.771096"
     inkscape:cy="8.5652643"
     inkscape:window-x="10"
     inkscape:window-y="52"
     inkscape:window-maximized="0"
     inkscape:current-layer="svg2">
    <inkscape:grid
       type="xygrid"
       id="grid3184" />
  </sodipodi:namedview>
  <defs
     id="defs4">
    <clipPath
       id="clipPath6">
      <rect
         height="208.57"
         y="1580.93"
         x="-830"
         width="477.14"
         fill="#ff0"
         id="rect8" />
    </clipPath>
    <clipPath
       id="clipPath10">
      <rect
         height="208.57"
         y="1580.93"
         x="-830"
         width="477.14"
         fill="#ff0"
         id="rect12" />
    </clipPath>
    <clipPath
       id="clipPath14">
      <rect
         height="208.57"
         y="1580.93"
         x="-830"
         width="477.14"
         fill="#ff0"
         id="rect16" />
    </clipPath>
    <clipPath
       id="clipPath18">
      <rect
         height="208.57"
         y="1580.93"
         x="-830"
         width="477.14"
         fill="#ff0"
         id="rect20" />
    </clipPath>
    <clipPath
       id="clipPath22">
      <rect
         transform="matrix(.99975 -.02255 .02255 .99975 0 0)"
         height="240.87"
         y="780.64"
         x="294.93"
         width="357.87"
         fill="#f00"
         id="rect24" />
    </clipPath>
    <clipPath
       id="clipPath26">
      <rect
         height="195"
         y="857.54"
         width="301.43"
         fill="#fff"
         id="rect28" />
    </clipPath>
    <clipPath
       id="clipPath30">
      <rect
         height="208.57"
         y="1580.93"
         x="-830"
         width="477.14"
         fill="#ff0"
         id="rect32" />
    </clipPath>
    <clipPath
       id="clipPath34">
      <rect
         height="30.01"
         y="977.09"
         x="276.37"
         width="79.48"
         fill="#e20a17"
         id="rect36" />
    </clipPath>
    <clipPath
       id="clipPath38">
      <rect
         transform="rotate(20.37582)"
         height="37.48"
         y="0.064"
         x="8.208"
         width="506.46"
         fill="#162d50"
         id="rect40" />
    </clipPath>
    <clipPath
       id="clipPath42">
      <rect
         transform="rotate(.22918)"
         height="318.4"
         y="758.67"
         x="218.9"
         width="357.38"
         fill="#fff"
         id="rect44" />
    </clipPath>
    <clipPath
       id="clipPath46">
      <rect
         transform="rotate(.22918)"
         height="318.4"
         y="758.67"
         x="218.9"
         width="357.38"
         fill="#fff"
         id="rect48" />
    </clipPath>
    <clipPath
       id="clipPath50">
      <rect
         transform="rotate(20.37582)"
         height="37.48"
         y="0.064"
         x="8.208"
         width="506.46"
         fill="#162d50"
         id="rect52" />
    </clipPath>
    <clipPath
       id="clipPath54">
      <rect
         height="208.57"
         y="1580.93"
         x="-830"
         width="477.14"
         fill="#ff0"
         id="rect56" />
    </clipPath>
    <clipPath
       id="clipPath58">
      <rect
         transform="rotate(.6171)"
         height="235.88"
         y="804.24"
         x="221.39"
         width="350.46"
         id="rect60" />
    </clipPath>
    <clipPath
       id="clipPath62">
      <rect
         transform="rotate(.16206)"
         height="279.03"
         y="793.52"
         x="257.32"
         width="287.43"
         fill="#fff"
         id="rect64" />
    </clipPath>
    <clipPath
       id="clipPath66">
      <rect
         height="195"
         y="0.06"
         width="301.43"
         fill="#fff"
         id="rect68" />
    </clipPath>
    <clipPath
       id="clipPath70">
      <rect
         height="195"
         y="857.54"
         width="301.43"
         fill="#fff"
         id="rect72" />
    </clipPath>
    <path
       clip-path="url(#2)"
       id="0"
       d="m 699.2857,672.93231 a 40.714287,40.714287 0 1 1 -81.42858,0 40.714287,40.714287 0 1 1 81.42858,0 z"
       fill="#4a0" />
    <clipPath
       id="clipPath75">
      <use
         xlink:href="#0"
         transform="matrix(4.3233 0 0 4.3233 -2450.68 -2667.55)"
         id="use77" />
    </clipPath>
    <clipPath
       id="clipPath79">
      <rect
         transform="rotate(27.44968)"
         height="41.39"
         y="815.74"
         x="448.12"
         width="63.987"
         fill="#fff"
         id="rect81" />
    </clipPath>
    <clipPath
       id="clipPath83">
      <rect
         height="195"
         y="857.54"
         width="301.43"
         fill="#fff"
         id="rect85" />
    </clipPath>
    <clipPath
       id="clipPath87">
      <rect
         height="208.57"
         y="1580.93"
         x="-830"
         width="477.14"
         fill="#ff0"
         id="rect89" />
    </clipPath>
    <clipPath
       id="clipPath91">
      <rect
         height="208.57"
         y="1580.93"
         x="-830"
         width="477.14"
         fill="#ff0"
         id="rect93" />
    </clipPath>
    <clipPath
       id="clipPath95">
      <rect
         height="208.57"
         y="1580.93"
         x="-830"
         width="477.14"
         fill="#ff0"
         id="rect97" />
    </clipPath>
    <clipPath
       id="clipPath99">
      <rect
         height="208.57"
         y="1580.93"
         x="-830"
         width="477.14"
         fill="#ff0"
         id="rect101" />
    </clipPath>
    <clipPath
       id="clipPath103">
      <rect
         height="208.57"
         y="1580.93"
         x="-830"
         width="477.14"
         fill="#ff0"
         id="rect105" />
    </clipPath>
    <clipPath
       id="clipPath107">
      <use
         xlink:href="#0"
         id="use109" />
    </clipPath>
    <clipPath
       id="clipPath111">
      <rect
         height="208.57"
         y="1580.93"
         x="-830"
         width="477.14"
         fill="#ff0"
         id="rect113" />
    </clipPath>
    <path
       id="1"
       d="m 699.2857,672.93231 a 40.714287,40.714287 0 1 1 -81.42858,0 40.714287,40.714287 0 1 1 81.42858,0 z"
       fill="#4a0" />
    <clipPath
       id="2">
      <use
         xlink:href="#1"
         id="use117" />
    </clipPath>
    <clipPath
       id="clipPath119">
      <use
         transform="matrix(4.3233 0 0 4.3233 -2450.68 -2667.55)"
         xlink:href="#1"
         id="use121" />
    </clipPath>
    <linearGradient
       gradientUnits="userSpaceOnUse"
       x2="0"
       y2="40"
       y1="280"
       xlink:href="#4"
       id="3"
       gradientTransform="matrix(.175 0 0 .175 302.79999 215.99997)" />
    <linearGradient
       id="4">
      <stop
         stop-color="#151515"
         id="stop125" />
      <stop
         stop-color="#222"
         offset="1"
         id="stop127" />
    </linearGradient>
    <linearGradient
       gradientUnits="userSpaceOnUse"
       x2="0"
       y2="90"
       y1="230"
       xlink:href="#4"
       id="5"
       gradientTransform="matrix(.375 0 0 .375 298 16)" />
    <linearGradient
       gradientUnits="userSpaceOnUse"
       x2="0"
       y2="90"
       y1="230"
       xlink:href="#4"
       id="6"
       gradientTransform="matrix(.25 0 0 .25 299.99999 131.99999)" />
    <clipPath
       id="clipPath131">
      <rect
         color="#bebebe"
         height="20"
         rx="4"
         y="78"
         x="434"
         width="20"
         id="rect133" />
    </clipPath>
    <clipPath
       id="clipPath135">
      <rect
         color="#bebebe"
         height="22"
         rx="4"
         y="77"
         x="433"
         width="22"
         id="rect137" />
    </clipPath>
    <clipPath
       id="clipPath139">
      <rect
         color="#bebebe"
         height="22"
         rx="5"
         y="77"
         x="433"
         width="22"
         id="rect141" />
    </clipPath>
    <clipPath
       id="clipPath143">
      <rect
         color="#bebebe"
         height="30"
         rx="6"
         y="29"
         x="433"
         width="30"
         id="rect145" />
    </clipPath>
    <clipPath
       id="clipPath147">
      <rect
         color="#bebebe"
         fill="url(#6)"
         transform="matrix(0 -1 1 0 0 0)"
         height="60"
         rx="12.5"
         y="142"
         x="306"
         width="60"
         id="rect149" />
    </clipPath>
    <clipPath
       id="clipPath151">
      <rect
         color="#bebebe"
         fill="url(#5)"
         height="90"
         rx="18.75"
         y="31"
         x="307"
         width="90"
         id="rect153" />
    </clipPath>
    <clipPath
       id="clipPath155">
      <rect
         color="#bebebe"
         fill="#6d6d6d"
         opacity="0.2"
         height="30"
         rx="4"
         y="29"
         x="433"
         width="30"
         id="rect157" />
    </clipPath>
    <clipPath
       id="clipPath159">
      <rect
         color="#bebebe"
         fill="#6d6d6d"
         opacity="0.2"
         height="22"
         rx="3"
         y="77"
         x="433"
         width="22"
         id="rect161" />
    </clipPath>
    <clipPath
       id="clipPath163">
      <path
         d="m 144,70 c -49.705627,0 -90,40.29437 -90,90 0,49.70563 40.294373,90 90,90 49.70563,0 90,-40.29437 90,-90 0,-49.70563 -40.29437,-90 -90,-90 z m 0,32.1875 c 32.03251,0 58,25.96748 58,58 0,32.03252 -25.96749,58 -58,58 -32.03251,0 -58,-25.96748 -58,-58 0,-32.03252 25.96749,-58 58,-58 z"
         id="path165" />
    </clipPath>
    <clipPath
       id="clipPath167">
      <rect
         color="#bebebe"
         height="16"
         rx="3"
         y="116"
         x="432"
         width="16"
         id="rect169" />
    </clipPath>
    <clipPath
       id="clipPath171">
      <path
         d="m 145,215 c 33.13708,0 60,-26.86292 60,-60 0,-33.13708 -26.86292,-60 -60,-60 -33.13708,0 -60,26.86292 -60,60 0,12.50698 3.8285,24.10633 10.375,33.71875 L 89,211 111.28125,204.625 C 120.89367,211.1715 132.49302,215 145,215 z"
         id="path173" />
    </clipPath>
    <clipPath
       id="clipPath175">
      <path
         d="m 152,204 a 8,8 0 1 1 -16,0 8,8 0 1 1 16,0 z"
         id="path177" />
    </clipPath>
    <clipPath
       id="clipPath179">
      <path
         d="m 98.03125,23.191212 c -41.492132,1.05238 -74.84375,35.06824 -74.84375,76.812498 0,42.40687 34.405632,76.8125 76.8125,76.8125 42.40687,0 76.8125,-34.40563 76.8125,-76.8125 0,-42.406866 -34.40563,-76.812498 -76.8125,-76.812498 -0.662607,0 -1.310145,-0.0167 -1.96875,0 z M 100,50.659962 c 27.24464,0 49.34375,22.099114 49.34375,49.343748 -1e-5,27.24464 -22.09911,49.34375 -49.34375,49.34375 -27.244636,-1e-5 -49.34375,-22.09911 -49.34375,-49.34375 0,-27.244634 22.099114,-49.343748 49.34375,-49.343748 z"
         id="path181" />
    </clipPath>
    <clipPath
       id="clipPath183">
      <rect
         color="#bebebe"
         fill="#6d6d6d"
         opacity="0.2"
         height="16"
         rx="2"
         y="116"
         x="432"
         width="16"
         id="rect185" />
    </clipPath>
    <clipPath
       id="clipPath187">
      <rect
         color="#bebebe"
         fill="#986767"
         height="240"
         rx="50"
         y="36"
         x="24"
         width="240"
         id="rect189" />
    </clipPath>
    <clipPath
       id="clipPath191">
      <rect
         color="#bebebe"
         fill="url(#3)"
         transform="rotate(90)"
         height="42"
         rx="9"
         y="223"
         x="307"
         width="42"
         id="rect193" />
    </clipPath>
    <clipPath
       id="clipPath6-8">
      <rect
         id="rect8-3"
         fill="#ff0"
         width="477.14"
         x="-830"
         y="1580.93"
         height="208.57" />
    </clipPath>
    <clipPath
       id="clipPath10-9">
      <rect
         id="rect12-1"
         fill="#ff0"
         width="477.14"
         x="-830"
         y="1580.93"
         height="208.57" />
    </clipPath>
    <clipPath
       id="clipPath14-1">
      <rect
         id="rect16-7"
         fill="#ff0"
         width="477.14"
         x="-830"
         y="1580.93"
         height="208.57" />
    </clipPath>
    <clipPath
       id="clipPath18-1">
      <rect
         id="rect20-8"
         fill="#ff0"
         width="477.14"
         x="-830"
         y="1580.93"
         height="208.57" />
    </clipPath>
    <clipPath
       id="clipPath22-3">
      <rect
         id="rect24-7"
         fill="#f00"
         width="357.87"
         x="294.93"
         y="780.64"
         height="240.87"
         transform="matrix(.99975 -.02255 .02255 .99975 0 0)" />
    </clipPath>
    <clipPath
       id="clipPath26-2">
      <rect
         id="rect28-0"
         fill="#fff"
         width="301.43"
         y="857.54"
         height="195" />
    </clipPath>
    <clipPath
       id="clipPath30-2">
      <rect
         id="rect32-5"
         fill="#ff0"
         width="477.14"
         x="-830"
         y="1580.93"
         height="208.57" />
    </clipPath>
    <clipPath
       id="clipPath34-0">
      <rect
         id="rect36-7"
         fill="#e20a17"
         width="79.48"
         x="276.37"
         y="977.09"
         height="30.01" />
    </clipPath>
    <clipPath
       id="clipPath38-8">
      <rect
         id="rect40-9"
         fill="#162d50"
         width="506.46"
         x="8.208"
         y="0.064"
         height="37.48"
         transform="rotate(20.37582)" />
    </clipPath>
    <clipPath
       id="clipPath42-0">
      <rect
         id="rect44-2"
         fill="#fff"
         width="357.38"
         x="218.9"
         y="758.67"
         height="318.4"
         transform="rotate(.22918)" />
    </clipPath>
    <clipPath
       id="clipPath46-0">
      <rect
         id="rect48-3"
         fill="#fff"
         width="357.38"
         x="218.9"
         y="758.67"
         height="318.4"
         transform="rotate(.22918)" />
    </clipPath>
    <clipPath
       id="clipPath50-0">
      <rect
         id="rect52-9"
         fill="#162d50"
         width="506.46"
         x="8.208"
         y="0.064"
         height="37.48"
         transform="rotate(20.37582)" />
    </clipPath>
    <clipPath
       id="clipPath54-1">
      <rect
         id="rect56-8"
         fill="#ff0"
         width="477.14"
         x="-830"
         y="1580.93"
         height="208.57" />
    </clipPath>
    <clipPath
       id="clipPath58-4">
      <rect
         id="rect60-4"
         width="350.46"
         x="221.39"
         y="804.24"
         height="235.88"
         transform="rotate(.6171)" />
    </clipPath>
    <clipPath
       id="clipPath62-6">
      <rect
         id="rect64-3"
         fill="#fff"
         width="287.43"
         x="257.32"
         y="793.52"
         height="279.03"
         transform="rotate(.16206)" />
    </clipPath>
    <clipPath
       id="clipPath66-7">
      <rect
         id="rect68-4"
         fill="#fff"
         width="301.43"
         y="0.06"
         height="195" />
    </clipPath>
    <clipPath
       id="clipPath70-9">
      <rect
         id="rect72-8"
         fill="#fff"
         width="301.43"
         y="857.54"
         height="195" />
    </clipPath>
    <path
       fill="#4a0"
       d="m 699.2857,672.93231 a 40.714287,40.714287 0 1 1 -81.42858,0 40.714287,40.714287 0 1 1 81.42858,0 z"
       id="0-6"
       clip-path="url(#2-0)" />
    <clipPath
       id="clipPath75-0">
      <use
         id="use77-5"
         transform="matrix(4.3233 0 0 4.3233 -2450.68 -2667.55)"
         xlink:href="#0-6" />
    </clipPath>
    <clipPath
       id="clipPath79-7">
      <rect
         id="rect81-8"
         fill="#fff"
         width="63.987"
         x="448.12"
         y="815.74"
         height="41.39"
         transform="rotate(27.44968)" />
    </clipPath>
    <clipPath
       id="clipPath83-9">
      <rect
         id="rect85-6"
         fill="#fff"
         width="301.43"
         y="857.54"
         height="195" />
    </clipPath>
    <clipPath
       id="clipPath87-2">
      <rect
         id="rect89-1"
         fill="#ff0"
         width="477.14"
         x="-830"
         y="1580.93"
         height="208.57" />
    </clipPath>
    <clipPath
       id="clipPath91-0">
      <rect
         id="rect93-9"
         fill="#ff0"
         width="477.14"
         x="-830"
         y="1580.93"
         height="208.57" />
    </clipPath>
    <clipPath
       id="clipPath95-1">
      <rect
         id="rect97-7"
         fill="#ff0"
         width="477.14"
         x="-830"
         y="1580.93"
         height="208.57" />
    </clipPath>
    <clipPath
       id="clipPath99-9">
      <rect
         id="rect101-3"
         fill="#ff0"
         width="477.14"
         x="-830"
         y="1580.93"
         height="208.57" />
    </clipPath>
    <clipPath
       id="clipPath103-0">
      <rect
         id="rect105-1"
         fill="#ff0"
         width="477.14"
         x="-830"
         y="1580.93"
         height="208.57" />
    </clipPath>
    <clipPath
       id="clipPath107-3">
      <use
         id="use109-5"
         xlink:href="#0-6" />
    </clipPath>
    <clipPath
       id="clipPath111-2">
      <rect
         id="rect113-4"
         fill="#ff0"
         width="477.14"
         x="-830"
         y="1580.93"
         height="208.57" />
    </clipPath>
    <path
       fill="#4a0"
       d="m 699.2857,672.93231 a 40.714287,40.714287 0 1 1 -81.42858,0 40.714287,40.714287 0 1 1 81.42858,0 z"
       id="1-8" />
    <clipPath
       id="2-0">
      <use
         id="use117-9"
         xlink:href="#1-8" />
    </clipPath>
    <clipPath
       id="clipPath119-3">
      <use
         id="use121-6"
         xlink:href="#1-8"
         transform="matrix(4.3233 0 0 4.3233 -2450.68 -2667.55)" />
    </clipPath>
    <linearGradient
       gradientTransform="matrix(.175 0 0 .175 302.79999 215.99997)"
       id="3-4"
       xlink:href="#4"
       y1="280"
       y2="40"
       x2="0"
       gradientUnits="userSpaceOnUse" />
    <linearGradient
       gradientTransform="matrix(.375 0 0 .375 298 16)"
       id="5-3"
       xlink:href="#4"
       y1="230"
       y2="90"
       x2="0"
       gradientUnits="userSpaceOnUse" />
    <linearGradient
       gradientTransform="matrix(.25 0 0 .25 299.99999 131.99999)"
       id="6-1"
       xlink:href="#4"
       y1="230"
       y2="90"
       x2="0"
       gradientUnits="userSpaceOnUse" />
    <clipPath
       id="clipPath131-9">
      <rect
         id="rect133-3"
         width="20"
         x="434"
         y="78"
         rx="4"
         height="20"
         color="#bebebe" />
    </clipPath>
    <clipPath
       id="clipPath135-6">
      <rect
         id="rect137-8"
         width="22"
         x="433"
         y="77"
         rx="4"
         height="22"
         color="#bebebe" />
    </clipPath>
    <clipPath
       id="clipPath139-3">
      <rect
         id="rect141-7"
         width="22"
         x="433"
         y="77"
         rx="5"
         height="22"
         color="#bebebe" />
    </clipPath>
    <clipPath
       id="clipPath143-4">
      <rect
         id="rect145-7"
         width="30"
         x="433"
         y="29"
         rx="6"
         height="30"
         color="#bebebe" />
    </clipPath>
    <clipPath
       id="clipPath147-9">
      <rect
         style="fill:url(#6-1)"
         id="rect149-6"
         width="60"
         x="306"
         y="142"
         rx="12.5"
         height="60"
         transform="matrix(0 -1 1 0 0 0)"
         fill="url(#6)"
         color="#bebebe" />
    </clipPath>
    <clipPath
       id="clipPath151-6">
      <rect
         style="fill:url(#5-3)"
         id="rect153-0"
         width="90"
         x="307"
         y="31"
         rx="18.75"
         height="90"
         fill="url(#5)"
         color="#bebebe" />
    </clipPath>
    <clipPath
       id="clipPath155-3">
      <rect
         id="rect157-6"
         width="30"
         x="433"
         y="29"
         rx="4"
         height="30"
         opacity="0.2"
         fill="#6d6d6d"
         color="#bebebe" />
    </clipPath>
    <clipPath
       id="clipPath159-3">
      <rect
         id="rect161-5"
         width="22"
         x="433"
         y="77"
         rx="3"
         height="22"
         opacity="0.2"
         fill="#6d6d6d"
         color="#bebebe" />
    </clipPath>
    <clipPath
       id="clipPath163-7">
      <path
         id="path165-8"
         d="m 144,70 c -49.705627,0 -90,40.29437 -90,90 0,49.70563 40.294373,90 90,90 49.70563,0 90,-40.29437 90,-90 0,-49.70563 -40.29437,-90 -90,-90 z m 0,32.1875 c 32.03251,0 58,25.96748 58,58 0,32.03252 -25.96749,58 -58,58 -32.03251,0 -58,-25.96748 -58,-58 0,-32.03252 25.96749,-58 58,-58 z" />
    </clipPath>
    <clipPath
       id="clipPath167-2">
      <rect
         id="rect169-1"
         width="16"
         x="432"
         y="116"
         rx="3"
         height="16"
         color="#bebebe" />
    </clipPath>
    <clipPath
       id="clipPath171-3">
      <path
         id="path173-1"
         d="m 145,215 c 33.13708,0 60,-26.86292 60,-60 0,-33.13708 -26.86292,-60 -60,-60 -33.13708,0 -60,26.86292 -60,60 0,12.50698 3.8285,24.10633 10.375,33.71875 L 89,211 111.28125,204.625 C 120.89367,211.1715 132.49302,215 145,215 z" />
    </clipPath>
    <clipPath
       id="clipPath175-2">
      <path
         id="path177-2"
         d="m 152,204 a 8,8 0 1 1 -16,0 8,8 0 1 1 16,0 z" />
    </clipPath>
    <clipPath
       id="clipPath179-6">
      <path
         id="path181-0"
         d="m 98.03125,23.191212 c -41.492132,1.05238 -74.84375,35.06824 -74.84375,76.812498 0,42.40687 34.405632,76.8125 76.8125,76.8125 42.40687,0 76.8125,-34.40563 76.8125,-76.8125 0,-42.406866 -34.40563,-76.812498 -76.8125,-76.812498 -0.662607,0 -1.310145,-0.0167 -1.96875,0 z M 100,50.659962 c 27.24464,0 49.34375,22.099114 49.34375,49.343748 -1e-5,27.24464 -22.09911,49.34375 -49.34375,49.34375 -27.244636,-1e-5 -49.34375,-22.09911 -49.34375,-49.34375 0,-27.244634 22.099114,-49.343748 49.34375,-49.343748 z" />
    </clipPath>
    <clipPath
       id="clipPath183-8">
      <rect
         id="rect185-8"
         width="16"
         x="432"
         y="116"
         rx="2"
         height="16"
         opacity="0.2"
         fill="#6d6d6d"
         color="#bebebe" />
    </clipPath>
    <clipPath
       id="clipPath187-3">
      <rect
         id="rect189-2"
         width="240"
         x="24"
         y="36"
         rx="50"
         height="240"
         fill="#986767"
         color="#bebebe" />
    </clipPath>
    <clipPath
       id="clipPath191-9">
      <rect
         style="fill:url(#3-4)"
         id="rect193-2"
         width="42"
         x="307"
         y="223"
         rx="9"
         height="42"
         transform="rotate(90)"
         fill="url(#3)"
         color="#bebebe" />
    </clipPath>
  </defs>
  <path
     d="m 7.5604054,3.9372412 c -0.4759767,0 -0.8988972,0.1765867 -1.2387041,0.5195995 -0.3396385,0.3428301 -0.51797,0.770827 -0.5179683,1.2538353 l 0,2.4415043 1.1082094,0 0,-2.4415043 c 0,-0.1851294 0.06046,-0.3298871 0.1927309,-0.4634129 0.1327171,-0.1339449 0.2732511,-0.1945947 0.4557321,-0.1945947 0.186305,0 0.324733,0.060344 0.457738,0.1945947 0.132287,0.133533 0.192733,0.2782835 0.192733,0.4634129 l 0,2.4415043 1.108209,0 0,-2.4415043 c 0,-0.1851294 0.06046,-0.3298871 0.192735,-0.4634129 0.133003,-0.1342495 0.271431,-0.1945947 0.45774,-0.1945947 0.1824796,0 0.3230136,0.060648 0.4557256,0.1945947 0.132287,0.133533 0.192733,0.2782835 0.192733,0.4634129 l 0.0061,2.852776 c 0,0.6085503 -0.579957,1.1214328 -1.3250336,1.1214328 L 5.7255091,9.6709099 c -0.5749759,0 -1.066051,-0.5592384 -1.066051,-1.2779243 l 0,-5.3721784 -1.0479796,0 0,5.5788094 c 0,0.5919095 0.2167513,1.1109715 0.6384239,1.5307064 0.3604138,0.35549 0.7938609,0.585925 1.2808659,0.637969 l 3.9791151,-9e-6 c 0.6114486,0 1.1486376,-0.22719 1.5820086,-0.668067 l 0.002,0 c 0.368579,-0.3784067 0.584051,-0.831822 0.636417,-1.3421066 l -0.0039,-3.0473672 c 0,-0.48301 -0.178331,-0.9110069 -0.51797,-1.253837 -0.339804,-0.3430128 -0.762728,-0.5195977 -1.2387026,-0.5195977 -0.467208,0 -0.876016,0.1736125 -1.206584,0.4915062 -0.329673,-0.3173759 -0.735622,-0.4915062 -1.20264,-0.4915062 z"
     id="path199"
     inkscape:connector-curvature="0"
     style="fill:#d70751;fill-rule:evenodd;fill-opacity:1" />
  <path
     d="m 6.9087025,9.6745557 0,1.0936613 2.6030419,0 c 0.6114466,0 1.1454616,-0.22788 1.5788316,-0.668758 l 0.0038,0 C 11.46292,9.7210513 11.677947,9.26853 11.730311,8.7582472 l 0,-0.6207265 -1.105552,0 0,0.4249008 c 0,0.608554 -0.57863,1.1195249 -1.3237076,1.1195249 l -2.3922825,-0.00735 z"
     id="path201"
     style="opacity:0.29999999999999999;fill:#424f3c;fill-opacity:1;fill-rule:evenodd"
     inkscape:connector-curvature="0" />
  <path
     d="m 6.3044743,12.982223 c -2.5190483,0 -4.7050903,-1.908282 -4.7050903,-4.4232324 l -0.00233,-3.0536918 0,-0.7786888 -1.597054,0 0,-3.87994399 6.7348187,0.031695 2.1067587,0.00448 c 2.5213106,0 4.7050896,1.90600729 4.7050896,4.42321489 l 0,7.6761181 -7.2422581,0 0,0 0,0 z m 6.2160587,-2.059117 c 0,-1.6722275 0,-5.617001 0,-5.617001 0,-1.8765738 -1.646889,-3.3977687 -3.6788906,-3.3977687 l -2.109021,0 0,-0.00448 -5.7040948,-0.024904 0,1.8222575 c 0,0 0.2291032,0 0.6389709,0 0.4338093,0 0.9558134,0.4073713 0.9558134,1.0051716 l 0.00448,3.8504119 c 0,1.8765767 1.646897,3.3977677 3.6766307,3.3977677 l 5.0114044,0 c 0.642466,0 1.204654,-0.40657 1.204654,-1.031407 z"
     id="path203"
     inkscape:connector-curvature="0"
     style="fill:#d70751;fill-rule:evenodd;fill-opacity:1" />
</svg>
