<?xml version="1.0" encoding="UTF-8" standalone="no"?>
<svg
   xmlns:dc="http://purl.org/dc/elements/1.1/"
   xmlns:cc="http://creativecommons.org/ns#"
   xmlns:rdf="http://www.w3.org/1999/02/22-rdf-syntax-ns#"
   xmlns:svg="http://www.w3.org/2000/svg"
   xmlns="http://www.w3.org/2000/svg"
   xmlns:xlink="http://www.w3.org/1999/xlink"
   xmlns:sodipodi="http://sodipodi.sourceforge.net/DTD/sodipodi-0.dtd"
   xmlns:inkscape="http://www.inkscape.org/namespaces/inkscape"
   width="14"
   viewBox="0 0 3.9511112 3.9511112"
   height="14"
   id="svg2"
   version="1.1"
   inkscape:version="0.91 r13725"
   sodipodi:docname="lubuntu.svg"
   inkscape:export-filename="/home/josh/Code/unixporn/resources/Flairs/lubuntu.png"
   inkscape:export-xdpi="90"
   inkscape:export-ydpi="90">
  <metadata
     id="metadata203">
    <rdf:RDF>
      <cc:Work
         rdf:about="">
        <dc:format>image/svg+xml</dc:format>
        <dc:type
           rdf:resource="http://purl.org/dc/dcmitype/StillImage" />
        <dc:title></dc:title>
      </cc:Work>
    </rdf:RDF>
  </metadata>
  <sodipodi:namedview
     pagecolor="#ffffff"
     bordercolor="#666666"
     borderopacity="1"
     objecttolerance="10"
     gridtolerance="10"
     guidetolerance="10"
     inkscape:pageopacity="0"
     inkscape:pageshadow="2"
     inkscape:window-width="1580"
     inkscape:window-height="840"
     id="namedview201"
     showgrid="true"
     inkscape:zoom="27.812867"
     inkscape:cx="1.6604644"
     inkscape:cy="6.4111553"
     inkscape:window-x="10"
     inkscape:window-y="50"
     inkscape:window-maximized="0"
     inkscape:current-layer="svg2" />
  <defs
     id="defs4">
    <clipPath
       id="clipPath6">
      <rect
         height="208.57001"
         y="1580.9301"
         x="-830"
         width="477.14001"
         id="rect8"
         style="fill:#ffff00" />
    </clipPath>
    <clipPath
       id="clipPath10">
      <rect
         height="208.57001"
         y="1580.9301"
         x="-830"
         width="477.14001"
         id="rect12"
         style="fill:#ffff00" />
    </clipPath>
    <clipPath
       id="clipPath14">
      <rect
         height="208.57001"
         y="1580.9301"
         x="-830"
         width="477.14001"
         id="rect16"
         style="fill:#ffff00" />
    </clipPath>
    <clipPath
       id="clipPath18">
      <rect
         height="208.57001"
         y="1580.9301"
         x="-830"
         width="477.14001"
         id="rect20"
         style="fill:#ffff00" />
    </clipPath>
    <clipPath
       id="clipPath22">
      <rect
         transform="matrix(0.99975,-0.02255,0.02255,0.99975,0,0)"
         height="240.87"
         y="780.64001"
         x="294.92999"
         width="357.87"
         id="rect24"
         style="fill:#ff0000" />
    </clipPath>
    <clipPath
       id="clipPath26">
      <rect
         height="195"
         y="857.53998"
         width="301.42999"
         id="rect28"
         x="0"
         style="fill:#ffffff" />
    </clipPath>
    <clipPath
       id="clipPath30">
      <rect
         height="208.57001"
         y="1580.9301"
         x="-830"
         width="477.14001"
         id="rect32"
         style="fill:#ffff00" />
    </clipPath>
    <clipPath
       id="clipPath34">
      <rect
         height="30.01"
         y="977.09003"
         x="276.37"
         width="79.480003"
         id="rect36"
         style="fill:#e20a17" />
    </clipPath>
    <clipPath
       id="clipPath38">
      <rect
         transform="matrix(0.93742901,0.34817646,-0.34817646,0.93742901,0,0)"
         height="37.48"
         y="0.064000003"
         x="8.2080002"
         width="506.45999"
         id="rect40"
         style="fill:#162d50" />
    </clipPath>
    <clipPath
       id="clipPath42">
      <rect
         transform="matrix(0.999992,0.00399993,-0.00399993,0.999992,0,0)"
         height="318.39999"
         y="758.66998"
         x="218.89999"
         width="357.38"
         id="rect44"
         style="fill:#ffffff" />
    </clipPath>
    <clipPath
       id="clipPath46">
      <rect
         transform="matrix(0.999992,0.00399993,-0.00399993,0.999992,0,0)"
         height="318.39999"
         y="758.66998"
         x="218.89999"
         width="357.38"
         id="rect48"
         style="fill:#ffffff" />
    </clipPath>
    <clipPath
       id="clipPath50">
      <rect
         transform="matrix(0.93742901,0.34817646,-0.34817646,0.93742901,0,0)"
         height="37.48"
         y="0.064000003"
         x="8.2080002"
         width="506.45999"
         id="rect52"
         style="fill:#162d50" />
    </clipPath>
    <clipPath
       id="clipPath54">
      <rect
         height="208.57001"
         y="1580.9301"
         x="-830"
         width="477.14001"
         id="rect56"
         style="fill:#ffff00" />
    </clipPath>
    <clipPath
       id="clipPath58">
      <rect
         transform="matrix(0.999942,0.01077022,-0.01077022,0.999942,0,0)"
         height="235.88"
         y="804.23999"
         x="221.39"
         width="350.45999"
         id="rect60" />
    </clipPath>
    <clipPath
       id="clipPath62">
      <rect
         transform="matrix(0.999996,0.00282848,-0.00282848,0.999996,0,0)"
         height="279.03"
         y="793.52002"
         x="257.32001"
         width="287.42999"
         id="rect64"
         style="fill:#ffffff" />
    </clipPath>
    <clipPath
       id="clipPath66">
      <rect
         height="195"
         y="0.059999999"
         width="301.42999"
         id="rect68"
         x="0"
         style="fill:#ffffff" />
    </clipPath>
    <clipPath
       id="clipPath70">
      <rect
         height="195"
         y="857.53998"
         width="301.42999"
         id="rect72"
         x="0"
         style="fill:#ffffff" />
    </clipPath>
    <path
       clip-path="url(#2)"
       id="0"
       d="m 699.2857,672.93231 a 40.71429,40.71429 0 1 1 -81.42858,0 40.71429,40.71429 0 1 1 81.42858,0 z"
       inkscape:connector-curvature="0"
       style="fill:#44aa00" />
    <clipPath
       id="clipPath75">
      <use
         xlink:href="#0"
         transform="matrix(4.3233,0,0,4.3233,-2450.68,-2667.55)"
         id="use77"
         x="0"
         y="0"
         width="100%"
         height="100%" />
    </clipPath>
    <clipPath
       id="clipPath79">
      <rect
         transform="matrix(0.88741602,0.46096942,-0.46096942,0.88741602,0,0)"
         height="41.389999"
         y="815.73999"
         x="448.12"
         width="63.987"
         id="rect81"
         style="fill:#ffffff" />
    </clipPath>
    <clipPath
       id="clipPath83">
      <rect
         height="195"
         y="857.53998"
         width="301.42999"
         id="rect85"
         x="0"
         style="fill:#ffffff" />
    </clipPath>
    <clipPath
       id="clipPath87">
      <rect
         height="208.57001"
         y="1580.9301"
         x="-830"
         width="477.14001"
         id="rect89"
         style="fill:#ffff00" />
    </clipPath>
    <clipPath
       id="clipPath91">
      <rect
         height="208.57001"
         y="1580.9301"
         x="-830"
         width="477.14001"
         id="rect93"
         style="fill:#ffff00" />
    </clipPath>
    <clipPath
       id="clipPath95">
      <rect
         height="208.57001"
         y="1580.9301"
         x="-830"
         width="477.14001"
         id="rect97"
         style="fill:#ffff00" />
    </clipPath>
    <clipPath
       id="clipPath99">
      <rect
         height="208.57001"
         y="1580.9301"
         x="-830"
         width="477.14001"
         id="rect101"
         style="fill:#ffff00" />
    </clipPath>
    <clipPath
       id="clipPath103">
      <rect
         height="208.57001"
         y="1580.9301"
         x="-830"
         width="477.14001"
         id="rect105"
         style="fill:#ffff00" />
    </clipPath>
    <clipPath
       id="clipPath107">
      <use
         xlink:href="#0"
         id="use109"
         x="0"
         y="0"
         width="100%"
         height="100%" />
    </clipPath>
    <clipPath
       id="clipPath111">
      <rect
         height="208.57001"
         y="1580.9301"
         x="-830"
         width="477.14001"
         id="rect113"
         style="fill:#ffff00" />
    </clipPath>
    <path
       id="1"
       d="m 699.2857,672.93231 a 40.71429,40.71429 0 1 1 -81.42858,0 40.71429,40.71429 0 1 1 81.42858,0 z"
       inkscape:connector-curvature="0"
       style="fill:#44aa00" />
    <clipPath
       id="2">
      <use
         xlink:href="#1"
         id="use117"
         x="0"
         y="0"
         width="100%"
         height="100%" />
    </clipPath>
    <clipPath
       id="clipPath119">
      <use
         transform="matrix(4.3233,0,0,4.3233,-2450.68,-2667.55)"
         xlink:href="#1"
         id="use121"
         x="0"
         y="0"
         width="100%"
         height="100%" />
    </clipPath>
    <linearGradient
       gradientUnits="userSpaceOnUse"
       x2="0"
       y2="40"
       y1="280"
       xlink:href="#4"
       id="3"
       gradientTransform="matrix(0.175,0,0,0.175,302.79999,215.99997)" />
    <linearGradient
       id="4">
      <stop
         stop-color="#151515"
         id="stop125" />
      <stop
         stop-color="#222"
         offset="1"
         id="stop127" />
    </linearGradient>
    <linearGradient
       gradientUnits="userSpaceOnUse"
       x2="0"
       y2="90"
       y1="230"
       xlink:href="#4"
       id="5"
       gradientTransform="matrix(0.375,0,0,0.375,298,16)" />
    <linearGradient
       gradientUnits="userSpaceOnUse"
       x2="0"
       y2="90"
       y1="230"
       xlink:href="#4"
       id="6"
       gradientTransform="matrix(0.25,0,0,0.25,299.99999,131.99999)" />
    <clipPath
       id="clipPath131">
      <rect
         height="20"
         rx="4"
         y="78"
         x="434"
         width="20"
         id="rect133"
         style="color:#bebebe" />
    </clipPath>
    <clipPath
       id="clipPath135">
      <rect
         height="22"
         rx="4"
         y="77"
         x="433"
         width="22"
         id="rect137"
         style="color:#bebebe" />
    </clipPath>
    <clipPath
       id="clipPath139">
      <rect
         height="22"
         rx="5"
         y="77"
         x="433"
         width="22"
         id="rect141"
         style="color:#bebebe" />
    </clipPath>
    <clipPath
       id="clipPath143">
      <rect
         height="30"
         rx="6"
         y="29"
         x="433"
         width="30"
         id="rect145"
         style="color:#bebebe" />
    </clipPath>
    <clipPath
       id="clipPath147">
      <rect
         transform="matrix(0,-1,1,0,0,0)"
         height="60"
         rx="12.5"
         y="142"
         x="306"
         width="60"
         id="rect149"
         style="color:#bebebe;fill:url(#6)" />
    </clipPath>
    <clipPath
       id="clipPath151">
      <rect
         height="90"
         rx="18.75"
         y="31"
         x="307"
         width="90"
         id="rect153"
         style="color:#bebebe;fill:url(#5)" />
    </clipPath>
    <clipPath
       id="clipPath155">
      <rect
         height="30"
         rx="4"
         y="29"
         x="433"
         width="30"
         id="rect157"
         style="color:#bebebe;opacity:0.2;fill:#6d6d6d" />
    </clipPath>
    <clipPath
       id="clipPath159">
      <rect
         height="22"
         rx="3"
         y="77"
         x="433"
         width="22"
         id="rect161"
         style="color:#bebebe;opacity:0.2;fill:#6d6d6d" />
    </clipPath>
    <clipPath
       id="clipPath163">
      <path
         d="m 144,70 c -49.705627,0 -90,40.29437 -90,90 0,49.70563 40.294373,90 90,90 49.70563,0 90,-40.29437 90,-90 0,-49.70563 -40.29437,-90 -90,-90 z m 0,32.1875 c 32.03251,0 58,25.96748 58,58 0,32.03252 -25.96749,58 -58,58 -32.03251,0 -58,-25.96748 -58,-58 0,-32.03252 25.96749,-58 58,-58 z"
         id="path165"
         inkscape:connector-curvature="0" />
    </clipPath>
    <clipPath
       id="clipPath167">
      <rect
         height="16"
         rx="3"
         y="116"
         x="432"
         width="16"
         id="rect169"
         style="color:#bebebe" />
    </clipPath>
    <clipPath
       id="clipPath171">
      <path
         d="m 145,215 c 33.13708,0 60,-26.86292 60,-60 0,-33.13708 -26.86292,-60 -60,-60 -33.13708,0 -60,26.86292 -60,60 0,12.50698 3.8285,24.10633 10.375,33.71875 L 89,211 111.28125,204.625 C 120.89367,211.1715 132.49302,215 145,215 Z"
         id="path173"
         inkscape:connector-curvature="0" />
    </clipPath>
    <clipPath
       id="clipPath175">
      <path
         d="m 152,204 a 8,8 0 1 1 -16,0 8,8 0 1 1 16,0 z"
         id="path177"
         inkscape:connector-curvature="0" />
    </clipPath>
    <clipPath
       id="clipPath179">
      <path
         d="m 98.03125,23.191212 c -41.492132,1.05238 -74.84375,35.06824 -74.84375,76.812498 0,42.40687 34.405632,76.8125 76.8125,76.8125 42.40687,0 76.8125,-34.40563 76.8125,-76.8125 0,-42.406866 -34.40563,-76.812498 -76.8125,-76.812498 -0.662607,0 -1.310145,-0.0167 -1.96875,0 z M 100,50.659962 c 27.24464,0 49.34375,22.099114 49.34375,49.343748 -1e-5,27.24464 -22.09911,49.34375 -49.34375,49.34375 -27.244636,-1e-5 -49.34375,-22.09911 -49.34375,-49.34375 0,-27.244634 22.099114,-49.343748 49.34375,-49.343748 z"
         id="path181"
         inkscape:connector-curvature="0" />
    </clipPath>
    <clipPath
       id="clipPath183">
      <rect
         height="16"
         rx="2"
         y="116"
         x="432"
         width="16"
         id="rect185"
         style="color:#bebebe;opacity:0.2;fill:#6d6d6d" />
    </clipPath>
    <clipPath
       id="clipPath187">
      <rect
         height="240"
         rx="50"
         y="36"
         x="24"
         width="240"
         id="rect189"
         style="color:#bebebe;fill:#986767" />
    </clipPath>
    <clipPath
       id="clipPath191">
      <rect
         transform="matrix(0,1,-1,0,0,0)"
         height="42"
         rx="9"
         y="223"
         x="307"
         width="42"
         id="rect193"
         style="color:#bebebe;fill:url(#3)" />
    </clipPath>
  </defs>
  <path
     style="fill:#0068c8;fill-opacity:1;fill-rule:evenodd;stroke:none"
     d="m 2.9156148,0.29406671 a 0.05134312,0.05140933 0 0 0 -0.00257,0.00257 c -0.1415718,0.035672 -0.3340837,0.1111306 -0.4469746,0.1620444 -0.00583,0.00111 -0.012387,-0.00118 -0.017982,0 -0.022729,0.00479 -0.05275,0.016385 -0.082202,0.028293 -0.058904,0.023817 -0.1354745,0.062399 -0.2260564,0.110602 -0.1811638,0.0964 -0.4192367,0.235259 -0.6756006,0.390964 C 0.95906824,1.2953551 0.38999695,1.6565671 0.04623863,1.8810711 c -0.0027746,0.0011 -0.0075449,0.0092 -0.0102753,0.01029 -0.0025483,0.0017 -0.0051845,0.0061 -0.0077065,0.0077 a 0.05134312,0.05140933 0 0 0 -0.02055059,0.01801 0.05134312,0.05140933 0 0 0 0,0.01029 A 0.05134312,0.05140933 0 0 0 0,1.9350891 a 0.05134312,0.05140933 0 0 0 0.00770647,0.02058 0.05134312,0.05140933 0 0 0 0,0.0077 0.05134312,0.05140933 0 0 0 0.0102753,0.01029 0.05134312,0.05140933 0 0 0 0.01027529,0.0077 0.05134312,0.05140933 0 0 0 0.01798177,0.01029 0.05134312,0.05140933 0 0 0 0.0077065,0 0.05134312,0.05140933 0 0 0 0.0102753,0 0.05134312,0.05140933 0 0 0 0.0077065,0 c 0.0027247,-0.001 0.0075065,-0.0092 0.01027527,-0.01029 0.2040785,-0.0783 0.52838349,-0.19873 0.80917947,-0.290651 0.14230283,-0.04658 0.27408453,-0.08934 0.37247943,-0.110602 0.049198,-0.01063 0.09081,-0.0067 0.1181659,-0.0077 0.010943,-3.91e-4 0.00548,-0.0012 0.010275,0 -0.00757,0.0218 -0.027782,0.05823 -0.053945,0.100313 -0.052327,0.08416 -0.1319738,0.203959 -0.2363318,0.344666 -0.20673834,0.278749 -0.48918886,0.658629 -0.74752772,1.09573 -0.00247,0.0042 -0.005239,0.0035 -0.007706,0.0077 a 0.05134312,0.05140933 0 0 0 -0.0102754,0.01801 0.05134312,0.05140933 0 0 0 0,0.01801 0.05134312,0.05140933 0 0 0 0.0102754,0.01029 0.05134312,0.05140933 0 0 0 0,0.0077 0.05134312,0.05140933 0 0 0 0.007706,0.01029 0.05134312,0.05140933 0 0 0 0.0179818,0.0077 0.05134312,0.05140933 0 0 0 0.0102754,0 0.05134312,0.05140933 0 0 0 0.007706,0 0.05134312,0.05140933 0 0 0 0.0179818,0 0.05134312,0.05140933 0 0 0 0.0179818,-0.0077 c 0.002258,-0.0025 0.007997,-0.0078 0.0102754,-0.01029 0.002278,-0.0025 0.007978,-0.0052 0.0102754,-0.0077 0.21489354,-0.234274 0.51309545,-0.608578 0.78092192,-0.913116 0.1367772,-0.155526 0.2638796,-0.287777 0.3647729,-0.380676 0.028326,-0.02608 0.048663,-0.03849 0.071927,-0.05659 -0.00978,0.01649 -0.013952,0.02703 -0.025688,0.0463 -0.064922,0.106569 -0.1583503,0.254604 -0.2645888,0.429547 -0.2539176,0.418125 -0.45105965,0.799477 -0.63706821,1.157461 a 0.05134312,0.05140933 0 0 0 0,0.0077 0.05134312,0.05140933 0 0 0 0,0.01029 0.05134312,0.05140933 0 0 0 0,0.0077 c -4.375e-4,0.0014 -0.00254,-2.84e-4 0,0.01029 -0.002164,0.006 -0.006948,0.01001 -0.0102754,0.01801 -0.0109086,0.02622 -0.0249282,0.05143 -0.0359635,0.07202 -0.00168,0.0031 -0.00629,0.0078 -0.007706,0.01029 a 0.05134312,0.05140933 0 0 0 0,0.0077 0.05134312,0.05140933 0 0 0 0,0.01029 0.05134312,0.05140933 0 0 0 0,0.02572 0.05134312,0.05140933 0 0 0 0,0.01029 0.05134312,0.05140933 0 0 0 0.007706,0.01029 0.05134312,0.05140933 0 0 0 0.0102754,0.0077 0.05134312,0.05140933 0 0 0 0.025688,0.01029 0.05134312,0.05140933 0 0 0 0.0102754,0 0.05134312,0.05140933 0 0 0 0.0179818,-0.01029 0.05134312,0.05140933 0 0 0 0.0102754,-0.0077 c 0.001709,-0.0019 0.005962,-0.0083 0.007706,-0.01029 0.001009,-0.0011 -0.001021,-0.0091 0,-0.01029 0.24283021,-0.277832 0.80437601,-1.077341 1.03780461,-1.412108 0.1093079,-0.156765 0.2417889,-0.356805 0.3647731,-0.519576 0.061492,-0.08139 0.1164653,-0.151782 0.1721111,-0.200626 0.055646,-0.04885 0.1034002,-0.07158 0.1361477,-0.07202 0.070903,-9.48e-4 0.1541397,0.03177 0.2466071,0.110602 0.092467,0.07883 0.1966935,0.200592 0.3005524,0.354955 0.207718,0.308724 0.4271458,0.757637 0.6550503,1.293784 0.076547,0.180079 0.063905,0.201819 0.1078904,0.326661 a 0.05134312,0.05140933 0 0 0 0.010275,0.02058 0.05134312,0.05140933 0 0 0 0.010275,0.0077 c 0.018273,0.01441 0.057285,0.02295 0.079634,0.01029 0.022347,-0.01267 0.02233,-0.03428 0.028257,-0.0463 0.00593,-0.01202 0.015213,-0.02073 0.017984,-0.02829 a 0.05134312,0.05140933 0 0 0 0,-0.0077 0.05134312,0.05140933 0 0 0 0.010275,-0.01801 0.05134312,0.05140933 0 0 0 0,-0.01029 C 3.9452834,3.3184901 3.8852651,3.0927371 3.7864462,2.7375951 3.5733878,1.9718891 3.3507703,1.1366161 2.8128618,0.72361311 L 2.83855,0.54099171 c 0.030473,-0.03909 0.065925,-0.095923 0.1001844,-0.1440396 0.00742,-0.010417 0.021872,-0.01833 0.028257,-0.028293 a 0.05134312,0.05140933 0 0 0 0.010275,-0.010288 0.05134312,0.05140933 0 0 0 0,-0.00772 0.05134312,0.05140933 0 0 0 0,-0.018005 0.05134312,0.05140933 0 0 0 -0.010275,-0.018005 0.05134312,0.05140933 0 0 0 -0.010275,-0.010289 0.05134312,0.05140933 0 0 0 -0.00771,-0.00772 0.05134312,0.05140933 0 0 0 -0.010275,0 0.05134312,0.05140933 0 0 0 -0.00771,0 0.05134312,0.05140933 0 0 0 -0.015413,-0.00257 z"
     id="path199"
     inkscape:connector-curvature="0" />
</svg>
