<?xml version="1.0" encoding="UTF-8" standalone="no"?>
<svg
   xmlns:dc="http://purl.org/dc/elements/1.1/"
   xmlns:cc="http://creativecommons.org/ns#"
   xmlns:rdf="http://www.w3.org/1999/02/22-rdf-syntax-ns#"
   xmlns:svg="http://www.w3.org/2000/svg"
   xmlns="http://www.w3.org/2000/svg"
   xmlns:sodipodi="http://sodipodi.sourceforge.net/DTD/sodipodi-0.dtd"
   xmlns:inkscape="http://www.inkscape.org/namespaces/inkscape"
   width="256px"
   height="211px"
   viewBox="0 0 256 211"
   version="1.1"
   preserveAspectRatio="xMidYMid"
   id="svg3877"
   sodipodi:docname="void.svg"
   inkscape:version="0.92.1 r">
  <metadata
     id="metadata3883">
    <rdf:RDF>
      <cc:Work
         rdf:about="">
        <dc:format>image/svg+xml</dc:format>
        <dc:type
           rdf:resource="http://purl.org/dc/dcmitype/StillImage" />
      </cc:Work>
    </rdf:RDF>
  </metadata>
  <defs
     id="defs3881" />
  <sodipodi:namedview
     pagecolor="#ffffff"
     bordercolor="#666666"
     borderopacity="1"
     objecttolerance="10"
     gridtolerance="10"
     guidetolerance="10"
     inkscape:pageopacity="0"
     inkscape:pageshadow="2"
     inkscape:window-width="1306"
     inkscape:window-height="637"
     id="namedview3879"
     showgrid="false"
     inkscape:zoom="2.0900474"
     inkscape:cx="128"
     inkscape:cy="105.5"
     inkscape:window-x="30"
     inkscape:window-y="51"
     inkscape:window-maximized="1"
     inkscape:current-layer="g3875" />
  <g
     id="g3875">
    <path
       d="M128.016818,0 C105.984939,0.0467831409 84.5233718,7.00726851 66.6577572,19.9001677 L90.560442,43.8028525 C101.837891,36.9042577 114.796731,33.2431184 128.016818,33.2206376 C167.789233,33.220559 200.031158,65.4624842 200.03108,105.234899 C199.999253,118.45028 196.33152,131.402095 189.429569,142.67198 L213.377556,166.619966 C226.266359,148.744022 233.217963,127.272821 233.25173,105.234899 C233.25173,47.1152739 186.136443,0 128.016817,0 L128.016818,0 Z"
       fill="#ABC2AB"
       id="path3861" />
    <path
       d="M189.375878,190.569631 L165.473194,166.666946 C154.195745,173.565541 141.236905,177.226694 128.016818,177.249161 C88.2444027,177.24924 56.0024775,145.007314 56.0025561,105.234899 C56.034383,92.0195183 59.7021028,79.0677038 66.6040664,67.7978188 L42.6560666,43.8498324 C29.7672505,61.7257694 22.8156856,83.1969774 22.7819185,105.234899 C22.7819185,163.354525 69.8971924,210.469799 128.016818,210.469799 C150.048697,210.423002 171.510264,203.462537 189.375878,190.569631 L189.375878,190.569631 Z"
       fill="#478061"
       id="path3863" />
    <circle
       fill="#ABC2AB"
       cx="128"
       cy="105.234899"
       r="33.5033557"
       id="circle3865" />
  </g>
</svg>
