<?xml version="1.0" encoding="UTF-8" standalone="no"?>
<svg
   xmlns:dc="http://purl.org/dc/elements/1.1/"
   xmlns:cc="http://creativecommons.org/ns#"
   xmlns:rdf="http://www.w3.org/1999/02/22-rdf-syntax-ns#"
   xmlns:svg="http://www.w3.org/2000/svg"
   xmlns="http://www.w3.org/2000/svg"
   xmlns:xlink="http://www.w3.org/1999/xlink"
   xmlns:sodipodi="http://sodipodi.sourceforge.net/DTD/sodipodi-0.dtd"
   xmlns:inkscape="http://www.inkscape.org/namespaces/inkscape"
   width="48"
   viewBox="0 0 13.546667 13.546667"
   height="48"
   id="svg2"
   version="1.1"
   inkscape:version="0.48.4 r9939"
   sodipodi:docname="distributor-logo-deepin.svg">
  <metadata
     id="metadata23">
    <rdf:RDF>
      <cc:Work
         rdf:about="">
        <dc:format>image/svg+xml</dc:format>
        <dc:type
           rdf:resource="http://purl.org/dc/dcmitype/StillImage" />
      </cc:Work>
    </rdf:RDF>
  </metadata>
  <sodipodi:namedview
     pagecolor="#ffffff"
     bordercolor="#666666"
     borderopacity="1"
     objecttolerance="10"
     gridtolerance="10"
     guidetolerance="10"
     inkscape:pageopacity="0"
     inkscape:pageshadow="2"
     inkscape:window-width="1280"
     inkscape:window-height="960"
     id="namedview21"
     showgrid="true"
     inkscape:zoom="2.4583333"
     inkscape:cx="-120.27527"
     inkscape:cy="6.8410004"
     inkscape:window-x="0"
     inkscape:window-y="0"
     inkscape:window-maximized="1"
     inkscape:current-layer="svg2">
    <inkscape:grid
       type="xygrid"
       id="grid3776" />
  </sodipodi:namedview>
  <defs
     id="defs4">
    <linearGradient
       id="0">
      <stop
         stop-color="#0091f3"
         id="stop7" />
      <stop
         offset="1"
         stop-color="#00d4ff"
         id="stop9" />
    </linearGradient>
    <linearGradient
       xlink:href="#0"
       id="1"
       gradientUnits="userSpaceOnUse"
       gradientTransform="matrix(1.10525,0,0,1.10525,-147.88281,-299.55061)"
       y1="279.1"
       x2="0"
       y2="268.33" />
    <linearGradient
       xlink:href="#0"
       id="2"
       x1="6.803"
       y1="12.76"
       x2="6.795"
       y2="0.766"
       gradientUnits="userSpaceOnUse"
       gradientTransform="translate(-13.403164,2.0664407)" />
    <linearGradient
       inkscape:collect="always"
       xlink:href="#0"
       id="linearGradient3774"
       x1="6.7733335"
       y1="13.546667"
       x2="6.7733335"
       y2="2.54"
       gradientUnits="userSpaceOnUse" />
  </defs>
  <path
     d="M 6.2895376,0.00311807 C 5.4647933,0.02384807 5.5188209,0.17078527 5.1707248,0.87965757 4.6086654,2.0242894 4.2132486,3.6805525 4.2938198,4.657845 c 0.086193,1.045484 0.366624,1.7255383 0.9071452,2.2366867 0.6519974,0.616568 1.4431522,0.5386066 2.1166672,-0.1813531 0.602273,-0.6438128 0.824583,-1.3165453 0.876907,-2.780746 0.03291,-0.9253828 0.05194,-1.035175 0.12096,-0.8765395 0.266811,0.6133224 0.338914,2.0613869 0.1512,2.780746 C 8.3121732,6.4288575 7.9288742,7.1539206 7.6200282,7.4385897 7.2111442,7.815447 6.7712042,7.9840861 6.1686018,8.0128741 5.7628288,8.0322715 5.6019807,8.0257943 5.2916952,7.9221987 4.4901535,7.6545612 3.5002033,6.8903195 2.9331043,6.1388944 2.1280844,5.0722202 1.3238787,2.9063176 1.118816,1.1819127 1.0791166,0.84816817 1.0232376,0.54632187 0.9978666,0.51695197 0.8529065,0.34998977 0.2983899,1.0425816 0.12096,1.6050699 0.007542,1.9643004 0,2.1364457 0,5.3228059 L 0,8.677836 0.1511999,8.76851 C 0.3648721,8.908496 1.2966077,9.1885902 2.0562008,9.342795 2.6347296,9.4602329 2.8659215,9.4951809 4.2333466,9.4939229 5.5998483,9.4926529 5.8546732,9.4581259 6.3802544,9.3427958 7.2359362,9.1551939 7.8755882,8.848145 8.4062092,8.3151288 c 0.747534,-0.7509143 1.026544,-1.50955 1.028095,-2.6900694 0.0011,-0.7826589 -0.110366,-1.4091353 -0.423333,-2.0251087 -0.114823,-0.2259961 -0.224709,-0.4100654 -0.21168,-0.4231568 0.07018,-0.070182 0.849655,0.8621107 1.028098,1.2392454 1.1199998,2.3670417 0.5866878,4.2983229 -1.723573,6.2264527 -1.02207,0.853012 -2.7932984,2.025748 -3.810003,2.538943 -0.3545505,0.178919 -0.4201183,0.244981 -0.3326093,0.332465 0.02298,0.0225 1.7889067,0.03948 3.9309543,0.03016 L 11.792874,13.5139 12.12548,13.36276 c 0.672538,-0.322388 1.098192,-0.796729 1.300237,-1.450824 0.11582,-0.374981 0.12096,-0.544101 0.12096,-5.1383346 0,-4.8266626 -0.0082,-5.2416756 -0.21168,-5.319688 -0.0468,-0.01798 -0.501861,0.03443 -0.997858,0.1209019 C 11.78706,1.6706873 11.011894,1.7515855 10.341426,1.7863947 9.1719972,1.8471057 8.5809432,1.9575056 7.8921372,2.2397775 7.2533642,2.5015336 6.8799822,2.7115097 6.5314237,2.9954146 6.2197666,3.2492569 6.1773484,3.2832049 6.0778513,3.6906009 5.9407091,4.2522131 5.85328,4.5022836 5.6242821,4.8089445 5.4571039,5.0328256 5.2892424,5.1411582 5.2916766,5.0205226 5.2957866,4.8046515 5.4957457,4.1257221 5.6847726,3.7510517 6.2467256,2.6370905 6.9790612,1.838468 8.4062022,0.75873007 c 0.439875,-0.3327997 0.816428,-0.620652 0.816428,-0.6649612 0,-0.065962 -0.320126,-0.090676 -1.753811,-0.090676 -0.513003,0 -0.9043475,-0.00696 -1.1792846,0 z M 7.4688222,2.844315 c 0.09137,0 0.09473,0.092988 -0.03017,0.9974415 C 7.3065482,4.7977243 6.9643732,5.559942 6.5315091,6.0179923 6.2253034,6.3420081 5.8960766,6.4289013 5.6546024,6.2597954 5.5199623,6.1654844 5.3522368,5.8420119 5.3522368,5.6855114 c 0,-0.077572 0.02913,-0.07939 0.1209599,-0.030228 0.1831199,0.097996 0.2594731,0.076032 0.4838088,-0.120904 0.3757941,-0.329913 0.7672547,-1.2751237 0.9676197,-2.3575883 0.02194,-0.119085 0.370594,-0.3324805 0.544286,-0.3324805 z"
     id="path19"
     inkscape:connector-curvature="0"
     style="fill:url(#linearGradient3774);fill-opacity:1" />
</svg>
