<?xml version="1.0" encoding="UTF-8" standalone="no"?>
<svg
   xmlns:dc="http://purl.org/dc/elements/1.1/"
   xmlns:cc="http://creativecommons.org/ns#"
   xmlns:rdf="http://www.w3.org/1999/02/22-rdf-syntax-ns#"
   xmlns:svg="http://www.w3.org/2000/svg"
   xmlns="http://www.w3.org/2000/svg"
   xmlns:xlink="http://www.w3.org/1999/xlink"
   xmlns:sodipodi="http://sodipodi.sourceforge.net/DTD/sodipodi-0.dtd"
   xmlns:inkscape="http://www.inkscape.org/namespaces/inkscape"
   width="48"
   viewBox="0 0 13.546667 13.546667"
   height="48"
   id="svg2"
   version="1.1"
   inkscape:version="0.48.4 r9939"
   sodipodi:docname="distributor-logo.svg">
  <metadata
     id="metadata203">
    <rdf:RDF>
      <cc:Work
         rdf:about="">
        <dc:format>image/svg+xml</dc:format>
        <dc:type
           rdf:resource="http://purl.org/dc/dcmitype/StillImage" />
      </cc:Work>
    </rdf:RDF>
  </metadata>
  <sodipodi:namedview
     pagecolor="#ffffff"
     bordercolor="#666666"
     borderopacity="1"
     objecttolerance="10"
     gridtolerance="10"
     guidetolerance="10"
     inkscape:pageopacity="0"
     inkscape:pageshadow="2"
     inkscape:window-width="1280"
     inkscape:window-height="960"
     id="namedview201"
     showgrid="true"
     inkscape:zoom="8.0000001"
     inkscape:cx="26.751564"
     inkscape:cy="14.952757"
     inkscape:window-x="0"
     inkscape:window-y="0"
     inkscape:window-maximized="1"
     inkscape:current-layer="svg2">
    <inkscape:grid
       type="xygrid"
       id="grid8283" />
  </sodipodi:namedview>
  <defs
     id="defs4">
    <inkscape:perspective
       sodipodi:type="inkscape:persp3d"
       inkscape:vp_x="0.20338983 : 24 : 1"
       inkscape:vp_y="0 : 1000 : 0"
       inkscape:vp_z="48.20339 : 24 : 1"
       inkscape:persp3d-origin="24.20339 : 16 : 1"
       id="perspective3180" />
    <clipPath
       id="clipPath6">
      <rect
         height="208.57"
         y="1580.93"
         x="-830"
         width="477.14"
         fill="#ff0"
         id="rect8" />
    </clipPath>
    <clipPath
       id="clipPath10">
      <rect
         height="208.57"
         y="1580.93"
         x="-830"
         width="477.14"
         fill="#ff0"
         id="rect12" />
    </clipPath>
    <clipPath
       id="clipPath14">
      <rect
         height="208.57"
         y="1580.93"
         x="-830"
         width="477.14"
         fill="#ff0"
         id="rect16" />
    </clipPath>
    <clipPath
       id="clipPath18">
      <rect
         height="208.57"
         y="1580.93"
         x="-830"
         width="477.14"
         fill="#ff0"
         id="rect20" />
    </clipPath>
    <clipPath
       id="clipPath22">
      <rect
         transform="matrix(.99975 -.02255 .02255 .99975 0 0)"
         height="240.87"
         y="780.64"
         x="294.93"
         width="357.87"
         fill="#f00"
         id="rect24" />
    </clipPath>
    <clipPath
       id="clipPath26">
      <rect
         height="195"
         y="857.54"
         width="301.43"
         fill="#fff"
         id="rect28" />
    </clipPath>
    <clipPath
       id="clipPath30">
      <rect
         height="208.57"
         y="1580.93"
         x="-830"
         width="477.14"
         fill="#ff0"
         id="rect32" />
    </clipPath>
    <clipPath
       id="clipPath34">
      <rect
         height="30.01"
         y="977.09"
         x="276.37"
         width="79.48"
         fill="#e20a17"
         id="rect36" />
    </clipPath>
    <clipPath
       id="clipPath38">
      <rect
         transform="rotate(20.37582)"
         height="37.48"
         y="0.064"
         x="8.208"
         width="506.46"
         fill="#162d50"
         id="rect40" />
    </clipPath>
    <clipPath
       id="clipPath42">
      <rect
         transform="rotate(.22918)"
         height="318.4"
         y="758.67"
         x="218.9"
         width="357.38"
         fill="#fff"
         id="rect44" />
    </clipPath>
    <clipPath
       id="clipPath46">
      <rect
         transform="rotate(.22918)"
         height="318.4"
         y="758.67"
         x="218.9"
         width="357.38"
         fill="#fff"
         id="rect48" />
    </clipPath>
    <clipPath
       id="clipPath50">
      <rect
         transform="rotate(20.37582)"
         height="37.48"
         y="0.064"
         x="8.208"
         width="506.46"
         fill="#162d50"
         id="rect52" />
    </clipPath>
    <clipPath
       id="clipPath54">
      <rect
         height="208.57"
         y="1580.93"
         x="-830"
         width="477.14"
         fill="#ff0"
         id="rect56" />
    </clipPath>
    <clipPath
       id="clipPath58">
      <rect
         transform="rotate(.6171)"
         height="235.88"
         y="804.24"
         x="221.39"
         width="350.46"
         id="rect60" />
    </clipPath>
    <clipPath
       id="clipPath62">
      <rect
         transform="rotate(.16206)"
         height="279.03"
         y="793.52"
         x="257.32"
         width="287.43"
         fill="#fff"
         id="rect64" />
    </clipPath>
    <clipPath
       id="clipPath66">
      <rect
         height="195"
         y="0.06"
         width="301.43"
         fill="#fff"
         id="rect68" />
    </clipPath>
    <clipPath
       id="clipPath70">
      <rect
         height="195"
         y="857.54"
         width="301.43"
         fill="#fff"
         id="rect72" />
    </clipPath>
    <path
       clip-path="url(#2)"
       id="0"
       d="m 699.2857,672.93231 a 40.714287,40.714287 0 1 1 -81.42858,0 40.714287,40.714287 0 1 1 81.42858,0 z"
       fill="#4a0" />
    <clipPath
       id="clipPath75">
      <use
         xlink:href="#0"
         transform="matrix(4.3233 0 0 4.3233 -2450.68 -2667.55)"
         id="use77" />
    </clipPath>
    <clipPath
       id="clipPath79">
      <rect
         transform="rotate(27.44968)"
         height="41.39"
         y="815.74"
         x="448.12"
         width="63.987"
         fill="#fff"
         id="rect81" />
    </clipPath>
    <clipPath
       id="clipPath83">
      <rect
         height="195"
         y="857.54"
         width="301.43"
         fill="#fff"
         id="rect85" />
    </clipPath>
    <clipPath
       id="clipPath87">
      <rect
         height="208.57"
         y="1580.93"
         x="-830"
         width="477.14"
         fill="#ff0"
         id="rect89" />
    </clipPath>
    <clipPath
       id="clipPath91">
      <rect
         height="208.57"
         y="1580.93"
         x="-830"
         width="477.14"
         fill="#ff0"
         id="rect93" />
    </clipPath>
    <clipPath
       id="clipPath95">
      <rect
         height="208.57"
         y="1580.93"
         x="-830"
         width="477.14"
         fill="#ff0"
         id="rect97" />
    </clipPath>
    <clipPath
       id="clipPath99">
      <rect
         height="208.57"
         y="1580.93"
         x="-830"
         width="477.14"
         fill="#ff0"
         id="rect101" />
    </clipPath>
    <clipPath
       id="clipPath103">
      <rect
         height="208.57"
         y="1580.93"
         x="-830"
         width="477.14"
         fill="#ff0"
         id="rect105" />
    </clipPath>
    <clipPath
       id="clipPath107">
      <use
         xlink:href="#0"
         id="use109" />
    </clipPath>
    <clipPath
       id="clipPath111">
      <rect
         height="208.57"
         y="1580.93"
         x="-830"
         width="477.14"
         fill="#ff0"
         id="rect113" />
    </clipPath>
    <path
       id="1"
       d="m 699.2857,672.93231 a 40.714287,40.714287 0 1 1 -81.42858,0 40.714287,40.714287 0 1 1 81.42858,0 z"
       fill="#4a0" />
    <clipPath
       id="2">
      <use
         xlink:href="#1"
         id="use117" />
    </clipPath>
    <clipPath
       id="clipPath119">
      <use
         transform="matrix(4.3233 0 0 4.3233 -2450.68 -2667.55)"
         xlink:href="#1"
         id="use121" />
    </clipPath>
    <linearGradient
       gradientUnits="userSpaceOnUse"
       x2="0"
       y2="40"
       y1="280"
       xlink:href="#4"
       id="3"
       gradientTransform="matrix(.175 0 0 .175 302.79999 215.99997)" />
    <linearGradient
       id="4">
      <stop
         stop-color="#151515"
         id="stop125" />
      <stop
         stop-color="#222"
         offset="1"
         id="stop127" />
    </linearGradient>
    <linearGradient
       gradientUnits="userSpaceOnUse"
       x2="0"
       y2="90"
       y1="230"
       xlink:href="#4"
       id="5"
       gradientTransform="matrix(.375 0 0 .375 298 16)" />
    <linearGradient
       gradientUnits="userSpaceOnUse"
       x2="0"
       y2="90"
       y1="230"
       xlink:href="#4"
       id="6"
       gradientTransform="matrix(.25 0 0 .25 299.99999 131.99999)" />
    <clipPath
       id="clipPath131">
      <rect
         color="#bebebe"
         height="20"
         rx="4"
         y="78"
         x="434"
         width="20"
         id="rect133" />
    </clipPath>
    <clipPath
       id="clipPath135">
      <rect
         color="#bebebe"
         height="22"
         rx="4"
         y="77"
         x="433"
         width="22"
         id="rect137" />
    </clipPath>
    <clipPath
       id="clipPath139">
      <rect
         color="#bebebe"
         height="22"
         rx="5"
         y="77"
         x="433"
         width="22"
         id="rect141" />
    </clipPath>
    <clipPath
       id="clipPath143">
      <rect
         color="#bebebe"
         height="30"
         rx="6"
         y="29"
         x="433"
         width="30"
         id="rect145" />
    </clipPath>
    <clipPath
       id="clipPath147">
      <rect
         color="#bebebe"
         fill="url(#6)"
         transform="matrix(0 -1 1 0 0 0)"
         height="60"
         rx="12.5"
         y="142"
         x="306"
         width="60"
         id="rect149" />
    </clipPath>
    <clipPath
       id="clipPath151">
      <rect
         color="#bebebe"
         fill="url(#5)"
         height="90"
         rx="18.75"
         y="31"
         x="307"
         width="90"
         id="rect153" />
    </clipPath>
    <clipPath
       id="clipPath155">
      <rect
         color="#bebebe"
         fill="#6d6d6d"
         opacity="0.2"
         height="30"
         rx="4"
         y="29"
         x="433"
         width="30"
         id="rect157" />
    </clipPath>
    <clipPath
       id="clipPath159">
      <rect
         color="#bebebe"
         fill="#6d6d6d"
         opacity="0.2"
         height="22"
         rx="3"
         y="77"
         x="433"
         width="22"
         id="rect161" />
    </clipPath>
    <clipPath
       id="clipPath163">
      <path
         d="m 144,70 c -49.705627,0 -90,40.29437 -90,90 0,49.70563 40.294373,90 90,90 49.70563,0 90,-40.29437 90,-90 0,-49.70563 -40.29437,-90 -90,-90 z m 0,32.1875 c 32.03251,0 58,25.96748 58,58 0,32.03252 -25.96749,58 -58,58 -32.03251,0 -58,-25.96748 -58,-58 0,-32.03252 25.96749,-58 58,-58 z"
         id="path165" />
    </clipPath>
    <clipPath
       id="clipPath167">
      <rect
         color="#bebebe"
         height="16"
         rx="3"
         y="116"
         x="432"
         width="16"
         id="rect169" />
    </clipPath>
    <clipPath
       id="clipPath171">
      <path
         d="m 145,215 c 33.13708,0 60,-26.86292 60,-60 0,-33.13708 -26.86292,-60 -60,-60 -33.13708,0 -60,26.86292 -60,60 0,12.50698 3.8285,24.10633 10.375,33.71875 L 89,211 111.28125,204.625 C 120.89367,211.1715 132.49302,215 145,215 z"
         id="path173" />
    </clipPath>
    <clipPath
       id="clipPath175">
      <path
         d="m 152,204 a 8,8 0 1 1 -16,0 8,8 0 1 1 16,0 z"
         id="path177" />
    </clipPath>
    <clipPath
       id="clipPath179">
      <path
         d="m 98.03125,23.191212 c -41.492132,1.05238 -74.84375,35.06824 -74.84375,76.812498 0,42.40687 34.405632,76.8125 76.8125,76.8125 42.40687,0 76.8125,-34.40563 76.8125,-76.8125 0,-42.406866 -34.40563,-76.812498 -76.8125,-76.812498 -0.662607,0 -1.310145,-0.0167 -1.96875,0 z M 100,50.659962 c 27.24464,0 49.34375,22.099114 49.34375,49.343748 -1e-5,27.24464 -22.09911,49.34375 -49.34375,49.34375 -27.244636,-1e-5 -49.34375,-22.09911 -49.34375,-49.34375 0,-27.244634 22.099114,-49.343748 49.34375,-49.343748 z"
         id="path181" />
    </clipPath>
    <clipPath
       id="clipPath183">
      <rect
         color="#bebebe"
         fill="#6d6d6d"
         opacity="0.2"
         height="16"
         rx="2"
         y="116"
         x="432"
         width="16"
         id="rect185" />
    </clipPath>
    <clipPath
       id="clipPath187">
      <rect
         color="#bebebe"
         fill="#986767"
         height="240"
         rx="50"
         y="36"
         x="24"
         width="240"
         id="rect189" />
    </clipPath>
    <clipPath
       id="clipPath191">
      <rect
         color="#bebebe"
         fill="url(#3)"
         transform="rotate(90)"
         height="42"
         rx="9"
         y="223"
         x="307"
         width="42"
         id="rect193" />
    </clipPath>
    <linearGradient
       id="al"
       x1="129.342"
       gradientUnits="userSpaceOnUse"
       x2="195.59801"
       gradientTransform="matrix(1,0,0,-1,8.3999,368.3)"
       y1="259.30499"
       y2="259.30499">
      <stop
         stop-color="#FAC700"
         offset="0"
         id="stop7262" />
      <stop
         stop-color="#F7C400"
         offset=".415"
         id="stop7264" />
      <stop
         stop-color="#F7C400"
         offset="1"
         id="stop7266" />
    </linearGradient>
    <linearGradient
       id="am"
       x1="129.293"
       gradientUnits="userSpaceOnUse"
       x2="195.554"
       gradientTransform="matrix(1,0,0,-1,8.3999,368.3)"
       y1="259.311"
       y2="259.311">
      <stop
         stop-color="#F6C200"
         offset="0"
         id="stop7271" />
      <stop
         stop-color="#EFBC00"
         offset=".415"
         id="stop7273" />
      <stop
         stop-color="#EFBC00"
         offset="1"
         id="stop7275" />
    </linearGradient>
    <linearGradient
       id="an"
       x1="129.245"
       gradientUnits="userSpaceOnUse"
       x2="195.50999"
       gradientTransform="matrix(1,0,0,-1,8.3999,368.3)"
       y1="259.31699"
       y2="259.31699">
      <stop
         stop-color="#F1BD00"
         offset="0"
         id="stop7280" />
      <stop
         stop-color="#E8B500"
         offset=".415"
         id="stop7282" />
      <stop
         stop-color="#E8B500"
         offset="1"
         id="stop7284" />
    </linearGradient>
    <linearGradient
       id="ao"
       x1="129.196"
       gradientUnits="userSpaceOnUse"
       x2="195.465"
       gradientTransform="matrix(1,0,0,-1,8.3999,368.3)"
       y1="259.32199"
       y2="259.32199">
      <stop
         stop-color="#EDB800"
         offset="0"
         id="stop7289" />
      <stop
         stop-color="#E0AD00"
         offset=".415"
         id="stop7291" />
      <stop
         stop-color="#E0AD00"
         offset="1"
         id="stop7293" />
    </linearGradient>
    <linearGradient
       id="ap"
       x1="129.14799"
       gradientUnits="userSpaceOnUse"
       x2="195.422"
       gradientTransform="matrix(1,0,0,-1,8.3999,368.3)"
       y1="259.327"
       y2="259.327">
      <stop
         stop-color="#E9B300"
         offset="0"
         id="stop7298" />
      <stop
         stop-color="#D8A500"
         offset=".415"
         id="stop7300" />
      <stop
         stop-color="#D8A500"
         offset="1"
         id="stop7302" />
    </linearGradient>
    <linearGradient
       id="aq"
       x1="129.099"
       gradientUnits="userSpaceOnUse"
       x2="195.379"
       gradientTransform="matrix(1,0,0,-1,8.3999,368.3)"
       y1="259.332"
       y2="259.332">
      <stop
         stop-color="#E4AE00"
         offset="0"
         id="stop7307" />
      <stop
         stop-color="#D19E00"
         offset=".415"
         id="stop7309" />
      <stop
         stop-color="#D19E00"
         offset="1"
         id="stop7311" />
    </linearGradient>
    <linearGradient
       id="ar"
       x1="129.05099"
       gradientUnits="userSpaceOnUse"
       x2="195.338"
       gradientTransform="matrix(1,0,0,-1,8.3999,368.3)"
       y1="259.336"
       y2="259.336">
      <stop
         stop-color="#E0A900"
         offset="0"
         id="stop7316" />
      <stop
         stop-color="#C99600"
         offset=".415"
         id="stop7318" />
      <stop
         stop-color="#C99600"
         offset="1"
         id="stop7320" />
    </linearGradient>
    <linearGradient
       id="w"
       x1="129.00301"
       gradientUnits="userSpaceOnUse"
       x2="195.29601"
       gradientTransform="matrix(1,0,0,-1,8.3999,368.3)"
       y1="259.34"
       y2="259.34">
      <stop
         stop-color="#DCA400"
         offset="0"
         id="stop7325" />
      <stop
         stop-color="#C18E00"
         offset=".415"
         id="stop7327" />
      <stop
         stop-color="#C18E00"
         offset="1"
         id="stop7329" />
    </linearGradient>
    <linearGradient
       id="x"
       x1="128.95399"
       gradientUnits="userSpaceOnUse"
       x2="195.255"
       gradientTransform="matrix(1,0,0,-1,8.3999,368.3)"
       y1="259.34299"
       y2="259.34299">
      <stop
         stop-color="#D79F00"
         offset="0"
         id="stop7334" />
      <stop
         stop-color="#BA8700"
         offset=".415"
         id="stop7336" />
      <stop
         stop-color="#BA8700"
         offset="1"
         id="stop7338" />
    </linearGradient>
    <linearGradient
       id="y"
       x1="128.90601"
       gradientUnits="userSpaceOnUse"
       x2="195.216"
       gradientTransform="matrix(1,0,0,-1,8.3999,368.3)"
       y1="259.34799"
       y2="259.34799">
      <stop
         stop-color="#D39B00"
         offset="0"
         id="stop7343" />
      <stop
         stop-color="#B27F00"
         offset=".415"
         id="stop7345" />
      <stop
         stop-color="#B27F00"
         offset="1"
         id="stop7347" />
    </linearGradient>
    <linearGradient
       id="z"
       x1="128.85699"
       gradientUnits="userSpaceOnUse"
       x2="195.17599"
       gradientTransform="matrix(1,0,0,-1,8.3999,368.3)"
       y1="259.35001"
       y2="259.35001">
      <stop
         stop-color="#CF9600"
         offset="0"
         id="stop7352" />
      <stop
         stop-color="#a70"
         offset=".415"
         id="stop7354" />
      <stop
         stop-color="#a70"
         offset="1"
         id="stop7356" />
    </linearGradient>
    <linearGradient
       id="aa"
       x1="128.80901"
       gradientUnits="userSpaceOnUse"
       x2="195.13699"
       gradientTransform="matrix(1,0,0,-1,8.3999,368.3)"
       y1="259.354"
       y2="259.354">
      <stop
         stop-color="#CA9100"
         offset="0"
         id="stop7361" />
      <stop
         stop-color="#A37000"
         offset=".415"
         id="stop7363" />
      <stop
         stop-color="#A37000"
         offset="1"
         id="stop7365" />
    </linearGradient>
    <linearGradient
       id="ab"
       x1="128.75999"
       gradientUnits="userSpaceOnUse"
       x2="195.099"
       gradientTransform="matrix(1,0,0,-1,8.3999,368.3)"
       y1="259.35599"
       y2="259.35599">
      <stop
         stop-color="#C68C00"
         offset="0"
         id="stop7370" />
      <stop
         stop-color="#9B6800"
         offset=".415"
         id="stop7372" />
      <stop
         stop-color="#9B6800"
         offset="1"
         id="stop7374" />
    </linearGradient>
    <linearGradient
       id="ac"
       x1="128.71201"
       gradientUnits="userSpaceOnUse"
       x2="195.062"
       gradientTransform="matrix(1,0,0,-1,8.3999,368.3)"
       y1="259.358"
       y2="259.358">
      <stop
         stop-color="#C28700"
         offset="0"
         id="stop7379" />
      <stop
         stop-color="#936000"
         offset=".415"
         id="stop7381" />
      <stop
         stop-color="#936000"
         offset="1"
         id="stop7383" />
    </linearGradient>
    <linearGradient
       id="ad"
       x1="128.66299"
       gradientUnits="userSpaceOnUse"
       x2="195.02499"
       gradientTransform="matrix(1,0,0,-1,8.3999,368.3)"
       y1="259.35999"
       y2="259.35999">
      <stop
         stop-color="#BD8200"
         offset="0"
         id="stop7388" />
      <stop
         stop-color="#8C5900"
         offset=".415"
         id="stop7390" />
      <stop
         stop-color="#8C5900"
         offset="1"
         id="stop7392" />
    </linearGradient>
    <linearGradient
       id="ae"
       x1="128.61501"
       gradientUnits="userSpaceOnUse"
       x2="194.989"
       gradientTransform="matrix(1,0,0,-1,8.3999,368.3)"
       y1="259.362"
       y2="259.362">
      <stop
         stop-color="#B97D00"
         offset="0"
         id="stop7397" />
      <stop
         stop-color="#845100"
         offset=".415"
         id="stop7399" />
      <stop
         stop-color="#845100"
         offset="1"
         id="stop7401" />
    </linearGradient>
    <linearGradient
       id="af"
       x1="128.567"
       gradientUnits="userSpaceOnUse"
       x2="194.95399"
       gradientTransform="matrix(1,0,0,-1,8.3999,368.3)"
       y1="259.36401"
       y2="259.36401">
      <stop
         stop-color="#B57800"
         offset="0"
         id="stop7406" />
      <stop
         stop-color="#7C4900"
         offset=".415"
         id="stop7408" />
      <stop
         stop-color="#7C4900"
         offset="1"
         id="stop7410" />
    </linearGradient>
    <linearGradient
       id="ah"
       x1="128.51801"
       gradientUnits="userSpaceOnUse"
       x2="194.918"
       gradientTransform="matrix(1,0,0,-1,8.3999,368.3)"
       y1="259.366"
       y2="259.366">
      <stop
         stop-color="#B07300"
         offset="0"
         id="stop7415" />
      <stop
         stop-color="#754200"
         offset=".415"
         id="stop7417" />
      <stop
         stop-color="#754200"
         offset="1"
         id="stop7419" />
    </linearGradient>
    <linearGradient
       id="ai"
       x1="128.47"
       gradientUnits="userSpaceOnUse"
       x2="194.886"
       gradientTransform="matrix(1,0,0,-1,8.3999,368.3)"
       y1="259.367"
       y2="259.367">
      <stop
         stop-color="#AC6E00"
         offset="0"
         id="stop7424" />
      <stop
         stop-color="#6D3A00"
         offset=".415"
         id="stop7426" />
      <stop
         stop-color="#6D3A00"
         offset="1"
         id="stop7428" />
    </linearGradient>
    <linearGradient
       id="aj"
       x1="128.42101"
       gradientUnits="userSpaceOnUse"
       x2="194.85001"
       gradientTransform="matrix(1,0,0,-1,8.3999,368.3)"
       y1="259.36899"
       y2="259.36899">
      <stop
         stop-color="#A86A00"
         offset="0"
         id="stop7433" />
      <stop
         stop-color="#663200"
         offset=".415"
         id="stop7435" />
      <stop
         stop-color="#663200"
         offset="1"
         id="stop7437" />
    </linearGradient>
  </defs>
  <path
     id="path5799"
     d="m 11.877336,8.9418552 c -0.177589,0.687696 -1.078988,2.1237668 -1.55794,2.7558398 -0.4789155,0.634602 -0.4197195,1.205996 -1.3050115,0.983506 -0.882564,-0.22249 -1.130112,-0.182037 -2.042236,-0.131471 -0.9068181,0.05053 -0.7103938,-0.02532 -1.2781032,0.214905 C 5.1289894,13.004823 3.2320155,9.8520411 3.0786433,9.2655119 2.927999,8.6789128 2.8553116,8.749705 3.2481601,8.1151032 3.6410458,7.4805367 3.697514,6.8534847 4.2168275,6.0848835 4.7361409,5.3137539 5.3361764,4.9218684 5.2931246,4.332776 5.1236452,2.1458021 4.9890707,1.0535792 6.0223534,0.54792052 c 0.9848121,-0.4803758 1.8081791,-0.1946787 2.1337591,-0.0303395 0.139918,0.070792 0.425137,0.2073201 0.637706,0.447508 0.212569,0.23513118 0.403612,0.59162068 0.511241,1.04165678 0.220641,0.9026009 -0.09149,0.6042624 0.158754,1.6383344 0.247549,1.0315087 0.7507185,1.5371675 1.3642075,2.3538063 0.613415,0.8166738 1.253811,2.1642543 1.049315,2.9429687 z"
     inkscape:connector-curvature="0" />
  <path
     style="fill:#f9f9f9;fill-opacity:1"
     inkscape:connector-curvature="0"
     d="m 6.0376084,3.584805 c 0.1614081,-0.06068 0.1342381,-0.068756 0.2418679,-0.288717 0.086104,-0.1693961 0.161744,-0.2422247 0.159052,-0.5001106 0,-0.2528294 -0.083414,-0.3387912 -0.209878,-0.5031305 -0.1210841,-0.156754 -0.3148169,-0.16434 -0.4359003,-0.144112 -0.06996,0.01012 -0.1614081,0.093546 -0.2233317,0.2174332 -0.040362,0.083434 -0.07265,0.1896221 -0.075378,0.3008669 -0.00808,0.2983387 0.01888,0.4121119 0.091486,0.6143753 0.086142,0.2376947 0.2960191,0.3615811 0.4520823,0.3033953 z"
     id="path5803" />
  <path
     id="path5845"
     d="m 5.8869192,2.5558246 c 0.080722,0 0.18297,0.050566 0.2313666,0.11883 0.051124,0.068264 0.088794,0.16434 0.088794,0.2730557 0,0.16181 -0.01884,0.3413197 -0.1210461,0.3969421 -0.032288,0.0177 -0.102248,0.032868 -0.14261,0.032868 -0.091486,0 -0.099558,-0.055622 -0.1856621,-0.1390561 -0.029598,-0.03034 -0.118392,-0.17698 -0.118392,-0.2983386 0,-0.075848 -0.01884,-0.1845661 0.051124,-0.2806407 0.048434,-0.070792 0.1103201,-0.10366 0.1964241,-0.10366 z"
     inkscape:connector-curvature="0" />
  <path
     style="fill:#f9f9f9;fill-opacity:1"
     inkscape:connector-curvature="0"
     d="m 7.7058695,3.6176728 c 0.403611,-0.040453 0.54622,-0.1870938 0.61887,-0.4424513 0.06462,-0.2275464 0.06731,-0.4803759 -0.112974,-0.7761862 C 8.0422495,2.1159015 7.9453825,2.0703571 7.7004875,2.052659 7.3238205,2.02232 7.1461945,2.2700923 7.0628185,2.4470729 c -0.08879,0.1921501 -0.06996,0.1643401 -0.06461,0.4070551 0.0054,0.2553577 0.158642,0.3265363 0.252855,0.4858188 0.09414,0.15679 0.409068,0.2802894 0.454811,0.277726 z"
     id="path5893" />
  <path
     id="path5935"
     d="m 7.6735725,2.5457114 c 0.201806,0 0.320198,0.169396 0.36056,0.3868289 0.01614,0.098604 -0.0081,0.2123766 -0.07265,0.2907538 -0.07265,0.091018 -0.201806,0.1466421 -0.306745,0.1466421 -0.09956,0 -0.212569,0.01516 -0.271728,-0.06068 -0.0592,-0.078378 -0.07265,-0.2528295 -0.07265,-0.3767159 0,-0.1390561 0.04305,-0.2376595 0.118392,-0.3160367 0.05647,-0.058186 0.158716,-0.070792 0.244821,-0.070792 z"
     inkscape:connector-curvature="0" />
  <path
     style="fill:#676767;fill-opacity:1"
     inkscape:connector-curvature="0"
     d="m 7.7162955,2.6649276 c 0.02141,-0.020156 0.06861,0 0.117906,0.052392 0.05363,0.05643 0.05576,0.100746 0.0129,0.132982 -0.04077,0.03227 -0.05793,-0.048354 -0.08577,-0.078552 -0.0472,-0.046352 -0.08793,-0.06858 -0.04503,-0.10682 z"
     id="path5979" />
  <path
     style="fill:#676767;fill-opacity:1"
     inkscape:connector-curvature="0"
     d="m 5.905762,2.7301364 c 0.023544,-0.034202 0.117794,-0.01812 0.152064,0.052322 0.03427,0.070442 0.027804,0.2234029 0.00426,0.2314443 C 5.999974,3.0320227 6.019258,2.9474647 5.965706,2.8710186 5.91219,2.7986106 5.882218,2.7643746 5.905762,2.7301366 z"
     id="path5889" />
  <path
     style="fill:#676767;fill-opacity:1"
     inkscape:connector-curvature="0"
     d="m 6.7034924,2.7904292 c 0.047536,-0.01236 0.095148,-0.0098 0.176992,0.03206 0.073322,0.040032 0.04066,0.085926 -0.040398,0.068474 -0.074294,-0.01588 -0.0583,-0.01324 -0.116674,-0.023668 -0.095296,-0.01646 -0.111928,-0.053586 -0.01992,-0.076868 z"
     id="path6007" />
  <path
     style="fill:url(#ag)"
     inkscape:connector-curvature="0"
     d="m 12.982224,12.182233 c 0,0.909414 -1.569189,1.646656 -3.5048805,1.646656 -1.935653,0 -3.5048421,-0.737207 -3.5048421,-1.646656 0,-0.909448 1.5691891,-1.646656 3.5048421,-1.646656 1.9356535,3.5e-5 3.5048805,0.737243 3.5048805,1.646656 z"
     id="path5788" />
  <path
     style="fill:url(#ak)"
     inkscape:connector-curvature="0"
     d="m 7.7625925,12.164535 c 0,0.909378 -1.6113435,1.646622 -3.5990926,1.646622 -1.9877115,0 -3.59905544,-0.737209 -3.59905544,-1.646622 0,-0.909413 1.61134394,-1.646656 3.59905544,-1.646656 1.9877117,3.5e-5 3.5990926,0.737243 3.5990926,1.646656 z"
     id="path5795" />
  <path
     style="fill:#f9f9f9;fill-opacity:1"
     inkscape:connector-curvature="0"
     d="M 6.4681271,4.7857446 C 6.1183306,4.798386 5.5640375,3.8780871 5.5505839,4.2598594 c -0.01076,0.3236215 0.00808,0.3185649 0.00808,0.6320734 0,0.2098484 -0.102248,0.225018 -0.3228891,0.5410549 -0.113012,0.1668681 -0.2018058,0.3463761 -0.2717651,0.5284134 -0.043052,0.108716 -0.083414,0.2224898 -0.115702,0.3337346 -0.01346,0.055622 -0.03767,0.1137741 -0.051124,0.1693961 -0.11032,0.3817723 -0.5031689,0.852035 -0.5946542,1.2338073 -0.091486,0.3792441 -0.199116,0.6219602 -0.185662,1.1301823 0.01346,0.5081871 0.01884,0.3615109 0.18297,0.4879607 0.1614441,0.1264501 0.3282707,0.2452095 0.5838912,0.4576211 0.2690743,0.2199617 0.8287862,0.6042618 0.9040896,0.7230918 0.080722,0.121358 0.078032,0.394414 0.029598,0.482904 -0.048434,0.08596 -0.4708799,0.134 -0.4681893,0.134 -0.00266,0 0.3686319,0.480376 0.4413193,0.548605 0.06996,0.06577 0.3713225,0.381807 1.5983012,0.166868 0.691521,-0.121324 1.226979,-0.485398 1.614446,-0.836865 0.500478,-0.457587 0.247548,-0.589058 0.312126,-0.819132 0.09421,-0.3312419 0.400958,-0.4550932 0.470917,-0.8292807 0.0081,-0.053094 0.02691,-0.093546 0.07803,-0.171924 0.07803,-0.111246 0.0592,-0.3312065 0.0592,-0.5334349 0,-0.5259202 -0.06462,-1.0618833 -0.193771,-1.4562972 C 9.5113945,6.8135063 9.3230425,6.5556202 9.1616355,6.2218855 8.8387095,5.5569444 8.8548905,5.2586057 8.5669815,4.8338524 8.2387105,4.3433632 8.4001555,4.0172133 7.9642555,4.0374397 7.4206505,4.0651808 6.9820595,4.7655181 6.4681271,4.7857446 z"
     id="path6027" />
  <path
     id="path6069"
     d="m 6.653781,3.0513351 c 0.196424,-0.022754 0.4654985,0.022754 0.5893105,0.108716 0.115702,0.080906 0.196424,0.1238861 0.301326,0.1567541 0.352524,0.108716 0.815295,0.159282 0.793769,0.4576211 -0.02422,0.3564543 -0.134537,0.5157719 -0.449354,0.6092837 -0.25293,0.07332 -0.704938,0.4854324 -1.0547717,0.4854324 -0.156064,0 -0.3740133,0.00758 -0.5004781,-0.035396 C 6.2124993,4.7932942 6.0429824,4.6011439 5.8438674,4.4469181 5.6447523,4.2952204 5.4590911,4.1334096 5.4537471,3.9210329 5.4456375,3.6960499 5.6017379,3.6226942 5.8223414,3.4432206 5.9380808,3.3471454 6.1479212,3.1878629 6.2932589,3.1170707 c 0.1345,-0.063172 0.2206034,-0.05053 0.3605221,-0.065736 z"
     inkscape:connector-curvature="0"
     style="fill:#ffd133;fill-opacity:1" />
  <path
     style="fill:#995900;fill-opacity:1"
     inkscape:connector-curvature="0"
     d="m 6.2022295,3.3123462 c -0.01214,0.028548 0.072948,0.082836 0.115516,0.045684 0.045668,-0.037116 0.10038,-0.07139 0.118654,-0.082836 0.08203,-0.051444 0.051684,-0.08856 -0.085132,-0.0657 -0.136892,0.02286 -0.136892,0.074268 -0.149038,0.102852 z"
     id="path6159" />
  <path
     style="fill:#ffd133;fill-opacity:1"
     inkscape:connector-curvature="0"
     d="m 11.836197,9.501012 c 0.166826,0.2275114 -0.0054,0.523357 0.115702,0.705429 0.199114,0.298339 0.600036,0.59917 0.753408,0.682604 0.11032,0.06321 0.266384,0.123852 0.260965,0.308417 -0.0081,0.209883 -0.118392,0.265506 -0.180242,0.323656 -0.123812,0.116336 -0.748064,0.407056 -1.162401,0.672526 -0.522005,0.336264 -0.702284,0.485433 -0.871801,0.64468 -0.263693,0.247808 -0.513932,0.331207 -0.9148535,0.331207 -0.40092,0 -0.5812,-0.07834 -0.704937,-0.182038 -0.123812,-0.101132 -0.261002,-0.359053 -0.247548,-0.743319 0.01076,-0.381772 0.139918,-0.730712 0.201768,-1.324861 0.02694,-0.255322 0.02422,-0.571359 0.02422,-0.852034 0,-0.3539616 0.0054,-0.6548284 0.0861,-0.7003027 0.145338,-0.085962 0.177588,-0.091018 0.349797,-0.091018 0.17217,0 0.250239,0.01008 0.306744,0.063172 0.05378,0.050566 0.03229,0.1668681 0.01342,0.3312415 -0.01614,0.1643741 0.06731,0.2174333 0.1506825,0.2856973 0.08341,0.065736 0.158754,0.1491699 0.422484,0.1693959 0.263693,0.0177 0.360522,-0.02275 0.484334,-0.09608 0.123774,-0.07332 0.298635,-0.2047917 0.36325,-0.2806406 0.06189,-0.07332 0.21526,-0.3261146 0.244858,-0.3261146 0.02687,0 0.204496,-0.05815 0.304054,0.078376 z"
     id="path6555" />
  <path
     style="fill:#ffd133;fill-opacity:1"
     inkscape:connector-curvature="0"
     d="M 2.4508481,9.8904045 C 2.2087184,10.054745 1.5951917,10.039575 1.4391286,10.231689 c -0.153372,0.192186 0.00542,0.470297 0.0027,0.986034 0,0.219997 -0.040362,0.386864 -0.067268,0.520829 -0.03767,0.169396 -0.061886,0.28826 0.01346,0.409583 0.137228,0.21494 0.3578313,0.268034 1.6198272,0.515772 0.6753764,0.131472 1.3130826,0.472791 1.7409107,0.505624 0.4278121,0.03037 0.5192973,-0.103625 0.7802994,-0.321094 C 5.7873692,12.631004 5.8707824,12.699268 5.86271,12.221421 5.8546378,11.746137 5.5290579,11.604552 5.1604262,11.055912 4.7917943,10.507273 4.7325981,10.406141 4.4877404,10.042067 4.2428828,9.6830492 3.758549,9.0307495 3.4814026,9.0231295 3.2607617,9.0180729 3.1369875,9.1293179 2.9997596,9.2608241 2.8625316,9.3923305 2.693015,9.7260302 2.4508481,9.8904045 z"
     id="path6731" />
  <path
     style="fill:#676767;fill-opacity:1"
     d="m 9.6131975,6.2970825 c -0.0452,-9.087e-4 -0.0657,0.01436 -0.05292,0.052917 0,0 0.371904,0.2028394 0.7055565,0.5820835 0.01076,0.020226 0.375239,0.5118672 0.299861,1.164167 -0.01076,0.010113 -0.03558,0.2893925 -0.07056,0.4056946 -0.08614,0.2781131 -0.200009,0.4383855 -0.105833,0.4586112 0.08341,0.020191 0.305241,-0.5384756 0.299861,-0.7584724 0.07803,-0.207285 0.07564,-0.7346529 -0.123472,-1.0759725 C 10.495738,7.0022246 10.429671,6.8514733 10.389309,6.8438883 10.102745,6.4760216 9.7487855,6.2998082 9.6131975,6.2970825 z"
     id="path6907"
     inkscape:connector-curvature="0" />
  <path
     inkscape:connector-curvature="0"
     d="m 9.8584635,9.2962553 c 0.05654,0.053094 0.104976,-0.078376 0.1614445,-0.121394 0.05651,-0.04298 0.14799,-0.136528 0.330961,-0.136528 0.18297,0 0.16948,-0.00506 0.161408,-0.070828 -0.0054,-0.063172 -0.0592,-0.058116 -0.220603,-0.035396 -0.161444,0.020226 -0.269074,0.098638 -0.3336905,0.1693961 -0.06181,0.0683 -0.131808,0.164374 -0.09952,0.194748 z"
     id="path7083"
     style="fill:#676767;fill-opacity:1" />
  <path
     inkscape:connector-curvature="0"
     d="m 10.587655,8.9650138 c 0,0.080906 0.174898,0.1087161 0.341725,0.1314361 0.164136,0.022754 0.295981,0.05313 0.304053,0.21494 0.0081,0.1592481 -0.03498,0.2730205 0.04036,0.2604141 0.161445,-0.027846 0.220641,-0.1921861 0.217951,-0.2680341 0,-0.075848 -0.118392,-0.2123416 -0.330924,-0.2881904 -0.1561,-0.055622 -0.269075,-0.08094 -0.406303,-0.085998 -0.183008,-0.00752 -0.166864,0.035432 -0.166864,0.035432 z"
     id="path7127"
     style="fill:#676767;fill-opacity:1" />
  <path
     style="fill:#995900;fill-opacity:1"
     inkscape:connector-curvature="0"
     d="m 5.6384815,4.1195392 c 0.07392,0.047968 0.075902,0.05643 0.1849141,0.123394 0.173404,0.132314 0.4815307,0.162092 0.6323993,0.166798 0.3450503,0.051514 0.9618656,-0.2514598 1.2060886,-0.3901649 0.12299,-0.086488 0.350543,-0.2651548 0.435713,-0.2681746 0.052506,0.052146 -0.024666,0.062926 -0.134052,0.13256 -0.145972,0.097585 -0.270942,0.1810535 -0.492256,0.2990055 C 7.2344285,4.299399 6.8704306,4.4917601 6.4044089,4.4657749 6.1599251,4.4320994 6.1590281,4.4298168 6.0080476,4.3574094 5.9183562,4.2965898 5.7127759,4.1955986 5.6384815,4.1195392 z"
     id="path7259" />
  <path
     id="use10864"
     d="m 7.1617285,3.3277802 c 0.01214,0.028548 -0.07295,0.082836 -0.115516,0.045684 -0.04567,-0.037116 -0.10038,-0.07139 -0.118654,-0.082836 -0.08203,-0.051444 -0.051684,-0.08856 0.08513,-0.0657 0.136892,0.02286 0.136892,0.074268 0.149038,0.102852 z"
     inkscape:connector-curvature="0"
     style="fill:#995900;fill-opacity:1" />
</svg>
